<?xml version="1.0" standalone="no"?>
<!DOCTYPE svg PUBLIC "-//W3C//DTD SVG 20010904//EN"
 "http://www.w3.org/TR/2001/REC-SVG-20010904/DTD/svg10.dtd">
<svg version="1.0" xmlns="http://www.w3.org/2000/svg"
 width="598.000000pt" height="598.000000pt" viewBox="0 0 598.000000 598.000000"
 preserveAspectRatio="xMidYMid meet">
<metadata>
Created by potrace 1.11, written by Peter Selinger 2001-2013
</metadata>
<g transform="translate(0.000000,598.000000) scale(0.100000,-0.100000)"
fill="#000000" stroke="none">
<path d="M274 5966 c-3 -8 -3 -596 -1 -1308 4 -1339 5 -1350 46 -1613 122
-771 536 -1512 1167 -2089 407 -374 923 -709 1407 -916 l96 -41 98 42 c636
270 1292 743 1733 1249 453 520 744 1134 844 1780 40 257 41 307 41 1625 l0
1280 -2713 3 c-2322 2 -2713 0 -2718 -12z m2716 -4626 c0 -5 -5 -10 -11 -10
-5 0 -7 5 -4 10 3 6 8 10 11 10 2 0 4 -4 4 -10z"/>
</g>
</svg>
