<?xml version="1.0" encoding="utf-8"?>
<!-- Generator: Adobe Illustrator 15.0.0, SVG Export Plug-In . SVG Version: 6.00 Build 0)  -->
<!DOCTYPE svg PUBLIC "-//W3C//DTD SVG 1.1//EN" "http://www.w3.org/Graphics/SVG/1.1/DTD/svg11.dtd">
<svg xmlns="http://www.w3.org/2000/svg" xmlns:xlink="http://www.w3.org/1999/xlink" version="1.1" id="Shape_5_2_" x="0px" y="0px" width="40px" height="40px" viewBox="0 0 40 40" enable-background="new 0 0 40 40" xml:space="preserve">
<g>
	<g>
		<path d="M28.333,15.883c-3.515-0.939-7.047-0.841-7.047-0.841c-1.808-1.989-3.479-3.814-7.005-4.837    c0.03-1.723-1.406-2.55-3.011-1.768c-0.373-0.694-0.848-1.054-1.603-1.055C8.708,7.381,8.17,8,8.17,8C5.25,7.604,4.792,6,3.375,6    C2.375,6,2,6.766,2,8c0,1,1.417,3.039,1.417,3.039l1.261-1.257l1.776,2.458l1.255-1.425l1.713,2.424l1.37-1.298l2.083,2.15    L11.406,14l-1.484,1.281L8.438,14l-1.484,1.281L5.469,14l-1.484,1.281L2.5,14c0,0-0.62,1.036-0.345,1.65    c0.66,1.368,3.421,2.32,7.421,2.32c1.49,2.07,2.778,2.943,4.857,3.781C15.079,19.382,16.867,19,17.938,19    C19.855,19,21,20.215,21,22.25c0,0.66-0.22,1.428-0.509,2.13c1.13,0.548,2.511,1.116,4.509,1.62c0-2.215,1.434-4.287,4.352-4.005    C26.76,23,26,24.29,26,27.5c0,0-2,1.667-8.217,0.808C13.821,27.76,10.167,26.209,6,29.042c0,0,8.167,4.562,17.417,4.562    c7.452,0,14.583-3.35,14.583-9.021C38,20,34.697,17.583,28.333,15.883z M19.071,25.014C19.518,24.285,20,23.101,20,22.25    c0-1.594-0.792-2.25-2.063-2.25c-1.833,0-2.458,1.233-2.667,2.604C15,24.38,15,24.38,15,24.38C13.544,24.938,13.083,26,13.083,26    s3.343,0,4.292,0C18.297,26,18.713,25.598,19.071,25.014z"/>
	</g>
</g>
</svg>
