<?xml version="1.0" encoding="utf-8"?>
<!-- Generator: Adobe Illustrator 15.0.0, SVG Export Plug-In . SVG Version: 6.00 Build 0)  -->
<!DOCTYPE svg PUBLIC "-//W3C//DTD SVG 1.1//EN" "http://www.w3.org/Graphics/SVG/1.1/DTD/svg11.dtd">
<svg xmlns="http://www.w3.org/2000/svg" xmlns:xlink="http://www.w3.org/1999/xlink" version="1.1" id="Shape_5_2_" x="0px" y="0px" width="40px" height="40px" viewBox="0 0 40 40" enable-background="new 0 0 40 40" xml:space="preserve">
<g>
	<g>
		<path d="M5,22.458c0-0.542,0.041-1.051,0.106-1.537C3.481,22.42,2,24.66,2,27.875C2,33.813,6.315,36,12.126,36    c2.102,0,4.291-0.46,6.306-1.074c-1.943-0.691-3.868-1.518-5.643-2.448C7.473,29.689,5,27.337,5,22.458z M28.967,17.435    C28.977,17.596,29,17.75,29,17.917c0,3.496-1.918,6.041-4.939,6.825C26.418,25.547,28,26.778,28,27.292    c0,0.49-0.247,0.702-1.247,0.702c-3.503,0-10.743-2.623-12.678-4.111c-0.897-0.69-0.558-1.34,0.101-1.505    C15.438,22.063,19.172,24,22,24c3.597,0,6-2.339,6-6.083c0-5.06-2.546-6.931-12.011-10.381c-0.116-2.414-4.171-3.49-5.897-3.49    C5.943,4.045,5.521,4,4.906,4.377C4.15,4.841,3.829,6.844,4.221,8.02C5.031,10.444,8.025,14,11.536,14    c1.008,0,1.78-0.212,2.386-0.55c2.872,0.692,6.999,2.397,7.328,3.55c0.143,0.5-0.133,0.812-1.32,0.333    C18.938,16.935,16.01,16,13.063,16C8.976,16,6,19.128,6,22.458c0,2.917,1.012,5.347,4.489,7.531    C14.021,32.209,21.625,36,28.625,36C35.516,36,38,32.557,38,27.833C38,23.946,36.547,20.409,28.967,17.435z M13.4,10.648    c-1.252-1.326-2.444-2.15-3.576-2.867C9.617,8.001,9.327,8.142,9,8.142c-0.631,0-1.142-0.512-1.142-1.143    c0-0.148,0.033-0.288,0.084-0.418c-0.001,0-0.001-0.001-0.002-0.001c0.001,0,0.002,0,0.002,0C8.11,6.158,8.518,5.858,9,5.858    c0.609,0,1.095,0.479,1.129,1.079c1.99,0.476,4.139,1.393,4.623,2.729C15.162,10.8,13.94,11.219,13.4,10.648z"/>
	</g>
</g>
</svg>
