<?xml version="1.0" encoding="utf-8"?>
<!-- Generator: Adobe Illustrator 15.0.0, SVG Export Plug-In . SVG Version: 6.00 Build 0)  -->
<!DOCTYPE svg PUBLIC "-//W3C//DTD SVG 1.1//EN" "http://www.w3.org/Graphics/SVG/1.1/DTD/svg11.dtd">
<svg xmlns="http://www.w3.org/2000/svg" xmlns:xlink="http://www.w3.org/1999/xlink" version="1.1" id="Shape_5_2_" x="0px" y="0px" width="40px" height="40px" viewBox="0 0 40 40" enable-background="new 0 0 40 40" xml:space="preserve">
<g>
	<g>
		<path d="M36,25V15c-4,1-7,3-7,3s-1-2-1-4c0-5,6-10,6-12c0,0-7.813,2.605-14,5.24v25.116C26.356,35.183,34,38,34,38c0-2-6-7-6-12    c0-2,1-4,1-4S32,24,36,25z M26,33c0,0-2-0.667-2-2.594V9.594C24,7.563,26,7,26,7V33z M18,8.123c-1.621,0.741-3.029,1.462-4,2.103    v19.177c1.085,0.631,2.469,1.328,4,2.044V8.123z M13.188,27.938C12.686,26.49,12,23.277,12,22c-1.104,0-2-0.895-2-2s0.896-2,2-2    v-5.928c-0.815,0.956-1.399,1.916-2.563,3.928C8.07,17.99,6,20.491,6,21c0,1,3,4,6,7c0,4.667,3,9,8,10    C17.25,35.813,14.448,31.574,13.188,27.938z"/>
	</g>
</g>
</svg>
