<?xml version="1.0" encoding="utf-8"?>
<!-- Generator: Adobe Illustrator 15.0.0, SVG Export Plug-In . SVG Version: 6.00 Build 0)  -->
<!DOCTYPE svg PUBLIC "-//W3C//DTD SVG 1.1//EN" "http://www.w3.org/Graphics/SVG/1.1/DTD/svg11.dtd">
<svg xmlns="http://www.w3.org/2000/svg" xmlns:xlink="http://www.w3.org/1999/xlink" version="1.1" id="Shape_5_2_" x="0px" y="0px" width="40px" height="40px" viewBox="0 0 40 40" enable-background="new 0 0 40 40" xml:space="preserve">
<g>
	<g>
		<path d="M28.062,20.001c0,0,2.348,2.595,3.63,3.581c0.75,0.577,3.808,2.419,6.308,2.419c0,0-3.375-1.999-5.166-3.802    c-2.99-3.01-3.553-4.198-4.367-4.198c-0.784,0-3.485,1.137-5.139,1.867c-0.141-0.377-0.31-0.745-0.516-1.088l4.458-2.779    c0,0,2.123,1.593,3.698,2.518c0.734,0.431,3.573,1.816,7.031,1.482c0,0-4.542-1.767-5.775-2.714    c-3.531-2.71-3.935-3.286-4.758-3.286c-0.754,0-3.827,2.53-5.379,3.849c-0.278-0.274-0.58-0.497-0.89-0.691    c1.116-1.794,2.802-4.596,2.802-5.158c0-0.677-1.793-1.844-4-3.794c-0.917-0.81-4-6.206-4-6.206c0,2.438,2.081,6.394,2.681,7.126    c0.833,1.017,3.38,2.979,3.38,2.979l-1.925,4.543c-0.27-0.085-0.538-0.132-0.802-0.158C19.75,15.707,20,14.854,20,14    c0-3-5.346-5.654-5.346-5.654S13,4,11,4S8,5,8,5s1.614,0,2.518,0.903c0.904,0.904,1.433,3.343,1.433,3.343l-2.704,2.704    c0,0-2.439-0.529-3.343-1.433C5,9.614,5,7.938,5,7.938S4,9,4,11s4.346,3.654,4.346,3.654S11,20,14,20    c0.854,0,1.707-0.25,2.492-0.667c0.025,0.265,0.072,0.533,0.158,0.802l-4.544,1.926c0,0-1.963-2.547-2.979-3.38    C8.394,18.081,4.438,16,2,16c0,0,5.396,3.083,6.206,4c1.95,2.207,3.117,4,3.794,4c0.562,0,3.365-1.687,5.159-2.803    c0.194,0.31,0.417,0.611,0.691,0.89c-1.319,1.551-3.85,4.626-3.85,5.38c0,0.823,0.576,1.227,3.286,4.758    C18.233,33.458,20,38,20,38c0.334-3.458-1.051-6.297-1.482-7.031C17.593,29.394,16,27.271,16,27.271l2.779-4.459    c0.343,0.206,0.711,0.374,1.088,0.516C19.138,24.979,18,27.683,18,28.467c0,0.814,1.188,1.377,4.198,4.367    C24.001,34.625,26,38,26,38c0-2.5-1.842-5.558-2.419-6.308C22.595,30.41,20,28.063,20,28.063l1.142-4.36    c0.548,0.121,1.069,0.193,1.515,0.236c-1.105,1.709-0.863,4.065,1.129,6.058c2.287,2.286,6.892,2.349,7.726,1.516    c0.832-0.835,0.771-5.438-1.516-7.726c-1.992-1.992-4.348-2.236-6.057-1.13c-0.043-0.446-0.115-0.967-0.236-1.514L28.062,20.001z"/>
	</g>
</g>
</svg>
