<?xml version="1.0" encoding="utf-8"?>
<!-- Generator: Adobe Illustrator 15.0.0, SVG Export Plug-In . SVG Version: 6.00 Build 0)  -->
<!DOCTYPE svg PUBLIC "-//W3C//DTD SVG 1.1//EN" "http://www.w3.org/Graphics/SVG/1.1/DTD/svg11.dtd">
<svg xmlns="http://www.w3.org/2000/svg" xmlns:xlink="http://www.w3.org/1999/xlink" version="1.1" id="Shape_5_2_" x="0px" y="0px" width="40px" height="40px" viewBox="0 0 40 40" enable-background="new 0 0 40 40" xml:space="preserve">
<g>
	<g>
		<path d="M35.754,28.239C35.163,26.813,35,24.918,35,23.237C35,21.534,33.333,18,30.374,18H19.875    c-2.063,0-3.016,1.001-3.798,0.375c-1.459-1.167-2.579-2.521-3.621-3.985c0.838-0.602,1.592-1.709,1.542-2.143    c-0.034-0.296-1.249-0.355-2.629,0.023c0.021-0.204,0.069-0.435,0.171-0.652c0.276-0.588,1.32-0.498,2.223-1.226    c0.903-0.729,0.625-1.961,1.156-2.684c0.531-0.724,1.734-0.507,2.292-1.182s0.177-1.542,0.586-2.083    c0.615-0.813,1.524-1.063,2.171-2.095c0.129-0.206-0.01-0.458-0.236-0.298c-1.81,1.281-2.551,0.908-3.096,1.815    c-0.308,0.512-0.23,1.079-0.563,1.493S14.33,5.46,13.538,6.432c-0.525,0.814-0.643,1.968-1.105,2.341    c-0.161,0.13-0.399,0.211-0.677,0.294c0.024-0.599-0.351-1.248-0.21-1.743c0.187-0.658,1.329-0.686,1.559-1.309    c0.229-0.625-0.443-1.248-0.293-1.742c0.225-0.744,0.929-1.09,1.097-2.012c0.033-0.183-0.187-0.359-0.324-0.196    c-1.096,1.309-1.892,1.136-2.019,1.942c-0.072,0.456,0.216,0.891,0.084,1.272c-0.132,0.382-1.493,0.367-1.813,1.264    c-0.145,0.729,0.2,1.66-0.063,2.03C9.51,8.945,8.553,9.099,8.016,9.859c-0.336,0.475-0.411,1.381-0.394,2.124    c-0.193,0.068-0.383,0.151-0.564,0.267c-1.667,1.062-4.597,2.671-4.96,3.75c-0.154,0.458-0.02,1.958,1.106,1.958    c0.45,0,1.005,0.003,1.575,0.008c-0.204-0.635-0.476-1.587-0.38-1.892c0.115-0.366,3.132-2.283,3.632-2.283    c0.829,0-0.484,1.538-1.875,2.864c-0.206,0.196-0.253,0.852-0.259,1.32c1.149,0.012,2.119,0.025,2.119,0.025    c1.234,2.061,3.079,5.33,4.412,7.185c0.557,0.775,1.481,1.359,2.705,1.792c0.301,1.218,0.668,2.257,0.767,2.827    c0.143,0.833,0.139,4.401,0.139,5.401c0,0.375-0.828,2.793-0.828,2.793h1.604c0.246-0.735,0.789-2.155,0.825-2.625    c0.066-0.871,0.862-5.249,1.152-6.826c0.536,0.694,1.062,1.453,1.13,1.848C20.064,31.229,20.605,34,20.605,35    c0,0.375-0.396,3-0.396,3h1.604c0.246-0.735,0.357-2.362,0.394-2.832c0.081-1.066-0.312-7.188-0.312-7.188    c0-0.002-0.001-0.005-0.001-0.007C22.455,27.99,23.029,28,23.625,28c0.795,0,1.767-0.161,2.799-0.419    c1.521,1.673,4.351,3.82,3.968,5.133C29.423,36.036,28,38,28,38h1.781c0,0,1.717-3.373,2.976-6.338    c0.298-0.701-0.438-1.741-0.832-2.638c1.968,1.335,4.065,2.733,4.129,3.689C36.275,36.036,35.557,38,35.557,38h1.781    c0,0,0.508-3.373,0.704-6.338C38.103,30.741,36.167,29.235,35.754,28.239z"/>
	</g>
</g>
</svg>
