<?xml version="1.0" encoding="utf-8"?>
<!-- Generator: Adobe Illustrator 15.0.0, SVG Export Plug-In . SVG Version: 6.00 Build 0)  -->
<!DOCTYPE svg PUBLIC "-//W3C//DTD SVG 1.1//EN" "http://www.w3.org/Graphics/SVG/1.1/DTD/svg11.dtd">
<svg xmlns="http://www.w3.org/2000/svg" xmlns:xlink="http://www.w3.org/1999/xlink" version="1.1" id="Shape_5_2_" x="0px" y="0px" width="40px" height="40px" viewBox="0 0 40 40" enable-background="new 0 0 40 40" xml:space="preserve">
<g>
	<g>
		<path d="M20,4.025c-4.796,0-8.74,1.038-11.536,2.992C8.261,6.219,7.965,5.51,7.563,5.625c-0.595,0.17-0.626,1.674-0.585,2.618    c-0.081,0.08-0.175,0.15-0.253,0.232C4.586,10.733,1.99,16.527,1.99,19.13c0,0.436,0.751,0.87,1.502,0.87    c0.751,0,2.783-7.167,8.485-7.167c0.478,0,1.021,0.072,1.594,0.188C10.671,16.33,10,19.223,10,22.848    C10,23.639,10.667,24,11.875,24c1.433,0,1.884-0.378,1.884-0.378s-0.662-0.507-0.634-0.871c0.064-0.855,1.126-4.083,6.504-7.59    C21.022,15.793,22,16.308,22,16.308s-0.637,1.718,0.417,3.705c-4.5,2.605-8.905,5.853-11.182,10.854    C9.568,34.529,10.184,38,10.184,38s2.091-1.061,4.816-2.372V34c0-3.875,2-6,2-6s-1,1.906-1,6v1.148    c1.606-0.766,3.355-1.577,5-2.301V31c0-3.875,2-6,2-6s-1,1.906-1,6v1.415c0.854-0.365,1.669-0.7,2.391-0.973    c0.895-0.338,1.766-0.69,2.609-1.058V29c0-3.875,2-6,2-6s-1,1.906-1,6v0.931c5.771-2.691,9.949-6.304,9.949-12.317    C37.949,8.588,28.162,4.025,20,4.025z"/>
	</g>
</g>
</svg>
