<?xml version="1.0" encoding="utf-8"?>
<!-- Generator: Adobe Illustrator 15.0.0, SVG Export Plug-In . SVG Version: 6.00 Build 0)  -->
<!DOCTYPE svg PUBLIC "-//W3C//DTD SVG 1.1//EN" "http://www.w3.org/Graphics/SVG/1.1/DTD/svg11.dtd">
<svg xmlns="http://www.w3.org/2000/svg" xmlns:xlink="http://www.w3.org/1999/xlink" version="1.1" id="Shape_5_2_" x="0px" y="0px" width="40px" height="40px" viewBox="0 0 40 40" enable-background="new 0 0 40 40" xml:space="preserve">
<g>
	<g>
		<path d="M38,23.375C38,17.833,31.708,14,26.313,14c-3.609,0-6.658,0.953-9.125-0.5C13.008,11.039,11.385,2.409,6.25,2    C4.313,1.846,2.534,2.248,2.204,2.622c-0.331,0.375-0.135,1.549,0.2,1.749C2.831,4.626,4.938,6.075,6.75,6.075    c3.373,3,2.702,8.908,9.391,15.912c0.21,2.034,0.672,3.57,0.813,5.32c0.901,0.105,1.75,0.22,2.503,0.329    c0.533,0.077,1.032,0.146,1.515,0.208c0.038-0.438,0.068-0.897,0.087-1.392c0.856,0.379,1.848,0.628,2.98,0.628    c0,0,0.086,0.36,0.216,0.894c1.186-0.11,3.525-0.479,4.841-1.711c1.731-1.622,2.011-2.753,2.011-2.753l0.004,0.005    c-0.041,0.189-0.069,0.39-0.069,0.61c0,3.958-5.047,4.736-7.042,4.875c-3,0.209-6.375-1-11.958-1c-4.608,0-9.099,2.598-10.01,5.57    c-0.153,0.499,0.276,0.53,0.5,0.266C3.458,32.743,5.313,30,11.125,30c2.407,0,4.054,0.446,5.633,0.993    c-0.287,1.867-0.728,3.651-0.728,5.007H19c0.367-1.369,0.798-2.535,1.172-3.843c1.432,0.413,3.125,0.739,5.406,0.818    C26.083,34.746,26.084,36,26.084,36H29c0,0,0.024-1.264,0.043-3.202c1.092-0.178,2.078-0.467,2.954-0.854    C32.541,33.404,33,34.471,33,36h3.042c0-2.873-0.276-4.854-0.482-6.635C37.24,27.471,38,25.183,38,23.375z"/>
	</g>
</g>
</svg>
