<?xml version="1.0" encoding="utf-8"?>
<!-- Generator: Adobe Illustrator 15.0.0, SVG Export Plug-In . SVG Version: 6.00 Build 0)  -->
<!DOCTYPE svg PUBLIC "-//W3C//DTD SVG 1.1//EN" "http://www.w3.org/Graphics/SVG/1.1/DTD/svg11.dtd">
<svg version="1.1" id="Shape_5_2_" xmlns="http://www.w3.org/2000/svg" xmlns:xlink="http://www.w3.org/1999/xlink" x="0px" y="0px"
	 width="40px" height="40px" viewBox="0 0 40 40" enable-background="new 0 0 40 40" xml:space="preserve">
<g>
	<g>
		<path d="M14.945,27.227l12.281-12.281c-0.321-0.249-0.629-0.481-0.921-0.698l1.271-2.208C29.825,12.828,31,13,32,13s4-1,4-1v-2
			c0,0-3,1-4,1c-0.889,0-1.937-0.182-3.802-0.843c-0.731-0.259-1.359-0.358-1.914,0.198l-1.596,2.814
			c-0.212-0.121-0.423-0.226-0.635-0.328c-0.031-0.982-0.153-2.455-0.566-3.862c-1.131-3.859-3.198-7.02-8.789-7.02
			c-2.115,0-3.84,0.219-3.84,0.511c0,0.291,2.232,0.176,3.811,0.64c3.038,0.892,5.245,3.396,5.245,7.768
			c0,0.364-0.021,0.769-0.055,1.188c-0.393,0.045-0.783,0.115-1.169,0.228C17.977,12.004,17.249,12,16,12
			c-1,0-2.307-0.279-5.218-2.722C9.36,8.085,4.459,3.6,4.03,4.03s4.055,5.33,5.248,6.752C11.721,13.693,12,15,12,16
			c0,1.248,0.004,1.977,0.292,2.69c-0.113,0.386-0.183,0.777-0.228,1.169c-0.419,0.034-0.825,0.055-1.188,0.055
			c-4.372,0-6.876-2.208-7.768-5.245c-0.464-1.579-0.349-3.811-0.64-3.811c-0.292,0-0.511,1.725-0.511,3.84
			c0,5.591,3.161,7.658,7.02,8.789c1.409,0.413,2.882,0.535,3.864,0.566c0.102,0.211,0.207,0.423,0.327,0.634l-2.815,1.597
			c-0.556,0.555-0.457,1.183-0.198,1.914C10.818,30.063,11,31.111,11,32c0,1-1,4-1,4h2c0,0,1-3,1-4s-0.172-2.175-0.96-4.423
			l2.209-1.272C14.465,26.598,14.696,26.904,14.945,27.227z M33.584,18.705C34.434,19.369,35,19.577,38,20v-2
			c0,0-2.264-0.1-2.982-0.56c-0.718-0.46-1.445-1.279-3.037-2.718c-0.569-0.515-1.473-0.646-2.229,0.111l-1.186,1.186
			c-0.184-0.151-0.367-0.304-0.55-0.45l-5.886,5.886l9.914,9.891c1.503-1.984,3.93-8.193-0.909-13.034
			c-0.316-0.316-0.676-0.648-1.049-0.984l0.892-0.892C32.115,17.442,33.152,18.367,33.584,18.705z M15.569,28.017
			c0.146,0.183,0.299,0.366,0.45,0.55l-1.186,1.186c-0.757,0.756-0.625,1.659-0.111,2.229c1.438,1.592,2.258,2.319,2.718,3.037
			C17.9,35.736,18,38,18,38h2c-0.423-3-0.631-3.566-1.295-4.416c-0.338-0.432-1.262-1.469-2.269-2.605l0.892-0.892
			c0.336,0.373,0.669,0.732,0.986,1.049c4.832,4.832,11.031,2.418,13.023,0.915l-9.913-9.889L15.569,28.017z"/>
	</g>
</g>
</svg>
