<?xml version="1.0" encoding="utf-8"?>
<!-- Generator: Adobe Illustrator 15.0.0, SVG Export Plug-In . SVG Version: 6.00 Build 0)  -->
<!DOCTYPE svg PUBLIC "-//W3C//DTD SVG 1.1//EN" "http://www.w3.org/Graphics/SVG/1.1/DTD/svg11.dtd">
<svg xmlns="http://www.w3.org/2000/svg" xmlns:xlink="http://www.w3.org/1999/xlink" version="1.1" id="Shape_5_2_" x="0px" y="0px" width="40px" height="40px" viewBox="0 0 40 40" enable-background="new 0 0 40 40" xml:space="preserve">
<g>
	<g>
		<path d="M37.665,25.914c-0.648-1.023-1.374-1.573-1.668-5.701C35.807,17.536,35.317,12,32.525,12    c-1.341,0-2.943,1.829-4.144,3.472c-0.28-0.083-0.573-0.154-0.895-0.2c-3.696-0.536-7.926-2.216-10.389-3.717    C13.469,9.344,11.921,8,11.406,8c-0.521,0-4.634,1.226-6.373,3.5c0,0.656-0.161,1.52-0.685,1.849C2.807,14.315,2,15.029,2,15.438    c0,0.338,0.079,1.451,0.976,1.987c0.973,0.581,2.463,0.42,3.243,0.257c0.706-0.208,1.289-0.257,1.791-0.208    c-0.004,0.04-0.018,0.061-0.018,0.108c0,4.335,1.98,6.377,1.98,10.96s-0.697,6.268-1.142,6.392C6.955,35.456,6.598,36,7.247,36    h2.94C11.031,36,13,31.938,13,27.688v-3.016c0.035,0.035,0.071,0.073,0.104,0.104c0.635,1.102,1.231,2.304,1.71,3.766    c1.502,4.583,1.461,6.268,1.016,6.392C13.955,35.456,13.598,36,14.247,36h2.94c0.843,0,1.078-3.149,0.6-8.28    c-0.08-0.856-0.204-1.677-0.347-2.433c2.509-0.348,5.607-1.3,7.444-2.16c-0.371,1.833-0.811,4.247-0.853,5.578    c-0.046,1.479,0.027,3.998,0.099,5.597c0.007,0.153-0.18,0.608-0.598,0.7C22.029,35.333,21.406,36,22.655,36H24.5    c0.555,0,0.942,0.004,1.344-0.256c0.614-0.397,0.862-6.744,1.656-8.015c0.066-0.106,0.167-0.251,0.286-0.419    c0.032,0.286,0.066,0.562,0.104,0.813c0.22,1.463,1.078,4.721,1.078,6.085c0,0.154-0.167,0.581-0.56,0.732    C27.125,35.438,26.494,36,27.655,36H29.5c0.5,0,0.942,0.004,1.344-0.256c0.614-0.397-0.223-4.555,0.117-7.905    C31.313,24.375,32,23.281,32,21c0-1.694-0.477-3.485-1.861-4.625C31.141,14.878,31.818,14,32.533,14c1.021,0,1.352,4.7,1.47,6.355    c0.287,4.04,1.102,6.198,1.673,6.972C36.762,28.799,38.679,27.513,37.665,25.914z"/>
	</g>
</g>
</svg>
