<?xml version="1.0" encoding="utf-8"?>
<!-- Generator: Adobe Illustrator 15.0.0, SVG Export Plug-In . SVG Version: 6.00 Build 0)  -->
<!DOCTYPE svg PUBLIC "-//W3C//DTD SVG 1.1//EN" "http://www.w3.org/Graphics/SVG/1.1/DTD/svg11.dtd">
<svg xmlns="http://www.w3.org/2000/svg" xmlns:xlink="http://www.w3.org/1999/xlink" version="1.1" id="Shape_5_2_" x="0px" y="0px" width="40px" height="40px" viewBox="0 0 40 40" enable-background="new 0 0 40 40" xml:space="preserve">
<g>
	<g>
		<path d="M28,25.207c-0.45-0.45-0.664-1.125-0.8-1.96c0.878,0.406,3.22,1.39,4.092,0.759c1.874-1.355,1.46-4.802,0.5-6.506    c-0.75-1.331-1.29-1.991-6.175-3.305c0,0-0.858-4.346-2.116-5.648c-0.583-0.604-3.097-0.214-3.882-0.075    c-2.424-2.294-4.395-3.731-7.365-4.789C10.101,2.758,7.132,2.08,5,2.014C5,4.848,5.128,6.16,6.255,8.381    C6.476,8.816,5.949,9.691,5.394,10C3.78,6.633,3.999,3.798,4,2.01C3.428,2.028,2.932,2.085,2.661,2.277    c-0.44,0.313-0.652,1.192-0.652,2.93c0,1.537,0.357,3.157,0.942,4.791c2.241,3.606,7.499,4.166,7.966,4.003    c0.844-0.295,1.396-2.964,1.516-3.574C12.59,9.624,13,9.776,13,10.594c0,0.573-0.554,3.777-1.543,4.357    c-0.492,0.288-4.407,0.056-7.352-2.252c0.434,0.875,0.914,1.744,1.427,2.595c0.192,0.318,0.389,0.611,0.584,0.918    C6.925,22.112,9,25,9,25c0.762-0.777,1.087-2.18,0.982-3.679c1.875,2.039,3.823,3.587,5.82,4.594    c0.545,1.786,1.289,3.739,2.486,5.146c0.928,1.09,4.099,1.697,5.391,0.405c0.384-0.384,0.223-2.338-0.431-3.755    c0.664,0.161,1.251,0.458,1.915,1.122C26.601,30.271,26.3,34.4,29,38c2.296-1.758,2.615-6.385,2.615-6.385S36.19,31.325,38,29    C34.4,26.3,29.438,26.645,28,25.207z M10.562,6.561c-0.587,0.585-1.537,0.586-2.122,0c-0.586-0.585-0.585-1.537,0-2.122    c0.586-0.586,1.536-0.585,2.121,0C11.146,5.025,11.147,5.975,10.562,6.561z"/>
	</g>
</g>
</svg>
