<?xml version="1.0" encoding="utf-8"?>
<!-- Generator: Adobe Illustrator 15.0.0, SVG Export Plug-In . SVG Version: 6.00 Build 0)  -->
<!DOCTYPE svg PUBLIC "-//W3C//DTD SVG 1.1//EN" "http://www.w3.org/Graphics/SVG/1.1/DTD/svg11.dtd">
<svg xmlns="http://www.w3.org/2000/svg" xmlns:xlink="http://www.w3.org/1999/xlink" version="1.1" id="Shape_5_2_" x="0px" y="0px" width="40px" height="40px" viewBox="0 0 40 40" enable-background="new 0 0 40 40" xml:space="preserve">
<g>
	<g>
		<path d="M38.084,6.583C35.744,5.199,35.125,3.69,38,2.25c0,0-1.5-0.25-4-0.25c-6.188,0-10,4-10,4s0.807,5.748-2.769,9.058L21,15    c0,0,0-3-5-3l0.944,3.821l-1.123,1.123L12,16c0,5,3,5,3,5l0.058,0.231C11.748,24.807,6,24,6,24s-4,3.813-4,10c0,2.5,0.25,4,0.25,4    c1.44-2.875,2.949-2.256,4.333,0.084C7.188,35.173,10,34,11.978,36c0.807-3.828,6.834-7.813,12.064-6C25,27,27,29,30,30    c-1-3-3-5,0-5.958c-1.813-5.229,2.172-11.257,6-12.064C34,10,35.173,7.188,38.084,6.583z"/>
	</g>
</g>
</svg>
