<?xml version="1.0" encoding="utf-8"?>
<!-- Generator: Adobe Illustrator 15.0.0, SVG Export Plug-In . SVG Version: 6.00 Build 0)  -->
<!DOCTYPE svg PUBLIC "-//W3C//DTD SVG 1.1//EN" "http://www.w3.org/Graphics/SVG/1.1/DTD/svg11.dtd">
<svg xmlns="http://www.w3.org/2000/svg" xmlns:xlink="http://www.w3.org/1999/xlink" version="1.1" id="Shape_5_2_" x="0px" y="0px" width="40px" height="40px" viewBox="0 0 40 40" enable-background="new 0 0 40 40" xml:space="preserve">
<g>
	<g>
		<path d="M38,18.662c0-3.001-5.383-8.608-9.002-8.608c-2.379,0-5.49,1.344-8.748,0C19.42,9.711,18.666,8,15.374,8    c-2.541,0-3.59,1.452-3.791,1.5c-3.542,0.841-5.711,1.999-6.999,2.962c-0.977-0.512-1.803-0.612-2.318-0.194    c-0.463,0.377-0.307,1.624,0.377,2.705c-0.398,1.337-0.778,3.477-0.599,3.902c0.142,0.338,0.51,0.772,0.596,1.039    c0.142,0.445,0.114,1.268-0.451,2.908c-0.324,0.939,1.925,1.598,2.968,0.915c0.794-0.518,1.129-1.046,1.759-1.627    c0.373,0,0.638,0.199,1.323,0.414c0.87-0.29,1.4-0.916,2.017-1.319C10.122,22.321,10,23.525,10,24.846    c0,2.131,0.379,3.873,0.379,4.686c0,1.315-2.063,1.272-2.063,2.469c0,0,2.781,0,3.5,0s1.155-0.816,1.653-2.656    c0.443-1.639,1.016-3.599,1.567-5.242C15.694,26.376,17,28.754,17,29.531c0,1.315-2.063,1.272-2.063,2.469c0,0,2.781,0,3.5,0    S20,31.094,20,29.188v-4.948C21.443,24.686,22.857,25,24,25c0.708,0,1.408-0.07,2.086-0.199c0.344,2.234,1.622,4.992,1.539,5.355    c-0.106,0.465-1.592,0.864-1.592,1.844c0,0,3.144,0,3.925,0c0.305,0,0.609-0.089,0.823-0.437c0.396-0.644,0.517-4.297,0.748-5.286    c0.028-0.123,0.15-0.314,0.341-0.557c1.536,2.105,3.382,3.85,3.396,4.183c0.029,0.7-1.232,1.117-1.232,2.097c0,0,0.967,0,1.748,0    c0.609,0,1.005-0.313,1.273-0.62C37.553,30.813,38,29.863,38,29.744c0-0.603-1-4.244-1-5.744C37,22.473,38,19.864,38,18.662z"/>
	</g>
</g>
</svg>
