<?xml version="1.0" encoding="utf-8"?>
<!-- Generator: Adobe Illustrator 15.0.0, SVG Export Plug-In . SVG Version: 6.00 Build 0)  -->
<!DOCTYPE svg PUBLIC "-//W3C//DTD SVG 1.1//EN" "http://www.w3.org/Graphics/SVG/1.1/DTD/svg11.dtd">
<svg xmlns="http://www.w3.org/2000/svg" xmlns:xlink="http://www.w3.org/1999/xlink" version="1.1" id="Shape_5_2_" x="0px" y="0px" width="40px" height="40px" viewBox="0 0 40 40" enable-background="new 0 0 40 40" xml:space="preserve">
<g>
	<g>
		<path d="M30.205,6.813c-4.06-1.581-9.438-0.24-11.819,0.856c-0.674-0.106-1.514-0.32-2.47-0.572    C15.785,6.35,15.297,5.994,14.738,6c-0.412,0.005-0.977,0.178-1.541,0.403c-0.359-0.085-0.726-0.169-1.102-0.25    C9.918,5.691,7.351,6.152,5.8,6.63C4.2,7.124,2.304,8.317,2.087,9.176c-0.295,1.167,0.121,2.813,0.732,3.761    c1.426,2.211,4.149,3.193,6.756,4.523c0.707,0.819,1.367,1.668,2.061,2.514C11.405,19.979,11.19,19.987,11,20    c-2.458,0.168-1.914,3-1.914,3l2.289-0.978c0.749,0.34,1.784,0.591,2.87,0.765c1.448,1.313,3.243,2.517,5.755,3.462    C17.417,26.585,16.979,28,16.979,28H25c-6.75,2.813-9,4.464-9,6.232C16,35.516,17.813,36,19.719,36C30.25,36,38,30,38,19.688    C38,13.591,35.489,8.87,30.205,6.813z"/>
	</g>
</g>
</svg>
