<?xml version="1.0" encoding="utf-8"?>
<!-- Generator: Adobe Illustrator 15.0.0, SVG Export Plug-In . SVG Version: 6.00 Build 0)  -->
<!DOCTYPE svg PUBLIC "-//W3C//DTD SVG 1.1//EN" "http://www.w3.org/Graphics/SVG/1.1/DTD/svg11.dtd">
<svg xmlns="http://www.w3.org/2000/svg" xmlns:xlink="http://www.w3.org/1999/xlink" version="1.1" id="Shape_5_2_" x="0px" y="0px" width="40px" height="40px" viewBox="0 0 40 40" enable-background="new 0 0 40 40" xml:space="preserve">
<g>
	<g>
		<path d="M25.842,31.865c2.277,0.388,4.583-0.152,5.228-0.797c0.643-0.645,1.183-2.95,0.796-5.227L25.842,31.865z M37.885,16.556    c-1.096-2.069-10.349-2.475-15.114-2.544l3.404-3.805c0,0,4.276,2.918,6.826,1.168c0,0-6.471-4.378-8.002-3.092    c-0.404,0.34-2.121,2.916-3.337,4.776c-0.434-0.292-0.924-0.508-1.434-0.682c0.691-1.712,1.772-4.481,1.772-5.052    c0-2-8-3.327-8-3.327c1,3,6,4.058,6,4.058l-1.204,3.993c-0.41-0.043-0.825-0.059-1.242-0.024C17.839,11.299,18,10.562,18,9.848    c0-1.714-1.963-2.003-4.021-1.782C13.993,7.678,14,7.313,14,7c0-0.623-2.449-2.798-2.688-2.931    c-0.417-0.231-0.942-0.081-1.173,0.336c-0.232,0.417-0.082,0.941,0.336,1.173c0.253,0.141,1.54,1.017,2.369,1.891    c0,0.17-0.012,0.444-0.029,0.774C11.136,8.56,9.63,9.105,9.368,9.368C9.105,9.63,8.56,11.136,8.243,12.815    c-0.33,0.017-0.604,0.029-0.774,0.029c-0.874-0.829-1.75-2.116-1.891-2.369c-0.231-0.417-0.756-0.568-1.173-0.336    c-0.417,0.23-0.567,0.755-0.336,1.173C4.202,11.551,6.377,14,7,14c0.313,0,0.678-0.007,1.066-0.021    C7.845,16.037,8.134,18,9.848,18c0.714,0,1.452-0.161,2.178-0.445c-0.035,0.416-0.024,0.832,0.018,1.242l-3.986,1.202    c0,0-1.058-5-4.058-6c0,0,1.327,8,3.327,8c0.568,0,3.311-1.069,5.025-1.761c0.173,0.512,0.416,0.988,0.708,1.422    c-1.861,1.217-4.437,2.934-4.777,3.338C6.997,26.529,11.375,33,11.375,33c1.75-2.55-1.168-6.826-1.168-6.826l3.806-3.405    c0.07,4.767,0.475,14.019,2.544,15.114l0.226,0.12l0.256-0.004c1.474-0.021,3.532-1.999,4.803-4.006    c1.159,1.175,2.032,2.006,2.032,2.006c0.342-1.043,0.038-2.275-0.578-3.51l-0.481-0.481C22.933,31.641,23,31.298,23,30.999    c0-0.085-0.014-0.185-0.022-0.279c0.116,0.083,0.231,0.168,0.354,0.242l7.63-7.631c-0.075-0.122-0.16-0.239-0.244-0.356    c0.096,0.009,0.198,0.023,0.284,0.023c0.298,0,0.64-0.067,1.006-0.184l0.481,0.482c1.235,0.616,2.468,0.92,3.511,0.578    c0,0-0.831-0.874-2.006-2.032c2.007-1.272,3.987-3.33,4.008-4.805l0.004-0.256L37.885,16.556z M20.562,17.766    c0.594,0.468,1.269,0.949,1.99,1.425l-3.359,3.359c-0.476-0.722-0.957-1.396-1.425-1.99L20.562,17.766z M17.025,36.999    c-0.79-0.418-2.025-5.098-2.025-16c0-0.732,0.721-1.28,1.227-0.725C18.656,22.938,22,29.015,22,30.999    C22,32.783,18.635,36.977,17.025,36.999z M22.038,27.704c-0.32-0.73-0.702-1.505-1.127-2.288l4.507-4.506    c0.783,0.424,1.558,0.806,2.288,1.126L22.038,27.704z M31.001,21.998c-1.984,0-8.062-3.344-10.725-5.773    c-0.555-0.506-0.008-1.227,0.725-1.227c10.902,0,15.582,1.235,16,2.025C36.979,18.633,32.785,21.998,31.001,21.998z"/>
	</g>
</g>
</svg>
