<?xml version="1.0" encoding="utf-8"?>
<!-- Generator: Adobe Illustrator 15.0.0, SVG Export Plug-In . SVG Version: 6.00 Build 0)  -->
<!DOCTYPE svg PUBLIC "-//W3C//DTD SVG 1.1//EN" "http://www.w3.org/Graphics/SVG/1.1/DTD/svg11.dtd">
<svg version="1.1" id="Shape_5_2_" xmlns="http://www.w3.org/2000/svg" xmlns:xlink="http://www.w3.org/1999/xlink" x="0px" y="0px"
	 width="40px" height="40px" viewBox="0 0 40 40" enable-background="new 0 0 40 40" xml:space="preserve">
<g>
	<g>
		<path d="M32.398,12.625c-2.43-1.029-4.988-1.625-8.676-3.307c-3.477-1.585-7.179-3.381-10.5-3.381
			c-2.02,0-4.948,0.888-5.823,4.192c-5.875,0-6.378,3.746-6.378,6.835c0,1.414,0.378,3.473,0.378,3.473
			c-0.331,0.962-0.646,1.637-0.116,2.398C1.994,23.854,2.77,24,3.119,24c0.469,0,1.14-0.146,1.514-0.232
			C5.431,25.781,6.245,27.733,7.671,28c1.352,0.253,2.167-0.719,2.891-1.866c0.418,1.316,1.183,2.557,2.63,3.214
			c0.244,1.092,0.378,2.407,0.347,2.613C13.464,32.452,12.962,34,12.962,34h2.656c0,0,0.283-1.06,0.336-1.7
			c0.021-0.257,0.063-1.152,0.075-2.335c0.78,0.063,1.573,0.072,2.296,0.062c0.157,0.899,0.238,1.771,0.213,1.935
			C18.464,32.452,17.962,34,17.962,34h2.657c0,0,0.283-1.06,0.336-1.7c0.021-0.26,0.064-1.169,0.075-2.367
			c1.898-0.158,2.087-1.535,2.595-4.589c0.361,0,0.893,0.143,1.432,0.298c1.411,1.433,2.819,2.759,3.1,3.733
			c0.102,0.351-0.42,2.43-0.531,2.798C27.467,32.691,26.894,34,26.894,34h2.45c0,0,0.301-0.711,0.506-1.238
			c0.797-2.04,1.207-3.15,1.207-3.952c0-0.885-1.068-1.887-1.038-3.208c1.424,1.448,2.854,2.79,3.138,3.773
			c0.102,0.351-0.42,2.43-0.531,2.798C32.467,32.691,31.894,34,31.894,34h2.45c0,0,0.301-0.711,0.506-1.238
			c0.797-2.04,1.207-3.15,1.207-3.952c0-1.042-1.498-2.242-0.916-3.94c0.312-0.908,0.665-1.703,0.981-2.425
			c-0.088,0.888-0.181,2.06-0.181,3.059c0,1.456,1.084,2.506,1.084,2.506s0-5.747,0-8.549v-0.001
			C37.024,17.508,34.898,13.684,32.398,12.625z M8.483,15.984c-0.791,0-1.556-0.738-1.272-1.667
			c0.375-1.229,1.908-0.363,2.147-1.962c0.097-0.646-0.112-1.072-0.398-1.786c0.997,0.461,1.935,1.324,1.935,2.708
			C10.895,14.813,9.864,15.984,8.483,15.984z"/>
	</g>
</g>
</svg>
