<?xml version="1.0" encoding="utf-8"?>
<!-- Generator: Adobe Illustrator 15.0.0, SVG Export Plug-In . SVG Version: 6.00 Build 0)  -->
<!DOCTYPE svg PUBLIC "-//W3C//DTD SVG 1.1//EN" "http://www.w3.org/Graphics/SVG/1.1/DTD/svg11.dtd">
<svg xmlns="http://www.w3.org/2000/svg" xmlns:xlink="http://www.w3.org/1999/xlink" version="1.1" id="Shape_5_2_" x="0px" y="0px" width="40px" height="40px" viewBox="0 0 40 40" enable-background="new 0 0 40 40" xml:space="preserve">
<g>
	<g>
		<path d="M36.47,23.888c-0.074,0.995-0.564,2.235-1.808,2.235c-3.921,0-1.263-6.104-1.175-9.45c0.004-0.086,0.009-0.173,0.008-0.26    c-0.004-0.233-0.021-0.453-0.058-0.651C32.963,13.245,30,12,28,12c-2.044,0-5.889,0.531-8.563,0.531    c-1.485,0-4.296-0.875-5.438-0.875c-1.889,0-5.561,0.974-7.578,1.706v0c-0.107-0.591-0.923-1.916-2.096-1.027    c-0.59,0.447-0.338,1.466,0.057,2.369c-1.111,1.216-1.444,1.902-1.522,3.4c-0.035,0.667-0.788,1.116-0.788,2.079    c0,0.661,1.321,1.724,2.222,1.699c0.765-0.021,0.902-0.276,1.52-0.904c1.747-0.967,2.792-1.679,4.554-2.102    c0,0,0.215,1.066,0.399,1.73c-1.412,1.019-2.607,1.87-3.141,2.393c-0.603,0.589-1.709,2.386-1.511,3.291    c0.111,0.509,0.912,0.93,1.432,0.697c0.404-0.179,0.527-0.79,0.757-1.826c0.863-1.107,2.362-1.067,5.372-2.273    c0.311-0.124,0.534-0.267,0.711-0.417c1.009,3.079,1.669,4.968,1.315,5.61c-0.162,0.293-0.903,0.227-1.181,0.635    C14.184,29.214,14.268,30,14.926,30h1.547c0.763,0,1.525-1.344,1.521-2.252c-0.004-0.904-0.004-2.818-0.081-5.42    c1.905,0.221,3.861,0.4,5.496,0.518c0.886,1.79,1.833,3.299,1.498,4.061c-0.169,0.385-0.683,1.343-1.102,1.441    C22.275,28.708,22.908,30,23.656,30H24.5c0.305,0,0.607-0.08,0.852-0.311c0.875-0.825,1.618-2.126,1.698-2.32    c0.409-0.981-0.054-2.273,0.534-3.619c0.109-0.25,0.272-0.532,0.462-0.838c1.006,1.599,2.675,2.912,2.81,3.687    c0.107,0.62-0.949,1.751-1.19,1.824C28.539,28.764,28.772,30,29.805,30h0.937c0.75,0,0.952-0.493,1.235-1.049    c0.187-0.366,0.414-0.869,0.607-1.329c0.501,0.317,1.174,0.501,2.078,0.501c2.485,0,3.31-2.639,3.338-3.971    C38.028,22.826,36.561,22.656,36.47,23.888z"/>
	</g>
</g>
</svg>
