<?xml version="1.0" encoding="utf-8"?>
<!-- Generator: Adobe Illustrator 15.0.0, SVG Export Plug-In . SVG Version: 6.00 Build 0)  -->
<!DOCTYPE svg PUBLIC "-//W3C//DTD SVG 1.1//EN" "http://www.w3.org/Graphics/SVG/1.1/DTD/svg11.dtd">
<svg xmlns="http://www.w3.org/2000/svg" xmlns:xlink="http://www.w3.org/1999/xlink" version="1.1" id="Shape_5_2_" x="0px" y="0px" width="40px" height="40px" viewBox="0 0 40 40" enable-background="new 0 0 40 40" xml:space="preserve">
<g>
	<g>
		<path d="M34.028,35.592c-0.594-0.305-1.17-0.712-1.671-1.11C34.854,32.776,38,29.902,38,26.375c0-3.098-1.994-7.921-10.734-12.969    c-3.732-2.155-4.972-4.552-7.078-5.359C18.062,7.232,17.867,8.589,4.208,2.21C3.338,1.804,2.674,2.023,2.316,2.631    C3.142,3.112,5.575,4.512,8,5.729c8.166,4.1,8.117,3.263,9.957,9.34c0.313,1.035-0.648,1.311-0.957,0.29    c-1.617-5.338-1.866-4.716-9.334-8.688c-2.981-1.585-4.846-2.67-5.619-3.129C2.036,3.649,2.021,3.754,2.021,3.87    c0,1.464,1,12.693,12.116,18.716c0.158,0.086,0.313,0.163,0.47,0.246C13.535,24.306,12,27.092,12,31c0,1,0.728,1.597,1.353,0.254    c0.86-1.849,4.162-3.233,4.61-6.768c5.773,2.631,10.349,3.701,10.349,3.701s2.107,0.932,1.649,2.849    c-0.349,1.458-0.81,2.124-1.285,2.78c-0.906,0.338-1.64,0.604-3.958,1.255c-3.012,0.847-5.201,1.939-4.678,2.846    c0.27,0.465,1.037,0,1.979,0c1.939,0,4.323,0.125,5.948-0.667c0.166,0.5,2.698,0.584,5.865,0.584c1,0,1.646,0.547,2.084-0.038    C36.181,37.443,35.703,36.451,34.028,35.592z"/>
	</g>
</g>
</svg>
