<?xml version="1.0" encoding="utf-8"?>
<!-- Generator: Adobe Illustrator 15.0.0, SVG Export Plug-In . SVG Version: 6.00 Build 0)  -->
<!DOCTYPE svg PUBLIC "-//W3C//DTD SVG 1.1//EN" "http://www.w3.org/Graphics/SVG/1.1/DTD/svg11.dtd">
<svg xmlns="http://www.w3.org/2000/svg" xmlns:xlink="http://www.w3.org/1999/xlink" version="1.1" id="Shape_5_2_" x="0px" y="0px" width="40px" height="40px" viewBox="0 0 40 40" enable-background="new 0 0 40 40" xml:space="preserve">
<g>
	<g>
		<path d="M37.125,25.219c0-1.174,1.653-5.583,0.375-9.134c-0.426-1.184-2.281-2.916-5.601-3.756C28.295,11.417,24.446,8,20.498,8    c-1.637,0-3.931,0.137-5.96,0.397c-0.723-1.106-1.431-1.679-1.775-1.431c-0.317,0.229-0.608,0.962-0.865,1.895    c-0.96,0.234-1.657,0.513-1.858,0.836c-1.087,1.746-1.451,4.602-3.978,5.893C2.907,17.203,2,18,2,18l0.719,2.949    c0,0,0.9,0.044,2.155,0c1.13,0.258,2.778,1.556,5.403,1.556c1.347,0,3.347-0.505,3.347-0.505c0.824,0.348,1.569,0.938,2.449,1.56    c-1.001,0.975-1.652,2.071-1.855,2.659c-0.281,0.813,1.49,3.844,1.49,3.844l1.099-1.66c0,0-0.412-0.953-0.318-1.172    c0.056-0.132,1.754-0.291,3.229-0.594c1.299,1.627,2.525,2.7,2.525,3.135c0,0.331-0.202,2.229-0.202,2.229h1.839    c0,0,0.286-1.938,0.286-2.625c0-0.479-0.105-1.926-0.222-3.377C23.964,25.998,23.98,26,24,26c1.245,0,2.445-0.169,3.588-0.453    c0.556,0.861,1.713,1.266,2.412,1.37c-0.76,1.034-1.061,1.657-1.311,2.762l2.19-0.493c0.318-0.552,0.564-0.942,2.482-2.081    c1.29,0.69,2.427,0.99,2.513,1.799C35.942,29.533,35.459,32,35.459,32h2c0,0,0.575-3.542,0.575-4    C38.034,27,37.125,25.818,37.125,25.219z M5.874,20.938c-2.17,0-1.784-3.329-1.442-3.329c0.499,0,0.549,2.1,2.63,1.916    C7.062,20.18,6.78,20.938,5.874,20.938z"/>
	</g>
</g>
</svg>
