<?xml version="1.0" encoding="utf-8"?>
<!-- Generator: Adobe Illustrator 15.0.0, SVG Export Plug-In . SVG Version: 6.00 Build 0)  -->
<!DOCTYPE svg PUBLIC "-//W3C//DTD SVG 1.1//EN" "http://www.w3.org/Graphics/SVG/1.1/DTD/svg11.dtd">
<svg xmlns="http://www.w3.org/2000/svg" xmlns:xlink="http://www.w3.org/1999/xlink" version="1.1" id="Shape_5_2_" x="0px" y="0px" width="40px" height="40px" viewBox="0 0 40 40" enable-background="new 0 0 40 40" xml:space="preserve">
<g>
	<g>
		<path d="M36.002,30.621c0-0.808-1.06-1.554-2.252-4.621c-0.734-1.889-0.789-5.299-1.292-6.505    c-0.261-0.626-0.56-1.168-0.933-1.629c0.595-0.57,1.857-1.805,2.268-2.39c0.543-0.775-0.876-1.517-1.21-1.142    c-0.228,0.256-1.791,1.496-2.763,2.258C28.905,16.202,27.71,16,26.083,16c-3.748,0-8.083-0.25-9.313-1.295    c-0.841-0.714-0.641-1.325-2.129-3.839c-0.519-0.877-1.747-1.846-2.735-2.457c0.06-0.214,0.04-0.424-0.101-0.614    c-0.42-0.568-3.358-1.177-3.68-0.61C8.004,7.398,8.193,7.849,8.488,8.343C7.595,8.707,6.771,9.172,6.6,9.5    c-0.205,0.391-0.292,1.194-0.451,1.333c-0.293,0.255-0.951,0.023-1.223,0.208c-0.428,0.292-1.107,1.928-0.917,3.034    C4.09,14.548,5.071,15.688,6.042,16c1.062,0.342,1.606-0.767,2.833-0.729c0.663,0.466,1.055,2.802,1.151,4.933    c-0.079,1.102-0.108,2.184-0.028,2.733c0.197,1.344,1.939,3.663,1.939,3.663s0.171,4.005,0.171,6.108    c0,1.791-2.046,1.76-2.046,3.291c0,0,1.656,0,2.375,0s1.481-2.319,1.563-2.813c0.388-2.347,0.842-5.81,0.938-8.006    C15.868,26.159,16.876,27,16.876,27c0.981,2.739,1.189,4.587,1.632,5.299c0.867,1.396,2.662,3.082,4.433,2.845    c0,0-0.12-1.219-0.753-2.084c-0.385-0.526-1.657-0.747-1.917-1.807c-0.688-2.808-0.655-5.253-0.785-5.787    c-0.031-0.129-0.071-0.286-0.114-0.454c2.011-0.394,3.857-1.127,5.562-1.694c0.25,1.1,0.537,2.093,0.801,2.677    c1.226,2.705,1.896,2.408,3.145,4.984c0.191,0.395-0.606,3.188-0.816,3.475c-0.233,0.32-1.125,0.377-1.125,1.547    c0,0,1.768,0,2.403,0c0.248,0,0.474-0.157,0.557-0.77c0.152-1.136,1.104-4.399,1.104-4.609c0-0.764-0.907-1.38-1.214-4.214    c1.635,2.045,3.163,2.646,4.242,4.874c0.191,0.395,0.242,2.885,0.032,3.172c-0.233,0.32-1.125,0.377-1.125,1.547    c0,0,1.768,0,2.403,0c0.248,0,0.474-0.157,0.557-0.77C36.05,34.095,36.002,30.831,36.002,30.621z"/>
	</g>
</g>
</svg>
