<?xml version="1.0" encoding="utf-8"?>
<!-- Generator: Adobe Illustrator 15.0.0, SVG Export Plug-In . SVG Version: 6.00 Build 0)  -->
<!DOCTYPE svg PUBLIC "-//W3C//DTD SVG 1.1//EN" "http://www.w3.org/Graphics/SVG/1.1/DTD/svg11.dtd">
<svg xmlns="http://www.w3.org/2000/svg" xmlns:xlink="http://www.w3.org/1999/xlink" version="1.1" id="Shape_5_2_" x="0px" y="0px" width="40px" height="40px" viewBox="0 0 40 40" enable-background="new 0 0 40 40" xml:space="preserve">
<g>
	<g>
		<path d="M36.93,24.399c0.713-2.362,1.07-4.462,1.07-5.941c0-1.949-2.127-4.775-4.627-5.833c-2.43-1.029-7.381-2.535-9.686-2.748    c-2.273-2.726-4.812-0.184-10.352-0.122c-1.993-2.689-4.657-1.93-5.472-0.874C6.958,7.689,5.041,8.175,4.219,9.978    c-0.555,1.218-0.061,2.565,0.309,3.303c-0.626,1.236-1.517,2.491-2.152,3.594c-0.249,0.432-0.646,1.199-0.116,1.961    C2.969,19.854,3.745,20,4.094,20c0.774,0,1.116-0.133,1.514-0.232c0.456,0.251,1.032,0.798,1.44,0.813    c0.908,0.032,3.668-1.063,4.208-0.58c0.985,0.883,1.842,1.916,2.636,2.912c-0.559,1.115-1.145,2.273-1.412,2.768    c-0.117,0.216-0.487,0.843-0.487,1.322c0,0.733,0.045,3.561,0.466,5.208c0.144,0.564,1.083,1.998,1.083,1.998L15,32.031    c0,0-0.43-1.16-0.524-1.457c-0.104-0.323-0.176-0.858-0.042-2.049c0.023-0.203,0.956-1.008,2.576-2.179    c0.337,0.241,0.678,0.429,1.031,0.528c0.356,0.101,0.909-0.104,1.495-0.402c0.62,0.736,0.992,1.231,1.214,1.611    c0.495,0.845,1.081,3.573,1.035,3.877C21.711,32.452,21.209,34,21.209,34h2.385c0,0,0.283-1.06,0.336-1.7    c0.044-0.543,0.188-3.898-0.089-6.892c1.105,0.278,2.358,0.628,2.784,0.628c0.249,0,0.5-0.033,0.751-0.059    c1.36,1.339,2.601,2.558,2.985,3.351c0.17,0.351-0.083,2.477-0.122,2.845C30.185,32.691,29.889,34,29.889,34h2.451    c0,0,0.171-0.709,0.261-1.238c0.256-1.515,0.431-3.111,0.431-3.929c0-0.864-0.873-2.124-1.116-3.313    c1.532,1.517,3.019,2.926,3.446,3.808c0.17,0.351-0.083,2.477-0.122,2.845C35.185,32.691,34.889,34,34.889,34h2.451    c0,0,0.171-0.709,0.261-1.238c0.256-1.515,0.431-3.111,0.431-3.929C38.031,27.688,36.493,25.846,36.93,24.399z M10.474,12.063    C9.513,10.732,7.755,11,7.755,11c0.806-2.468,2.781-2.109,3.656-1.685c1.962,0.952,1.893,3.452,3.589,3.452    c1.563,0,2.413-1.326,2.942-2.636c0.225,1.262-0.782,4.681-3.374,4.681C12.31,14.813,11.336,13.259,10.474,12.063z"/>
	</g>
</g>
</svg>
