<?xml version="1.0" encoding="utf-8"?>
<!-- Generator: Adobe Illustrator 15.0.0, SVG Export Plug-In . SVG Version: 6.00 Build 0)  -->
<!DOCTYPE svg PUBLIC "-//W3C//DTD SVG 1.1//EN" "http://www.w3.org/Graphics/SVG/1.1/DTD/svg11.dtd">
<svg xmlns="http://www.w3.org/2000/svg" xmlns:xlink="http://www.w3.org/1999/xlink" version="1.1" id="Shape_5_2_" x="0px" y="0px" width="40px" height="40px" viewBox="0 0 40 40" enable-background="new 0 0 40 40" xml:space="preserve">
<g>
	<g>
		<path d="M35.895,27.633c-0.008-1.28-1.086-2.842-1.52-3.84c-0.54-1.243-0.022-4.447-0.525-5.653    c-0.144-0.343-0.341-0.671-0.564-0.99c0.187-0.049,0.674-0.248,0.715-1.012c0.084-1.57-1.602-2.176-2.416-2.137    c-0.569,0.027-0.879,0.46-1.057,0.934C29.297,14.358,27.81,14,26.083,14c-3.748,0-6.083,0.75-7.313-0.295    c-0.841-0.714-2.695-2.152-4.129-2.781c-1.515-0.664-3.436-0.987-3.979-0.987c-2.453,0-4.743,0.954-5.061,1.563    c-0.205,0.391-0.256,1.004-0.366,1.186c-0.311,0.119-0.797,0.295-0.907,1.031c-0.405,0.373-0.724,0.56-0.833,0.701    c-0.319,0.409-0.603,1.729-0.485,2.658c0.103,0.813,0.353,1.021,1.323,1.334c1.501,1.625,2.563,1.885,4.751,1.299    c0.626,0.441,0.572,1.102,2.078,2.058c0.321,1.797,0.875,3.819,1.488,5.245c0.516,1.199,0.944,1.707,0.944,2.742    c0,1.223-1.531,0.715-1.531,2.246c0,0,1.656,0,2.375,0S16,31.042,16,30.081c0-1.32,0.054-2.771,0.083-4.267    c0.204,0.408,0.4,0.812,0.566,1.197c0.516,1.199,0.944,1.707,0.944,2.742c0,1.223-1.531,0.715-1.531,2.246c0,0,1.656,0,2.375,0    S20,31.042,20,30.081c0-1.28,0.051-2.684,0.08-4.132C20.904,25.983,21.791,26,22.76,26c1.927,0,3.38-0.538,4.514-1.254    c0.024,0.058,0.043,0.127,0.072,0.174c1.299,2.104,1.645,2.089,2.489,3.366c0.242,0.366,0.242,1.885,0.032,2.172    c-0.233,0.32-0.93,0.372-0.93,1.542c0,0,1.768,0,2.403,0c0.248,0,0.474-0.157,0.557-0.77c0.152-1.136,0.104-3.399,0.104-3.609    c0-0.218-0.043-0.409-0.102-0.59c0.726,0.595,1.339,1.098,1.668,1.495c0.28,0.338,0.509,1.645,0.299,1.932    c-0.233,0.32-0.93,0.372-0.93,1.542c0,0,1.768,0,2.403,0c0.248,0,0.54-0.157,0.623-0.77    C36.116,30.095,35.896,27.842,35.895,27.633z"/>
	</g>
</g>
</svg>
