<?xml version="1.0" encoding="utf-8"?>
<!-- Generator: Adobe Illustrator 15.0.0, SVG Export Plug-In . SVG Version: 6.00 Build 0)  -->
<!DOCTYPE svg PUBLIC "-//W3C//DTD SVG 1.1//EN" "http://www.w3.org/Graphics/SVG/1.1/DTD/svg11.dtd">
<svg xmlns="http://www.w3.org/2000/svg" xmlns:xlink="http://www.w3.org/1999/xlink" version="1.1" id="Shape_5_2_" x="0px" y="0px" width="40px" height="40px" viewBox="0 0 40 40" enable-background="new 0 0 40 40" xml:space="preserve">
<g>
	<g>
		<path d="M38,28.084c0,0,0-7.615,0-10.417C38,14.688,34.459,14,32.373,14c-5.373,0-5.262,0.575-9.467,0    c-3.081-2.305-4.992-2.444-7.211-2.725c0.394-0.637,0.294-1.323-0.272-1.271c-0.328,0.03-0.896,0.108-1.543,0.205    c0.016-0.038,0.043-0.072,0.051-0.111C14.19,8.79,12.979,7.545,11.085,7c0.623,0.908,1.305,1.723,1.262,2.125    c-0.036,0.333-1.055,0.507-2.169,0.597C10.023,9.65,9.88,9.593,9.718,9.512c-0.926,0-2,0.009-2.468,0.28    C7.239,9.798,7.234,9.807,7.224,9.813C6.282,9.796,4.762,9.705,4.292,9.31C3.877,8.961,3.84,7.647,3.75,7.042    C3.104,7.771,2.901,9.099,3.141,10c0.225,0.845,1.745,1.31,2.951,1.549c-1.207,1.226-2.444,3.082-3.462,3.528    c-0.457,0.2-0.799,1.219-0.371,1.861c0.529,0.794,1.15,1.013,1.5,1.013c0.774,0,0.45-0.08,1.333-0.281    c2.813,0.281,3.807,0.091,3.807,0.091s3.879,4.125,4.789,6.281c0.542,1.286,0.832,2.093,1.697,2.503    c0.28,0.955,0.481,1.693,0.514,1.943c0.127,0.971,0.126,3.365,0.063,3.666C15.86,32.641,15.094,34,15.094,34h2.281    c0,0,0.358-1.067,0.447-1.704c0.088-0.632,0.125-2.888,0.348-5.526c0.237-0.06,0.486-0.138,0.756-0.222    c0.47,1.007,0.814,1.8,0.864,2.061c0.182,0.962,0.319,3.353,0.273,3.656C19.99,32.756,19.313,34,19.313,34h2.281    c0,0,0.283-1.06,0.336-1.7c0.056-0.693-0.059-3.305,0.055-6.255c0.389,0.002,0.803,0.022,1.266,0.08    c0.992,0.124,1.93,0.095,2.825-0.032c0.039,0.723,0.22,1.47,0.8,1.47c0.364,0,1.131-0.37,2-0.869    c0.864,1.041,1.676,2.027,2.167,2.952c0.171,0.322-0.067,2.17-0.145,2.57C30.789,32.78,30.146,34,30.146,34h2.208    c0,0,0.25-0.727,0.31-1.335c0.159-1.645,0.367-2.554,0.367-3.634c0-0.786-0.58-1.703-0.865-3.2    c1.109,1.362,2.252,2.639,2.876,3.814c0.171,0.322-0.067,2.17-0.145,2.57C34.789,32.78,34.146,34,34.146,34h2.208    c0,0,0.25-0.727,0.31-1.335c0.159-1.645,0.367-2.554,0.367-3.634c0-1.042-1.021-2.313-1.021-4.862    c0-1.252,0.907-5.023,0.907-6.502c0,0,0,5.5,0,7.375S38,28.084,38,28.084z"/>
	</g>
</g>
</svg>
