<?xml version="1.0" encoding="utf-8"?>
<!-- Generator: Adobe Illustrator 15.0.0, SVG Export Plug-In . SVG Version: 6.00 Build 0)  -->
<!DOCTYPE svg PUBLIC "-//W3C//DTD SVG 1.1//EN" "http://www.w3.org/Graphics/SVG/1.1/DTD/svg11.dtd">
<svg xmlns="http://www.w3.org/2000/svg" xmlns:xlink="http://www.w3.org/1999/xlink" version="1.1" id="Shape_5_2_" x="0px" y="0px" width="40px" height="40px" viewBox="0 0 40 40" enable-background="new 0 0 40 40" xml:space="preserve">
<g>
	<g>
		<path d="M37,17c-1.778,2.448-4,3-4,3s2-4,2-8.122C35,8.75,33.063,6,26.25,6c-8.634,0-12.025,1.709-14.563,3.5    c-2.361,1.667-3.288,4.749-4.034,7.041C6.419,20.333,6.338,21.963,2.792,23c-1.34,0.392-0.957,1.417,0.688,2    c-1.575,0.921-1.489,1.715-0.229,2c4.745,1.075,4.596,2.022,8.569,4.657c2.369,1.571,6.242,4.254,13.181,4.254    C24,35,22.533,34,20.062,31.987C22.813,33.222,28.188,34,29.751,34C32.501,34,35,32.798,35,30.048c0-3-2-6.048-2-6.048    s2.039,0.745,4,3c0,0,1-1.906,1-5C38,18.907,37,17,37,17z M15.468,13.888c-0.778,1.468-2.009,8.654-1.301,11.362    c0.616,2.354,2.465,4.489,3.914,5.825c-6.25-1.875-9.145-4.656-9.145-7.116c0-3.004,1.195-8.782,2.502-10.959    C12.588,11.083,16.625,8.313,22,8C22,8,17.219,10.586,15.468,13.888z M28,15.5c-1.381,0-2.5-1.119-2.5-2.5s1.119-2.5,2.5-2.5    s2.5,1.119,2.5,2.5S29.381,15.5,28,15.5z"/>
	</g>
</g>
</svg>
