<?xml version="1.0" encoding="utf-8"?>
<!-- Generator: Adobe Illustrator 15.0.0, SVG Export Plug-In . SVG Version: 6.00 Build 0)  -->
<!DOCTYPE svg PUBLIC "-//W3C//DTD SVG 1.1//EN" "http://www.w3.org/Graphics/SVG/1.1/DTD/svg11.dtd">
<svg xmlns="http://www.w3.org/2000/svg" xmlns:xlink="http://www.w3.org/1999/xlink" version="1.1" id="Shape_5_2_" x="0px" y="0px" width="40px" height="40px" viewBox="0 0 40 40" enable-background="new 0 0 40 40" xml:space="preserve">
<g>
	<g>
		<path d="M28,21c-2.375,0-6-0.708-7.438-2.498l-0.016,0.016c-0.012-0.013-0.023-0.027-0.035-0.041C23.011,19.479,26.035,20,28,20    c4.438,0,5.43-3.431,6.434-6.257C36.121,8.993,38,7,38,4c0-1.188-1-2-3-2c-5.721,0-13.254,4.555-20.011,11.046    c-0.219-0.123-0.418-0.195-0.61-0.241c-0.199-0.802-0.364-1.764-0.364-2.805c0-1.479,0.316-2.545,0.76-3.28    c0.287-0.476,0.788-1.088,1.068-1.438c0.269-0.338,0.214-0.828-0.123-1.098c-0.337-0.27-0.829-0.214-1.098,0.123    C13.275,5.991,13,7.849,13,9.25c0,1.276,0.269,2.526,0.686,3.587c-0.181,0.065-0.355,0.161-0.521,0.327s-0.262,0.341-0.328,0.521    C11.776,13.269,10.526,13,9.25,13c-1.401,0-3.259,0.275-4.944,1.623c-0.337,0.269-0.392,0.761-0.123,1.098    c0.27,0.337,0.76,0.392,1.098,0.123c0.35-0.28,0.963-0.781,1.438-1.068c0.735-0.444,1.801-0.76,3.28-0.76    c1.041,0,2.003,0.165,2.805,0.364c0.045,0.192,0.118,0.392,0.241,0.611C6.555,21.746,2,29.28,2,35c0,2,0.813,3,2,3    c3,0,4.993-1.879,9.743-3.566C16.569,33.43,20,32.438,20,28c0-1.965-0.521-4.989-1.523-7.488c0.014,0.012,0.028,0.024,0.042,0.036    l-0.016,0.016C20.292,22,21,25.625,21,28c0,3.861-2.305,5.513-4.628,6.514c0.988,0.827,2.337,1.477,4.161,1.477    c3.342,0,5.467-2.49,5.467-5.433c0-1.933-0.432-3.812-3.202-6.583l-0.746-0.745c0.912,0.568,1.563,0.816,1.778,0.601    s-0.032-0.865-0.6-1.776l0.244,0.244C26.246,25.068,28.625,26,30.558,26c2.942,0,5.433-2.125,5.433-5.467    c0-1.824-0.649-3.173-1.477-4.161C33.513,18.695,31.861,21,28,21z M32.031,14.842C31.861,15.602,31.313,16,31.037,16    c-1.375,0-3-0.75-3-0.75s1.666-1.25,3.5-1.25C31.813,14,32.203,14.08,32.031,14.842z M34.031,10.841    C33.861,11.602,33.313,12,33.037,12c-1.375,0-3-0.75-3-0.75s1.666-1.25,3.5-1.25C33.813,10,34.203,10.081,34.031,10.841z M35,4    c0.553,0,1.332,0.162,0.99,1.682C35.648,7.203,34.553,8,34,8c-2.75,0-6-1.5-6-1.5S31.333,4,35,4z M5.682,35.99    C4.162,36.332,4,35.553,4,35c0-3.667,2.5-7,2.5-7S8,31.25,8,34C8,34.553,7.203,35.648,5.682,35.99z M10.841,34.031    C10.081,34.203,10,33.813,10,33.537c0-1.834,1.25-3.5,1.25-3.5s0.75,1.625,0.75,3C12,33.313,11.602,33.861,10.841,34.031z     M14.842,32.031C14.08,32.203,14,31.813,14,31.537c0-1.834,1.25-3.5,1.25-3.5s0.75,1.625,0.75,3    C16,31.313,15.602,31.861,14.842,32.031z"/>
	</g>
</g>
</svg>
