<?xml version="1.0" encoding="utf-8"?>
<!-- Generator: Adobe Illustrator 15.0.0, SVG Export Plug-In . SVG Version: 6.00 Build 0)  -->
<!DOCTYPE svg PUBLIC "-//W3C//DTD SVG 1.1//EN" "http://www.w3.org/Graphics/SVG/1.1/DTD/svg11.dtd">
<svg xmlns="http://www.w3.org/2000/svg" xmlns:xlink="http://www.w3.org/1999/xlink" version="1.1" id="Shape_5_2_" x="0px" y="0px" width="40px" height="40px" viewBox="0 0 40 40" enable-background="new 0 0 40 40" xml:space="preserve">
<g>
	<g>
		<path d="M37.404,27.649c-0.641-0.775-0.946-1.625-1.279-2.962C35.86,23.627,36,18.571,36,16.571s-1.904-4.178-2.784-4.54    c-4.455-1.832-3.683-2.42-5.04-4.531c-0.781-1.212-2.305-1.827-4.521-1.5c-3.389,0.5-2.559,3.262-3.929,4.526    c-0.483,0.446-0.415,0.692-1.907,1.161c-3.565,1.119-2.688,4-4.625,2.375c-0.885-0.742-0.09-5.354-0.284-7.445    c3.097,0.945,3.21-1.33,3.034-1.617c-0.15-0.245-3.713,0-4,0c-1-1-6.125-1-6.125-1s-3.69-0.225-3.813,2.625    C1.942,8.138,2.319,8.938,3.319,8.938c0.764,0,1.427-0.681,1.427-0.681L7.007,9.5c0,0-0.635,6.49,1.438,8.563    c1,1,2.063,2.187,5.063,2.187c0,0.313,0.086,0.798,0.457,1.274c-1.02,1.242-2.896,3.626-2.957,4.413    c-0.061,0.785,0.098,4.131,1.046,6.484c0.36,0.895,0.992,2.281,1.454,2.281s1.609-2.199,1.452-2.727s-0.755-0.554-0.947-0.791    C13.388,30.413,12.9,29.048,13.028,27c0.048-0.774,2.514-2.391,4.573-3.611c0.801,1.713,2.061,4.481,2.155,5.153    c0.416,2.969,0.087,4.958-0.136,5.353C19.333,34.403,17.172,36,18.944,36h1.704c0.789,0,0.878-0.357,1.003-0.911    c0.293-1.301,0.348-5.313,0.293-6.714c-0.031-0.798-0.387-3.159-0.761-5.351c1.835,0.041,3.609,0.027,5.737-0.76    c0.042,0.523,0.104,1.031,0.204,1.499c0.442,2.076,2.837,3.472,2.875,6.024c0.01,0.697-0.895,2.524-1.75,3.931    C27.913,34.272,25.792,36,27.396,36h1.943c0.786,0,1.018-1.059,1.255-1.688c0.474-1.255,1.037-2.388,2.156-4.75    c0.271-0.571,0.272-0.965,0.073-1.344c-0.313-0.594-0.613-1.677-0.831-2.784c1.146,1.178,2.618,2.33,3.384,4.034    c0.304,0.677,0.094,2.427-0.54,4.21C34.637,34.238,32.792,36,34.396,36h1.943c0.786,0,0.781-1.079,0.857-1.719    c0.318-2.683,0.791-4.531,0.791-5.283C37.987,28.398,37.715,28.024,37.404,27.649z"/>
	</g>
</g>
</svg>
