<?xml version="1.0" encoding="utf-8"?>
<!-- Generator: Adobe Illustrator 15.0.0, SVG Export Plug-In . SVG Version: 6.00 Build 0)  -->
<!DOCTYPE svg PUBLIC "-//W3C//DTD SVG 1.1//EN" "http://www.w3.org/Graphics/SVG/1.1/DTD/svg11.dtd">
<svg xmlns="http://www.w3.org/2000/svg" xmlns:xlink="http://www.w3.org/1999/xlink" version="1.1" id="Shape_5_2_" x="0px" y="0px" width="40px" height="40px" viewBox="0 0 40 40" enable-background="new 0 0 40 40" xml:space="preserve">
<g>
	<g>
		<path fill-rule="evenodd" clip-rule="evenodd" d="M30.296,25.327c1.657-0.507,1.947-0.403,1.579-0.744    c-4.219-3.901-10.207-9.357-14.216-10.983c-0.52-0.643-2.259-4.358-2.444-5.114c0,0-0.122-1.169-0.39-4.981    C9.847,6.385,7.501,8.539,6.527,9.85c0.488,0.525,0.978,1.116,1.078,1.144c0.197,0.055,2.995,0.048,5.288,0.444    c-0.97,1.046-3.883,2.759-4.217,3.188c-0.209,0.269-1.092,1.518-1.991,2.796c0.232,2.034,0.51,3.746,1.852,6.018    c1.195,2.023,3.026,3.405,5.27,4.08L12.455,31h-1.226C8.374,31,7.678,31.199,7,32h18c-0.495-0.992-1.917-1-4.042-1h-1.155    l1.286-3.315c1.379-0.218,2.321-0.468,2.911-0.468c0.663,0,9.926,4.783,10.921,4.783C35.776,32,38,30.644,38,30.125    C38,29.81,31.052,25.764,30.296,25.327z M18.455,31h-4.652l1.238-3.19c0.656,0.114,1.333,0.19,2.043,0.19    c0.971,0,1.827-0.053,2.585-0.129L18.455,31z M6,10.75c-1.025,0.32-3.437,2.5-3.407,2.808c0.03,0.308,2.5,0.996,3.793,1.381    c0,0,1.076-1.271,1.076-1.533S6,10.75,6,10.75z"/>
	</g>
</g>
</svg>
