<?xml version="1.0" encoding="utf-8"?>
<!-- Generator: Adobe Illustrator 15.0.0, SVG Export Plug-In . SVG Version: 6.00 Build 0)  -->
<!DOCTYPE svg PUBLIC "-//W3C//DTD SVG 1.1//EN" "http://www.w3.org/Graphics/SVG/1.1/DTD/svg11.dtd">
<svg xmlns="http://www.w3.org/2000/svg" xmlns:xlink="http://www.w3.org/1999/xlink" version="1.1" id="Shape_5_2_" x="0px" y="0px" width="40px" height="40px" viewBox="0 0 40 40" enable-background="new 0 0 40 40" xml:space="preserve">
<g>
	<g>
		<path d="M34.32,25.998c-1.701-0.358-1.88,1.905-0.294,2.333c1.455,0.396,2.125,1.419,1.665,2.868    c-0.702,2.213-2.65,2.093-8.148,1.955c0.282-1.077,0.441-2.38,0.457-3.778c0.105-9.651-3.612-15.28-11.624-15.28    c-0.599,0-1.763-3.677-2.431-5.354c-0.545-1.37-1.119-2.284-2.098-2.818c-0.546-0.983-2.229-3.898-2.977-3.898    c-0.327,0-0.39,1.156-0.359,2.376C7.748,3.297,6.76,2.026,6.252,2.026c-0.51,0-0.379,2.823-0.248,4.301    C5.078,6.809,4.226,7.411,3.855,8.016c-0.219,0.356-0.542,1.03-0.712,1.39c-0.34,0.723-0.623,0.656-1.025,1.455    c-0.37,0.734,0.155,2.441,1.216,2.959c0.9,0.439,1.771,0.027,2.173,0.027s1.352,1.052,1.242,1.703    c-0.277,1.651-1.069,3.97-0.626,5.136c0.343,0.905,0.971,1.78,1.589,2.498c0.935,3.857,2.855,8.928,2.315,9.909    c-0.213,0.383-0.925,0.639-1.289,1.173c-0.445,0.652-0.09,1.68,0.772,1.68h1.241c1.342,0,1.997-1.758,1.992-2.946    c-0.004-0.973-0.005-2.811-0.06-5.309c0.452,0.638,0.877,1.329,1.259,2.045c0,2.472,0.299,3.018,1.545,4.146    c-1.554,0.699-1.061,2.118,0,2.118h9.862c0.002,0,0.004-0.001,0.006-0.001c9.174-0.006,12.073-0.175,12.596-4.8    C38.357,27.606,36.097,26.374,34.32,25.998z"/>
	</g>
</g>
</svg>
