<?xml version="1.0" encoding="utf-8"?>
<!-- Generator: Adobe Illustrator 15.0.0, SVG Export Plug-In . SVG Version: 6.00 Build 0)  -->
<!DOCTYPE svg PUBLIC "-//W3C//DTD SVG 1.1//EN" "http://www.w3.org/Graphics/SVG/1.1/DTD/svg11.dtd">
<svg xmlns="http://www.w3.org/2000/svg" xmlns:xlink="http://www.w3.org/1999/xlink" version="1.1" id="Shape_5_2_" x="0px" y="0px" width="40px" height="40px" viewBox="0 0 40 40" enable-background="new 0 0 40 40" xml:space="preserve">
<g>
	<g>
		<path d="M30.666,27.666c-0.422-0.628-0.758-1.583-1.116-2.761c0.833-0.165,1.419-0.639,1.879-1.249    c0.951-1.264,0.544-2.151,0.146-2.513c-0.826-0.752-2.473-1.553-3.969-2.187c-0.065-0.164-0.138-0.33-0.207-0.496    C30.576,16.803,30.669,12,29,12c-1.977,0-3.646,0.107-5.259,0.239c-0.291-0.359-0.595-0.717-0.92-1.07    c-1.377-1.497-4.845-2.606-8.144-3.862c-1.365-0.744-2.527-1.335-3.53-1.794C11.799,4.796,13.686,3,16.208,3    c2.575,0,4.051,0.907,5.615,1.867C23.532,5.916,25.299,7,28.5,7c3.646,0,5.146-2,5.504-3.007C33.976,4.012,31.316,6,28.5,6    c-2.918,0-4.489-0.964-6.153-1.986C20.733,3.024,19.065,2,16.208,2c-3.308,0-5.577,2.55-6.023,3.093    C8.098,4.235,6.839,4.093,6,4.52l1.063,4.205L4.493,5.996c-0.965,0.745-0.849,2.61-0.3,4.705C2.696,13.241,2,14.875,2,17.219    C2,18.604,2.542,20,2.542,20c0.167-4.292,0.805-5.953,2.025-8.02c0.137,0.421,0.283,0.844,0.439,1.263    c0.204,0.538,0.4,0.992,0.591,1.387C5.266,15.928,5,17.565,5,19.5c0,4.422,2.158,6.713,4.246,8.928    c1.931,2.05,3.908,3.802,4.491,7.572c0.488-1.37,0.197-2.607-0.171-3.566c-0.589-1.533-1.85-2.843-3.592-4.691    C7.93,25.573,6,23.524,6,19.5c0-1.36,0.144-2.565,0.346-3.602C7.253,17.1,8.074,17,9,17c1,0,2.426-0.25,4-0.592    c0.799-0.173,0.759,0.286,0,0.592c-1.834,0.74-3,1-4,1c-0.715,0-1.344,0.07-1.972-0.18c2.437,4.76,6.18,7.839,8.785,9.192    c1.123,0.583,2.296,0.992,3.455,1.307c0.575,1.281,1.243,2.561,1.876,3.257c0.361,0.397,1.249,0.805,2.513-0.146    c0.625-0.471,1.104-1.074,1.256-1.938c1.207,0.271,2.182,0.604,2.754,1.176C29.104,32.104,28.94,38,31.195,38    c2.268,0,3.147-3.657,3.147-3.657S38,33.463,38,31.195C38,29.14,31.8,29.354,30.666,27.666z M9,12C8.447,12,7.999,11.552,8,11    c-0.001-0.552,0.448-1,1-1c0.553,0,1,0.448,1,1S9.553,12,9,12z"/>
	</g>
</g>
</svg>
