<?xml version="1.0" encoding="utf-8"?>
<!-- Generator: Adobe Illustrator 15.0.0, SVG Export Plug-In . SVG Version: 6.00 Build 0)  -->
<!DOCTYPE svg PUBLIC "-//W3C//DTD SVG 1.1//EN" "http://www.w3.org/Graphics/SVG/1.1/DTD/svg11.dtd">
<svg xmlns="http://www.w3.org/2000/svg" xmlns:xlink="http://www.w3.org/1999/xlink" version="1.1" id="Shape_5_2_" x="0px" y="0px" width="40px" height="40px" viewBox="0 0 40 40" enable-background="new 0 0 40 40" xml:space="preserve">
<g>
	<g>
		<path d="M33,16c-4,0-4-6-13-6s-9,6-13,6c-1.959,0-2.525,0.726-3,2c-1,0-2,1-2,3c0,2.781,2,5,4,5l0.5,2L8,26l1.829-0.164L10.5,28    l1.306-2.665C15.465,24.193,16,20,20,20s3.766,3.334,6.807,4.813c0,0,0.559,3.188,2.193,3.188s2-2,2-2s0.365,2,2,2s2-2,2-2    s3-0.813,3-3C38,20,37,16,33,16z M5,22c-0.552,0-1-0.447-1-1s0.448-1,1-1s1,0.447,1,1S5.552,22,5,22z M9,22c-0.552,0-1-0.447-1-1    s0.448-1,1-1s1,0.447,1,1S9.552,22,9,22z M13,19c-0.552,0-1-0.447-1-1s0.448-1,1-1s1,0.447,1,1S13.552,19,13,19z M17,16    c-0.552,0-1-0.447-1-1s0.448-1,1-1s1,0.447,1,1S17.552,16,17,16z M23,16c-0.553,0-1-0.447-1-1s0.447-1,1-1c0.552,0,1,0.447,1,1    S23.552,16,23,16z M27,19c-0.553,0-1-0.447-1-1s0.447-1,1-1c0.552,0,1,0.447,1,1S27.552,19,27,19z M31,22c-0.553,0-1-0.447-1-1    s0.447-1,1-1c0.552,0,1,0.447,1,1S31.552,22,31,22z M35,22c-0.553,0-1-0.447-1-1s0.447-1,1-1c0.552,0,1,0.447,1,1S35.552,22,35,22    z"/>
	</g>
</g>
</svg>
