<?xml version="1.0" encoding="utf-8"?>
<!-- Generator: Adobe Illustrator 15.0.0, SVG Export Plug-In . SVG Version: 6.00 Build 0)  -->
<!DOCTYPE svg PUBLIC "-//W3C//DTD SVG 1.1//EN" "http://www.w3.org/Graphics/SVG/1.1/DTD/svg11.dtd">
<svg xmlns="http://www.w3.org/2000/svg" xmlns:xlink="http://www.w3.org/1999/xlink" version="1.1" id="Shape_5_2_" x="0px" y="0px" width="40px" height="40px" viewBox="0 0 40 40" enable-background="new 0 0 40 40" xml:space="preserve">
<g>
	<path d="M29.557,34.097c-1.857,0-4.669-0.355-6.816-2.188C21.49,30.842,20,28.857,20,25.46c0-2.996,0.715-5.692,1.289-7.859   C21.654,16.221,22,14.917,22,14.094c0-0.657-0.175-1.152-0.519-1.473c-0.483-0.45-1.377-0.666-2.458-0.585   c-2.529,0.183-5.1,2.271-5.876,3.06c-1.16,1.177-3.057,1.2-4.238,0.046c-1.182-1.154-1.213-3.042-0.064-4.229   c0.443-0.458,4.48-4.481,9.747-4.861c2.776-0.203,5.254,0.573,6.977,2.177C27.137,9.687,28,11.77,28,14.094   c0,1.605-0.442,3.276-0.911,5.044C26.554,21.157,26,23.246,26,25.46c0,1.336,0.456,1.73,0.628,1.879   c0.949,0.82,3.049,0.824,3.918,0.695c1.636-0.24,2.453,0.892,2.702,2.521c0.25,1.631-0.147,3.147-1.776,3.407   C31.28,33.993,30.557,34.097,29.557,34.097z"/>
</g>
<path d="M31.542,29.917c0,0,1.334-2.5,2.542-3.25s3.958-0.583,3.958-0.583S35.958,27.333,35,28s-2.305,3-2.305,3L31.542,29.917z"/>
<path d="M31.542,32.083c0,0,1.334,2.5,2.542,3.25s3.958,0.583,3.958,0.583S35.958,34.667,35,34s-2.305-3-2.305-3L31.542,32.083z"/>
<path d="M8.604,14.868C4.937,15.338,2,13.587,2,9.47C2,6.278,3.499,4,3.499,4L4,4.404c0,0-1.253,3.279-0.625,5.676  C4.284,13.546,8,13,8,13L8.604,14.868z"/>
<path d="M9.132,15.397c-0.47,3.667,1.281,6.604,5.398,6.604c3.192,0,5.47-1.499,5.47-1.499l-0.404-0.501  c0,0-3.279,1.253-5.676,0.625C10.454,19.717,11,16.001,11,16.001L9.132,15.397z"/>
<path d="M8.588,15.412c1.562,1.562,4.095,1.562,5.657,0s2.146-4.678,0.583-6.24s-4.678-0.979-6.24,0.583S7.026,13.85,8.588,15.412z"/>
<path d="M8.563,10.577c0,0-2.063,1.006-2.563,1.423c0-3.458,2.124-5,4.042-5c3.875,0,4.786,2.172,4.786,2.172L8.563,10.577z"/>
<path d="M13.423,15.438c0,0-1.006,2.063-1.423,2.563c3.458,0,5-2.124,5-4.042c0-3.875-2.172-4.786-2.172-4.786L13.423,15.438z"/>
<path d="M15.25,7.813L13.049,4c0,0,2.826,0.063,4.264,3S15.25,7.813,15.25,7.813z"/>
<path d="M18.758,6.425L18.057,2.08c0,0,2.62,1.063,2.919,4.32S18.758,6.425,18.758,6.425z"/>
<path d="M18.758,11.508l-0.702,4.346c0,0,2.62-1.063,2.919-4.32S18.758,11.508,18.758,11.508z"/>
<path d="M22.137,15.014l-3.515,2.65c0,0,2.626,1.047,5.097-1.096C26.188,14.425,22.137,15.014,22.137,15.014z"/>
<path d="M22.6,6.968l1.696-4.061c0,0,1.664,2.286,0.199,5.209C23.031,11.04,22.6,6.968,22.6,6.968z"/>
<path d="M25.973,9.12l3.53-2.629c0,0,0.266,2.814-2.484,4.583C24.269,12.843,25.973,9.12,25.973,9.12z"/>
<path d="M23.548,31.747L20,34.355c0,0,2.614,1.078,5.11-1.035S23.548,31.747,23.548,31.747z"/>
<path d="M26.628,32.894l-1.222,4.229c0,0,2.728-0.74,3.418-3.937C29.515,29.991,26.628,32.894,26.628,32.894z"/>
<path d="M27.209,12.051l4.401-0.017c0,0-1.458,2.421-4.722,2.209C23.625,14.033,27.209,12.051,27.209,12.051z"/>
<path d="M27.209,16.051l4.401-0.017c0,0-1.458,2.421-4.722,2.209C23.625,18.033,27.209,16.051,27.209,16.051z"/>
<path d="M26.209,20.051l4.401-0.016c0,0-1.458,2.421-4.722,2.209C22.625,22.033,26.209,20.051,26.209,20.051z"/>
<path d="M25.209,24.051l4.401-0.016c0,0-1.458,2.421-4.722,2.209C21.625,26.033,25.209,24.051,25.209,24.051z"/>
<path d="M20.918,24.051l-4.401-0.016c0,0,1.458,2.421,4.722,2.209C24.502,26.033,20.918,24.051,20.918,24.051z"/>
<path d="M20.918,28.051l-4.401-0.016c0,0,1.458,2.421,4.722,2.209C24.502,30.033,20.918,28.051,20.918,28.051z"/>
<path d="M28.576,28.124l3.239-2.979c0,0,0.556,2.771-1.997,4.815C27.266,32.004,28.576,28.124,28.576,28.124z"/>
<path d="M28.931,33.647l2.184,3.82c0,0,1.37-2.472-0.443-5.194C28.857,29.554,28.931,33.647,28.931,33.647z"/>
</svg>
