<?xml version="1.0" encoding="utf-8"?>
<!-- Generator: Adobe Illustrator 15.0.0, SVG Export Plug-In . SVG Version: 6.00 Build 0)  -->
<!DOCTYPE svg PUBLIC "-//W3C//DTD SVG 1.1//EN" "http://www.w3.org/Graphics/SVG/1.1/DTD/svg11.dtd">
<svg xmlns="http://www.w3.org/2000/svg" xmlns:xlink="http://www.w3.org/1999/xlink" version="1.1" id="Shape_5_2_" x="0px" y="0px" width="40px" height="40px" viewBox="0 0 40 40" enable-background="new 0 0 40 40" xml:space="preserve">
<g>
	<g>
		<path d="M23,4c-6,0-10,7-10,7C9.98,2.833,9.5,2,9,2C8.001,2,6.468,4.06,6.102,5.254c-0.594,1.939-0.693,8.658-0.693,8.658    C2.916,17,2,20.633,2,23.172c0,1.162,1.792,1.995,4,2.495C7.25,28.75,9.004,32,11.625,32c2.586,0,4.516-3.479,5.375-8.833    c0,0,0.786-0.328,2.299-0.636c0.06,0.445,0.107,0.947,0.107,1.469C18.531,24,18,24,18,26c0,1.459,0.555,2,1,2    c0.875,0,1.5-0.438,1.5-0.438S21,28,22,28c0.709,0,1.069-0.752,1-2.084C22.719,20.5,22.219,18,20,18c-1,0-3,1.208-3,1.208    S18.906,17,20.271,17c1.803,0,3.037,1.498,3.511,5.024C24.175,22.01,24.577,22,25.003,22c0.421,0,0.822,0.011,1.215,0.025    C26.691,18.498,27.926,17,29.729,17C31.094,17,33,19.208,33,19.208S31,18,30,18c-2.219,0-2.719,2.5-3,7.916    C26.931,27.248,27.291,28,28,28c1,0,1.5-0.438,1.5-0.438S30.125,28,31,28c0.445,0,1-0.541,1-2c0-2-0.531-2-1.406-2    c0-0.525,0.047-1.031,0.108-1.479C31.967,22.765,32.688,23,32.688,23S34,25,34,29c0,4.688-2.471,6.382-3.521,6.868    C30.844,35.468,31,34.839,31,34.5c0-1.381-1.119-2.5-2.5-2.5S26,33.119,26,34.5s0.938,3.5,4,3.5c3,0,8-2.75,8-11    C38,15.606,32.583,4,23,4z M9,22c-1.657,0-3-1.343-3-3s1.343-3,3-3s3,1.343,3,3S10.657,22,9,22z M8.293,18.293    c-0.508,0.508-0.248,1.662-0.248,1.662s1.154,0.26,1.662-0.248s0.248-1.662,0.248-1.662S8.801,17.785,8.293,18.293z"/>
	</g>
</g>
</svg>
