<?xml version="1.0" encoding="utf-8"?>
<!-- Generator: Adobe Illustrator 15.0.0, SVG Export Plug-In . SVG Version: 6.00 Build 0)  -->
<!DOCTYPE svg PUBLIC "-//W3C//DTD SVG 1.1//EN" "http://www.w3.org/Graphics/SVG/1.1/DTD/svg11.dtd">
<svg xmlns="http://www.w3.org/2000/svg" xmlns:xlink="http://www.w3.org/1999/xlink" version="1.1" id="Shape_5_2_" x="0px" y="0px" width="40px" height="40px" viewBox="0 0 40 40" enable-background="new 0 0 40 40" xml:space="preserve">
<g>
	<g>
		<path d="M36.44,26.743c-0.114,0.398-0.768,1.529-1.627,1.529c-3.865,0-1.809-7.66-1.75-11.39c0.034-0.31,0.021-0.676-0.063-1.121    C32.525,13.245,29,12,27,12c-4.133,0-5.823,0.771-10.094,0.771c-1.864,0-4.262-3.46-6.593-5.431    c0.477-0.4,0.896-0.938,0.471-1.244c-0.189-0.138-0.912,0.02-1.823,0.302C8.5,6.155,8.046,6.002,7.605,6.002    c-0.92,0-2.905,0.193-3.806,1.207c-0.243,0.272-0.42,1.278-0.655,1.514C2.767,9.1,2.183,9.554,2.035,9.775    c-0.158,0.235,0.138,1.702,0.949,2.097c0.688,0.336,1.236-0.334,1.767-0.185c0.53,0.149,1.371,0.309,2.375,0.704    c1.594,2.671,0.437,4.317,0.957,5.765c0.3,0.835,0.882,1.497,1.632,2.024c1.209,3.294,2.844,7.226,2.558,9.9    c-0.036,0.333-0.903,0.227-1.181,0.635C10.75,31.214,10.834,32,11.493,32h0.98c0.189,0,0.379-0.084,0.556-0.222    C13.127,31.91,13.276,32,13.493,32h0.98c0.763,0,1.521-1.344,1.521-2.252c0-2.588-0.24-5.103-0.536-7.834    C16.132,21.974,16.794,22,17.417,22c2.702,0,4.196-2.414,7.194-3.517c-0.267,1-0.366,1.92-0.142,2.56    c0.634,1.806,2.37,4.696,2.507,6.084c0.062,0.626-0.99,3.223-1.231,3.296C24.619,30.764,24.853,32,25.885,32    c0.281,0,0.041,0,0.416,0c0.75,0,0.952-0.493,1.235-1.049C27.945,30.147,29,27.335,29,27.125c0-0.729-0.442-2.677-0.273-3.36    c0.003-0.011,0.007-0.021,0.01-0.033c1.011,1.382,2.053,2.787,2.139,3.281c0.107,0.62-0.448,3.337-0.689,3.41    C29.06,30.764,29.293,32,30.325,32c0.281,0,0.041,0,0.416,0c0.75,0,0.952-0.493,1.235-1.049c0.176-0.346,0.355-1.042,0.504-1.74    C33.023,29.707,33.775,30,34.813,30c2.125,0,3.088-2.165,3.187-2.592C38.3,26.116,36.783,25.556,36.44,26.743z M9,11    c-0.553,0-1-0.447-1-1s0.447-1,1-1s1,0.447,1,1S9.553,11,9,11z M12,15c-0.553,0-1-0.447-1-1s0.447-1,1-1s1,0.447,1,1    S12.553,15,12,15z M14.271,30.081c-0.015,0.137-0.172,0.199-0.37,0.254c0.055-0.203,0.093-0.404,0.093-0.587    c0-1.078-0.05-2.145-0.12-3.218C14.202,27.828,14.382,29.049,14.271,30.081z M17,17c-0.553,0-1-0.447-1-1s0.447-1,1-1s1,0.447,1,1    S17.553,17,17,17z M22,16c-0.553,0-1-0.447-1-1s0.447-1,1-1s1,0.447,1,1S22.553,16,22,16z M27,16c-0.553,0-1-0.447-1-1    s0.447-1,1-1s1,0.447,1,1S27.553,16,27,16z M31,18c-0.553,0-1-0.447-1-1s0.447-1,1-1s1,0.447,1,1S31.553,18,31,18z"/>
	</g>
</g>
</svg>
