<?xml version="1.0" encoding="utf-8"?>
<!-- Generator: Adobe Illustrator 15.0.0, SVG Export Plug-In . SVG Version: 6.00 Build 0)  -->
<!DOCTYPE svg PUBLIC "-//W3C//DTD SVG 1.1//EN" "http://www.w3.org/Graphics/SVG/1.1/DTD/svg11.dtd">
<svg xmlns="http://www.w3.org/2000/svg" xmlns:xlink="http://www.w3.org/1999/xlink" version="1.1" id="Shape_5_2_" x="0px" y="0px" width="40px" height="40px" viewBox="0 0 40 40" enable-background="new 0 0 40 40" xml:space="preserve">
<g>
	<g>
		<path fill-rule="evenodd" clip-rule="evenodd" d="M33.75,16.208c-0.676-0.454-4.375-0.042-6.067,0.425    c-2.303-0.975-4.6-1.488-6.958-1.869c-0.344-4.265-2.223-6.738-6.556-6.738c-2.803,0-5.53,1.756-6.066,4.28    c-1.385,0.295-2.967,0.704-3.751,1.162c1.101,0.826,4.32,2.407,4.32,2.407s-1.588,1.583-2.88,3c0,0,2.224,0.076,3.521-0.06    c-0.001,0.006,0,0.013-0.001,0.019c-1.119,5.313,2.074,7.601,4.616,8.374c0.81,0.882,1.776,1.761,2.986,2.448l-0.935,4.392    C13.552,34.269,11.602,35.288,11,36h18c-0.472-0.943-1.986-1.562-3.052-1.835l0.871-4.088c3.441-1.417,4.925-4.342,5.348-6.952    C33.878,21.292,34.401,16.646,33.75,16.208z M13.5,15c-0.785,0-1.422-0.671-1.422-1.5c0-0.829,0.637-1.5,1.422-1.5    s1.422,0.671,1.422,1.5C14.922,14.329,14.285,15,13.5,15z M23.988,34h-6.005l0.757-3.555c0.954,0.304,2.021,0.499,3.259,0.499    c0.985,0,1.874-0.091,2.691-0.245L23.988,34z"/>
	</g>
</g>
</svg>
