<?xml version="1.0" encoding="utf-8"?>
<!-- Generator: Adobe Illustrator 15.0.0, SVG Export Plug-In . SVG Version: 6.00 Build 0)  -->
<!DOCTYPE svg PUBLIC "-//W3C//DTD SVG 1.1//EN" "http://www.w3.org/Graphics/SVG/1.1/DTD/svg11.dtd">
<svg xmlns="http://www.w3.org/2000/svg" xmlns:xlink="http://www.w3.org/1999/xlink" version="1.1" id="Shape_5_2_" x="0px" y="0px" width="40px" height="40px" viewBox="0 0 40 40" enable-background="new 0 0 40 40" xml:space="preserve">
<g>
	<g>
		<path d="M33.25,28.799C33,26.578,33,24.281,33,22c0-4.188-2.941-7.322-5.866-9.126c-5.438-3.354-10.217-2.78-12.67-2.78    C13.367,10.094,12.981,8,11,8c-2.006,0-4.755,2.298-5.875,3.5c0,1.223-0.069,3.134-0.354,3.683C4.386,15.924,4,16.761,4,17.308    c0,1.886,1.782,4.381,6.354,1.204c-0.748,1.875-1.839,4.116-2.479,6.238C6.938,27.86,6,31.465,6,34.402C6,36,6.485,36,7.134,36    h1.303c0.478,0,0.864-1.146-0.041-1.32c-0.673-0.131,0.031-1.01,0.335-1.69c0.704-1.577,4.099-8.45,6.133-12.552    c0.782,1.181,1.64,2.498,2.192,3.997C16.12,27.545,15,28.978,15,31.915C15,33.207,15.85,34,17.188,34    c0.478,0,0.864-1.146-0.041-1.32c-1.084-0.21,3.885-6.055,4.629-8.416c0.163-0.519-0.505-1.98-1.287-3.431    c1.093,0.407,2.195,0.895,3.278,1.494c-1.258,1.676-2.735,3.943-2.735,5.358c0,1.479,0.804,5.389,0.804,6.753    c0,0.42-1.197,0.545-1.563,0.746C19.75,35.472,20.034,36,20.655,36H22.5c1.219,0,0.942-0.053,1.344-0.563    c0.614-0.781,0.471-6.179,0.656-6.639c0.201-0.498,1.76-1.836,3.3-3.219c0.7,1.857,1.396,3.658,1.654,4.188    c0.567,1.165,3.774,3.984,3.671,4.44c-0.093,0.41-0.755,0.774-1.12,0.975c-0.522,0.288-0.239,0.815,0.383,0.817h1.845    c1.405,0.001,1.514,0.01,1.823-0.562C36.697,34.259,33.295,29.202,33.25,28.799z"/>
	</g>
</g>
</svg>
