<?xml version="1.0" encoding="utf-8"?>
<!-- Generator: Adobe Illustrator 15.0.0, SVG Export Plug-In . SVG Version: 6.00 Build 0)  -->
<!DOCTYPE svg PUBLIC "-//W3C//DTD SVG 1.1//EN" "http://www.w3.org/Graphics/SVG/1.1/DTD/svg11.dtd">
<svg xmlns="http://www.w3.org/2000/svg" xmlns:xlink="http://www.w3.org/1999/xlink" version="1.1" id="Shape_5_2_" x="0px" y="0px" width="40px" height="40px" viewBox="0 0 40 40" enable-background="new 0 0 40 40" xml:space="preserve">
<g>
	<g>
		<path d="M33.205,11.176c0-0.675,0.425-1.063,1.219-0.963C35.619,12.267,38,11.43,38,11.15c0-1.198-2.878-2.873-5.025-1.717    C32.304,9.793,32,10.406,32,11.176c0,2.949,4.781,3.824,4.781,6.021c0,1.266-3.09,0.897-5.138,0.174    C30.505,16.516,29.055,16,28,16c-2.044,0-4.784,0.656-7.458,0.656c-0.094,0-0.302-0.005-0.555-0.013    c0.08-1.3,0.248-2.277,0.606-2.695c0,0,2.271,0.076,3.408,0.076c1.406,0,1.15-1.617,0.826-1.961    c-0.646-0.685,0.067-0.194-2.362-2.312c-1.537-1.341-2.073-1.68-2.733-1.766C19.069,7.146,17.948,6,16.208,6    c-1.313,0-2.663,0.673-3.354,1.653c1.157-0.194,2.262-0.477,3.302-0.153c0.596,0.186,1.107,0.589,1.526,1.058    c-0.176,0.183-0.342,0.394-0.496,0.648c-1.839,0.676-3.439,0.902-3.509,1.14c-0.112,0.388,0.979,1.064,2.618,0.727    c-0.35,0.945-0.555,2.72-0.94,4.457c-1.787-1.269-3.445-3.269-4.94-4.191c0.372-0.314,0.705-0.932-0.068-1.497    c-0.613-0.448-1.485,0.453-2.005,1.112c-2.338,0.443-3.27,1.232-3.9,1.905c-0.456,0.489-1.694,0.776-2.368,1.463    c-0.274,0.279,0.036,1.536,0.762,2.069c0.185,1.026,0.483,1.641,1.248,1.641c0.703,0,1.88-0.524,1.88-0.524    s1.415,0.253,2.364,0.007c0.515,0.509,1.367,2.159,2.046,3.58c-0.456,1.287-0.622,2.799,0.443,3.654    c0.419,5.624,0.896,6.075-0.233,7.136c-0.336,0.315-1.116,0.244-1.423,0.695C8.782,33.131,8.875,34,9.603,34h1.709    c0.843,0,1.575-1.492,2.041-2.469c0.459-0.963,0.864-2.92,1.364-5.503c0.444,0.042,0.94,0.056,1.467,0.053    c1.654,4.368,1.93,4.867,1.188,5.836c-0.242,0.315-0.906,0.213-1.214,0.664C15.782,33.131,15.875,34,16.603,34h1.709    c0.843,0,1.551-1.461,1.726-2.438c0.175-0.985,0.074-3.029-0.146-5.712c2.14-0.214,4.39-0.52,6.27-0.701    c-0.02,0.694,0.046,1.286,0.245,1.688c0.887,1.793,1.838,3.306,1.502,4.068c-0.169,0.385-0.683,1.343-1.102,1.441    C25.275,32.708,25.908,34,26.656,34H27.5c0.305,0,0.607-0.08,0.852-0.311c0.875-0.825,1.618-2.126,1.698-2.32    c0.378-0.906,0.022-2.078,0.427-3.311c0.533,0.714,0.979,1.438,1.157,2.155c0.151,0.611-0.625,2.136-0.866,2.209    C29.642,32.764,29.875,34,30.907,34h0.937c0.75,0,1.112-1.16,1.36-1.732c0.493-1.136,0.895-2.166,0.895-2.376    c0-0.729-0.472-1.52-1.161-3.121c-0.328-0.763,0.5-4.028,0.5-6.396c0-0.361-0.076-0.707-0.203-1.038    C35.656,19.773,38,19.224,38,17.281C38,13.969,33.205,13.5,33.205,11.176z"/>
	</g>
</g>
</svg>
