<?xml version="1.0" encoding="utf-8"?>
<!-- Generator: Adobe Illustrator 15.0.0, SVG Export Plug-In . SVG Version: 6.00 Build 0)  -->
<!DOCTYPE svg PUBLIC "-//W3C//DTD SVG 1.1//EN" "http://www.w3.org/Graphics/SVG/1.1/DTD/svg11.dtd">
<svg xmlns="http://www.w3.org/2000/svg" xmlns:xlink="http://www.w3.org/1999/xlink" version="1.1" id="Shape_5_2_" x="0px" y="0px" width="40px" height="40px" viewBox="0 0 40 40" enable-background="new 0 0 40 40" xml:space="preserve">
<g>
	<g>
		<path d="M38,23.813c0-5.781-7.736-7.799-7.736-12.799c0-2.847,1.799-3.732,3.174-3.732c1.781,0,2.313,1.302,2.313,1.302    s-0.375,2.292,2.25,3.375C37.417,8.583,36.125,6,32.75,6C30.5,6,28,7.425,28,11.591c0,5.565,6.143,8.544,6.143,12.232    c0,0.969-0.716,1.51-1.841,1.51c-2.913,0-5.366-5.333-9.979-5.333c-5.572,0-6.447,4-9.113,4C12.419,24,12,23.594,12,22.906    c0-1.717,2.074-2.705,2.771-5.564C16.698,16.61,18.644,16,20.5,16c3.043,0,5.25,0.936,5.25,0.936S25.255,15,20.5,15    c-1.838,0-3.699,0.533-5.538,1.206C14.986,15.942,15,15.667,15,15.375c0-0.351-0.045-0.688-0.113-1.018    c0.69-0.265,1.398-0.613,2.113-1.076c-1.527-0.419-1.938-0.969-1.938-0.969s2.585-0.542,3.636-2.235    c-2.131,0-3.085-0.462-3.085-0.462S17.218,8.579,18,6.5c-3.182,1.138-4.901,1.252-4.901,1.252    c1.221-0.684,3.737-2.623,4.884-4.997C18.216,2.272,17.497,1.642,17,2.251c-1.08,1.322-2.265,2.335-3.499,3.19    c0.293-0.94,0.495-1.95,0.499-2.933c0.002-0.537-0.919-0.795-1.104-0.03c-0.41,1.682-1.053,3.124-1.812,4.443    c-0.381,0.21-0.763,0.417-1.146,0.619c0,0-1.793,0.542-2.703,1.051c-0.877,0.49-1.246,0.665-1.517,1.477l-1.593,0.304    c0,0-0.439-0.262-1.163-0.262S2,10.57,2,11.406c0,0.573,0.266,1.137,0.921,1.756C2.496,14.126,2,15.483,2,16.589    C2,18.661,3.458,20,5.716,20c0.893,0,1.807-0.143,2.729-0.373c-0.742,1.1-1.487,2.313-1.487,4.341c0,1.111,0.263,2.079,0.708,2.9    c-0.044,0.128-0.087,0.265-0.128,0.412l-2.155-1.046l-0.448-1.384c-0.273-0.843-1.177-1.305-2.02-1.032    c-0.571,0.185-0.96,0.661-1.071,1.209C1.9,25,1.956,24.973,2.018,24.953c0.632-0.205,1.311,0.142,1.515,0.774l0.74,2.288    c0.204,0.632-0.142,1.311-0.774,1.515c-0.062,0.02-0.124,0.03-0.185,0.04c0.411,0.379,1.005,0.537,1.576,0.353    c0.688-0.223,1.116-0.868,1.103-1.556c0.748,0.387,1.971,1.019,2.613,1.351c0.524,0.269,0.727-0.214,0.978-0.79    C10.661,29.627,11.966,30,13.31,30c0.061,0,0.117-0.008,0.177-0.01c0.233,0.221,0.568,0.453,1.014,0.691l-1.361,1.715h-1.537    C10.718,32.396,10,33.114,10,34c0,0.601,0.333,1.116,0.82,1.392c-0.01-0.063-0.019-0.123-0.018-0.188    c-0.001-0.665,0.538-1.204,1.202-1.203h2.405c0.664,0,1.203,0.538,1.203,1.203c-0.001,0.064-0.01,0.126-0.02,0.188    c0.487-0.275,0.82-0.791,0.82-1.391c0.001-0.75-0.515-1.374-1.209-1.55c0.538-0.644,1.438-1.719,1.908-2.281    c0.336-0.406,0.026-0.69-0.406-1.012C18.986,27.985,20.424,26,22.334,26c1.664,0,2.951,2.104,5.708,3.26l-0.902,1.137h-1.536    C24.718,30.396,24,31.114,24,32c0,0.601,0.333,1.116,0.82,1.392c-0.01-0.063-0.019-0.123-0.018-0.188    c-0.001-0.665,0.538-1.204,1.202-1.203h2.405c0.664,0,1.203,0.538,1.203,1.203c-0.001,0.064-0.01,0.126-0.02,0.188    c0.487-0.275,0.82-0.791,0.82-1.391c0.001-0.735-0.497-1.349-1.172-1.538l0.608-0.653c0.614,0.119,1.286,0.19,2.031,0.19    c0.546,0,1.041-0.045,1.5-0.119c0.23,0.252,0.598,0.521,1.119,0.801l-1.361,1.715h-1.536C30.718,32.396,30,33.114,30,34    c0,0.601,0.333,1.116,0.82,1.392c-0.01-0.063-0.019-0.123-0.018-0.188c-0.001-0.665,0.538-1.204,1.202-1.203h2.405    c0.664,0,1.203,0.538,1.203,1.203c-0.001,0.064-0.01,0.126-0.02,0.188c0.487-0.275,0.82-0.791,0.82-1.391    c0.001-0.75-0.516-1.374-1.21-1.55c0.538-0.644,1.438-1.719,1.908-2.281c0.483-0.583-0.359-0.917-0.996-1.469    C37.519,27.519,38,25.679,38,23.813z M5.716,19C4.016,19,3,18.099,3,16.589c0-0.849,0.372-1.929,0.731-2.778    c0.529,0.374,1.181,0.769,2.019,1.205l0.292-0.927c0,0,1.624,1.083,2.494,1.995c0.358-0.53,0.546-1.1,0.673-1.47    c0.415,0.375,0.708,0.832,0.708,1.384c0,0.949-0.275,1.683-0.655,2.36C8.042,18.742,6.859,19,5.716,19z"/>
	</g>
</g>
</svg>
