<?xml version="1.0" encoding="utf-8"?>
<!-- Generator: Adobe Illustrator 15.0.0, SVG Export Plug-In . SVG Version: 6.00 Build 0)  -->
<!DOCTYPE svg PUBLIC "-//W3C//DTD SVG 1.1//EN" "http://www.w3.org/Graphics/SVG/1.1/DTD/svg11.dtd">
<svg xmlns="http://www.w3.org/2000/svg" xmlns:xlink="http://www.w3.org/1999/xlink" version="1.1" id="Shape_5_2_" x="0px" y="0px" width="40px" height="40px" viewBox="0 0 40 40" enable-background="new 0 0 40 40" xml:space="preserve">
<g>
	<g>
		<path d="M33.833,16C30.396,16,33,20.564,33,23.925c0,2.911-1.184,4.45-2.754,5.252c0.923-7.269-1.715-10.509-5.499-12.435    c-2.174-1.105-4.515-1.169-6.958-2.034c-1.126-1.316-2.351-2.961-4.029-3.909c0.2-0.475,0.288-0.941,0.213-1.335    C13.779,8.458,13.154,7.993,12.42,8c-0.893,0.009-1.491,0.73-2.18,2.013c-1.657,0.064-3.316,0.595-4.441,1.338    c-1.6,1.057-3.516,3.497-3.713,3.826c-0.291,0.485,0.14,1.581,1.379,2.324c1.428,0.856,4.369,1.271,4.826,1.546    c0.191,0.114,0.896,0.962,1.878,2.103c-0.108,0.005-0.211,0.011-0.307,0.018C7.405,21.334,8.086,24,8.086,24    s2.049-0.978,2.854-0.978c0.186,0,0.712,0.223,1.307,0.463c1.188,1.281,2.505,2.592,3.758,3.557c0,1.188,0.327,2.167,1.56,3.207    c-2.774,0-3.586,1.751-3.586,1.751H25c5.96,0,13-0.957,13-8.57C38,19.072,36.188,16,33.833,16z M28.232,29.154    c-0.52-4.865-2.279-7.58-4.982-8.842c-1.413-0.659-4.912-1.135-7.219-1.802c-0.368-0.106-0.716-0.337-0.95-0.625    C13.382,15.799,12.125,14,10.5,14c-0.636,0-2.268,0.187-3,0.433c-1.426,0.48-3.243,1.188-3.243,1.188    c0.636-0.769,1.766-2.021,2.645-2.602C7.839,12.4,9.278,12,10.567,12c0.396,0,0.77,0.037,1.113,0.11    c1.619,0.343,2.857,1.828,4.055,3.264c0.181,0.217,0.882,1.042,0.882,1.042l0.505,0.179c1.14,0.403,2.212,0.639,3.25,0.868    c1.306,0.288,2.434,0.536,3.47,1.063C26.695,19.978,29.175,22.292,28.232,29.154z"/>
	</g>
</g>
</svg>
