<?xml version="1.0" encoding="utf-8"?>
<!-- Generator: Adobe Illustrator 15.0.0, SVG Export Plug-In . SVG Version: 6.00 Build 0)  -->
<!DOCTYPE svg PUBLIC "-//W3C//DTD SVG 1.1//EN" "http://www.w3.org/Graphics/SVG/1.1/DTD/svg11.dtd">
<svg xmlns="http://www.w3.org/2000/svg" xmlns:xlink="http://www.w3.org/1999/xlink" version="1.1" id="Shape_5_2_" x="0px" y="0px" width="40px" height="40px" viewBox="0 0 40 40" enable-background="new 0 0 40 40" xml:space="preserve">
<g>
	<g>
		<path d="M39.3,16.364c-0.835-1.377-2.082-2.835-3.639-4.212C34.498,14.678,29.716,24.755,26,28    c3.989-6.088,7.566-14.146,8.657-16.687c-2.127-1.685-4.732-3.173-7.655-4.144c-0.83,4.396-2.98,15.087-4.956,19.038    c1.326-6.616,2.962-15.656,3.638-19.432C23.879,6.291,21.977,6,20,6s-3.879,0.291-5.684,0.775    c0.676,3.776,2.311,12.816,3.638,19.432c-1.976-3.95-4.125-14.642-4.955-19.038C10.076,8.14,7.47,9.628,5.343,11.313    C6.434,13.853,10.01,21.912,14,28c-3.716-3.245-8.498-13.322-9.661-15.848c-1.557,1.376-2.804,2.834-3.638,4.212    c-0.886,1.462-0.85,3.847-0.328,5.044C2,25.139,10.819,34,20,34c9.181,0,18.063-8.861,19.639-12.592    C40.145,20.211,40.185,17.827,39.3,16.364z"/>
	</g>
</g>
</svg>
