<?xml version="1.0" encoding="utf-8"?>
<!-- Generator: Adobe Illustrator 15.0.0, SVG Export Plug-In . SVG Version: 6.00 Build 0)  -->
<!DOCTYPE svg PUBLIC "-//W3C//DTD SVG 1.1//EN" "http://www.w3.org/Graphics/SVG/1.1/DTD/svg11.dtd">
<svg xmlns="http://www.w3.org/2000/svg" xmlns:xlink="http://www.w3.org/1999/xlink" version="1.1" id="Shape_5_2_" x="0px" y="0px" width="40px" height="40px" viewBox="0 0 40 40" enable-background="new 0 0 40 40" xml:space="preserve">
<g>
	<g>
		<path d="M25.849,21.018c-3.996-2.311-8.224-3.906-9.564-4.387c-1.222,1.013-4.773,2.485-6.675,2.357    c-1.077,0.064-2.661,0.192-3.069,0.402c-0.806,0.414-0.47,1.265-0.119,1.783c0.657,0.97,1.34,2.03,1.7,2.849    c0.759,1.723,1.288,4.281,1.288,4.281c0.705-0.741,0.809-3.064,0.059-4.974c-0.375-0.954-0.949-1.884-1.426-2.7l3.116-0.181    c0.6,1.344,1.453,2.723,2.542,4.078c-0.711,0.863-1.384,1.737-1.638,2.24c-0.189,0.376-0.04,1.073,0.456,1.455    c2.575,1.98,4.541,3.165,5.947,4.572C20.35,34.679,21.75,37,21.75,37c0.181-1.099-0.998-3.785-2.345-5.375    c-1.134-1.338-2.68-2.43-5.323-4.52l0.836-1.194c0.133,0.141,0.249,0.283,0.388,0.423c5.583,5.584,15.206,9.458,17.847,6.818    c0.459-0.459,0.71-1.141,0.8-1.965C34.266,27.713,29.992,23.413,25.849,21.018z M4,18.013c0-5.259,2.142-6.993,2.621-6.993    c0.051,0,0.263-0.001,0.557-0.003C7.066,11.403,7,11.798,7,12.193c0,0.607,0.444,1.077,1.11,1.447    c-0.265,1.747-0.016,3.428,0.592,4.035c1.095,1.095,5.935-0.848,7.03-1.943c1.096-1.095,3.039-5.936,1.943-7.03    c-0.607-0.607-2.289-0.856-4.035-0.592C13.27,7.444,12.8,7,12.193,7c-0.396,0-0.79,0.066-1.176,0.178    c0.002-0.294,0.003-0.506,0.003-0.557C11.02,6.142,12.753,4,18.013,4c5.141,0,8.649,1.279,12.441,3.699    c1.548,0.988,3.293,2.502,3.473,2.271S32.394,8.009,30.883,7c-4.39-2.931-7.956-4-12.87-4c-6.486,0-7.818,2.792-7.931,2.965    c-0.063,0.097-0.088,0.827-0.095,1.639C8.998,8.143,8.143,8.998,7.604,9.987c-0.812,0.007-1.542,0.031-1.639,0.095    C5.792,10.195,3,11.527,3,18.013c0,4.914,1.069,8.48,4,12.87c1.009,1.511,2.738,3.224,2.969,3.044s-1.282-1.925-2.271-3.473    C5.279,26.662,4,23.153,4,18.013z M32.793,18.464c-1.407-1.406-2.592-3.372-4.572-5.947c-0.382-0.496-1.079-0.645-1.455-0.456    c-0.503,0.254-1.377,0.927-2.24,1.638c-1.355-1.088-2.734-1.941-4.078-2.542l0.181-3.116c0.816,0.478,1.746,1.052,2.7,1.426    c1.909,0.75,4.232,0.646,4.974-0.059c0,0-2.559-0.529-4.281-1.288c-0.818-0.36-1.879-1.043-2.849-1.7    c-0.518-0.351-1.369-0.687-1.783,0.119c-0.209,0.408-0.337,1.992-0.402,3.069c0.114,1.698-1.045,4.705-2.017,6.202    c1.674,0.607,5.608,2.136,9.383,4.33c2.489,1.447,5.038,3.564,6.705,5.842c-1.278-3.598-3.753-7.707-6.724-10.678    c-0.14-0.139-0.283-0.255-0.423-0.388l1.193-0.836c2.09,2.644,3.182,4.189,4.52,5.323c1.59,1.347,4.276,2.526,5.375,2.345    C37,21.75,34.679,20.35,32.793,18.464z"/>
	</g>
</g>
</svg>
