<?xml version="1.0" encoding="utf-8"?>
<!-- Generator: Adobe Illustrator 15.0.0, SVG Export Plug-In . SVG Version: 6.00 Build 0)  -->
<!DOCTYPE svg PUBLIC "-//W3C//DTD SVG 1.1//EN" "http://www.w3.org/Graphics/SVG/1.1/DTD/svg11.dtd">
<svg xmlns="http://www.w3.org/2000/svg" xmlns:xlink="http://www.w3.org/1999/xlink" version="1.1" id="Shape_5_2_" x="0px" y="0px" width="40px" height="40px" viewBox="0 0 40 40" enable-background="new 0 0 40 40" xml:space="preserve">
<g id="554053916_Shape_5_2_">
	<g>
		<g>
			<g>
				<path fill-rule="evenodd" clip-rule="evenodd" d="M31.564,32.061c0.78-0.187,1.506-0.194,1.655-0.56      c0.109-0.267-7.368-5.673-12.261-10.334c-1.631-1.554-1.211-5.073-1.896-6.542c-1.233-2.646-3.165-4.384-8.938-4.728      c-2.229-6.933-7.781-6.013-8.08-5.553c-0.358,0.554,1.625,0.594,2.562,2.53c0.767,1.585,0.018,3.906,2.962,4.875      c0.002,0,0.004,0.001,0.006,0.002c-0.952,0.562-1.497,1.56-1.497,2.998c0,2.071,1.766,3.982,1.766,3.982l0.322-1.842      c0,0,0.521,1.077,2.031,1.25c0.612,3.124-1.292,6.509,1.314,10.735c0.623,1.01,1.381,1.804,2.207,2.457L13.154,35H12      c-1.104,0-2,0.896-2,2c0,0.748,0.416,1.393,1.023,1.735C11.012,38.658,11,38.581,11,38.5c0-0.828,0.672-1.5,1.5-1.5h3      c0.828,0,1.5,0.672,1.5,1.5c0,0.081-0.012,0.158-0.023,0.235C17.584,38.393,18,37.748,18,37c0-1.104-0.896-2-2-2h-0.543      l0.965-2.112c1.633,0.649,3.344,0.938,4.89,1.078L21.154,35H20c-1.104,0-2,0.896-2,2c0,0.748,0.416,1.393,1.023,1.735      C19.012,38.658,19,38.581,19,38.5c0-0.828,0.672-1.5,1.5-1.5h3c0.828,0,1.5,0.672,1.5,1.5c0,0.081-0.012,0.158-0.023,0.235      C25.584,38.393,26,37.748,26,37c0-1.104-0.896-2-2-2h-0.532l0.415-0.889c1.037,0.034,1.854,0.056,2.279,0.189      c2.069,0.652,4.628,3.036,6.091,3.385c2.75,0.656,4.492-0.455,4.685-0.873C37.172,36.304,34.938,34.867,31.564,32.061z"/>
			</g>
			<g>
				<path fill-rule="evenodd" clip-rule="evenodd" d="M31.564,32.061c0.78-0.187,1.506-0.194,1.655-0.56      c0.109-0.267-7.368-5.673-12.261-10.334c-1.631-1.554-1.211-5.073-1.896-6.542c-1.233-2.646-3.165-4.384-8.938-4.728      c-2.229-6.933-7.781-6.013-8.08-5.553c-0.358,0.554,1.625,0.594,2.562,2.53c0.767,1.585,0.018,3.906,2.962,4.875      c0.002,0,0.004,0.001,0.006,0.002c-0.952,0.562-1.497,1.56-1.497,2.998c0,2.071,1.766,3.982,1.766,3.982l0.322-1.842      c0,0,0.521,1.077,2.031,1.25c0.612,3.124-1.292,6.509,1.314,10.735c0.623,1.01,1.381,1.804,2.207,2.457L13.154,35H12      c-1.104,0-2,0.896-2,2c0,0.748,0.416,1.393,1.023,1.735C11.012,38.658,11,38.581,11,38.5c0-0.828,0.672-1.5,1.5-1.5h3      c0.828,0,1.5,0.672,1.5,1.5c0,0.081-0.012,0.158-0.023,0.235C17.584,38.393,18,37.748,18,37c0-1.104-0.896-2-2-2h-0.543      l0.965-2.112c1.633,0.649,3.344,0.938,4.89,1.078L21.154,35H20c-1.104,0-2,0.896-2,2c0,0.748,0.416,1.393,1.023,1.735      C19.012,38.658,19,38.581,19,38.5c0-0.828,0.672-1.5,1.5-1.5h3c0.828,0,1.5,0.672,1.5,1.5c0,0.081-0.012,0.158-0.023,0.235      C25.584,38.393,26,37.748,26,37c0-1.104-0.896-2-2-2h-0.532l0.415-0.889c1.037,0.034,1.854,0.056,2.279,0.189      c2.069,0.652,4.628,3.036,6.091,3.385c2.75,0.656,4.492-0.455,4.685-0.873C37.172,36.304,34.938,34.867,31.564,32.061z"/>
			</g>
			<g>
				<path fill-rule="evenodd" clip-rule="evenodd" d="M31.564,32.061c0.78-0.187,1.506-0.194,1.655-0.56      c0.109-0.267-7.368-5.673-12.261-10.334c-1.631-1.554-1.211-5.073-1.896-6.542c-1.233-2.646-3.165-4.384-8.938-4.728      c-2.229-6.933-7.781-6.013-8.08-5.553c-0.358,0.554,1.625,0.594,2.562,2.53c0.767,1.585,0.018,3.906,2.962,4.875      c0.002,0,0.004,0.001,0.006,0.002c-0.952,0.562-1.497,1.56-1.497,2.998c0,2.071,1.766,3.982,1.766,3.982l0.322-1.842      c0,0,0.521,1.077,2.031,1.25c0.612,3.124-1.292,6.509,1.314,10.735c0.623,1.01,1.381,1.804,2.207,2.457L13.154,35H12      c-1.104,0-2,0.896-2,2c0,0.748,0.416,1.393,1.023,1.735C11.012,38.658,11,38.581,11,38.5c0-0.828,0.672-1.5,1.5-1.5h3      c0.828,0,1.5,0.672,1.5,1.5c0,0.081-0.012,0.158-0.023,0.235C17.584,38.393,18,37.748,18,37c0-1.104-0.896-2-2-2h-0.543      l0.965-2.112c1.633,0.649,3.344,0.938,4.89,1.078L21.154,35H20c-1.104,0-2,0.896-2,2c0,0.748,0.416,1.393,1.023,1.735      C19.012,38.658,19,38.581,19,38.5c0-0.828,0.672-1.5,1.5-1.5h3c0.828,0,1.5,0.672,1.5,1.5c0,0.081-0.012,0.158-0.023,0.235      C25.584,38.393,26,37.748,26,37c0-1.104-0.896-2-2-2h-0.532l0.415-0.889c1.037,0.034,1.854,0.056,2.279,0.189      c2.069,0.652,4.628,3.036,6.091,3.385c2.75,0.656,4.492-0.455,4.685-0.873C37.172,36.304,34.938,34.867,31.564,32.061z"/>
			</g>
		</g>
		<path fill-rule="evenodd" clip-rule="evenodd" d="M8.301,9.27c2.033-5.838-0.776-6.805-0.176-7.181    c0.688-0.431,6.369,1.444,3.085,8.958L8.301,9.27z"/>
		<path fill-rule="evenodd" clip-rule="evenodd" d="M9.444,9.377c4.428-2.838,4.195-6.373,4.899-6.292    c0.807,0.092,2.283,6.395-3.914,9.154L9.444,9.377z"/>
		<path fill-rule="evenodd" clip-rule="evenodd" d="M11.094,10.219c4.105-0.404,5.147-2.563,5.665-2.078    c0.492,0.46-0.892,5.092-6.051,4.943L11.094,10.219z"/>
	</g>
	<g>
		<g>
			<g>
				<path fill-rule="evenodd" clip-rule="evenodd" d="M31.564,32.061c0.78-0.187,1.506-0.194,1.655-0.56      c0.109-0.267-7.368-5.673-12.261-10.334c-1.631-1.554-1.211-5.073-1.896-6.542c-1.233-2.646-3.165-4.384-8.938-4.728      c-2.229-6.933-7.781-6.013-8.08-5.553c-0.358,0.554,1.625,0.594,2.562,2.53c0.767,1.585,0.018,3.906,2.962,4.875      c0.002,0,0.004,0.001,0.006,0.002c-0.952,0.562-1.497,1.56-1.497,2.998c0,2.071,1.766,3.982,1.766,3.982l0.322-1.842      c0,0,0.521,1.077,2.031,1.25c0.612,3.124-1.292,6.509,1.314,10.735c0.623,1.01,1.381,1.804,2.207,2.457L13.154,35H12      c-1.104,0-2,0.896-2,2c0,0.748,0.416,1.393,1.023,1.735C11.012,38.658,11,38.581,11,38.5c0-0.828,0.672-1.5,1.5-1.5h3      c0.828,0,1.5,0.672,1.5,1.5c0,0.081-0.012,0.158-0.023,0.235C17.584,38.393,18,37.748,18,37c0-1.104-0.896-2-2-2h-0.543      l0.965-2.112c1.633,0.649,3.344,0.938,4.89,1.078L21.154,35H20c-1.104,0-2,0.896-2,2c0,0.748,0.416,1.393,1.023,1.735      C19.012,38.658,19,38.581,19,38.5c0-0.828,0.672-1.5,1.5-1.5h3c0.828,0,1.5,0.672,1.5,1.5c0,0.081-0.012,0.158-0.023,0.235      C25.584,38.393,26,37.748,26,37c0-1.104-0.896-2-2-2h-0.532l0.415-0.889c1.037,0.034,1.854,0.056,2.279,0.189      c2.069,0.652,4.628,3.036,6.091,3.385c2.75,0.656,4.492-0.455,4.685-0.873C37.172,36.304,34.938,34.867,31.564,32.061z"/>
			</g>
		</g>
		<path fill-rule="evenodd" clip-rule="evenodd" d="M8.301,9.27c2.033-5.838-0.776-6.805-0.176-7.181    c0.688-0.431,6.369,1.444,3.085,8.958L8.301,9.27z"/>
		<path fill-rule="evenodd" clip-rule="evenodd" d="M9.444,9.377c4.428-2.838,4.195-6.373,4.899-6.292    c0.807,0.092,2.283,6.395-3.914,9.154L9.444,9.377z"/>
		<path fill-rule="evenodd" clip-rule="evenodd" d="M11.094,10.219c4.105-0.404,5.147-2.563,5.665-2.078    c0.492,0.46-0.892,5.092-6.051,4.943L11.094,10.219z"/>
	</g>
</g>
</svg>
