<?xml version="1.0" encoding="utf-8"?>
<!-- Generator: Adobe Illustrator 15.0.0, SVG Export Plug-In . SVG Version: 6.00 Build 0)  -->
<!DOCTYPE svg PUBLIC "-//W3C//DTD SVG 1.1//EN" "http://www.w3.org/Graphics/SVG/1.1/DTD/svg11.dtd">
<svg xmlns="http://www.w3.org/2000/svg" xmlns:xlink="http://www.w3.org/1999/xlink" version="1.1" id="Shape_5_2_" x="0px" y="0px" width="40px" height="40px" viewBox="0 0 40 40" enable-background="new 0 0 40 40" xml:space="preserve">
<g>
	<g>
		<path d="M31.933,29.965c0.293-0.095,0.529-0.193,0.618-0.288c0.599-0.636,0.138-3.389-0.25-3.523    c-0.434-0.15-1.911-0.433-2.831-0.601c0.565-0.21,1.628-0.91,1.902-1.386c0.931-1.612-0.02-5.545-0.537-5.687    c-1.283-0.353-3.994-0.564-5.41-0.656c-0.193-0.38-0.386-0.756-0.579-1.128C28.555,15.335,28.761,10,27,10    c-2.113,0-3.881,0.397-5.597,0.903c-0.414-0.56-0.825-1.056-1.231-1.462c-3.354-3.354-9.75-5.251-13.506-5.439    C5.827,3.959,5.034,4.013,4.661,4.277C4.221,4.589,4.009,4.762,4.009,6.5c0,0.061,0.007,0.125,0.009,0.187    C3.1,7.951,1.695,9.981,2.125,10c0.244,0.011,1.295-0.981,2.063-1.742c0.274,1.513,0.841,3.194,1.538,4.833    c2.282,2.676,5.678,3.217,6.775,2.743c0.491-0.212,0.811-1.802,0.931-3.408c0.061-0.815,0.49-0.646,0.567,0.168    c0.188,1.969-0.133,3.563-0.688,3.982c-0.994,0.751-3.966,0.56-6.555-1.262c0.413,0.819,0.837,1.604,1.253,2.308    c0.001,0.001,0.002,0.003,0.003,0.005C7.807,22.263,8.707,26.795,9.063,27c0.366,0.211,1.594-2.563,1.656-4.25    c0.016-0.435-0.062-0.905-0.207-1.392c2.671,3.463,4.785,4.462,6.595,5.265c0.571,0.253,1.596,0.603,2.825,1.012    c0.116,0.982,0.296,2.218,0.549,3.137c0.142,0.518,2.595,1.468,4.207,0.537c0.387-0.224,0.639-1.112,0.792-1.761    c0,0,0.381,2.153,0.674,2.753c0.181,0.369,2.888,0.849,3.523,0.25c0.086-0.081,0.176-0.283,0.263-0.539    C31.094,33.756,31.068,38,32,38c2,0,3.343-2.657,3.343-2.657S38,34,38,32C38,31.064,33.445,31.313,31.933,29.965z M11.921,7.92    c-0.509,0.507-1.333,0.509-1.841,0c-0.509-0.507-0.508-1.333,0-1.841c0.509-0.509,1.333-0.508,1.84,0    C12.429,6.588,12.429,7.412,11.921,7.92z"/>
	</g>
</g>
</svg>
