<?xml version="1.0" encoding="utf-8"?>
<!-- Generator: Adobe Illustrator 15.0.0, SVG Export Plug-In . SVG Version: 6.00 Build 0)  -->
<!DOCTYPE svg PUBLIC "-//W3C//DTD SVG 1.1//EN" "http://www.w3.org/Graphics/SVG/1.1/DTD/svg11.dtd">
<svg xmlns="http://www.w3.org/2000/svg" xmlns:xlink="http://www.w3.org/1999/xlink" version="1.1" id="Shape_5_2_" x="0px" y="0px" width="40px" height="40px" viewBox="0 0 40 40" enable-background="new 0 0 40 40" xml:space="preserve">
<g>
	<path d="M20,38c0-2.737-0.472-4.91-1.22-6.74c-0.051-0.099-0.095-0.201-0.129-0.307c-0.04-0.093-0.081-0.184-0.122-0.274   c-0.563-0.129-1.238,0.062-2.479,0.483C14.896,31.555,13.588,32,12.046,32c-2.098,0-4.152-1.167-5.231-2.974   c-0.887-1.484-1.036-2.894-1.193-4.385c-0.165-1.554-0.351-3.314-1.454-5.841c-0.442-1.012,0.021-2.191,1.033-2.633   c1.01-0.444,2.19,0.02,2.633,1.033c1.35,3.092,1.59,5.363,1.766,7.021c0.141,1.331,0.233,2.058,0.649,2.753   C10.543,27.468,11.232,28,12.046,28c0.88,0,1.771-0.304,2.715-0.625c0.45-0.152,0.927-0.315,1.428-0.448   c-0.192-0.246-0.387-0.488-0.584-0.727c-0.026-0.029-0.052-0.061-0.076-0.092c-0.391-0.47-0.788-0.929-1.183-1.385   C12.209,22.258,10,19.708,10,16c0-0.766,0.061-1.447,0.167-2.058C8.584,13.02,7,11.409,7,9c0-2.04,1.198-3.901,1.334-4.106   c0.611-0.92,1.852-1.172,2.772-0.56c0.918,0.61,1.169,1.846,0.564,2.765C11.411,7.5,11,8.37,11,9c0,0.473,0.329,0.867,0.726,1.172   c0.176-0.261,0.352-0.505,0.521-0.739C13.227,8.077,14,7.006,14,4c0-1.104,0.896-2,2-2s2,0.896,2,2c0,1.588-0.19,2.853-0.486,3.894   c2.208-0.314,2.362-1.274,2.511-2.209c0.175-1.091,1.207-1.835,2.29-1.66c1.091,0.174,1.834,1.2,1.659,2.291   C23.161,11.411,18.893,12,15.754,12c-0.136,0-0.269-0.014-0.397-0.04c-0.374,0.519-0.688,0.977-0.919,1.513   c-0.022,0.064-0.048,0.126-0.076,0.187C14.13,14.266,14,14.985,14,16c0,2.011,1.164,3.54,2.84,5.492   c0.373-0.491,0.751-0.926,1.126-1.319c-0.051-0.068-0.104-0.137-0.157-0.207C17.045,18.963,16,17.591,16,15.637   c0-1.104,0.896-2,2-2s2,0.896,2,2c0,0.535,0.326,1.026,0.866,1.741C21.605,16.531,22,15.636,22,14c0-1.104,0.896-2,2-2s2,0.896,2,2   c0,4.21-2.006,6.028-3.775,7.632c-0.932,0.846-1.889,1.713-2.723,3.039c0.358,0.466,0.711,0.952,1.054,1.466   c1.11-1.587,2.338-2.759,3.471-3.841C26.333,20.094,28,18.503,28,14c0-2.561-0.755-4.04-0.763-4.055   c-0.505-0.971-0.142-2.18,0.823-2.697c0.967-0.516,2.163-0.173,2.69,0.786c0.1,0.18,0.794,1.501,1.103,3.761   C33,11.425,33,10.54,33,9c0-1.104,0.896-2,2-2s2,0.896,2,2c0,1.721,0,6.005-5.086,6.853c-0.466,4.815-2.757,7.074-5.012,9.227   C27.705,25.559,28.777,26,30,26c1.403,0,1.768-0.579,2.433-3.874c0.183-0.903,0.372-1.837,0.665-2.742   c0.34-1.051,1.466-1.627,2.519-1.287c1.051,0.34,1.627,1.468,1.286,2.519c-0.223,0.688-0.381,1.472-0.549,2.302   C35.784,25.738,34.923,30,30,30c-2.506,0-4.547-1.03-5.88-1.963c-0.51,0.673-0.98,1.427-1.398,2.319C23.501,32.467,24,34.961,24,38   H20z"/>
</g>
</svg>
