<?xml version="1.0" encoding="utf-8"?>
<!-- Generator: Adobe Illustrator 15.0.0, SVG Export Plug-In . SVG Version: 6.00 Build 0)  -->
<!DOCTYPE svg PUBLIC "-//W3C//DTD SVG 1.1//EN" "http://www.w3.org/Graphics/SVG/1.1/DTD/svg11.dtd">
<svg xmlns="http://www.w3.org/2000/svg" xmlns:xlink="http://www.w3.org/1999/xlink" version="1.1" id="Shape_5_2_" x="0px" y="0px" width="40px" height="40px" viewBox="0 0 40 40" enable-background="new 0 0 40 40" xml:space="preserve">
<g>
	<g>
		<path d="M36.843,26.053c-0.384,0.157-0.566,0.343-1.426,0.343c-4.308,0-1.418-7.652-1.979-10.634C32.963,13.245,30,12,28,12    c-2.044,0-7.292,1-11.563,1C13.975,13,11,9.43,8.104,9.041c-0.46-0.948-0.997-1.897-1.352-2.015    C6.019,6.781,5.941,8.324,6.031,8.907c0.021,0.134,0.051,0.256,0.084,0.374c-0.854,0.267-1.777,0.715-2.316,1.321    c-0.243,0.272-0.601,0.787-0.789,1.062c-0.377,0.552-0.589,0.501-0.896,1.112c-0.283,0.561,0.119,1.865,0.929,2.26    c0.688,0.336,1.156-0.192,1.707-0.192c0.444,0,1.721,0.746,2.667,1.243c1.088,0.573,1.667,1.466,2.816,2.647    c0.015,0.071,0.017,0.135,0.04,0.209c0.477,1.579,0.924,2.939,1.314,4.125C9.428,24.207,9.321,24.496,8.458,26    c-0.473,0.824-0.697,2.015,0.54,2.015c1.564,0,1.258-1.811,3.276-2.806c0.455,1.483,0.663,2.45,0.43,2.872    c-0.162,0.293-0.903,0.227-1.181,0.635C11.184,29.214,11.268,30,11.926,30h1.547c0.763,0,1.525-1.344,1.521-2.252    c-0.003-0.704-0.003-2.018-0.04-3.791c0.963-0.478,1.583-0.933,2.013-1.832c2.143,0.306,4.497,0.555,6.436,0.708    c0.001,0.001,0.001,0.003,0.002,0.005c0.887,1.793,1.838,3.306,1.502,4.068c-0.169,0.385-0.683,1.343-1.102,1.441    C22.275,28.708,22.908,30,23.656,30H24.5c0.305,0,0.607-0.08,0.852-0.311c0.875-0.825,1.618-2.126,1.698-2.32    c0.409-0.981-0.054-2.273,0.534-3.619c0.109-0.25,0.272-0.532,0.462-0.838c1.006,1.599,2.675,2.912,2.81,3.687    c0.107,0.62-0.949,1.751-1.19,1.824C28.539,28.764,28.772,30,29.805,30h0.937c0.75,0,0.952-0.493,1.235-1.049    c0.246-0.484,0.565-1.207,0.782-1.753c0.563,0.577,1.407,0.925,2.658,0.925c0.854,0,1.478-0.248,1.873-0.436    C38.489,27.119,37.985,25.583,36.843,26.053z"/>
	</g>
</g>
</svg>
