<?xml version="1.0" encoding="utf-8"?>
<!-- Generator: Adobe Illustrator 15.0.0, SVG Export Plug-In . SVG Version: 6.00 Build 0)  -->
<!DOCTYPE svg PUBLIC "-//W3C//DTD SVG 1.1//EN" "http://www.w3.org/Graphics/SVG/1.1/DTD/svg11.dtd">
<svg xmlns="http://www.w3.org/2000/svg" xmlns:xlink="http://www.w3.org/1999/xlink" version="1.1" id="Shape_5_2_" x="0px" y="0px" width="40px" height="40px" viewBox="0 0 40 40" enable-background="new 0 0 40 40" xml:space="preserve">
<g>
	<g>
		<path d="M38,27.084c0,0,0-7.823,0-10.625C38,13.938,35.459,13,33.373,13c-5.373,0-5.081,1-12.467,1    c-1.371,0-3.484-0.698-5.827-1.741c1.254-0.862,1.094-2.503,0.271-2.229c-0.52,0.173-1.655,0.625-2.721,1.059    c-0.318-0.162-0.635-0.348-0.954-0.517c0.129-0.142,0.22-0.299,0.255-0.475C12.19,8.79,10.979,7.545,9.085,7    c0.623,0.908,1.305,1.723,1.262,2.125c-0.022,0.21-0.221,0.353-0.503,0.455C9.802,9.557,9.76,9.536,9.718,9.512    c-0.926,0-2,0.009-2.468,0.28C7.242,9.797,7.238,9.803,7.23,9.808c-0.747-0.02-1.549-0.11-2.012-0.499    C4.804,8.961,4.84,7.647,4.75,7.042C4.104,7.771,3.828,9.099,4.068,10c0.205,0.768,1.211,1.221,2.1,1.478    c-1.23,1.224-2.498,3.144-3.538,3.6c-0.457,0.2-0.799,1.219-0.371,1.861c0.529,0.794,1.15,1.013,1.5,1.013    c0.774,0,0.45-0.08,1.333-0.281c2.813,0.281,4.491-0.045,4.491-0.045S11.091,20.75,12,22.906c0.729,1.727,0.628,3.335,3.031,3.166    c0.475,1.18,0.83,2.127,0.868,2.416c0.127,0.971,0.126,3.365,0.063,3.666C15.86,32.641,15.094,34,15.094,34h2.281    c0,0,0.358-1.067,0.447-1.704c0.098-0.702,0.133-3.403,0.431-6.412c0.125,0.011,0.244,0.02,0.376,0.032    c0.62,1.303,1.102,2.379,1.162,2.692c0.183,0.962,0.32,3.353,0.274,3.656C19.99,32.756,19.313,34,19.313,34h2.281    c0,0,0.283-1.06,0.336-1.7c0.055-0.677-0.054-3.179,0.046-6.041c0.929,0.083,1.874,0.145,2.769,0.145    c0.387,0,0.785-0.05,1.189-0.13c0.731,0.871,1.807,1.758,3.16,1.758c0.398,0,0.77-0.028,1.119-0.101    c0.353,0.349,0.644,0.697,0.829,1.048c0.171,0.322-0.067,2.837-0.145,3.237C30.789,32.78,30.146,34,30.146,34h2.208    c0,0,0.25-0.727,0.31-1.335c0.159-1.645,0.367-2.804,0.367-3.884c0-0.52-0.254-1.283-0.509-2.234    c1.128,0.818,2.088,1.619,2.52,2.432c0.171,0.322-0.067,2.837-0.145,3.237C34.789,32.78,34.146,34,34.146,34h2.208    c0,0,0.25-0.727,0.31-1.335c0.159-1.645,0.367-2.804,0.367-3.884c0-1.042-1.021-3.063-1.021-5.612    c0-1.852,0.675-4.222,0.907-5.823v5.696C36.917,24.917,38,27.084,38,27.084z"/>
	</g>
</g>
</svg>
