<?xml version="1.0" encoding="utf-8"?>
<!-- Generator: Adobe Illustrator 15.0.0, SVG Export Plug-In . SVG Version: 6.00 Build 0)  -->
<!DOCTYPE svg PUBLIC "-//W3C//DTD SVG 1.1//EN" "http://www.w3.org/Graphics/SVG/1.1/DTD/svg11.dtd">
<svg xmlns="http://www.w3.org/2000/svg" xmlns:xlink="http://www.w3.org/1999/xlink" version="1.1" id="Shape_5_2_" x="0px" y="0px" width="40px" height="40px" viewBox="0 0 40 40" enable-background="new 0 0 40 40" xml:space="preserve">
<g>
	<g>
		<path fill-rule="evenodd" clip-rule="evenodd" d="M34.257,14.595L38,20c0-0.779-0.376-2.934-0.943-4.266    C36,13.253,34.957,12,34.347,12c-0.749,0-1.686,1.121-2.565,2.523c-0.073-0.368-0.158-0.724-0.269-1.054L33,10l5,2c-1-2-3.5-4-6-4    c-0.449,0-1.099,1.612-1.679,3.389C29.494,10.501,28.363,10,26.923,10c-1.953,0-7.261,0.109-12.038,4.885    C10.109,19.66,10,24.969,10,26.922c0,1.353,0.542,2.502,1.498,3.364C9.679,30.875,8,31.542,8,32c0,2.5,2,5,4,6l-2-5l3.557-1.524    c0.317,0.113,0.657,0.202,1.008,0.28C13.144,32.643,12,33.591,12,34.347c0,0.61,1.253,1.653,3.734,2.71    C17.066,37.624,19.221,38,20,38l-5.405-3.743l2.97-2.266c0.388-0.006,0.74-0.029,1.107-0.046C17.668,32.773,17,33.508,17,34    c0,0.61,3,2,8,2l-5.405-2.743l1.774-1.532c3.361-0.456,5.636-1.487,7.252-3.104c1.616-1.618,2.647-3.892,3.104-7.252l1.532-1.774    L36,25c0-5-1.39-8-2-8c-0.492,0-1.227,0.668-2.055,1.672c0.017-0.367,0.04-0.719,0.046-1.107L34.257,14.595z M20.115,6.119    c-0.693,1.941-2.184,2.854-6.333,2.961c0.921,1.191,2.46,1.643,4.903,1.814C21.15,9.643,23.901,9,26.923,9    c0.811,0,1.547,0.141,2.212,0.397C29.653,8.826,30,8.055,30,7c0-3.5-5-5-9-5c-4.685,0-7.614,0.933-7.964,4.65    C13.523,6.359,14.171,6.084,15,6C16.277,5.871,18.491,5.801,20.115,6.119z M9,26.922c0-3.021,0.644-5.771,1.895-8.236    c-0.172-2.444-0.624-3.983-1.814-4.903c-0.107,4.149-1.02,5.64-2.961,6.333C5.801,18.49,5.871,16.276,6,15    c0.084-0.829,0.359-1.478,0.65-1.964C2.933,13.386,2,16.315,2,21c0,4,1.5,9,5,9c1.079,0,1.859-0.363,2.435-0.902    C9.156,28.436,9,27.709,9,26.922z"/>
	</g>
</g>
</svg>
