<?xml version="1.0" encoding="utf-8"?>
<!-- Generator: Adobe Illustrator 15.0.0, SVG Export Plug-In . SVG Version: 6.00 Build 0)  -->
<!DOCTYPE svg PUBLIC "-//W3C//DTD SVG 1.1//EN" "http://www.w3.org/Graphics/SVG/1.1/DTD/svg11.dtd">
<svg xmlns="http://www.w3.org/2000/svg" xmlns:xlink="http://www.w3.org/1999/xlink" version="1.1" id="Shape_5_2_" x="0px" y="0px" width="40px" height="40px" viewBox="0 0 40 40" enable-background="new 0 0 40 40" xml:space="preserve">
<g>
	<g>
		<path d="M28.659,17.081c-3.55-0.797-7.373-1.445-7.373-1.445c-1.306-2.859-1.989-3.973-6.562-4.885    c-0.174-1.406-0.802-2.344-2.195-2.418c-1.032-0.055-1.605,0.435-2.061,0.887L5.183,7.327c0,0-0.308-1.327-1.308-1.327    c-0.917,0-1.72,0.614-1.849,2.013L8,11c0,0,2.624,0.387,3.896,0.999c1.272,0.612,2.839,2.845,2.839,2.845s-1.608-1.445-3.057-2.03    s-2.9-0.705-3.273-0.792s-0.572-0.105-1.117-0.377c-0.53-0.265-5.036-2.518-5.266-2.633c0.155,2.206,1.393,2.958,8.064,8.328    c0.964,2.386,2.239,3.461,4.355,4.383C15.095,19.38,16.872,19,17.938,19C19.855,19,21,20.215,21,22.25    c0,0.577-0.167,1.238-0.4,1.866c1.348,0.572,2.8,1.21,4.4,1.884c0-2.215,1.434-4.287,4.352-4.005C26.523,23.409,26,24.29,26,27.5    c0,0-8,1.031-12,2.031C10.12,30.501,8,32,6,35c0,0,10-1,21.25-2C34.673,32.34,38,30.254,38,24.583    C38,20,34.844,18.469,28.659,17.081z M19.071,25.014C19.518,24.285,20,23.101,20,22.25c0-1.594-0.792-2.25-2.063-2.25    c-1.833,0-2.458,1.233-2.667,2.604C15,24.38,15,24.38,15,24.38C13.544,24.938,13.083,26,13.083,26s3.343,0,4.292,0    C18.297,26,18.713,25.598,19.071,25.014z"/>
	</g>
</g>
</svg>
