<?xml version="1.0" encoding="utf-8"?>
<!-- Generator: Adobe Illustrator 15.0.0, SVG Export Plug-In . SVG Version: 6.00 Build 0)  -->
<!DOCTYPE svg PUBLIC "-//W3C//DTD SVG 1.1//EN" "http://www.w3.org/Graphics/SVG/1.1/DTD/svg11.dtd">
<svg xmlns="http://www.w3.org/2000/svg" xmlns:xlink="http://www.w3.org/1999/xlink" version="1.1" id="Shape_5_2_" x="0px" y="0px" width="40px" height="40px" viewBox="0 0 40 40" enable-background="new 0 0 40 40" xml:space="preserve">
<g>
	<g>
		<path fill-rule="evenodd" clip-rule="evenodd" d="M33,28c0.469,0,0.964,0.048,1.046-0.164s-3.38-4.78-5.605-8.148    c-2.775-4.2-4.409-5.594-7.815-7.438c-0.521-2.077-1.488-3.87-2.666-5.184C16.59,5.538,15.207,4,14.042,4    c-2.365,0-4.942,0.635-5.681,1.572C7.328,5.642,6.19,5.855,5.205,6.17C2.537,7.024,1.972,8.002,2.001,8.31    c0.03,0.308,1.188,0.32,4.166,0.873C7.326,9.398,8.236,9.63,8.95,9.786c0.464,1.768,0.972,3.917,1.05,6.464    c0.184,6.008,2.677,9.7,6.991,11.75c0.14,0.066,0.286,0.122,0.431,0.179L15.163,34h-0.892C11.416,34,9.678,35.199,9,36h18    c-0.615-1.233-3.008-1.912-3.848-1.985l1.985-5.116c0.68,0.05,1.313,0.141,1.862,0.318c0.631,0.204,5.595,5.879,7,6.507    c1.263,0.564,3.993,0.234,3.993-0.313C37.993,34.875,35.458,31.026,33,28z M21.163,34h-4.005l2.08-5.36    c1.274,0.191,2.633,0.188,3.928,0.197L21.163,34z"/>
	</g>
</g>
</svg>
