<?xml version="1.0" encoding="utf-8"?>
<!-- Generator: Adobe Illustrator 15.0.0, SVG Export Plug-In . SVG Version: 6.00 Build 0)  -->
<!DOCTYPE svg PUBLIC "-//W3C//DTD SVG 1.1//EN" "http://www.w3.org/Graphics/SVG/1.1/DTD/svg11.dtd">
<svg xmlns="http://www.w3.org/2000/svg" xmlns:xlink="http://www.w3.org/1999/xlink" version="1.1" id="Shape_5_2_" x="0px" y="0px" width="40px" height="40px" viewBox="0 0 40 40" enable-background="new 0 0 40 40" xml:space="preserve">
<g>
	<g>
		<path d="M37.709,29.167c-3.019-2.36-3.739-8.871-3.991-10.154C33.138,16.068,31.083,15,27.083,15c-3.748,0-8.463,0.854-9.917,0    c-1.271-0.747-1.688-1.925-3.167-4.445C12.762,8.445,11.24,8,10.697,8C9.594,8,7.317,8.175,6.78,8.642    c-0.345,0.3-0.785,1.279-1.139,1.356c-1.325,0.288-3.278,0.253-3.567,0.953c-0.235,0.566,0.353,2.021,1.304,2.498    c1.087,0.544,3.591,0.301,4.748,0.713c0.377,0.5,1.103,2.42,1.548,4.338c-0.662,3.012,1.598,6.817,1.598,6.817    s0.838,5.289,0.838,7.393c0,1.791-2.046,1.76-2.046,3.291c0,0,1.656,0,2.375,0S14,33.688,14,33.188V24.69    c0.691,0.728,1.271,1.185,1.271,1.185s0.838,4.73,0.838,6.834c0,1.791-2.046,1.76-2.046,3.291c0,0,1.656,0,2.375,0    S18,33.688,18,33.188v-8.257c3.059-0.269,4.529-1.324,6.879-1.938c0.196,1.372,0.474,2.653,0.788,3.424    c0.978,2.396,2.164,3.396,2.322,5.44c0.032,0.417-0.472,2.309-0.739,2.596c-0.298,0.32-1.385,0.567-1.235,1.547    c0,0,1.567,0,2.203,0c0.248,0,0.505-0.157,0.711-0.77c0.381-1.136,1.073-4.021,1.073-4.23c0-1.119-0.553-2.514-0.709-4.537    c1.225,2.066,2.562,4.492,2.696,5.395c0.062,0.414-0.472,2.309-0.739,2.596c-0.298,0.32-1.385,0.567-1.235,1.547    c0,0,1.567,0,2.203,0c0.248,0,0.505-0.157,0.711-0.77c0.381-1.136,1.073-4.609,1.073-4.819c0-1.303-1.166-2.384-1.166-4.994    c0-0.648,0.07-1.29,0.172-1.908c1.241,4.308,3.21,5.871,4.208,6.394C38.163,30.397,38.421,29.724,37.709,29.167z M10.231,15H10.11    l-0.146-0.032C8.896,14.707,8.945,13.703,9,10.723c0.013-0.698,0.188-1.447,0.995-1.866c-0.026,3.055-0.168,5.047,0.207,5.139    c0.393,0.096,2.564-1.979,3.062-3.403c0.352,0.655,0.459,1.382-0.049,2.028C12.528,13.498,11.172,15,10.231,15z M13,22    c-0.552,0-1-0.447-1-1s0.448-1,1-1s1,0.447,1,1S13.552,22,13,22z M13,18c-0.553,0-1-0.447-1-1s0.447-1,1-1s1,0.447,1,1    S13.553,18,13,18z M17,20c-0.553,0-1-0.447-1-1s0.447-1,1-1s1,0.447,1,1S17.553,20,17,20z M21,22c-0.553,0-1-0.447-1-1    s0.447-1,1-1s1,0.447,1,1S21.553,22,21,22z M25,20c-0.553,0-1-0.447-1-1s0.447-1,1-1s1,0.447,1,1S25.553,20,25,20z M29,18    c-0.553,0-1-0.447-1-1s0.447-1,1-1s1,0.447,1,1S29.553,18,29,18z M31,22c-0.553,0-1-0.447-1-1s0.447-1,1-1s1,0.447,1,1    S31.553,22,31,22z"/>
	</g>
</g>
</svg>
