<?xml version="1.0" encoding="utf-8"?>
<!-- Generator: Adobe Illustrator 15.0.0, SVG Export Plug-In . SVG Version: 6.00 Build 0)  -->
<!DOCTYPE svg PUBLIC "-//W3C//DTD SVG 1.1//EN" "http://www.w3.org/Graphics/SVG/1.1/DTD/svg11.dtd">
<svg xmlns="http://www.w3.org/2000/svg" xmlns:xlink="http://www.w3.org/1999/xlink" version="1.1" id="Shape_5_2_" x="0px" y="0px" width="40px" height="40px" viewBox="0 0 40 40" enable-background="new 0 0 40 40" xml:space="preserve">
<g>
	<g>
		<path d="M35.848,27.823C35.146,27.114,34,25.042,34,21.237c0-0.498-0.114-0.975-0.308-1.41c0.588-0.783,1.397-2.108,1.397-3.483    c0-3.282-3.083-5.039-2.978-3.989c0.271,2.715-0.243,5.4-0.32,5.778C31.523,18.055,31.243,18,30.938,18H19.583    c-5.333,0-3.521-1.979-5.25-5.667c-0.081-0.172-0.166-0.329-0.251-0.485c0.294-0.038,0.609-0.093,0.959-0.182    c1.098-0.277,2.026-2.824,1.708-3.375c-0.131-0.228-1.606,0.039-2.764,0.543c0.006-0.056,0.027-0.112,0.027-0.168    c0-0.464-0.063-0.837-0.256-1.139c0.134-0.684,0.256-1.524,0.256-2.132c0-1.896-1.168-3.289-1.964-3.396    c0.338,0.598,0.722,1.402,0.675,2.775C12.697,5.52,12.541,6.179,12.351,6.7c-0.587-0.156-1.369-0.27-2.412-0.361    c-0.002,0-0.004,0-0.007,0C10.019,3.192,8.042,3,8.042,3C8.556,3.775,8.867,4.846,8.52,6.192C7.312,6.044,6.625,5.878,6.188,5.688    c-1.146-0.5-1.398-0.885-1.971-1.586c-0.06,1.241,0.627,2.346,1.528,2.865S7.699,7.781,9.46,7.969    c2.373,0.253,2.496,0.111,2.496,0.754c0,0.563-0.564,0.911-1.343,1.571c-1.808,0.675-6.117,3.043-6.515,3.743    c-0.239,0.42-0.02,1.921,1.106,1.921c1.68,0,4.812,0.043,4.812,0.043c0,4.999-0.153,4.907,2.597,6.74    c-0.288,0.782-0.245,1.448,0.035,2.018c-0.639,0.072-1.252,0.157-1.647,0.249c-0.729,0.169-1,0.193-0.976,0.93    c0.015,0.429,0.738,4.064,0.851,4.396c0.208,0.613,0.708,0.875,2.979,1.605L13.5,30.282c0,0-1.068-0.396-1.287-0.47    c-0.234-0.08-0.349-2.017-0.405-3c0.504,0.105,2.474,0.24,4.37,0.238c0.661,1.094,1.649,2.795,1.743,3.346    C18.064,31.229,18.606,34,18.606,35c0,0.375-0.396,3-0.396,3h1.604c0.246-0.735,0.357-2.362,0.394-2.832    c0.064-0.853-0.173-5.563-0.271-7.425C21.688,27.945,23.37,28,24.5,28c1.068,0,2.059-0.117,2.968-0.324    c1.489,1.508,3.229,3.217,2.924,4.264C29.423,35.262,28,38,28,38h1.781c0,0,1.717-4.147,2.976-7.112    c0.257-0.606-0.154-1.246-0.571-1.876C33.968,29.871,35.861,30.822,36,32c0.406,3.438,0,6,0,6h1.781c0,0,0.219-0.9,0.219-1.938V30    C38,29,36.549,28.532,35.848,27.823z"/>
	</g>
</g>
</svg>
