<?xml version="1.0" encoding="utf-8"?>
<!-- Generator: Adobe Illustrator 15.0.0, SVG Export Plug-In . SVG Version: 6.00 Build 0)  -->
<!DOCTYPE svg PUBLIC "-//W3C//DTD SVG 1.1//EN" "http://www.w3.org/Graphics/SVG/1.1/DTD/svg11.dtd">
<svg xmlns="http://www.w3.org/2000/svg" xmlns:xlink="http://www.w3.org/1999/xlink" version="1.1" id="Shape_5_2_" x="0px" y="0px" width="40px" height="40px" viewBox="0 0 40 40" enable-background="new 0 0 40 40" xml:space="preserve">
<g>
	<g>
		<path d="M36.002,30.621c0-0.808-1.06-1.554-2.252-4.621c-0.734-1.889-1.238-5.299-1.741-6.505    c-0.209-0.501-0.477-0.94-0.793-1.335c0.046-0.043,2.04-1.918,2.577-2.684c0.543-0.775-0.876-1.517-1.21-1.142    c-0.252,0.283-2.144,1.774-3.054,2.486C28.435,16.282,26.996,16,25.083,16c-3.748,0-7.947-0.765-8.875-1.619    c-0.812-0.747-1.523-2.601-3.038-5.1c-0.215-0.354-0.742-0.732-1.279-1.019c0.11-0.261,0.155-0.521,0.084-0.763    c-0.42-1.448-2.526-3.59-2.815-3.461C9,4.11,9.163,5.49,9.381,6.938C8.419,5.313,7.376,3.942,7.16,4.039    C6.902,4.154,7.31,7.077,7.525,8.507C6.848,8.76,6.299,9.041,6.154,9.281c-0.237,0.391-0.287,1.067-0.612,1.228    c-1.4,0.693-3.374,1.449-3.531,1.907c-0.127,0.371,0.613,1.185,1.369,1.491c1.14,0.461,3.798-0.029,5.025,0.009    c0.683,0.48,1.448,4.01,1.612,6.431c-0.072,1.051-0.096,2.063-0.019,2.59C10.195,24.281,11.501,27,11.501,27    s0.607,3.605,0.607,5.709c0,1.791-2.046,1.76-2.046,3.291c0,0,1.656,0,2.375,0S14,33.688,14,33.188v-7.906    c0-0.092-0.007-0.197-0.017-0.308C14.686,26.037,15.501,27,15.501,27s0.607,3.605,0.607,5.709c0,1.791-2.046,1.76-2.046,3.291    c0,0,1.656,0,2.375,0S18,33.688,18,33.188v-7.906c0-0.02-0.003-0.046-0.003-0.066c2.514-0.259,4.787-1.177,6.847-1.868    c0.398,0.951,0.805,1.792,1.133,2.284c1.647,2.471,2.806,3.074,4.054,5.65c0.191,0.395,0.242,2.885,0.032,3.172    c-0.233,0.32-1.125,0.377-1.125,1.547c0,0,1.768,0,2.403,0c0.248,0,0.474-0.157,0.557-0.77c0.152-1.136,0.104-4.399,0.104-4.609    c0-0.575-0.561-1.447-1.162-3.048c1.229,1.219,2.347,1.966,3.19,3.708c0.191,0.395,0.242,2.885,0.032,3.172    c-0.233,0.32-1.125,0.377-1.125,1.547c0,0,1.768,0,2.403,0c0.248,0,0.474-0.157,0.557-0.77    C36.05,34.095,36.002,30.831,36.002,30.621z"/>
	</g>
</g>
</svg>
