<?xml version="1.0" encoding="utf-8"?>
<!-- Generator: Adobe Illustrator 15.0.0, SVG Export Plug-In . SVG Version: 6.00 Build 0)  -->
<!DOCTYPE svg PUBLIC "-//W3C//DTD SVG 1.1//EN" "http://www.w3.org/Graphics/SVG/1.1/DTD/svg11.dtd">
<svg xmlns="http://www.w3.org/2000/svg" xmlns:xlink="http://www.w3.org/1999/xlink" version="1.1" id="Shape_5_2_" x="0px" y="0px" width="40px" height="40px" viewBox="0 0 40 40" enable-background="new 0 0 40 40" xml:space="preserve">
<g>
	<g>
		<path d="M37.906,13.219c-1.656-2.966-5.047-3.008-8.058-4.033C26.621,6.612,19.083,4,15.35,4c-3.307,0-6.109,0.739-8.017,2.208    C5.397,7.7,5.218,9.366,4.772,10.594c-1.573,1.049-3.009,1.173-2.605,2.375c0.35,1.043,1.573,1.093,3.297,0.907    c3.482-0.375,5.687,0.188,8.568,0.186c0.612,0.481,1.188,0.935,1.745,1.371C14.465,17.171,14,19.024,14,23.139    c0,0.856,1.012,1.298,1.5,0.36c1.549-2.98,3.338-3.481,4.163-5.012c6.559,5.184,7.656,6.348,8.791,9.771    c0.628,1.895,0.397,3.73,0.117,4.948c-0.699,0.323-1.62,0.688-3.004,1.126c-2.983,0.942-6.049,2.678-5.525,3.584    c0.27,0.465,1.037,0,1.979,0c1.939,0,5.186,0.207,6.56-1.02c0.166,0.978,2.087,0.937,5.254,0.937c1,0,1.646,0.547,2.084-0.038    c0.264-0.353-0.351-1.782-1.889-2.879c-0.806-0.574-1.652-1.329-2.28-1.921C33.136,30.466,34,27.098,34,21.375    c0-2.56,0.063-4.46-0.178-6.069c0.229-0.313,0.559-0.626,1.068-0.884c0.892-0.45,1.636-0.345,2.391-0.345    C37.896,14.077,38.219,13.776,37.906,13.219z"/>
	</g>
</g>
</svg>
