<?xml version="1.0" encoding="utf-8"?>
<!-- Generator: Adobe Illustrator 15.0.0, SVG Export Plug-In . SVG Version: 6.00 Build 0)  -->
<!DOCTYPE svg PUBLIC "-//W3C//DTD SVG 1.1//EN" "http://www.w3.org/Graphics/SVG/1.1/DTD/svg11.dtd">
<svg xmlns="http://www.w3.org/2000/svg" xmlns:xlink="http://www.w3.org/1999/xlink" version="1.1" id="Shape_5_2_" x="0px" y="0px" width="40px" height="40px" viewBox="0 0 40 40" enable-background="new 0 0 40 40" xml:space="preserve">
<g>
	<g>
		<path d="M38,29.115c0.002-0.024,0-3.467,0-6.615c0-4.305-2.643-7.241-4.397-7.87C32.964,14.233,32.21,14,31.345,14    c-0.011,0-0.023,0.006-0.035,0.007c-0.005,0-0.013-0.007-0.018-0.007c-0.235,0-0.448,0.008-0.652,0.02    C30.523,14.011,30.408,14,30.292,14c-0.066,0-0.137,0.024-0.21,0.066C28.13,14.287,27.354,15,23.125,15    c-2.859,0-5.448-2.882-13.207-4.597C9.015,9.204,7.907,7.69,6.944,6.25C6.479,5.556,5.597,5.841,6.427,8.461    c0,0-0.596-0.981-1.449-2.125c-1.269-1.702-1.825,1.901,1.569,5.826c-0.454,0.655-0.836,1.398-1.023,2.13    c-0.67,2.631-1.529,5.081-1.539,5.739c-0.024,1.678,1.327,2.171,2.305,1.897c0.979-0.271,1.884-1.75,1.884-1.75    s2.401-0.382,3.035-1.376c1.373,0.59,3.26,2.023,3.26,2.023s-0.03,1.946,0.467,2.927c0.178,0.352,0.424,0.678,0.684,0.984    c0.237,1.378,0.485,2.554,0.505,2.948c0.044,0.878,0.008,3.608-0.229,4.815c-0.086,0.438-0.67,1.59-1.427,2.5h2.638    c0,0,0.666-1.119,0.801-1.621c0.479-1.787,0.592-5.504,1.153-8.14c0.162,0.031,0.324,0.063,0.486,0.097    c0.921,1.699,2.186,4.487,2.453,7.39c0.04,0.434-0.253,1.352-0.813,2.274h2.375c0,0,0.438-1.313,0.438-1.813    c0-1.963-0.361-4.626-0.818-7.264c1.349,0.075,2.964-0.048,5.043-0.567c0.777,1.72,2.023,2.504,2.152,4.8    c0.023,0.419-0.189,1.67-0.503,2.599C29.7,33.268,29.106,35,29.106,35l2.495,0.008c0,0,0.24-0.65,0.754-2.91    c0.26-1.141,0.583-1.918,0.593-2.223c0.022-0.673-0.097-1.521-0.069-2.458c0.848,0.836,1.493,1.706,1.551,2.739    c0.023,0.419-0.189,1.67-0.503,2.599C33.753,33.268,33.159,35,33.159,35l2.495,0.008c0,0,0.24-0.65,0.754-2.91    c0.26-1.141,0.583-1.918,0.593-2.223c0.037-1.129-1.405-3.336-1.342-5.15C35.713,23.198,36,20.864,36,19.662    c0-0.598-0.07-1.182-0.202-1.735c0.577,0.878,0.993,1.898,0.993,2.898c0,0.886-0.311,3.019-0.311,3.8    C36.48,27.417,38,29.115,38,29.115z"/>
	</g>
</g>
</svg>
