<?xml version="1.0" encoding="utf-8"?>
<!-- Generator: Adobe Illustrator 15.0.0, SVG Export Plug-In . SVG Version: 6.00 Build 0)  -->
<!DOCTYPE svg PUBLIC "-//W3C//DTD SVG 1.1//EN" "http://www.w3.org/Graphics/SVG/1.1/DTD/svg11.dtd">
<svg xmlns="http://www.w3.org/2000/svg" xmlns:xlink="http://www.w3.org/1999/xlink" version="1.1" id="Shape_5_2_" x="0px" y="0px" width="40px" height="40px" viewBox="0 0 40 40" enable-background="new 0 0 40 40" xml:space="preserve">
<g>
	<g>
		<path fill-rule="evenodd" clip-rule="evenodd" d="M37.809,20.141c-0.773-0.248-2.184,1.797-5.559,1.797    c-9.313-4.688-16.36-4.119-17.063-5.5c0.188-0.813,1.493-3.5,0.589-7.177C15.297,7.307,14.289,6,12.519,6    c-0.965,0-4.937,0.596-5.501,3.045c-2.18,3.355-5.066,2.882-5.066,3.553c0,0.604,0.923,1.391,2.944,1.391    c1.081,0,2.604-0.463,3.718-0.977c0.348,0.227,0.814,0.435,1.452,0.613c0,3.688-4.066,4.031-4.066,8.781    c0,2.575,1.837,4.209,4.648,5.611c1.664,0.83,3.709,2.327,6.747,3.244L16.941,34h-0.008C12.858,34.702,11,34.837,11,35.418    C11,36,12,36,13,36h13c1,0,2,0,2-0.582c0-0.522-0.726-0.688-3.096-1.227l0.371-2.241c5.744-0.464,8.599-2.622,10.621-5.325    C37.719,24.189,38.221,20.272,37.809,20.141z M22.941,34h-4.005l0.377-2.275c1.075,0.199,2.251,0.321,3.562,0.321    c0.135,0,0.259-0.007,0.392-0.008L22.941,34z M23,27c-7,0-9.938-2.406-10.934-4.813C14.466,24.393,17.458,26,23,26    c5.225,0,10.167-1.406,10.167-1.406S30,27,23,27z"/>
	</g>
</g>
</svg>
