<?xml version="1.0" encoding="utf-8"?>
<!-- Generator: Adobe Illustrator 15.0.0, SVG Export Plug-In . SVG Version: 6.00 Build 0)  -->
<!DOCTYPE svg PUBLIC "-//W3C//DTD SVG 1.1//EN" "http://www.w3.org/Graphics/SVG/1.1/DTD/svg11.dtd">
<svg xmlns="http://www.w3.org/2000/svg" xmlns:xlink="http://www.w3.org/1999/xlink" version="1.1" id="Shape_5_2_" x="0px" y="0px" width="40px" height="40px" viewBox="0 0 40 40" enable-background="new 0 0 40 40" xml:space="preserve">
<g>
	<g>
		<path fill-rule="evenodd" clip-rule="evenodd" d="M30.063,22c1.627,0.889,5.296,2,6.313,2C39.866,24,40,23.835,40,23.602    c0-0.582-5.821-9.078-9.156-12.843C27.636,7.138,24.021,4.042,20,4.042c-2.5,0-4,1.271-4,2.833c0,1.529,0.707,3.082,1.257,4.534    c-2.467-1.727-3.1-5.376-5.626-7.084C11.175,4.017,10.774,3.976,9.094,4C5.733,4.049,5.208,4.707,4.905,5.792    c0,0-1.604,0.266-2.114,0.653c-1.31,0.992-0.228,3.242-0.228,3.242C3.185,8.714,3.438,8.521,5.625,9    c1.52,1.042,1.102,5.009,1.786,8.079c0.453,2.032,1.259,3.716,2.623,5.147c0.264,4.454,2.499,7.873,3.492,9.184L12.786,34H10    c-1.469,0-3.031,1.672-0.923,3.344c0,0-0.48-1.319,1.023-1.34c0.104,0.424,0.398,0.881,0.977,1.34c0,0-0.494-1.344,1.054-1.344    h2.953c0.116,0.425,0.413,0.884,0.993,1.344c0,0-0.48-1.319,1.023-1.34c0.104,0.424,0.398,0.881,0.977,1.34    c0,0-0.493-1.344,1.054-1.344c1,0,1.16,0,1.16,0h3c0.528,0,1.043,0.557,0.709,1.344C25.688,36.25,25.156,34,23,34h-0.714l0.571-2    H25l0.67-2.68c2.357,2.59,4.653,4.68,5.122,4.68c5.021-0.001,7.314-1.315,7.314-1.66c0-0.56-3.171-3.242-8.796-9.305    C29.702,22.81,29.975,22.475,30.063,22z M15.857,32H18l0.832-3.327c0.628,1.241,1.271,2.18,1.694,2.737L19.786,34H19.5    c0,0-0.193,0-0.5,0h-1.5c0,0-0.386,0-0.978,0h-1.237L15.857,32z"/>
	</g>
</g>
</svg>
