<?xml version="1.0" encoding="utf-8"?>
<!-- Generator: Adobe Illustrator 15.0.0, SVG Export Plug-In . SVG Version: 6.00 Build 0)  -->
<!DOCTYPE svg PUBLIC "-//W3C//DTD SVG 1.1//EN" "http://www.w3.org/Graphics/SVG/1.1/DTD/svg11.dtd">
<svg xmlns="http://www.w3.org/2000/svg" xmlns:xlink="http://www.w3.org/1999/xlink" version="1.1" id="Shape_5_2_" x="0px" y="0px" width="40px" height="40px" viewBox="0 0 40 40" enable-background="new 0 0 40 40" xml:space="preserve">
<g>
	<g>
		<path d="M4.907,3.058C4.723,2.446,4.156,2,3.484,2C2.665,2,2,2.665,2,3.484c0,9.451,2.113,13.615,5.018,15.357L9.26,13.3    C6.696,11.727,6.267,7.657,4.907,3.058z M36.796,35.148c-4.323-0.721-6.504-2.786-6.504-5.148c0-3.5,1.708-5.25,1.708-8.781    C32,16.105,28.505,12,23,12c-2.608,0-4.26,0.551-5.897,1.074l1.525,5.842c1.539-0.457,2.88-0.884,4.379-0.884    c2.098,0,3.284,1.313,3.284,3.171C26.292,24.969,25,26.125,25,30c0,5.74,6.208,8,11.564,8C37.358,38,38,37.358,38,36.564    C38,35.85,37.479,35.259,36.796,35.148z M17.667,19.193l-1.206-4.616c-0.161-0.615-0.283-1.083-0.315-1.209    c-0.173-0.662-0.596-0.854-1.21-0.709C14.077,12.863,13.141,13,12,13c-0.22,0-0.428-0.011-0.625-0.033    c-0.475-0.052-0.981,0.203-1.206,0.758l-0.001,0l-0.631,1.559c-0.63,1.558-1.507,3.727-1.623,4.013    c-0.168,0.415-0.02,1.087,0.559,1.258C9.635,20.896,10.837,21,12,21c2.053,0,3.685-0.275,5.101-0.627    C17.693,20.234,17.787,19.656,17.667,19.193L17.667,19.193z"/>
	</g>
</g>
</svg>
