<?xml version="1.0" encoding="utf-8"?>
<!-- Generator: Adobe Illustrator 15.0.0, SVG Export Plug-In . SVG Version: 6.00 Build 0)  -->
<!DOCTYPE svg PUBLIC "-//W3C//DTD SVG 1.1//EN" "http://www.w3.org/Graphics/SVG/1.1/DTD/svg11.dtd">
<svg xmlns="http://www.w3.org/2000/svg" xmlns:xlink="http://www.w3.org/1999/xlink" version="1.1" id="Shape_5_2_" x="0px" y="0px" width="40px" height="40px" viewBox="0 0 40 40" enable-background="new 0 0 40 40" xml:space="preserve">
<g>
	<g>
		<path d="M31.363,25.058c-0.48-0.83-1.224-1.413-2.113-2.302c-1.482-1.482-4.688-3.763-6.88-4.939l2.991-1.752    C28.167,20,28.167,20,33,20c-3.488-1.514-3.488-1.514-6.031-5.142c-0.73-1.042-1.648-0.887-2.176-0.692    c-0.308,0.114-2.124,1.14-3.59,1.978c-0.2-0.431-0.476-0.833-0.78-1.202L22.719,12c3.906,2.292,4.493,2.008,7.281,0    c-2.235-0.052-2.266,0.57-6.297-1.68c-0.986-0.55-2.146-0.468-2.689,0.438c-0.111,0.186-0.987,1.349-2.021,2.706    c-0.042-0.041-0.087-0.084-0.126-0.123c-0.201-0.201-0.471-0.386-0.779-0.554c0.805-1.402,1.631-2.842,1.683-2.932    C19.875,9.675,20,9.375,20,9c0-0.295-0.109-0.607-0.363-0.771C15.139,5.318,15.139,5.318,14,3c0,3.822,0,3.822,3.902,6.39    l-1.594,2.735c-0.554-0.135-1.126-0.221-1.667-0.246c0.222-0.515,0.359-1.056,0.359-1.6C15,7.918,10.18,6,8.985,6    C8.149,6,8,6.418,8,6.418l0.479,1.299L7.718,8.479L6.418,8C6.418,8,6,8.149,6,8.985C6,10.18,7.918,15,10.279,15    c0.534,0,1.065-0.135,1.572-0.349c0.046,0.53,0.158,1.09,0.318,1.632L9.39,17.902C6.822,14,6.822,14,3,14    c2.318,1.139,2.318,1.139,5.229,5.637C8.393,19.891,8.705,20,9,20c0.375,0,0.675-0.125,0.854-0.229    c0.093-0.054,1.613-0.926,3.053-1.752c0.171,0.287,0.355,0.54,0.549,0.733c0.044,0.044,0.092,0.094,0.138,0.142    c-1.412,1.076-2.644,2.005-2.836,2.12c-0.906,0.543-0.989,1.703-0.438,2.689C12.57,27.734,11.948,27.765,12,30    c2.008-2.788,2.292-3.375,0-7.281l3.074-2.398c0.354,0.291,0.735,0.556,1.146,0.751c-0.851,1.486-1.937,3.405-2.053,3.722    c-0.195,0.527-0.35,1.445,0.692,2.176C18.486,29.512,18.486,29.512,20,33c0-4.833,0-4.833-3.936-7.639l1.755-2.996    c1.167,2.202,3.431,5.426,4.913,6.908c0.878,0.878,1.477,1.593,2.304,2.057c1.824,2.778,4.86,6.545,7.433,6.545    c2.313,0,3.426-1.344,3.426-1.344s-1.551,0.073-2.689-0.351c-1.789-0.666-3.583-3.274-4.404-4.603    c1.116-0.53,2.25-1.651,2.798-2.765c1.333,0.826,3.919,2.611,4.582,4.392c0.424,1.139,0.351,2.689,0.351,2.689    s1.344-1.113,1.344-3.426C37.875,29.907,34.139,26.884,31.363,25.058z"/>
	</g>
</g>
</svg>
