<?xml version="1.0" encoding="utf-8"?>
<!-- Generator: Adobe Illustrator 15.0.0, SVG Export Plug-In . SVG Version: 6.00 Build 0)  -->
<!DOCTYPE svg PUBLIC "-//W3C//DTD SVG 1.1//EN" "http://www.w3.org/Graphics/SVG/1.1/DTD/svg11.dtd">
<svg xmlns="http://www.w3.org/2000/svg" xmlns:xlink="http://www.w3.org/1999/xlink" version="1.1" id="Shape_5_2_" x="0px" y="0px" width="40px" height="40px" viewBox="0 0 40 40" enable-background="new 0 0 40 40" xml:space="preserve">
<g>
	<g>
		<path d="M37.97,35.048c-0.094-0.439-2.521-1.351-3.779-2.673c-7.697-8.082-10.983-18.771-18.231-26.019    c-5.48-5.48-12.312-4.658-13.435-3.535c-1.123,1.123-0.943,7.542,5.657,14.142c4.567,4.567,10.66,6.465,16.633,10.546    c1.693,1.157,4.087,3.223,7.638,6.502c1.648,1.522,2.066,3.95,2.57,3.983c0.766,0.051,1.639-0.241,2.172-0.775    C37.731,36.683,38.114,35.724,37.97,35.048z M7.5,7C6.672,7,6,6.328,6,5.5C6.001,4.67,6.672,3.999,7.501,4    C8.328,3.999,9,4.672,9,5.499C9.001,6.328,8.328,7,7.5,7z M11,16c-2,0-2-4-2-4c2,0,3-1,3-1s3,2,3,3S13,16,11,16z M24.25,28.334    c-2.382-1.627-4.911-3.301-7.229-4.466c-3.461-1.738-6.729-3.381-9.547-6.198c-0.508-0.508-0.971-1.017-1.411-1.525    c0.119,2.267,0.645,6.112,2.812,7.272c2.397,1.283,3.128,0.945,4.911,1.902c1.782,0.958,2.14,3.394,4.397,4.223    c3.274,1.202,4.221-0.127,5.871,0.875s1.664,2.085,3.904,2.498c0.762,0.141,1.582,0.298,2.384,0.499    c-0.424-0.396-0.832-0.78-1.223-1.147C26.98,30.255,25.424,29.137,24.25,28.334z M26,10h2.718l-0.707,3.398    c-0.048,0.229,0.07,0.461,0.283,0.558C28.36,13.985,28.431,14,28.5,14c0.153,0,0.303-0.071,0.4-0.2l4.5-6    c0.113-0.151,0.132-0.354,0.047-0.523S33.189,7,33,7h-2.859l0.845-3.379c0.058-0.231-0.056-0.47-0.271-0.573    C30.646,3.016,30.572,3,30.5,3c-0.153,0-0.303,0.071-0.4,0.2l-4.5,6c-0.113,0.151-0.131,0.354-0.047,0.523    C25.638,9.893,25.811,10,26,10z"/>
	</g>
</g>
</svg>
