<?xml version="1.0" encoding="utf-8"?>
<!-- Generator: Adobe Illustrator 15.0.0, SVG Export Plug-In . SVG Version: 6.00 Build 0)  -->
<!DOCTYPE svg PUBLIC "-//W3C//DTD SVG 1.1//EN" "http://www.w3.org/Graphics/SVG/1.1/DTD/svg11.dtd">
<svg xmlns="http://www.w3.org/2000/svg" xmlns:xlink="http://www.w3.org/1999/xlink" version="1.1" id="Shape_5_2_" x="0px" y="0px" width="40px" height="40px" viewBox="0 0 40 40" enable-background="new 0 0 40 40" xml:space="preserve">
<g>
	<g>
		<path d="M37.708,30.601c-0.688-2.173-1.659-4.412-1.708-5.288c-0.063-1.125,1-4.375,1-7.375C37,12.938,30,7,24,7    c-2.618,0-3.991,1-10,1c-1,0-2.943-1-4.905-1C7.473,7,6.46,7.572,5.833,8.476c-0.575,0.83-0.91,2.706-1.458,3.899    C3.292,14.733,2,18.953,2,22.938c0,6.5,2,9,5,9c2,0,3-1.813,3-2s-1.453-1-1.702-1s-0.298,1-1.298,1c-1,0-2-0.813-2-3    c0-1.563,0.475-3.187,1.075-4.383c0.6-1.196,1.688-1.376,3.628-1.867c0.931-0.236,1.679-0.764,2.211-1.25    c0.352,0.865,0.772,1.765,1.085,2.013c-0.255,1.216-1,6.466-1,7.736c0,2,0.375,1.749,0,2.687    c-0.186,0.464-0.537,0.741-0.791,1.157C10.955,33.446,10.844,34,11.502,34H15c1.656,0,0.431-1.184,0.601-2.674    c0.192-1.687,0.756-3.636,1.369-5.393c-0.186,2.163-0.251,4.185,0.063,4.816c0.547,1.1,0.967,0.938,1.592,1.313    S20.129,34,20.621,34c1.051,0,1.582-3.698,1.254-3.938c-0.689-0.5-1.629,0.27-1.656-0.438c-0.062-1.601,1.898-3.626,1.778-5.598    c1.26,0.532,2.506,0.926,3.633,1.06c0.331,0.813,0.785,1.819,1.37,2.851c0,1.485-0.569,3.499-0.712,3.826    c-0.086,0.197-0.592,0.973-0.852,1.324C25.188,33.424,25.188,34,25.75,34h3.188c0.73,0,0.963-0.257,1.088-0.89    c0.301-1.521,0.475-4.173,0.475-4.173l0.479-1.712c0.69,0.413,1.444,0.898,2.242,1.591c0.589,0.94,0.755,2.07,0.845,2.962    c0.097,0.989-0.427,2.12,0.323,2.209c0.976,0.115,3.505-0.765,3.62-1.758C38.062,31.789,37.889,31.172,37.708,30.601z     M20.555,16.19c-0.818,0.974-1.793,1.435-1.793,1.435s-2.5,2.424-3.688,2.424c-0.721,0-1.127-0.524-1.523-1.365    c-0.436-0.924-0.479-2.091-0.479-2.544c0.243,0.667,1.084,2.798,1.929,2.798c1,0,3-2,3-2s2-1,2-2s-3-5-5-5    c-0.83,0-1.651,0.213-1.909,0.286c0.083-0.134,0.799-1.242,1.983-1.242c1.412,0,2.57,1.02,3.826,2.349    c1.58,1.672,2.094,2.778,2.094,3.535C20.994,15.546,20.799,15.899,20.555,16.19z"/>
	</g>
</g>
</svg>
