<?xml version="1.0" encoding="utf-8"?>
<!-- Generator: Adobe Illustrator 15.0.0, SVG Export Plug-In . SVG Version: 6.00 Build 0)  -->
<!DOCTYPE svg PUBLIC "-//W3C//DTD SVG 1.1//EN" "http://www.w3.org/Graphics/SVG/1.1/DTD/svg11.dtd">
<svg xmlns="http://www.w3.org/2000/svg" xmlns:xlink="http://www.w3.org/1999/xlink" version="1.1" id="Shape_5_2_" x="0px" y="0px" width="40px" height="40px" viewBox="0 0 40 40" enable-background="new 0 0 40 40" xml:space="preserve">
<g>
	<g>
		<path fill-rule="evenodd" clip-rule="evenodd" d="M31.082,23.495C34.308,24.14,36,24.205,36,23.602c0-0.582-5.627-4.587-9-7.31    c-2.392-1.931-5.1-3.344-7.991-3.938c-2.828-1.775-3.388-3.369-6.509-5.479C12.044,6.567,10.774,6,9.094,6    C6,6,4.799,7.397,4.496,8.067c0,0-1.282,0.227-1.912,0.933c-1.094,1.225-0.021,2.688-0.021,2.688    c0.419-0.855,0.771-1.296,2.43-0.816c1.52,1.042,2.388,5.236,3.418,8.208c0.805,2.322,2.582,4.019,4.956,5.092    c0.533,1.983,1.563,3.41,2.5,4.352l-0.688,3.853H12c-1.469,0-3.031,1.297-0.923,2.969c0,0-0.474-1.307,1.006-1.338    c0.085,0.399,0.381,0.852,0.994,1.338c0,0-0.494-1.344,1.054-1.344h2.934c0.098,0.401,0.397,0.855,1.013,1.344    c0,0-0.474-1.307,1.007-1.338c0.085,0.399,0.381,0.852,0.993,1.338c0,0-0.493-1.344,1.054-1.344c1,0,1.16,0,1.16,0h3    c0.528,0,1.043,0.557,0.709,1.344c1.688-1.094,1.156-2.969-1-2.969h-0.821l0.395-2.208C25.383,30.308,26.574,30.425,27,30    c0.439-0.438-0.132-2.894-0.574-4.524c2.07,1.427,7.035,5.362,9.775,6.205C38.425,32.365,39,31.593,39,31.042    C39,30.58,35.542,27.887,31.082,23.495z M10,14c0,0,1-2,0-3s-4-1-4-1S5,8,7,8s5,1,5,3S10,14,10,14z M22.179,32.375H21.5    c0,0-0.189,0-0.5,0h-1.5c0,0-0.386,0-0.978,0h-1.344l0.44-2.464C17.713,29.967,17.775,30,17.775,30s2.558,0.666,3.225,0    c0.285-0.285,0.143-1.423-0.112-2.632c0.626,0.863,1.301,1.497,1.842,1.925L22.179,32.375z"/>
	</g>
</g>
</svg>
