<?xml version="1.0" encoding="utf-8"?>
<!-- Generator: Adobe Illustrator 15.0.0, SVG Export Plug-In . SVG Version: 6.00 Build 0)  -->
<!DOCTYPE svg PUBLIC "-//W3C//DTD SVG 1.1//EN" "http://www.w3.org/Graphics/SVG/1.1/DTD/svg11.dtd">
<svg xmlns="http://www.w3.org/2000/svg" xmlns:xlink="http://www.w3.org/1999/xlink" version="1.1" id="Shape_5_2_" x="0px" y="0px" width="40px" height="40px" viewBox="0 0 40 40" enable-background="new 0 0 40 40" xml:space="preserve">
<g>
	<g>
		<path fill-rule="evenodd" clip-rule="evenodd" d="M2.001,10.568C2.018,10.737,3.326,11.689,5,12.657V7.852    C2.93,8.868,1.979,10.333,2.001,10.568z M37.203,28.494c-3.078-1.62-5.604-2.933-6.359-3.369c0.598-0.282,1.488-0.604,0.88-1.195    c-5.03-4.893-9.043-7.983-12.944-10.172C16.594,7.563,15,6.075,11.25,6.075C8.333,6.075,6.5,6.927,6,7.458    c0,1.705,0,3.476,0,5.723c0,2.247-0.459,7.386,1.206,10.101c1.658,2.703,3.99,3.93,6.526,4.425L12.455,31    c-0.441,0-0.854,0-1.226,0C8.374,31,7.678,31.199,7,32h5.067h1.348h4.652h1.348H25c-0.495-0.992-1.917-1-4.042-1    c-0.205,0-0.615,0-1.155,0l1.188-3.06c2.827-0.074,5.385-0.19,5.385-0.19S33.478,30,35.583,30    C37.135,30,38.907,29.391,37.203,28.494z M12.915,14.41c-1.276,1.462-3.167,2.016-4.224,1.237    c-1.058-0.779-0.882-2.596,0.394-4.058c1.275-1.461,3.167-2.016,4.225-1.236C14.367,11.131,14.19,12.948,12.915,14.41z M18.455,31    c-1.374,0-3.085,0-4.652,0l1.203-3.102C15.693,27.971,16.388,28,17.083,28c0.795,0,1.667-0.012,2.546-0.029L18.455,31z"/>
	</g>
</g>
</svg>
