<?xml version="1.0" encoding="utf-8"?>
<!-- Generator: Adobe Illustrator 15.0.0, SVG Export Plug-In . SVG Version: 6.00 Build 0)  -->
<!DOCTYPE svg PUBLIC "-//W3C//DTD SVG 1.1//EN" "http://www.w3.org/Graphics/SVG/1.1/DTD/svg11.dtd">
<svg xmlns="http://www.w3.org/2000/svg" xmlns:xlink="http://www.w3.org/1999/xlink" version="1.1" id="Shape_5_2_" x="0px" y="0px" width="40px" height="40px" viewBox="0 0 40 40" enable-background="new 0 0 40 40" xml:space="preserve">
<g>
	<g>
		<path d="M37.676,15.266c-0.825-1.274-5.573,3.077-6.613,3.077c-0.473,0-1-0.675-1.692-1.569c0.368-0.375,0.63-0.759,0.63-1.144    c0-2.313-0.609-6.004-2-7.379c-0.646-0.639-3.979,0.481-7.119,2.605C19.4,10.341,17.795,10,16,10C8,10,2,19.414,2,21    c0,0.913,1.665,3.751,4.97,6c0.457,0,0.856,0,1.03,0c4.375,0,6-3.3,6-5.391c0-2.565-1.217-4.015-1.795-4.593    s-0.108-1.048,0.47-0.469c1.184,1.184,2.34,2.713,2.325,5.234c-0.014,2.308-1.764,5.901-6.403,6.19    C10.827,29.149,13.609,30,16.97,30c1.972,0,3.552-0.226,4.863-0.594C24.167,31.075,26.286,32,27.088,32    C28.52,32,30,27.66,30,25.833c0-0.353-0.262-0.872-0.621-1.37c0.66-0.482,1.24-0.806,1.684-0.806c1.04,0,5.788,4.351,6.613,3.076    S37.263,21,37.263,21S38.501,16.54,37.676,15.266z M8,22c-1.104,0.001-2-0.896-2-2.001C6,18.895,6.896,18,8,18s2,0.895,2,1.999    C9.999,21.104,9.104,22,8,22z"/>
	</g>
</g>
</svg>
