<?xml version="1.0" encoding="utf-8"?>
<!-- Generator: Adobe Illustrator 15.0.0, SVG Export Plug-In . SVG Version: 6.00 Build 0)  -->
<!DOCTYPE svg PUBLIC "-//W3C//DTD SVG 1.1//EN" "http://www.w3.org/Graphics/SVG/1.1/DTD/svg11.dtd">
<svg xmlns="http://www.w3.org/2000/svg" xmlns:xlink="http://www.w3.org/1999/xlink" version="1.1" id="Shape_5_2_" x="0px" y="0px" width="40px" height="40px" viewBox="0 0 40 40" enable-background="new 0 0 40 40" xml:space="preserve">
<g>
	<g>
		<path fill-rule="evenodd" clip-rule="evenodd" d="M37.987,20c0-2.351-1.332-6.471-4.958-10.572C31.035,7.172,27.094,4,21.262,4    C16.47,4,13,6.333,13,11.333c0,2.208,0.938,3.945,1.248,5.292C14.511,17.768,14.208,19,12.958,19    c-0.958,0-1.956-0.903-2.823-3.175c-0.647-1.696-1.761-2.705-3.641-2.705c-2.204,0-3.829,0.88-4.225,5.3    C2.072,20.638,2,20.894,2,22.281c0,1.374,0.776,2.559,1.628,3.302c0.189,0.898,0.494,2.063,0.909,2.76    c0.747,1.253,6.369,1.978,6.606,1.399c0.237-0.578-2.583-2.557-3.352-3.537C7.6,25.96,7.387,25.604,7.177,25.207    C7.646,24.628,8,23.877,8,23c0-0.771,0-2-3-4c0-1.792,0.398-3,1.496-3c2.341,0,1.562,6,6.504,6c2.583,0,4.775-1.312,5-5    c1.799,0.838,2.458,0.986,4.922,0.998c0.128,0.448,0.254,0.885,0.373,1.295c-2.18,0.277-3.783,0.484-4.076,0.707    c-1.145,0.867-1.506,4.696-1.219,5c0.504,0.532,1.438-1.188,3.075-3.518c0.922-0.182,1.826-0.342,2.707-0.487    c0.133,0.48,0.217,0.813,0.218,0.911c0.004,0.374,0,2.813,0,3.116c0,0.287-0.874,4.774-2.06,10.978h-0.007    C19.15,36.539,18,36.837,18,37.418C18,38,19,38,20,38s1,0,2,0s2,0,2-0.582c0-0.418-0.188-0.702-0.441-0.91    c0.03-0.148,0.063-0.318,0.102-0.508C24.301,32.79,26,24.22,26,23.604c0-0.273-0.226-1.466-0.514-2.876    c3.625-0.54,6.581-0.806,7.806-1.025c0.565-0.101,0.507-0.81,0.507-0.964c0-0.131-0.229-0.354-0.59-0.625    C36.225,19.156,37.987,20.331,37.987,20z M25.139,19.055c-0.083-0.395-0.166-0.781-0.246-1.156c0.982-0.095,2.15-0.247,3.422-0.42    c0.892,0.48,1.561,0.865,1.561,0.865C28.26,18.629,26.628,18.859,25.139,19.055z"/>
	</g>
</g>
</svg>
