<?xml version="1.0" encoding="utf-8"?>
<!-- Generator: Adobe Illustrator 15.0.0, SVG Export Plug-In . SVG Version: 6.00 Build 0)  -->
<!DOCTYPE svg PUBLIC "-//W3C//DTD SVG 1.1//EN" "http://www.w3.org/Graphics/SVG/1.1/DTD/svg11.dtd">
<svg xmlns="http://www.w3.org/2000/svg" xmlns:xlink="http://www.w3.org/1999/xlink" version="1.1" id="Shape_5_2_" x="0px" y="0px" width="40px" height="40px" viewBox="0 0 40 40" enable-background="new 0 0 40 40" xml:space="preserve">
<g>
	<g>
		<path d="M37.821,36.841c-0.382-0.625-1.696-1.133-2.279-3.466s0.253-7.125-2.281-10.439C32.043,21.344,29.887,20,27.083,20    c-5.95-0.001-8.833,4-12.21,4c-1.873,0-3.226-0.917-3.452-2.757C11.173,19.23,13,16,13,13c0-4-2.922-5.276-4.099-6.454    C8.513,6.159,10,4.181,10,3.516C10,2.589,7.248,2,6.631,2C3.852,2,2,3.852,2,6.631C2,7.364,2.589,10,3.516,10    c0.542,0,2.684-1.501,3.071-1.1c1.137,1.177,1.83,2.1,1.83,4.1C8.417,16,6,17.875,6,22s2.958,7.584,8,7.959S23.743,26,27,26    c4.542,0,3.871,4.792,5.271,8c1.48,3.394,3.945,3.897,4.827,3.99S38.203,37.466,37.821,36.841z"/>
	</g>
</g>
</svg>
