<?xml version="1.0" encoding="utf-8"?>
<!-- Generator: Adobe Illustrator 15.0.0, SVG Export Plug-In . SVG Version: 6.00 Build 0)  -->
<!DOCTYPE svg PUBLIC "-//W3C//DTD SVG 1.1//EN" "http://www.w3.org/Graphics/SVG/1.1/DTD/svg11.dtd">
<svg xmlns="http://www.w3.org/2000/svg" xmlns:xlink="http://www.w3.org/1999/xlink" version="1.1" id="Shape_5_2_" x="0px" y="0px" width="40px" height="40px" viewBox="0 0 40 40" enable-background="new 0 0 40 40" xml:space="preserve">
<g>
	<g>
		<path d="M16.561,19h2.645c0.829,0,1.474,0.521,1.605,1.297l0.755,4.484C23.248,25.726,25.365,26.293,28,26c9-1,8-9,8-9    l-2.246-1.598C33.754,15.402,32.25,6,22,6C17.375,6,11.489,7.438,7.997,8.78C6.281,9.44,4,10.33,4,13.375    c0,3,1.933,5.896,1.933,5.896l1.059-0.651l0.379,1.713c0,0-1.77,0.401-2.65,0.646C3.78,21.238,3.76,22.337,4.141,22.86    c0.203,0.279,3.297,4.091,3.297,4.091C8.188,27.925,9.309,28,10.782,28l-4.442-5.439c0,0,1.602-0.317,2.291-0.435    s1.018-1.058,0.925-1.497L8.996,18h0.932l0.652,3.371C10.654,21.751,10.971,22,11.379,22h3.308l0.845,5.013    c0.045,0.266,0.253,0.772,0.47,0.991c0,0,1.567,1.6,2.311,2.357c0.87,0.888,2.638,1.773,4.365,1.773l-5.092-5.618L16.823,22h1.071    l0.606,3.602c0.047,0.266,0.253,0.772,0.472,0.991c0,0,4.572,4.984,5.314,5.742c0.872,0.888,2.639,1.773,4.365,1.773l-8.098-9.003    l-0.751-4.457C19.736,20.259,19.417,20,19,20h-3.322l-0.387-2h1.077L16.561,19z M12.469,20l-0.387-2h1.054l0.387,2H12.469z"/>
	</g>
</g>
<polyline display="none" fill="none" stroke="#000000" stroke-width="2" stroke-linejoin="round" stroke-miterlimit="10" points="  17,14 19,19 23,19 26,27 34,33 "/>
<polyline display="none" fill="none" stroke="#000000" stroke-width="2" stroke-linejoin="round" stroke-miterlimit="10" points="  12,14 14,19 17,19 20,27 26,32 "/>
<polyline display="none" fill="none" stroke="#000000" stroke-width="2" stroke-linejoin="round" stroke-miterlimit="10" points="  8,14 10,19 7,21 9,25 14,25 "/>
</svg>
