<?xml version="1.0" encoding="utf-8"?>
<!-- Generator: Adobe Illustrator 15.0.0, SVG Export Plug-In . SVG Version: 6.00 Build 0)  -->
<!DOCTYPE svg PUBLIC "-//W3C//DTD SVG 1.1//EN" "http://www.w3.org/Graphics/SVG/1.1/DTD/svg11.dtd">
<svg xmlns="http://www.w3.org/2000/svg" xmlns:xlink="http://www.w3.org/1999/xlink" version="1.1" id="Shape_5_2_" x="0px" y="0px" width="40px" height="40px" viewBox="0 0 40 40" enable-background="new 0 0 40 40" xml:space="preserve">
<g>
	<g>
		<path d="M8,16c0,2,2,4,4,4c0.649,0,1.373-0.155,2.061-0.438l-5.608-5.609C8.164,14.649,8,15.344,8,16z M16,8    c-0.655,0-1.349,0.169-2.042,0.457l5.604,5.604C19.85,13.366,20,12.657,20,12C20,10,18,8,16,8z M29.851,15.644    c-1.741-0.177-3.528-0.327-5.055-0.438l2.521-3.026C32.368,14,33.686,14,35.999,14v-2c-2.253,0-3.385,0-8.655-1.938    c-0.396-0.146-0.842-0.026-1.113,0.298l-3.694,4.434c-0.259-0.206-0.531-0.368-0.814-0.492l2.148-3.81    c0.087-0.155,0.129-0.324,0.129-0.491c0-0.308-0.143-0.609-0.405-0.804c-0.716-0.53-1.383-1.001-1.993-1.432    C19.169,6.049,18,5.171,18,4h-2c0,2.259,1.77,3.508,4.449,5.399c0.391,0.276,0.806,0.569,1.243,0.884l-2.129,3.777l-0.708,0.708    l-5.845-5.846c-0.003,0.001-0.005,0.004-0.008,0.005V5.999c0-0.552-0.448-1-1-1s-1,0.448-1,1c0,0.117,0.02,0.229,0.057,0.333    c0.089,0.253,0.461,2.153,0.711,3.45c-0.733,0.578-1.42,1.25-1.996,1.984c-1.296-0.249-3.188-0.62-3.44-0.709    C6.229,11.02,6.117,11,6,11c-0.552,0-1,0.448-1,1s0.448,1,1,1h2.933c-0.002,0.004-0.005,0.008-0.008,0.012l5.843,5.843    l-0.708,0.708c0,0,0.001,0,0.002-0.001l-3.779,2.131c-0.315-0.438-0.608-0.853-0.884-1.243C7.508,17.77,6.259,16,4,16v2    c1.171,0,2.048,1.169,3.765,3.602c0.431,0.61,0.901,1.277,1.432,1.993C9.391,23.857,9.693,24,10,24    c0.167,0,0.336-0.042,0.491-0.129l3.811-2.148c0.124,0.282,0.287,0.555,0.492,0.813l-4.434,3.695    c-0.325,0.271-0.444,0.717-0.298,1.113C12,32.615,12,33.747,12,36h2c0-2.313,0-3.631-1.82-8.682l3.027-2.522    c0.111,1.526,0.26,3.313,0.438,5.054c0.793,7.787,1.362,8.149,2.38,8.149c1.624,0,3.744-3.374,4.475-5.264    c0.274-0.71,0.434-1.492,0.479-2.284c2.792,1.677,6.591,2.115,8.09,0.617c1.495-1.499,1.058-5.3-0.619-8.09    c0.792-0.046,1.575-0.204,2.286-0.479c1.89-0.73,5.264-2.851,5.264-4.475C38,17.006,37.638,16.438,29.851,15.644z M21.567,32.375    c-0.863,2.232-2.782,4.624-3.542,4.624c-0.785,0-1.592-8.717-1.897-13.376c0.969,0.481,2.073,0.486,3.177,0.084    c0.917,1.185,1.676,2.393,2.262,3.824C21.841,28.202,22,29.106,22,29.999C22,30.865,21.834,31.686,21.567,32.375z M32.376,21.566    c-0.689,0.267-1.51,0.433-2.376,0.433c-0.893,0-1.797-0.159-2.468-0.434c-1.433-0.586-2.641-1.345-3.825-2.262    c0.402-1.104,0.396-2.208-0.084-3.177C28.281,16.433,37,17.24,37,18.024C37,18.784,34.608,20.703,32.376,21.566z"/>
	</g>
</g>
</svg>
