<?xml version="1.0" encoding="utf-8"?>
<!-- Generator: Adobe Illustrator 15.0.0, SVG Export Plug-In . SVG Version: 6.00 Build 0)  -->
<!DOCTYPE svg PUBLIC "-//W3C//DTD SVG 1.1//EN" "http://www.w3.org/Graphics/SVG/1.1/DTD/svg11.dtd">
<svg xmlns="http://www.w3.org/2000/svg" xmlns:xlink="http://www.w3.org/1999/xlink" version="1.1" id="Shape_5_2_" x="0px" y="0px" width="40px" height="40px" viewBox="0 0 40 40" enable-background="new 0 0 40 40" xml:space="preserve">
<g>
	<g>
		<path d="M25.114,17.505c0.856,1.392,1.655,2.804,2.38,4.095c3.695-2.447,2.31-5.559,2.31-5.559S27.89,16.122,25.114,17.505z     M24.472,16.481C28.909,12.43,30.613,6.884,29.8,2c-2.594,1.151-7.335,4.486-11.236,7.768c0.881,0.734,1.699,1.501,2.465,2.266    C22.249,13.254,23.402,14.825,24.472,16.481z M37.333,28.225c-2.661-0.698-8.143-1.85-8.143-1.85    c-2.071-2.861-5.182-9.946-8.869-13.634C16.798,9.217,12.5,6,6,6c0,2.615,0.627,6.508,3.934,10.815    c0.836-0.996,1.83-1.997,3.021-2.982C16.813,16.583,20.338,20.059,20,21c-0.25,0.696-0.876,1.731-1.808,2.846    c0.002,0.001,0.003,0.002,0.005,0.003c-2.051,3.442-2.156,5.955-2.156,5.955s3.884,1.734,6.385-3.827    c1.546,0.773,2.97,1.574,4.214,2.707c0.396,1.926,1.114,6.706,1.544,8.488C28.335,37.796,28.68,38,29.047,38    c0.344,0,0.553-0.198,0.637-0.635C29.936,36.061,30,33.853,30,30c4.022,0,6.426,0.004,7.438-0.281    C37.816,29.611,38,29.289,38,29.073C38,28.636,37.745,28.333,37.333,28.225z M10.5,12C9.672,12,9,11.328,9,10.5    C9.001,9.67,9.672,8.999,10.501,9C11.328,8.999,12,9.672,12,10.499C12.001,11.328,11.328,12,10.5,12z M13,15    C9,19,3.888,26.383,2,29.8c6,1,13-1.8,17-8.8C19.496,20.132,13,15,13,15z"/>
	</g>
</g>
</svg>
