<?xml version="1.0" encoding="utf-8"?>
<!-- Generator: Adobe Illustrator 15.0.0, SVG Export Plug-In . SVG Version: 6.00 Build 0)  -->
<!DOCTYPE svg PUBLIC "-//W3C//DTD SVG 1.1//EN" "http://www.w3.org/Graphics/SVG/1.1/DTD/svg11.dtd">
<svg xmlns="http://www.w3.org/2000/svg" xmlns:xlink="http://www.w3.org/1999/xlink" version="1.1" id="Shape_5_2_" x="0px" y="0px" width="40px" height="40px" viewBox="0 0 40 40" enable-background="new 0 0 40 40" xml:space="preserve">
<g>
	<g>
		<path d="M35.26,26.237c-2.489-3.383-3.635-10.184-9.51-10.184c-3.156,0-5.834,0.391-9.026-0.146    c-1.939-0.326-1.571-1.463-5.003-3.722c-1.704-2.319-3.269-4.302-3.596-4.146C7.938,8.128,8.082,9.169,8.301,10.3    C7.216,8.902,6.357,7.929,6.125,8.039C5.779,8.204,6.56,11.59,6.858,12.83c-0.477,0.428-0.941,0.932-1.38,1.563    c-0.492,0.707-1.93,0.957-3.132,1.231c-0.968,0.221-0.068,1.372,0.609,1.787c0.92,0.564,3.226,0.547,4.611,0.636    c0.924,1.967,2.64,3.879,3.779,5.021c-0.62,0.216-2.25,0.832-2.887,1.536c-0.792,0.875-0.44,3.455,1.257,3.902    c0.59,0.155,1.175,0.064,1.162-0.24c-0.05-1.184-1.003-1.731-0.796-2.262c0.168-0.433,1.338-0.827,4.495-0.959    c0.636,1.116,1.286,2.257,1.286,3.76c0,2.278-1,3.194-0.028,3.194h0.875C17.552,32,18,29.688,18,28.709    c0-0.789-0.001-2.238-0.077-3.713c2.036-0.013,3.497-0.066,4.677-0.133c0.964,1.708,2.779,3.614,2.466,4.326    c-0.169,0.385-0.714,1.128-1.018,1.433C23.3,31.371,22.835,32,23.583,32H24.5c0.305,0,0.607-0.08,0.852-0.311    c0.875-0.825,1.618-2.126,1.698-2.32c0.409-0.981-0.258-1.182-0.258-2.65c0-0.333,0.081-0.628,0.21-0.911    c1.351,1.254,2.775,1.712,2.905,3.078c0.04,0.418-0.178,1.339-0.392,1.712C29.159,31.221,28.502,32,29.25,32h1.25    c0.305,0,0.609-0.157,0.823-0.77c0.187-0.535,0.347-1.138,0.465-1.649c2.88,2.477,5.418,2.883,6.11,2.098    C38.405,31.106,37.682,29.529,35.26,26.237z M36.841,31.001c-1.271,0-2.895-0.661-5.135-2.847    c1.782,0.118,2.161-0.654,2.748-1.324c1.939,2.636,2.442,3.73,2.563,4.165C36.969,30.998,36.91,31.001,36.841,31.001z"/>
	</g>
</g>
</svg>
