<?xml version="1.0" encoding="utf-8"?>
<!-- Generator: Adobe Illustrator 15.0.0, SVG Export Plug-In . SVG Version: 6.00 Build 0)  -->
<!DOCTYPE svg PUBLIC "-//W3C//DTD SVG 1.1//EN" "http://www.w3.org/Graphics/SVG/1.1/DTD/svg11.dtd">
<svg xmlns="http://www.w3.org/2000/svg" xmlns:xlink="http://www.w3.org/1999/xlink" version="1.1" id="Shape_5_2_" x="0px" y="0px" width="40px" height="40px" viewBox="0 0 40 40" enable-background="new 0 0 40 40" xml:space="preserve">
<g>
	<g>
		<path d="M34.963,22.315C34.132,20.38,32.69,17.69,32,17c-2-2-5.577-2-10.577-4c-4.077-1.631-4.449-3.261-8.242-3.808    C12.856,8.113,11.451,7,10,7C8.55,7,7.145,8.112,6.819,9.192C3.978,9.564,2,10.487,2,12c0,1.75,4,5,7,8c2,2,5,4,5,4    s-0.406,3.406-1,4c-0.347,0.348-0.868,0.414-1.297,0.719C10.895,29.293,10.409,30,12,30h4c1.844,0,2.543-2.219,3.079-4.053    c0.001-0.004,0.006-0.008,0.007-0.013c0.454-1.945,2.918-4.681,9.915-4.918c1.359-0.045,2.99,0.205,3.828,1.063    C31.976,22.025,31.033,22,30,22c-7.313,0-10,2.774-10,4.606c0,1.53,2.807,2.474,6.625,2.389c0.397-0.009,3.987,0.056,6.859-0.929    c-0.772,0.845-1.66,1.464-2.234,1.559C30.242,29.792,27.11,30,26.155,30h-3.124c-2,0-2.031,2-1.031,2h5.155    c2.859,0,5.032-0.25,5.968-0.754C34.464,30.523,38,27.194,38,24.394C38,23.292,36.912,22.652,34.963,22.315z M10,12    c-1.104,0-2-0.896-2-2s0.896-2,2-2s2,0.896,2,2S11.104,12,10,12z"/>
	</g>
</g>
</svg>
