<?xml version="1.0" encoding="utf-8"?>
<!-- Generator: Adobe Illustrator 15.0.0, SVG Export Plug-In . SVG Version: 6.00 Build 0)  -->
<!DOCTYPE svg PUBLIC "-//W3C//DTD SVG 1.1//EN" "http://www.w3.org/Graphics/SVG/1.1/DTD/svg11.dtd">
<svg xmlns="http://www.w3.org/2000/svg" xmlns:xlink="http://www.w3.org/1999/xlink" version="1.1" id="Shape_5_2_" x="0px" y="0px" width="40px" height="40px" viewBox="0 0 40 40" enable-background="new 0 0 40 40" xml:space="preserve">
<g>
	<g>
		<path d="M17.718,28C13.644,28,10,28.75,10,30.459C10,32.893,14.534,34,20.333,34c0.955,0,1.84-0.017,2.649-0.055    c-2.702,0.75-5.771,1.104-8.478,0.598c-1.325-0.247-2.417-0.595-3.274-1.034c-1.132,0.435-2.083,0.852-2.746,1.178    C7.707,35.068,7.943,36,8.646,36c1,0,5.03-1.284,5.819-0.495C15.141,36.18,13.086,38,14.542,38c0.899,0,1.881-1.411,3.599-2.047    c5.416-0.77,8.475-2.038,9.494-3.108c0.039-0.039,0.074-0.081,0.107-0.123c0.015-0.018,0.034-0.036,0.048-0.055    c-0.002-0.002-0.004-0.003-0.005-0.004C27.921,32.469,28,32.251,28,32C28,30.343,23.39,28,17.718,28z M27.088,15.372    c-0.598-0.621-1.276-1.222-1.956-1.768c0.55-1.73,1.069-3.99,0.806-5.822c-0.495-3.433-5.406-0.75-5.406-0.75    c0.844,1.25,0.985,3.728,0.985,4.036c0,0-1.369-2.742-2.333-3.787C17.351,5.292,12.933,4,9.583,4C7.164,4,5.884,4.488,5.186,5.186    S4,7.21,4,9.583c0,3.35,1.292,7.768,3.28,9.601c1.044,0.963,3.787,2.333,3.787,2.333c-0.308,0-2.786-0.142-4.036-0.985    c0,0-2.683,4.911,0.75,5.406c1.832,0.264,4.092-0.256,5.822-0.806c0.546,0.68,1.148,1.358,1.769,1.956    C16.143,27.027,16.935,27,17.718,27c4.208,0,8.08,1.245,10.004,2.854c0.694-0.179,1.217-0.407,1.47-0.661    c0.254-0.253,0.482-0.775,0.661-1.47C28.245,25.798,27,21.927,27,17.718C27,16.935,27.027,16.143,27.088,15.372z M35.505,14.466    C34.716,13.676,36,9.646,36,8.646c0-0.704-0.932-0.939-1.313-0.163c-0.326,0.664-0.743,1.614-1.178,2.746    c0.439,0.857,0.787,1.95,1.034,3.274c0.507,2.707,0.152,5.776-0.598,8.478C33.983,22.173,34,21.288,34,20.333    C34,14.534,32.893,10,30.459,10C28.75,10,28,13.644,28,17.718C28,23.39,30.343,28,32,28c0.251,0,0.469-0.079,0.663-0.215    c0.001,0.001,0.002,0.003,0.004,0.005c0.019-0.014,0.037-0.033,0.055-0.048c0.042-0.033,0.084-0.068,0.123-0.107    c1.07-1.02,2.339-4.078,3.108-9.494C36.589,16.423,38,15.44,38,14.542C38,13.086,36.18,15.141,35.505,14.466z"/>
	</g>
</g>
</svg>
