<?xml version="1.0" encoding="utf-8"?>
<!-- Generator: Adobe Illustrator 15.0.0, SVG Export Plug-In . SVG Version: 6.00 Build 0)  -->
<!DOCTYPE svg PUBLIC "-//W3C//DTD SVG 1.1//EN" "http://www.w3.org/Graphics/SVG/1.1/DTD/svg11.dtd">
<svg xmlns="http://www.w3.org/2000/svg" xmlns:xlink="http://www.w3.org/1999/xlink" version="1.1" id="Shape_5_2_" x="0px" y="0px" width="40px" height="40px" viewBox="0 0 40 40" enable-background="new 0 0 40 40" xml:space="preserve">
<g>
	<g>
		<path d="M35.848,27.823C35.146,27.114,34,26.042,34,22.237c0-0.664-0.257-1.453-0.741-2.171c1.617,0.306,1.725,1.584,3.266,1.86    c1.024,0.184,1.869-0.191,1.209-0.554c-2.474-1.357-2.15-2.362-4.62-2.362c-0.266,0-0.534,0.013-0.788,0.033    C31.573,18.427,30.584,18,29.374,18c-4.39,0-6.285,1-9.791,1c-4,0-3.521-2.979-5.25-6.667c-0.099-0.211-0.235-0.415-0.396-0.609    c0.167-0.038,0.336-0.078,0.512-0.122c1.098-0.277,1.767-2.84,1.449-3.391c-0.206-0.357-2.315,0.58-3.63,2.28c0,0,0,0,0,0    c-0.479-0.221-0.987-0.373-1.479-0.435c0.15-0.807,0.47-1.663,1.732-2.483c1.484-0.965,2.306-1.683,2.883-2.548    S16.104,2.866,15.5,1.78c-0.202,0.883-0.257,1.339-1.061,2.296c-0.411,0.489-1.563,1.309-2.903,2.112    c-2.325,1.393-3.026,2.353-3.41,4.734c-0.009,0.055-0.005,0.1-0.004,0.147c-1.698,1.351-3.669,2.345-4.023,2.967    c-0.239,0.42-0.02,1.921,1.106,1.921c1.68,0,4.812,0.043,4.812,0.043c0.594,1.924,2.062,7.123,2.959,8.721    c-0.751,0.08-1.512,0.178-1.975,0.285c-0.729,0.169-1,0.193-0.976,0.93c0.015,0.429,0.738,4.064,0.851,4.396    c0.208,0.613,0.708,0.875,2.979,1.605L13.5,30.282c0,0-1.068-0.396-1.287-0.47c-0.234-0.08-0.349-2.017-0.405-3    c0.504,0.105,2.473,0.24,4.369,0.238c0.66,1.093,1.649,2.794,1.744,3.346C18.064,31.229,18.606,34,18.606,35    c0,0.375-0.396,3-0.396,3h1.604c0.246-0.735,0.357-2.362,0.394-2.832c0.067-0.886-0.191-5.933-0.282-7.625    C21.549,27.83,23.184,28,24.5,28c1.099,0,2.105-0.096,3.033-0.258c1.474,1.491,3.159,3.166,2.858,4.197C29.423,35.262,28,38,28,38    h1.781c0,0,1.717-4.147,2.976-7.112c0.257-0.606-0.154-1.246-0.571-1.876C33.968,29.871,35.861,30.822,36,32c0.406,3.438,0,6,0,6    h1.781c0,0,0.219-0.9,0.219-1.938V30C38,29,36.549,28.532,35.848,27.823z M28.647,23.926c-1,0-6.206,1.442-7.695,1.827    c-0.968,0.25-0.952,0.67-0.952,0.67c0-1,0.1-1.268,0.688-1.52C22.15,24.276,28,22,29,22s1,2.542,1,2.542    C29.438,24,29.289,23.926,28.647,23.926z"/>
	</g>
</g>
</svg>
