<?xml version="1.0" encoding="utf-8"?>
<!-- Generator: Adobe Illustrator 15.0.0, SVG Export Plug-In . SVG Version: 6.00 Build 0)  -->
<!DOCTYPE svg PUBLIC "-//W3C//DTD SVG 1.1//EN" "http://www.w3.org/Graphics/SVG/1.1/DTD/svg11.dtd">
<svg xmlns="http://www.w3.org/2000/svg" xmlns:xlink="http://www.w3.org/1999/xlink" version="1.1" id="Shape_5_2_" x="0px" y="0px" width="40px" height="40px" viewBox="0 0 40 40" enable-background="new 0 0 40 40" xml:space="preserve">
<g>
	<g>
		<path d="M33.98,24.5c-0.76-2.742-0.832-3.299-2.299-5.246c-0.008-0.01-0.014-0.015-0.021-0.024C30.061,17.004,27.195,15,23.998,15    c-3.748,0-5.223-0.033-5.832-0.399c-1.263-0.759-1.688-1.526-3.167-4.046c-0.376-0.641-0.873-1.193-1.395-1.668l0.004,0    c-1.539-2.604-3.067-5.018-3.45-4.847c-0.2,0.089-0.196,1.129-0.131,2.258c-0.896-1.4-1.622-2.369-1.869-2.258    C7.853,4.176,8.025,6.55,8.166,8.055C7.519,8.4,6.958,8.765,6.729,8.994c-0.345,0.344-0.679,1.172-0.968,1.423    c-0.481,0.417-2.436,0.498-3.688,1.738c-0.28,0.277,0.368,1.987,1.427,2.247c0.806,0.198,1.497,0.331,3.187,0.473    c0.917,1.438,1.201,3.792,2.866,5.759c0.841,2.521,2.47,5.779,2.47,5.779s0.838,2.289,0.838,4.393    c0,1.791-1.924,1.663-1.924,3.194c0,0,1.781,0,2.5,0S15,31.688,15,31.188v-6.906c0-0.016-0.003-0.035-0.004-0.052    c0.562,1.25,1.027,2.184,1.027,2.184s0.838,2.289,0.838,4.393c0,1.791-1.924,1.663-1.924,3.194c0,0,1.781,0,2.5,0    S19,31.688,19,31.188v-6.202c0.958-0.014,1.779-0.038,2.494-0.067c0.369,1.421,0.825,2.684,1.305,3.328    c1.026,1.38,3.845,1.345,3.803,2.41c-0.017,0.419-0.23,1.264-0.977,1.797c-0.39,0.278-1.592,0.567-1.592,1.547    c0,0,1.686,0,2.467,0c0.305,0,0.735-0.251,1.125-0.77c0.771-1.027,1.285-2.392,1.344-2.593c0.323-1.111-1.638-1.394-1.638-2.894    c0-0.326,0.075-0.674,0.18-1.028c0.104,0.207,0.201,0.387,0.288,0.53c1.344,2.212,5.891,2.161,6.068,3.222    c0.069,0.414-0.281,1.698-0.602,1.985c-0.356,0.32-1.232,0.567-1.232,1.547c0,0,1.686,0,2.467,0c0.305,0,0.609-0.157,0.823-0.77    c0.275-0.788,0.491-1.915,0.6-2.608C37.012,31.018,38,31.186,38,31C38,28.283,34.813,27.505,33.98,24.5z"/>
	</g>
</g>
</svg>
