<?xml version="1.0" encoding="utf-8"?>
<!-- Generator: Adobe Illustrator 15.0.0, SVG Export Plug-In . SVG Version: 6.00 Build 0)  -->
<!DOCTYPE svg PUBLIC "-//W3C//DTD SVG 1.1//EN" "http://www.w3.org/Graphics/SVG/1.1/DTD/svg11.dtd">
<svg xmlns="http://www.w3.org/2000/svg" xmlns:xlink="http://www.w3.org/1999/xlink" version="1.1" id="Shape_5_2_" x="0px" y="0px" width="40px" height="40px" viewBox="0 0 40 40" enable-background="new 0 0 40 40" xml:space="preserve">
<g>
	<g>
		<path d="M28.659,17.081c-3.55-0.797-7.373-1.445-7.373-1.445C16.28,14.333,19,12.333,14.724,10.75    c-0.174-1.406-0.55-2.344-1.943-2.418c-1.032-0.055-1.686,0.731-2.142,1.183L7.906,9.676L5.183,8.344c0,0,0.442-2.344-1.308-2.344    C2.875,6,2,6.719,2,8.406c0,1.782,0.208,2.303,2.143,2.42l3.026,1.549c0.811,0.636,1.722,2.333,2.737,3.438    c0.976,2.414,2.378,4.371,4.589,5.722C15.189,19.357,16.9,19,17.938,19C19.855,19,21,20.215,21,22.25    c0,0.577-0.167,1.238-0.4,1.866c1.348,0.572,2.8,1.21,4.4,1.884c0-2.215,1.259-3.34,4.094-2.594C26.075,24.349,26,24.29,26,27.5    c0,0-8,1.031-12,2.031C10.12,30.501,8,32,6,35c0,0,10-1,21.25-2C34.673,32.34,38,30.254,38,24.583    C38,20,34.844,18.469,28.659,17.081z M19.071,25.014C19.518,24.285,20,23.101,20,22.25c0-1.594-0.792-2.25-2.063-2.25    c-1.833,0-2.458,1.233-2.667,2.604C15,24.38,15,24.38,15,24.38C13.544,24.938,13.083,26,13.083,26s3.343,0,4.292,0    C18.297,26,18.713,25.598,19.071,25.014z"/>
	</g>
</g>
</svg>
