<?xml version="1.0" encoding="utf-8"?>
<!-- Generator: Adobe Illustrator 15.0.0, SVG Export Plug-In . SVG Version: 6.00 Build 0)  -->
<!DOCTYPE svg PUBLIC "-//W3C//DTD SVG 1.1//EN" "http://www.w3.org/Graphics/SVG/1.1/DTD/svg11.dtd">
<svg xmlns="http://www.w3.org/2000/svg" xmlns:xlink="http://www.w3.org/1999/xlink" version="1.1" id="Shape_5_2_" x="0px" y="0px" width="40px" height="40px" viewBox="0 0 40 40" enable-background="new 0 0 40 40" xml:space="preserve">
<g>
	<g>
		<path d="M35.248,26.375C34.657,24.949,35,22.918,35,21.237c0-1.703-1.443-4.972-4.266-5.862c-2.498-0.788-3.405-1.17-4.922-2.375    c-1.603-1.273-2.325-2.145-3.594-2.625C17.518,8.593,11.325,5.638,9.49,4.353c0.14-0.041,0.267-0.085,0.363-0.136    c0.659-0.349,1.269-1.799,1.081-2.173c-0.122-0.243-1.356,0.106-3.057,1.202c0,0,0.184-0.428,0.151-0.828C8,2.083,7.698,2,7.476,2    c-0.281,0-2.25,2.277-3.904,3.566C3.022,5.994,2.332,6.499,2.098,7c-0.205,0.438-0.02,0.958,1.106,0.958    c0.475,0,1.528-0.24,1.528-0.24l3.284,0.283c2.06,1.584,8.01,6.661,9.343,8.517C17.985,17.39,17,19.093,17,21    c0,0.089,0.023,0.175,0.049,0.261c0,0.005-0.003,0.009-0.003,0.014c0,1.19,2.507,3.736,2.65,4.569S20.397,34,20.397,35    c0,0.375-1.188,3-1.188,3h1.998c0.246-0.735,0.756-2.362,0.792-2.832c0.08-1.075,0.081-2.045,0.006-11.511    c0.106,0.021,0.213,0.038,0.319,0.058c0.646,0.902,1.301,1.719,1.371,2.129C23.84,26.677,24.397,34,24.397,35    c0,0.375-1.188,3-1.188,3h1.998c0.246-0.735,0.756-2.362,0.792-2.832c0.066-0.879,0.023-8.577,0.006-11.264    c0.631-0.111,1.338-0.314,2.081-0.572c0.006,0.353,0.046,0.685,0.139,0.977c0.542,1.702,2.612,5.504,2.211,6.88    C29.468,34.511,28,38,28,38h1.781c0,0,1.783-4.788,3.042-7.753c0.3-0.706-0.325-1.656-0.368-3.237    c1.386,1.34,2.535,2.744,2.599,3.704C35.275,34.036,34.557,38,34.557,38h1.781c0,0,0.508-5.373,0.704-8.338    C37.103,28.741,35.661,27.371,35.248,26.375z"/>
	</g>
</g>
</svg>
