<?xml version="1.0" encoding="utf-8"?>
<!-- Generator: Adobe Illustrator 15.0.0, SVG Export Plug-In . SVG Version: 6.00 Build 0)  -->
<!DOCTYPE svg PUBLIC "-//W3C//DTD SVG 1.1//EN" "http://www.w3.org/Graphics/SVG/1.1/DTD/svg11.dtd">
<svg xmlns="http://www.w3.org/2000/svg" xmlns:xlink="http://www.w3.org/1999/xlink" version="1.1" id="Shape_5_2_" x="0px" y="0px" width="40px" height="40px" viewBox="0 0 40 40" enable-background="new 0 0 40 40" xml:space="preserve">
<g>
	<g>
		<path d="M37.144,28C34.875,25.462,34,24.042,34,20.237c0-0.457-0.09-0.972-0.253-1.483c0.582-0.792,1.343-2.079,1.343-3.41    c0-3.282-3.083-5.039-2.978-3.989c0.192,1.922-0.01,3.826-0.172,4.911C31.633,16.099,31.298,16,30.938,16    c-4.881,0-7.849,1-11.354,1c-2.525,0-4.31-1.735-5.595-3.401c1.906,0.28,3.185-0.441,3.082-0.955    c-0.075-0.374-2.58-0.929-5.334-2.253c-0.116-0.163-0.232-0.314-0.348-0.456c0.618-0.825,1.438-1.584,2.433-1.894    c1.388-0.432,2.863-0.054,4.407,0.205c-0.924-1.309-2.725-2.207-4.479-2.207c-2.474,0-4.015,1.738-4.873,2.867    C8.22,8.994,7.684,9.335,6.151,10.671c-2.429,2.117-3.543,3.139-4.053,3.954c-0.257,0.41-0.447,2.088,0.652,2.333    c0.885,0.198,5.273,0.012,5.273,0.012c1.358,1.262,3.399,3.121,5.119,6.734c-0.804,0.083-1.644,0.188-2.142,0.303    c-0.729,0.169-0.986,0.622-0.961,1.358c0.015,0.429,0.357,3.847,0.47,4.179c0.208,0.613,1.075,1.433,3.346,2.163l-0.298-2.037    c0,0-0.905-0.71-1.125-0.784c-0.234-0.08-0.194-1.442-0.25-2.426c0.329,0.068,1.203,0.009,2.265-0.094    c0.3,0.382,0.665,0.633,1.137,0.633c0.479,0,0.77-0.05,0.968-0.125c0.475,0.913,0.959,1.915,1.03,2.325    c0.143,0.833,0.835,3.8,0.835,4.8c0,0.375-0.516,2-0.516,2h1.913c0.246-0.735,0.357-1.362,0.394-1.832    c0.071-0.943-0.227-6.619-0.297-7.916C21.464,26.505,23.455,27,24.487,27c0.62,0,1.266-0.084,1.913-0.225    c1.383,1.66,2.705,3.652,2.634,5.021C28.917,34.042,27.688,36,27.688,36h2.094c0,0,1.111-1.754,1.95-4.864    c0.26-0.966,0.363-1.214-0.105-2.094c-0.229-0.431-0.396-0.824-0.52-1.196c2,1,4.726,2.399,4.894,3.821C36.406,35.104,36,36,36,36    h1.781c0,0,0.219-0.9,0.219-1.938c0-1.229,0-0.842,0-4.063C38,29,37.768,28.698,37.144,28z"/>
	</g>
</g>
<path d="M3.938,16.563c0,0-0.25,1.875,0.688,5.375c0.563-0.729,1.833-3.5,1.313-5.875C5.262,12.983,3.938,16.563,3.938,16.563z"/>
</svg>
