<?xml version="1.0" encoding="utf-8"?>
<!-- Generator: Adobe Illustrator 15.0.0, SVG Export Plug-In . SVG Version: 6.00 Build 0)  -->
<!DOCTYPE svg PUBLIC "-//W3C//DTD SVG 1.1//EN" "http://www.w3.org/Graphics/SVG/1.1/DTD/svg11.dtd">
<svg xmlns="http://www.w3.org/2000/svg" xmlns:xlink="http://www.w3.org/1999/xlink" version="1.1" id="Shape_5_2_" x="0px" y="0px" width="40px" height="40px" viewBox="0 0 40 40" enable-background="new 0 0 40 40" xml:space="preserve">
<g>
	<g>
		<path d="M38,10c-4.586,0-8,7-8,7c-0.719,0-1.487-0.565-2.817-1.47c0.545-0.803,0.984-1.621,0.859-1.849C24.833,7.833,20,6,20,6    s-2.198,1.893-3.717,5.014C16.187,11.012,16.098,11,16,11c-6,0-14,8.412-14,10c0,1.111,2.293,4.089,6.862,5.78    C11.38,26.32,14,23.824,14,21c0-1.958-0.4-3.336-1.783-5.248c-0.357-0.495,0.055-0.882,0.47-0.47C14.125,16.708,15,19,15,21.072    c0,2.075-0.839,4.931-3.829,6.399c0.688,0.157,1.418,0.282,2.184,0.373c1.494,2.483,5.258,5.239,5.615,5.226    c0.749-0.03,1.27-4.104,0.817-4.634c-0.229-0.268-0.579-0.48-0.992-0.656c1.55-0.262,2.71-0.737,3.623-1.326    c2.332,1.156,5.194,1.452,5.457,1.213c0.222-0.201,0.04-4.335-1.458-4.417c-0.283-0.016-0.542-0.017-0.793-0.015    C26.671,21.996,27.77,21,30,21c0,0,2.292,7,8,7l-2-9L38,10z M8.658,20.658c-0.639,0.641-1.677,0.639-2.316,0    c-0.64-0.641-0.64-1.677,0-2.316c0.639-0.639,1.676-0.639,2.315,0C9.298,18.981,9.298,20.019,8.658,20.658z"/>
	</g>
</g>
</svg>
