<?xml version="1.0" encoding="utf-8"?>
<!-- Generator: Adobe Illustrator 15.0.0, SVG Export Plug-In . SVG Version: 6.00 Build 0)  -->
<!DOCTYPE svg PUBLIC "-//W3C//DTD SVG 1.1//EN" "http://www.w3.org/Graphics/SVG/1.1/DTD/svg11.dtd">
<svg xmlns="http://www.w3.org/2000/svg" xmlns:xlink="http://www.w3.org/1999/xlink" version="1.1" id="Shape_5_2_" x="0px" y="0px" width="40px" height="40px" viewBox="0 0 40 40" enable-background="new 0 0 40 40" xml:space="preserve">
<g>
	<g>
		<path d="M34.5,25.079c-0.76-1.745-0.394-3.092-0.782-5.066C33.138,17.068,30.875,15,25.998,15c-3.748,0-6.378,0.854-7.832,0    c-1.271-0.747-2.396-1.925-3.875-4.445C13.054,8.445,11.24,8,10.697,8C9.594,8,7.317,8.175,6.78,8.642    c-0.345,0.3-0.621,1.151-0.968,1.258c-1.763,0.541-3.449-0.036-3.739,0.877c-0.235,0.74,0.353,2.471,1.304,3.004    c1.087,0.61,2.034,0.522,3.19,1.01C7.134,15.681,6.379,16.689,6,17.771c0.618,2.462,1.68,4.452,2.736,5.854    c1.109,1.933,3.126,5.654,3.126,7.181c0,1.791-1.924,1.663-1.924,3.194c0,0,1.781,0,2.5,0S14,31.688,14,31.188v-4.974    c0.046,0,0.096-0.003,0.143-0.003c0.888,1.735,1.719,3.616,1.719,4.595c0,1.791-1.924,1.663-1.924,3.194c0,0,1.781,0,2.5,0    S18,31.688,18,31.188v-5.265c1.725-0.208,3.518-0.492,5.185-0.749c0.197,0.418,0.403,0.788,0.614,1.072    c1.026,1.38,3.845,3.345,3.803,4.41c-0.017,0.419-0.23,1.264-0.977,1.797c-0.39,0.278-1.592,0.567-1.592,1.547    c0,0,1.686,0,2.467,0c0.305,0,0.735-0.251,1.125-0.77c0.771-1.027,1.285-2.392,1.344-2.593c0.323-1.111-1.192-1.65-1.192-3.15    c0-0.003,0.002-0.008,0.002-0.01c1.336,1.375,2.948,2.152,3.089,2.99c0.069,0.414-0.281,1.698-0.602,1.985    c-0.356,0.32-1.232,0.567-1.232,1.547c0,0,1.686,0,2.467,0c0.305,0,0.609-0.157,0.823-0.77c0.36-1.033,0.622-2.653,0.667-3.099    C35.749,30.863,38,31.25,38,31C38,28.283,35.745,27.938,34.5,25.079z M13.215,12.622C12.528,13.498,11.172,15,10.231,15H10.11    l-0.146-0.032C8.896,14.707,8.945,13.703,9,10.723c0.013-0.698,0.188-1.447,0.995-1.866c-0.026,3.055-0.168,5.047,0.207,5.139    c0.393,0.096,2.564-1.979,3.062-3.403C13.615,11.249,13.723,11.976,13.215,12.622z"/>
	</g>
</g>
</svg>
