<?xml version="1.0" encoding="utf-8"?>
<!-- Generator: Adobe Illustrator 15.0.0, SVG Export Plug-In . SVG Version: 6.00 Build 0)  -->
<!DOCTYPE svg PUBLIC "-//W3C//DTD SVG 1.1//EN" "http://www.w3.org/Graphics/SVG/1.1/DTD/svg11.dtd">
<svg xmlns="http://www.w3.org/2000/svg" xmlns:xlink="http://www.w3.org/1999/xlink" version="1.1" id="Shape_5_2_" x="0px" y="0px" width="40px" height="40px" viewBox="0 0 40 40" enable-background="new 0 0 40 40" xml:space="preserve">
<g>
	<g>
		<path fill-rule="evenodd" clip-rule="evenodd" d="M37.969,25.418c-0.219-0.248-3.938-0.36-6.38-1.479    c-4.518-4.184-5.478-5.609-16.253-7.355c-1.851-1.688,0.165-4.162,0.165-8.037C15.5,4.505,13.833,2,12.063,2    C11.53,2,10.33,1.837,9.219,2.249C8.89,2.092,8.515,2,8.083,2c-2.046,0-1.75,1.958-1.75,1.958    C3.625,6.125,2.102,5.965,1.952,7.201C1.879,7.8,2.181,7.948,4.287,7.948c0.751,0,1.748,0.006,2.761,0.015    c0.589,0.352,1.533,0.728,3.019,1.121C10.066,12.771,7,16.25,7,19.333c0,2.583,1.257,4.11,3.189,6.646    c2.764,3.628,4.302,6.777,8.128,7.751L17.941,36h-0.008C13.858,36.702,12,36.837,12,37.418C12,38,13,38,14,38h12c1,0,2,0,2-0.582    c0-0.43,0.063-0.616-1.139-0.968l0.539-3.251c2.027-0.713,2.825-1.718,3.693-2.379C35.131,30.82,38.255,25.742,37.969,25.418z     M24.941,36h-5.005l0.329-1.983c0.24,0.014,0.477,0.029,0.732,0.029c1.765,0,3.171-0.123,4.321-0.321L24.941,36z M23,27    c-7,0-8.346-3.275-8.934-5.813C16.072,23.757,17.458,26,23,26c5.225,0,8.819-0.783,8.819-0.783S30,27,23,27z"/>
	</g>
</g>
</svg>
