<?xml version="1.0" encoding="utf-8"?>
<!-- Generator: Adobe Illustrator 15.0.0, SVG Export Plug-In . SVG Version: 6.00 Build 0)  -->
<!DOCTYPE svg PUBLIC "-//W3C//DTD SVG 1.1//EN" "http://www.w3.org/Graphics/SVG/1.1/DTD/svg11.dtd">
<svg xmlns="http://www.w3.org/2000/svg" xmlns:xlink="http://www.w3.org/1999/xlink" version="1.1" id="Shape_5_2_" x="0px" y="0px" width="40px" height="40px" viewBox="0 0 40 40" enable-background="new 0 0 40 40" xml:space="preserve">
<g>
	<g>
		<path d="M8.251,20.524c-0.887,0.311-1.661,0.456-2.349,0.51c-0.286,1.685-0.391,3.235-0.391,3.235s-1.435,2.497-1.438,3.543    c-0.008,2.261,0.773,4.475,1.338,6.427C5.855,35.774,6.485,36,7.134,36h1.564c2.739,0,0.401-2.313,0.401-2.313    s0.212-2.5,1.623-6.5c0.214-0.606,0.633-1.518,1.134-2.531c-0.2-0.715-0.483-1.764-0.771-2.899    C10.223,21.324,9.1,20.852,8.251,20.524z M8.257,19.458c0,0,1.273,0.475,2.52,1.042C10.355,18.748,10,17.028,10,16.244    c0-0.648-0.001-1.937,0.83-3.116c0.917-1.302,2.372-2.004,4.596-2.107C13.181,7.284,11.582,6,8.813,6    C6.438,6,6.13,9.157,5.66,9.972S4,11.938,4,11.938s0.056,2.223-0.229,2.772C3.386,15.451,2,16.281,2,17.728    C2,19.143,4.081,21.063,8.257,19.458z M37.053,28.628C36.521,27.086,35.439,24.238,35,22c-0.806-4.109-3.867-6-7-6    c-2.063,0-2,0-4.438,0c-3.302-2.644-5.459-4-7.563-4c-4,0-5,3.201-5,4.244c0,1.701,2.063,8.988,2.063,8.988s-0.108,2.534,0.3,3.58    c0.884,2.261,1.5,3.031,2.759,5.04C17.096,35.409,17.485,36,18.134,36h2.065C22.375,36,20,33.313,20,33.313    s0.245-3.142-0.301-6.734c0.708,0.23,1.463,0.369,2.301,0.369c0.36,0,0.748-0.026,1.146-0.064C23.059,27.748,23,28.542,23,29.123    c0,1.296,1.125,5.085,1.125,5.085s-0.755,0.774-1.12,0.975c-0.522,0.288-0.239,0.815,0.383,0.817h2.845    c1.405,0.001,1.823,0,1.823-1.25c0-1.791,0.511-3.785,0.855-5.378c0.151-0.697,0.47-1.563,0.813-2.489    c0.484,1.242,1.068,2.444,1.763,3.346c1.932,2.508,2.639,3.979,2.639,3.979s-0.755,0.774-1.12,0.975    c-0.522,0.288-0.239,0.815,0.383,0.817h2.845c1.405,0.001,1.823,0,1.823-1.25C38.056,32.959,37.662,30.396,37.053,28.628z"/>
	</g>
</g>
</svg>
