<?xml version="1.0" encoding="utf-8"?>
<!-- Generator: Adobe Illustrator 15.0.0, SVG Export Plug-In . SVG Version: 6.00 Build 0)  -->
<!DOCTYPE svg PUBLIC "-//W3C//DTD SVG 1.1//EN" "http://www.w3.org/Graphics/SVG/1.1/DTD/svg11.dtd">
<svg xmlns="http://www.w3.org/2000/svg" xmlns:xlink="http://www.w3.org/1999/xlink" version="1.1" id="Shape_5_2_" x="0px" y="0px" width="40px" height="40px" viewBox="0 0 40 40" enable-background="new 0 0 40 40" xml:space="preserve">
<g>
	<g>
		<path d="M13.175,19.763c1.027,0.665,3.659-0.14,5.053-1.535s2.2-4.026,1.535-5.053c-0.437-0.673-0.968-1.337-1.523-1.963    l1.614-3.29C24.077,8,25.147,7.969,26,5.453C24.278,6.07,23.75,6,19.781,6c-0.971,0-1.459,0.402-1.74,0.999    c-0.223,0.473-0.776,1.62-1.3,2.699c-0.25-0.225-0.502-0.45-0.741-0.638V5.75c3.517-1.069,4-1.094,4-3.75    c-1.113,1-1.168,1.119-4.907,1.979C14.303,4.16,14,4.819,14,5.334V8c-1.611-0.001-2.774,1.069-3.852,2.148    C9.069,11.226,7.999,12.388,8,13.999c0,0,0,0,0,0l-2.666,0c-0.516,0-1.174,0.303-1.356,1.093C3.119,18.832,3,18.887,2,20    c2.656,0,2.681-0.483,3.75-4h3.311c0.188,0.239,0.413,0.491,0.638,0.741c-1.08,0.523-2.227,1.077-2.7,1.3    C6.402,18.322,6,18.81,6,19.781C6,23.75,6.07,24.278,5.453,26C7.969,25.147,8,24.077,7.922,19.853l3.29-1.614    C11.838,18.795,12.501,19.327,13.175,19.763z M34,22c0,0-1.569-5.105-2.047-6.66C31.68,14.451,31,14,30,14c-2,0-7-2-8.656-2    c-0.394,0-0.743,0.063-1.063,0.158c0.112,0.16,0.22,0.318,0.32,0.473c0.233,0.36,0.343,0.809,0.374,1.295    c1.075,0.916,2.216,2.082,3.431,3.473L30,16c0,0,1.605,5.151,2,6.417c0.257,0.823,0.555,1.23,1.352,1.397    C37.609,24.709,36.609,24.709,38,26C38,23.261,38.406,23.261,34,22z M3.301,7.958c0.17,0.074,2.614,1.137,3.419,1.487    C6.274,10.207,6,11.01,6,11.766c0,0.5,0.412,1,1.067,1.48c0.314-1.877,1.721-3.151,2.37-3.801c0.657-0.657,1.933-2.064,3.81-2.378    C12.766,6.412,12.267,6,11.767,6c-0.757,0-1.561,0.273-2.322,0.72c-0.35-0.805-1.413-3.249-1.487-3.419    c-0.11-0.253-0.404-0.369-0.658-0.259C7.047,3.152,6.931,3.446,7.042,3.7c0.081,0.187,1.349,3.102,1.566,3.602    c-0.481,0.382-0.93,0.822-1.312,1.304C6.774,8.379,3.885,7.122,3.7,7.042c-0.253-0.11-0.548,0.006-0.658,0.259    C2.932,7.554,3.047,7.848,3.301,7.958z M23.814,33.352c-0.167-0.797-0.574-1.095-1.397-1.352C21.483,31.709,16,30,16,30    l1.399-5.596c-1.39-1.214-2.555-2.354-3.471-3.429c-0.488-0.03-0.937-0.141-1.297-0.374c-0.155-0.101-0.313-0.208-0.473-0.32    C12.063,20.601,12,20.95,12,21.344C12,23,14,28,14,30c0,1,0.451,1.68,1.34,1.953C16.657,32.357,22,34,22,34    c1.261,4.406,1.261,4,4,4C24.709,36.609,24.709,37.609,23.814,33.352z M20.868,15.218c-0.275,1.36-1.019,2.803-1.933,3.717    c-0.914,0.915-2.355,1.657-3.715,1.933c1.215,1.366,2.775,2.774,4.479,4.171c4.732,3.878,8.732,5.942,10.008,4.668    c1.274-1.275-0.789-5.275-4.667-10.009C23.644,17.994,22.235,16.433,20.868,15.218z"/>
	</g>
</g>
</svg>
