<?xml version="1.0" encoding="utf-8"?>
<!-- Generator: Adobe Illustrator 15.0.0, SVG Export Plug-In . SVG Version: 6.00 Build 0)  -->
<!DOCTYPE svg PUBLIC "-//W3C//DTD SVG 1.1//EN" "http://www.w3.org/Graphics/SVG/1.1/DTD/svg11.dtd">
<svg xmlns="http://www.w3.org/2000/svg" xmlns:xlink="http://www.w3.org/1999/xlink" version="1.1" id="Shape_5_2_" x="0px" y="0px" width="40px" height="40px" viewBox="0 0 40 40" enable-background="new 0 0 40 40" xml:space="preserve">
<g>
	<g>
		<path d="M37.406,25.188c-0.188,0.281-0.639,0.931-1.781,0.931c-0.745,0-1.399-0.483-1.886-0.986    c-0.203-0.398-0.384-0.804-0.497-1.212c-0.384-1.39-0.521-3.894-0.813-4.99C31.668,16.077,28.875,14,23.998,14    c-3.354,0-6.553,0.641-7.205,0.358C15.969,14,15.704,12.928,14,10.555c-0.817-1.138-1.708-1.953-2.478-2.504    c1.507-0.83,2.568-1.516,2.472-1.775c-0.173-0.462-3.765-0.478-4.702,0.063C8.99,6.513,8.847,6.893,8.79,7.328    c-1.109,0.323-2.468,1.058-2.9,1.423c-0.362,0.306-0.946,1.152-1.25,1.376c-0.506,0.372-2.234,1.842-2.566,2.647    C1.883,13.235,2.628,14,3.719,14c1.244,0,1.865-1.298,4.238-1.55c3.141,1.3,1.76,5.105,2.174,7.011    c0.266,1.222,1.034,2.167,1.9,2.869C10.327,25.266,9,26.702,9,27.596c0,0.832,0.542,3.446,1.171,4.067    c0.434,0.429,1.746,0.299,1.746,0.299c-0.026-1.505-1.208-2.462-1.208-3.879c0-1.358,2.694-2.751,3.984-4.268    C15.027,23.938,15.256,24,15.292,24c0.211,0,0.409-0.006,0.605-0.013c0.238,0.316,0.395,0.513,0.395,0.513s1.05,3.589,1.05,5.692    c0,2.252-1.758,2.276-1.758,3.808c0,0,1.135,0,1.854,0S19,30.688,19,30.188v-5.906c0-0.223-0.04-0.485-0.107-0.771    c3.346-1.126,3.191-3.873,7.062-4.717c0.056,1.824,0.383,4.072,0.849,5.342c0.892,2.43,3.206,4.507,3.384,5.567    c0.069,0.414,0.159,2.463-0.112,2.75c-0.301,0.32-1.046,0.567-1.042,1.547c0,0,1.302,0,1.967,0c0.259,0,0.517-0.157,0.697-0.77    C32.03,32.095,32,29.719,32,29.021c0-0.952-1.591-2.659-1.928-4.083c1.444,2.009,3.973,3.785,4.137,4.765    c0.069,0.414,0.138,2.463-0.134,2.75c-0.301,0.32-1.046,0.567-1.042,1.547c0,0,1.302,0,1.967,0c0.259,0,0.517-0.157,0.697-0.77    C36.03,32.095,36,29.719,36,29.021c0-0.36-0.381-0.942-0.86-1.643c0.137,0.019,0.27,0.029,0.393,0.029    c1.28,0,1.843-1.064,2.28-1.752S37.594,24.906,37.406,25.188z"/>
	</g>
</g>
</svg>
