<?xml version="1.0" encoding="utf-8"?>
<!-- Generator: Adobe Illustrator 15.0.0, SVG Export Plug-In . SVG Version: 6.00 Build 0)  -->
<!DOCTYPE svg PUBLIC "-//W3C//DTD SVG 1.1//EN" "http://www.w3.org/Graphics/SVG/1.1/DTD/svg11.dtd">
<svg xmlns="http://www.w3.org/2000/svg" xmlns:xlink="http://www.w3.org/1999/xlink" version="1.1" id="Shape_5_2_" x="0px" y="0px" width="40px" height="40px" viewBox="0 0 40 40" enable-background="new 0 0 40 40" xml:space="preserve">
<g>
	<g>
		<path d="M35.819,30.673c-1.068,0.896-2.636-1.397-3.279-3.29c-0.473-1.393-0.506-2.759-0.492-3.909    c0.008-0.353,0.015-0.715,0.015-1.099c0-3.313-3.438-4.375-5.438-4.375c-0.684,0-1.582,0.083-2.563,0.175    c3.981-3.069,1.883-5.83,1.883-5.83s3.05-0.116,4.116-1.022c0.802-0.681,1.438-1.449,1.946-2.245    c-4.832,1.684-7.104,1.234-7.104,1.234s4.254-1.052,7.842-2.591c0.392-0.848,0.667-1.69,0.853-2.457    c-5.571,2.53-8.257,2.141-8.257,2.141s4.883-1.488,8.508-3.426C34.024,2.799,34,2,34,2C22.656,6.494,21.81,5.609,18.667,7.057    c-1.69,0.779-2.708,2.366-2.708,3.693c0,2.014,2,3.885,2,5.26c0,0.901-3.169,3.726-4.557,5.271    c-0.878,0.977-1.102,2.181-1.106,3.142c-0.624-2.608,0.04-3.513,1.26-4.789c0.722-0.756,3.305-3.254,3.407-3.676    c-0.001-0.081-0.032-0.191-0.079-0.316c-1.329-1.69-2.107-3.592-4.236-5.317c-0.132-0.107-0.26-0.181-0.428-0.232    c-0.558-1.207-1.468-3.03-1.875-3.03c-0.26,0-0.337,1.479-0.359,2.532C9.433,8.44,8.7,7.063,8.345,7.063    c-0.337,0-0.367,2.473-0.368,3.295c-0.925,0.297-1.424,0.762-1.603,1.347c0,0-1.383,0.109-1.776,0.405    c-1.007,0.759-0.175,2.473-0.175,2.473c0.479-0.685,0.673-0.821,2.355-0.484C8.684,15.994,7.831,19.434,9.313,22    c0.248,0.43,0.527,0.806,0.815,1.158c-0.272,1.135-0.228,2.412,0.687,3.557c0.261,0.327,0.62,0.624,1.038,0.896l-1.531,4.764H9    c-1.469,0-3.031,1.297-0.923,2.969c0,0-0.494-1.344,1.054-1.344h2.934c0.098,0.401,0.397,0.855,1.013,1.344    c0,0-0.494-1.344,1.054-1.344h4.16c0.528,0,1.043,0.557,0.709,1.344c1.688-1.094,1.156-2.969-1-2.969h-0.679l0.842-2.62    C19.246,29.963,20,30.058,20,30.058s0.15-2.011-0.208-4.265c1.438-0.172,2.91-0.385,4.272-0.548    c0.006,0.335,0.054,0.647,0.168,0.919c0.796,1.893,4.013,3.565,3.677,4.43c-0.169,0.437-0.683,1.655-1.102,1.754    C25.275,32.708,25.908,34,26.656,34H27.5c0.305,0,0.81-0.323,0.951-0.6c0.504-0.99,1.599-2.99,1.599-2.99    s-0.965-1.829-1.092-3.265c1.091,0.946,2.363,1.808,2.676,3.068c0.151,0.611-0.625,2.136-0.866,2.209    C29.642,32.764,29.875,34,30.907,34h0.937c0.75,0,0.99-1.16,1.2-1.732c0.145-0.393,0.264-0.76,0.36-1.078    C33.924,31.694,34.508,32,35.156,32c2.198,0,2.817-2.352,2.817-3.76C37.974,27.96,35.625,28.379,35.819,30.673z M15.321,32.375    H14.5c0,0-0.398,0-0.978,0h-1.201l1.252-3.896c0.874,0.352,1.826,0.637,2.723,0.863L15.321,32.375z"/>
	</g>
</g>
</svg>
