<?xml version="1.0" encoding="utf-8"?>
<!-- Generator: Adobe Illustrator 15.0.0, SVG Export Plug-In . SVG Version: 6.00 Build 0)  -->
<!DOCTYPE svg PUBLIC "-//W3C//DTD SVG 1.1//EN" "http://www.w3.org/Graphics/SVG/1.1/DTD/svg11.dtd">
<svg xmlns="http://www.w3.org/2000/svg" xmlns:xlink="http://www.w3.org/1999/xlink" version="1.1" id="Shape_5_2_" x="0px" y="0px" width="40px" height="40px" viewBox="0 0 40 40" enable-background="new 0 0 40 40" xml:space="preserve">
<g>
	<g>
		<path d="M38,23c0-6.142-4.75-11-11.629-11c-3.704,0-6.793,0.845-7.748,0.549c-1.098-0.341-3.082-1.356-4.779-1.956    c0.141-0.402,0.193-0.792,0.128-1.128C13.779,8.458,13.154,7.993,12.42,8c-1.008,0.011-1.638,0.917-2.451,2.53    c-2.091,0.773-4.485,2.54-5.81,4.021c-1.373,1.535-2.144,3.406-2.144,4.989c0,1.125,1.99,2.244,3.419,2.459    c1.321,0.198,3.853,0.203,4.315,0.469c1.785,1.026,2.231,2.615,5.313,4.156c0,0.429-0.396,1.427-1.313,1.781    C12.583,28.857,12,30,12,30s2,0,2.833,0s1.969-0.188,3.625-2h9.729c0.729,0.342,1.898,0.5,1.898,0.5    c-1.445,0.295-2.106,1.5-2.106,1.5s1.669,0,2.981,0C32.732,30,35,29.183,35,28.65c0-0.631-0.426-1.275-0.426-1.275    S38,25.313,38,23z"/>
	</g>
</g>
</svg>
