<?xml version="1.0" encoding="utf-8"?>
<!-- Generator: Adobe Illustrator 15.0.0, SVG Export Plug-In . SVG Version: 6.00 Build 0)  -->
<!DOCTYPE svg PUBLIC "-//W3C//DTD SVG 1.1//EN" "http://www.w3.org/Graphics/SVG/1.1/DTD/svg11.dtd">
<svg xmlns="http://www.w3.org/2000/svg" xmlns:xlink="http://www.w3.org/1999/xlink" version="1.1" id="Shape_5_2_" x="0px" y="0px" width="40px" height="40px" viewBox="0 0 40 40" enable-background="new 0 0 40 40" xml:space="preserve">
<g>
	<g>
		<path fill-rule="evenodd" clip-rule="evenodd" d="M37.646,23.923c-0.893-0.302-1.879-0.615-3.084-1.05    c-0.578,0.13-1.342,0.208-2.312,0.305c-0.511,0.051-1.101,0.109-1.777,0.184c-1.519,0.166-2.766,0.437-4.085,0.723    C24.313,24.534,22.166,25,19,25c-4.701,0-7.023-2.395-7.746-4.538c-0.145-0.431-0.339-2.854,1.189-4.097    C12.167,17.17,12,18.066,12,19c0,2,2,5,7,5s7.317-1.191,11.364-1.633c3.327-0.363,4.571-0.367,4.571-0.836    c0-0.438-0.639-0.047-7.921-3.193c-3.785-1.635-6.671-4.588-11.015-5.32c0.792-1.83,1.646-5.287,0.375-7.116    c-0.694-0.999-1.042-1.738-3.764-1.738c-2.783,0-4.685,1.608-5.057,2.882C7.396,7.058,7.244,7.084,7.083,7.091    C6.46,7.12,5.828,7,5.185,7C3,7,1.971,9.458,2,9.695c2.271,0.451,3.125,0.281,5.734,0.136c0.401,0.35,0.868,0.683,1.349,0.988    C7.859,13.289,4,15.281,4,19.603c0,3.112,2.796,7.337,10,8.221V34h-0.066C9.858,34.702,8,34.837,8,35.418C8,36,9,36,10,36h13    c1,0,2,0,2-0.582c0-0.517-0.701-0.683-3-1.205v-6.559c4.332-0.641,6.994-2.021,15.159-2.847    C38.535,24.669,38.296,24.143,37.646,23.923z M20,34h-4v-6.027C16.275,27.981,16.538,28,16.824,28c1.191,0,2.231-0.044,3.176-0.12    V34z"/>
	</g>
</g>
</svg>
