<?xml version="1.0" encoding="utf-8"?>
<!-- Generator: Adobe Illustrator 15.0.0, SVG Export Plug-In . SVG Version: 6.00 Build 0)  -->
<!DOCTYPE svg PUBLIC "-//W3C//DTD SVG 1.1//EN" "http://www.w3.org/Graphics/SVG/1.1/DTD/svg11.dtd">
<svg xmlns="http://www.w3.org/2000/svg" xmlns:xlink="http://www.w3.org/1999/xlink" version="1.1" id="Shape_5_2_" x="0px" y="0px" width="40px" height="40px" viewBox="0 0 40 40" enable-background="new 0 0 40 40" xml:space="preserve">
<g>
	<g>
		<path d="M36.313,28.063c-0.297,0.027-0.813,0.404-1.347,0.87C34.617,22.803,29.672,18,22.063,18c-7.481,0-7.562-2.94-7.562-2.94    s-0.363-1.422-0.953-2.759c6.949-0.751,9.195-4.135,10.345-7.07c0.312-0.795-0.121-1.341-1.018-1.177    c-0.396,0.073-0.811,0.166-1.241,0.282c0.132-0.409,0.238-0.813,0.328-1.207c0.189-0.832-0.319-1.308-1.182-1.013    c-2.489,0.853-5.544,2.534-9.326,7.884c-2.178,0.006-4.674,0.254-5.969,1.232C4.292,12.133,2,13.73,2,15.252    c0,0.985,0.596,1.734,1.367,2.121c0.765,0.384,3.708,0.84,3.708,0.84S6.759,22.521,8,24.292c0.826,1.178,2.598,2.43,4.148,3.086    c-0.005,0.404-0.017,0.82-0.046,1.247c-0.083,1.234-0.775,5.067-1.384,5.875C9.67,35.89,10,36,10,36h3.281    c0,0,1.406-3.587,2.195-8.205c1.995-0.094,3.604-0.109,7.422,2.225C22.371,28.919,22,27.738,22,26.558    c0-3.456,3.076-4.016,4.914-3.146C24.742,23.625,23,24.283,23,26.558c0,2.63,2.313,5.421,3.875,7.442    c-2.813,0-3.573,0.074-4.082,0.5c-0.581,0.486-0.813,1.5-0.813,1.5S25.454,36,32,36c0.569,0,1.179-0.753,1.701-1.773    C35.074,34.608,38,35.063,38,32C38,30,37,28,36.313,28.063z"/>
	</g>
</g>
</svg>
