<?xml version="1.0" encoding="utf-8"?>
<!-- Generator: Adobe Illustrator 15.0.0, SVG Export Plug-In . SVG Version: 6.00 Build 0)  -->
<!DOCTYPE svg PUBLIC "-//W3C//DTD SVG 1.1//EN" "http://www.w3.org/Graphics/SVG/1.1/DTD/svg11.dtd">
<svg xmlns="http://www.w3.org/2000/svg" xmlns:xlink="http://www.w3.org/1999/xlink" version="1.1" id="Shape_5_2_" x="0px" y="0px" width="40px" height="40px" viewBox="0 0 40 40" enable-background="new 0 0 40 40" xml:space="preserve">
<g>
	<g>
		<path fill-rule="evenodd" clip-rule="evenodd" d="M36.5,16c0.917-1.016,1.816-2.382,1.5-3.481    c-0.174-0.604-1.542-0.731-3.374-0.519c-3.213,0.373-6.725,2.609-10.512,5.477c-2.108-0.243-3.995-0.604-4.853-1.899    c-2.727-4.12-2.981-7.173-7.59-8.464c0.458-0.748,0.515-1.868,0.284-2.572c-0.314-0.958-1.052-1.593-2.123-1.583    c-1.485,0.014-2.333,1-2.398,2.625c-1.519,0-2.215,2-0.519,3.25c-0.929,0.537-3.135,1.627-2.852,1.75    c0.459,0.2,2.584,0.774,3.517,1.022c-0.781,1.129-1.363,1.722-1.363,2.344c0,1.176,0.806,2.05,1.789,2.05S10,15.317,10,13.95    c0-1.367,0-1.95,0-1.95s2-0.405,2-2.417c0-0.563-0.246-1.127-0.529-1.599c0.667,0.359,1.357,0.984,1.357,2.016    c0,1.483-1.066,2.427-1.828,2.764v1.187c0,1.595-1.002,2.586-2.148,2.917C8.843,16.91,8.838,16.959,8.829,17    c-0.453,2-1.447,10.013,3.264,12.769c1.779,1.041,3.359,1.585,4.822,1.881L15.988,36h-0.717c-2.854,0-4.593,1.198-5.271,2h17    c-0.472-0.943-1.986-1.562-3.052-1.835l0.982-4.61c0.213-0.057,0.427-0.11,0.633-0.177c2.553-0.821,5.675-3.108,6.9-5.797    c3.708-1.736,4.507-5.597,2.462-5.885C36.499,19.099,38.064,16.833,36.5,16z M21.988,36h-4.005l0.87-4.081    C19.79,31.992,20.688,32,21.561,32c0.441,0,0.871-0.028,1.295-0.07L21.988,36z"/>
	</g>
</g>
</svg>
