<?xml version="1.0" encoding="utf-8"?>
<!-- Generator: Adobe Illustrator 15.0.0, SVG Export Plug-In . SVG Version: 6.00 Build 0)  -->
<!DOCTYPE svg PUBLIC "-//W3C//DTD SVG 1.1//EN" "http://www.w3.org/Graphics/SVG/1.1/DTD/svg11.dtd">
<svg xmlns="http://www.w3.org/2000/svg" xmlns:xlink="http://www.w3.org/1999/xlink" version="1.1" id="Shape_5_2_" x="0px" y="0px" width="40px" height="40px" viewBox="0 0 40 40" enable-background="new 0 0 40 40" xml:space="preserve">
<g>
	<g>
		<path fill-rule="evenodd" clip-rule="evenodd" d="M35.584,29.959c0,0-1.314-4.518-3.584-9.5c-1.492-3.275-4.907-8.305-8.508-9.826    c-1.541-0.651-3.436-1.211-5.175-0.688c1.104-0.514,2.705-1.012,2.705-3.088c0-1.688-2.205-5.032-5.209-4.856    C12,2.222,11.002,2.839,10.094,3.625c0,0-6.21,0.973-8.094,1.938C5.417,6.05,14.103,6.529,14.103,6.529    C16.436,7.479,10,6.531,10,11.031c0,4.938,6.719,11.656,6.719,11.656s0.036-1.171,0.093-2.777    c0.707,0.957,1.597,1.867,2.694,2.626c0.287,1.796,0.493,3.216,0.494,3.37c0.004,0.374,0,2.813,0,3.116    c0,0.28-0.833,3.391-1.976,7.097C15.448,36.591,12.898,36.945,12,38h15c-0.492-0.835-1.558-1.378-2.353-1.686    C26.158,30.447,27,28.19,27,27.604c0-0.162-0.08-0.834-0.205-1.787c0.495,0.219,0.995,0.443,1.497,0.684    C31.084,27.833,35.584,29.959,35.584,29.959z M25,25.906c0.004,0.374,0,2.813,0,3.116c0,0.28-0.834,3.391-1.977,7.097    c-0.924,0.169-1.837,0.327-2.679,0.503c-0.242-0.121-0.479-0.223-0.698-0.308C21.158,30.447,22,28.19,22,27.604    c0-0.27-0.219-1.936-0.501-3.97c0.782,0.337,1.989,0.799,3.386,1.371C24.957,25.509,24.999,25.836,25,25.906z"/>
	</g>
</g>
</svg>
