<?xml version="1.0" encoding="utf-8"?>
<!-- Generator: Adobe Illustrator 15.0.0, SVG Export Plug-In . SVG Version: 6.00 Build 0)  -->
<!DOCTYPE svg PUBLIC "-//W3C//DTD SVG 1.1//EN" "http://www.w3.org/Graphics/SVG/1.1/DTD/svg11.dtd">
<svg xmlns="http://www.w3.org/2000/svg" xmlns:xlink="http://www.w3.org/1999/xlink" version="1.1" id="Shape_5_2_" x="0px" y="0px" width="40px" height="40px" viewBox="0 0 40 40" enable-background="new 0 0 40 40" xml:space="preserve">
<g>
	<g>
		<path d="M38,30.879C38,30.528,30,28,30,28c-1.077-1.615-2.22-4.333-3.895-7.349c1.648-0.974,2.02-2.151,2.02-2.151    s-1.012-0.273-3.777-0.759c-1.117-1.695-2.43-3.404-4.026-5C16.798,9.217,12.5,6,6,6c0,2.294,0.481,5.574,2.833,9.252    C9.571,15.681,10.344,16,11.006,16c4.5,0,4.577-3.583,4.577-5c1.108,2.534-0.343,6-4.267,6c-0.521,0-1.017-0.122-1.484-0.314    c0.667,0.882,1.438,1.78,2.348,2.689C18.903,26.097,25.063,27.982,28,30c0.316,1.539,2.552,8.013,2.845,8.013    c0,0,1.561-2.397,0.762-6.394C35.603,32.418,38,30.879,38,30.879z M10.5,12C9.672,12,9,11.328,9,10.5    C9.001,9.67,9.672,8.999,10.501,9C11.328,8.999,12,9.672,12,10.499C12.001,11.328,11.328,12,10.5,12z"/>
	</g>
</g>
</svg>
