<?xml version="1.0" encoding="utf-8"?>
<!-- Generator: Adobe Illustrator 15.0.0, SVG Export Plug-In . SVG Version: 6.00 Build 0)  -->
<!DOCTYPE svg PUBLIC "-//W3C//DTD SVG 1.1//EN" "http://www.w3.org/Graphics/SVG/1.1/DTD/svg11.dtd">
<svg xmlns="http://www.w3.org/2000/svg" xmlns:xlink="http://www.w3.org/1999/xlink" version="1.1" id="Shape_5_2_" x="0px" y="0px" width="40px" height="40px" viewBox="0 0 40 40" enable-background="new 0 0 40 40" xml:space="preserve">
<g>
	<g>
		<path d="M38.034,26.694c0-0.826-0.909-1.803-0.909-2.298c0-0.971,1.653-2.761,0.375-6.312C36.611,15.616,34.215,12,28.498,12    c-2.514,0-7.704,0.346-9.814,0.738c-4.264-2.454-7.455-3.049-8.768-2.558c0.134-1.25-0.997-1.703-1.583-1.461    c-0.551,0.227-0.131,1.672,0.222,2.638c-0.207,0.216-0.425,0.447-0.662,0.701C7.767,12.024,7.637,12,7.5,12    C6.672,12,6,12.672,6,13.5c0,0.181,0.037,0.353,0.096,0.513c-0.976,1.067-1.904,2.08-2.427,2.597    c-0.423,0.418-1.015,0.655-1.265,1.007c-0.708,0.999-0.365,2.016,0.47,3.111c0.038,0.05,0.09,0.081,0.131,0.129    c0.582,0.049,1.436-0.062,2.204-0.909C5.988,19.088,6,18.21,6,17.248c1.305-1.565,2.563-2.373,2.563-2.373    s-0.391,1.104-1.652,2.677c0,1.101,0.006,2.045-1.28,3.291c-0.485,0.47-1.008,0.718-1.52,0.829    c1.583,0.69,3.727,0.213,4.854-0.989c1.661,0.253,2.343,0.05,3.196-0.536c0.207,0.916,0.746,2.166,3.257,2.581    c-0.033,0.204-0.027,0.444,0.071,0.702c-0.976,1.084-1.65,2.328-1.65,2.883c0,1.188,0.674,1.563,1.182,2.458    c0.601,1.052,0.82,0.938,1.055,0.542c0.302-0.51,0.57-1.048,0.57-1.458s-0.384-0.67-0.291-0.889    c0.058-0.136,1.262-0.722,2.313-1.363c0.888,1.22,1.576,1.729,1.576,2.169c0,0.161-0.057,1.208-0.057,1.208    C19.235,29.583,19.323,30,19.889,30h1.992c0.952,0,1.077-1.833,1.077-2.521c0-0.271-0.008-0.868-0.021-1.604    C24.108,25.954,25.449,26,27,26c0.953,0,1.973-0.065,2.97-0.169c0.519,0.799,0.629,0.946,0.617,1.61    c-0.005,0.304-0.634,1.371-0.634,1.371C29.068,29.464,28.896,30,29.688,30h2.469c0.947,0,1.665-2.499,1.923-3.175    c0.379,0.173,0.665,0.354,0.796,0.616c0.152,0.304,0.078,1.371,0.078,1.371C34.068,29.464,33.896,30,34.688,30h2.469    C38.181,30,38.034,27.073,38.034,26.694z"/>
	</g>
</g>
</svg>
