<?xml version="1.0" encoding="utf-8"?>
<!-- Generator: Adobe Illustrator 15.0.0, SVG Export Plug-In . SVG Version: 6.00 Build 0)  -->
<!DOCTYPE svg PUBLIC "-//W3C//DTD SVG 1.1//EN" "http://www.w3.org/Graphics/SVG/1.1/DTD/svg11.dtd">
<svg xmlns="http://www.w3.org/2000/svg" xmlns:xlink="http://www.w3.org/1999/xlink" version="1.1" id="Shape_5_2_" x="0px" y="0px" width="40px" height="40px" viewBox="0 0 40 40" enable-background="new 0 0 40 40" xml:space="preserve">
<g id="554053967_Shape_5_2_">
	<g>
		<g>
			<g>
				<path fill-rule="evenodd" clip-rule="evenodd" d="M15,11c0.113-1.209-0.253-3.343-0.763-3.805c0,0,1.943,0.057,2.973-0.278      c1.069-0.348,0.243-3.086-0.877-3.406c-1.128-0.321-3.334,0.604-7.06,0.195C6.356,3.387,4.278,2.082,4.167,2.118      C3.685,2.274,4.389,6.056,7.792,7.502c-6.958,2.552-5.765,10.164-5.426,10.468c0.339,0.305,0.884-2.662,5.135-3.732      C10.382,13.512,12.083,14,13,14C14.201,14,14.83,12.816,15,11z M33.872,27.908C35.271,27.827,36,27.672,36,27.375      c0-0.877-3.256-5.635-6.236-7.809c-3.678-2.683-7.566-4.079-10.139-3.233C20.524,15.267,22,13.366,22,11.541      c0-1.905-1.448-4.208-3.542-4.506c-0.202,0.396-0.514,0.695-0.938,0.833c-0.507,0.166-1.157,0.252-1.786,0.294      c0.257,1.039,0.327,2.238,0.262,2.931c-0.3,3.214-1.831,3.842-2.827,3.901C12.582,15.847,12,17.006,12,19.083      c0,3.318,2.337,6.766,8.228,8.204L18.6,30H16c-1.104,0-2,0.896-2,2c0,0.748,0.416,1.393,1.024,1.735      C15.012,33.658,15,33.581,15,33.5c0-0.828,0.672-1.5,1.5-1.5H20c0,0.748,0.416,1.393,1.023,1.735      C21.012,33.658,21,33.581,21,33.5c0-0.828,0.672-1.5,1.5-1.5h3c0.828,0,1.5,0.672,1.5,1.5c0,0.081-0.012,0.158-0.023,0.235      C27.584,33.393,28,32.748,28,32c0-0.913-0.615-1.675-1.451-1.914L27.8,28h0.308c3.695,8.979,4.25,10,6.679,10      C36.825,38,38,36.938,38,35.688C38,34.124,35.719,30.55,33.872,27.908z M24.6,30h-4l1.413-2.355      c1.155,0.182,2.412,0.301,3.801,0.333L24.6,30z"/>
			</g>
			<g>
				<path fill-rule="evenodd" clip-rule="evenodd" d="M15,11c0.113-1.209-0.253-3.343-0.763-3.805c0,0,1.943,0.057,2.973-0.278      c1.069-0.348,0.243-3.086-0.877-3.406c-1.128-0.321-3.334,0.604-7.06,0.195C6.356,3.387,4.278,2.082,4.167,2.118      C3.685,2.274,4.389,6.056,7.792,7.502c-6.958,2.552-5.765,10.164-5.426,10.468c0.339,0.305,0.884-2.662,5.135-3.732      C10.382,13.512,12.083,14,13,14C14.201,14,14.83,12.816,15,11z M33.872,27.908C35.271,27.827,36,27.672,36,27.375      c0-0.877-3.256-5.635-6.236-7.809c-3.678-2.683-7.566-4.079-10.139-3.233C20.524,15.267,22,13.366,22,11.541      c0-1.905-1.448-4.208-3.542-4.506c-0.202,0.396-0.514,0.695-0.938,0.833c-0.507,0.166-1.157,0.252-1.786,0.294      c0.257,1.039,0.327,2.238,0.262,2.931c-0.3,3.214-1.831,3.842-2.827,3.901C12.582,15.847,12,17.006,12,19.083      c0,3.318,2.337,6.766,8.228,8.204L18.6,30H16c-1.104,0-2,0.896-2,2c0,0.748,0.416,1.393,1.024,1.735      C15.012,33.658,15,33.581,15,33.5c0-0.828,0.672-1.5,1.5-1.5H20c0,0.748,0.416,1.393,1.023,1.735      C21.012,33.658,21,33.581,21,33.5c0-0.828,0.672-1.5,1.5-1.5h3c0.828,0,1.5,0.672,1.5,1.5c0,0.081-0.012,0.158-0.023,0.235      C27.584,33.393,28,32.748,28,32c0-0.913-0.615-1.675-1.451-1.914L27.8,28h0.308c3.695,8.979,4.25,10,6.679,10      C36.825,38,38,36.938,38,35.688C38,34.124,35.719,30.55,33.872,27.908z M24.6,30h-4l1.413-2.355      c1.155,0.182,2.412,0.301,3.801,0.333L24.6,30z"/>
			</g>
			<g>
				<path fill-rule="evenodd" clip-rule="evenodd" d="M15,11c0.113-1.209-0.253-3.343-0.763-3.805c0,0,1.943,0.057,2.973-0.278      c1.069-0.348,0.243-3.086-0.877-3.406c-1.128-0.321-3.334,0.604-7.06,0.195C6.356,3.387,4.278,2.082,4.167,2.118      C3.685,2.274,4.389,6.056,7.792,7.502c-6.958,2.552-5.765,10.164-5.426,10.468c0.339,0.305,0.884-2.662,5.135-3.732      C10.382,13.512,12.083,14,13,14C14.201,14,14.83,12.816,15,11z M33.872,27.908C35.271,27.827,36,27.672,36,27.375      c0-0.877-3.256-5.635-6.236-7.809c-3.678-2.683-7.566-4.079-10.139-3.233C20.524,15.267,22,13.366,22,11.541      c0-1.905-1.448-4.208-3.542-4.506c-0.202,0.396-0.514,0.695-0.938,0.833c-0.507,0.166-1.157,0.252-1.786,0.294      c0.257,1.039,0.327,2.238,0.262,2.931c-0.3,3.214-1.831,3.842-2.827,3.901C12.582,15.847,12,17.006,12,19.083      c0,3.318,2.337,6.766,8.228,8.204L18.6,30H16c-1.104,0-2,0.896-2,2c0,0.748,0.416,1.393,1.024,1.735      C15.012,33.658,15,33.581,15,33.5c0-0.828,0.672-1.5,1.5-1.5H20c0,0.748,0.416,1.393,1.023,1.735      C21.012,33.658,21,33.581,21,33.5c0-0.828,0.672-1.5,1.5-1.5h3c0.828,0,1.5,0.672,1.5,1.5c0,0.081-0.012,0.158-0.023,0.235      C27.584,33.393,28,32.748,28,32c0-0.913-0.615-1.675-1.451-1.914L27.8,28h0.308c3.695,8.979,4.25,10,6.679,10      C36.825,38,38,36.938,38,35.688C38,34.124,35.719,30.55,33.872,27.908z M24.6,30h-4l1.413-2.355      c1.155,0.182,2.412,0.301,3.801,0.333L24.6,30z"/>
			</g>
		</g>
	</g>
	<g>
		<g>
			<g>
				<path fill-rule="evenodd" clip-rule="evenodd" d="M15,11c0.113-1.209-0.253-3.343-0.763-3.805c0,0,1.943,0.057,2.973-0.278      c1.069-0.348,0.243-3.086-0.877-3.406c-1.128-0.321-3.334,0.604-7.06,0.195C6.356,3.387,4.278,2.082,4.167,2.118      C3.685,2.274,4.389,6.056,7.792,7.502c-6.958,2.552-5.765,10.164-5.426,10.468c0.339,0.305,0.884-2.662,5.135-3.732      C10.382,13.512,12.083,14,13,14C14.201,14,14.83,12.816,15,11z M33.872,27.908C35.271,27.827,36,27.672,36,27.375      c0-0.877-3.256-5.635-6.236-7.809c-3.678-2.683-7.566-4.079-10.139-3.233C20.524,15.267,22,13.366,22,11.541      c0-1.905-1.448-4.208-3.542-4.506c-0.202,0.396-0.514,0.695-0.938,0.833c-0.507,0.166-1.157,0.252-1.786,0.294      c0.257,1.039,0.327,2.238,0.262,2.931c-0.3,3.214-1.831,3.842-2.827,3.901C12.582,15.847,12,17.006,12,19.083      c0,3.318,2.337,6.766,8.228,8.204L18.6,30H16c-1.104,0-2,0.896-2,2c0,0.748,0.416,1.393,1.024,1.735      C15.012,33.658,15,33.581,15,33.5c0-0.828,0.672-1.5,1.5-1.5H20c0,0.748,0.416,1.393,1.023,1.735      C21.012,33.658,21,33.581,21,33.5c0-0.828,0.672-1.5,1.5-1.5h3c0.828,0,1.5,0.672,1.5,1.5c0,0.081-0.012,0.158-0.023,0.235      C27.584,33.393,28,32.748,28,32c0-0.913-0.615-1.675-1.451-1.914L27.8,28h0.308c3.695,8.979,4.25,10,6.679,10      C36.825,38,38,36.938,38,35.688C38,34.124,35.719,30.55,33.872,27.908z M24.6,30h-4l1.413-2.355      c1.155,0.182,2.412,0.301,3.801,0.333L24.6,30z"/>
			</g>
		</g>
	</g>
</g>
</svg>
