<?xml version="1.0" encoding="utf-8"?>
<!-- Generator: Adobe Illustrator 15.0.0, SVG Export Plug-In . SVG Version: 6.00 Build 0)  -->
<!DOCTYPE svg PUBLIC "-//W3C//DTD SVG 1.1//EN" "http://www.w3.org/Graphics/SVG/1.1/DTD/svg11.dtd">
<svg xmlns="http://www.w3.org/2000/svg" xmlns:xlink="http://www.w3.org/1999/xlink" version="1.1" id="Shape_5_2_" x="0px" y="0px" width="40px" height="40px" viewBox="0 0 40 40" enable-background="new 0 0 40 40" xml:space="preserve">
<g>
	<g>
		<path d="M34.898,25.438c0.237,3.617,3.438,4.688,3.438,4.688s-1.23-1.972-1.276-3.438c-0.056-1.788,0.679-2.095,0.964-5.25    c0.44-4.875-2.438-5.563-4.438-5.563c-0.188,0-0.352,0.002-0.516,0.004C32.368,15.32,31.556,15,30.768,15c-3,0-4.768,1-9.768,1    c-2.92,0-4.001-4.968-11.436-7.77C8.981,7.123,7.961,5.285,7.961,6v2H7.442C6.85,6.889,5.961,5.333,5.961,6v3.305    c-0.909,1.2-2.234,2.982-3.088,4.285c-0.468,0.714-0.679,1.237-0.83,1.879c-0.384,1.635,0.81,2.485,1.81,2.485    s1.515-1.372,1.515-1.372l4.184-1.625L11.961,21c0,0,0.003,0.43,0.178,1.004c-0.076,0.021-2.158,0.584-3.464,1.193    c-0.371,0.173-0.713,0.448-0.713,0.928c0,0.733,0.545,3.354,1.227,5.001C9.41,29.664,9.833,30,10.646,30c1,0,2.315,0,2.315,0l-1-2    c0,0-0.859,0.132-1.188-0.228c-0.229-0.251-0.687-1.529-0.687-2.486c0-0.318,0.592-0.308,4.099-0.293    c0.813,1.369,2.234,4.45,1.919,8.913c-0.031,0.435-0.357,1.171-0.917,2.094h2.375c0,0,0.438-1.313,0.438-1.813    c0-2.168-0.179-5.912-0.573-9.17c2.599,0.174,4.384,1.703,8.995,0.404c0.635,1.776,1.349,3.594,1.275,5.437    c-0.016,0.394-0.914,2.454-1.604,3.693C25.845,35,25.344,36,25.344,36h2.261c0,0,0.146-0.375,0.614-1.594    c0.251-0.65,1.761-3.517,1.834-3.813c0.239-0.969-0.115-2.569,0.449-4.032c0.912,0.896,1.75,1.88,2.202,3.17    c0.123,0.351-0.206,2.319-0.506,4.192C32.117,34.43,31.5,36,31.5,36h2.461c0,0,0.221-1.003,0.479-3.058    c0.139-1.097,0.521-3.169,0.521-3.474c0-1.127-1.063-2.188-1.063-4.25c0-1,1.063-2.469,1.063-5.219    c0-1.447-0.517-2.654-1.27-3.523C37.153,17.908,34.688,22.242,34.898,25.438z"/>
	</g>
</g>
</svg>
