<?xml version="1.0" encoding="utf-8"?>
<!-- Generator: Adobe Illustrator 15.0.0, SVG Export Plug-In . SVG Version: 6.00 Build 0)  -->
<!DOCTYPE svg PUBLIC "-//W3C//DTD SVG 1.1//EN" "http://www.w3.org/Graphics/SVG/1.1/DTD/svg11.dtd">
<svg xmlns="http://www.w3.org/2000/svg" xmlns:xlink="http://www.w3.org/1999/xlink" version="1.1" id="Shape_5_2_" x="0px" y="0px" width="40px" height="40px" viewBox="0 0 40 40" enable-background="new 0 0 40 40" xml:space="preserve">
<g>
	<g>
		<path d="M36,21c0-10.708-4.708-12.973-12.541-12.973c-5.459,0-9.112,1.439-9.112,1.439s-1.032-0.356-1.994-0.813    c-1.812-0.86-4.771-0.9-6.594,0.219c-0.524,1.104-0.309,1.198-0.801,1.572C4.293,10.948,3.528,11.218,3,12.375    c0.516,0.646,1.187,1.979,0.281,3c0.33,1.021,1.375,1.865,2.311,1.667c0.429,2.989,2.72,3.411,4.421,2.795    C10.008,20.158,10,20.47,10,20.813c0,3.861,1.08,7.712,0.639,7.851C8.382,29.375,8.77,30,9.419,30H12.5    c1.218,0-0.208-2.594,1.277-9.551c0.163,0.417,0.322,0.85,0.473,1.307c1.101,3.329,0.865,6.769,0.424,6.907    C12.417,29.375,12.805,30,13.454,30h3.495C18.167,30,18,22.885,18,21.706c0-0.584-0.047-1.202-0.122-1.832    c1.589-0.473,3.508-1.172,5.555-1.713c-0.194,0.8-0.319,1.706-0.308,2.73c0.025,2.313,0.844,5.953,0.844,7.317    c0,0.42-1.33,0.775-1.696,0.977C21.75,29.472,22.034,30,22.655,30H24.5c1.219,0,0.942-0.053,1.344-0.563    c0.571-0.727,0.312-3.009,1.402-6.834c0.232,2.117,0.723,4.545,0.723,5.604c0,0.42-1.33,0.775-1.696,0.977    C25.75,29.472,26.034,30,26.655,30H28.5c1.219,0,0.942-0.053,1.344-0.563c0.614-0.781,0.246-3.339,1.656-7.708    c0.426-1.319,0.809-2.268,1.141-3.016c0.168,0.67,0.276,1.422,0.276,2.286c0,5.291-0.813,14.05-3.605,14.05    c-0.583,0-1.753-0.79-2.309-2.101c-0.743-1.754-3.375-0.875-2.958,1c0.189,0.85,1.33,4.093,5.163,4.093    C36.546,38.042,36,24.125,36,21z"/>
	</g>
</g>
</svg>
