<?xml version="1.0" encoding="utf-8"?>
<!-- Generator: Adobe Illustrator 15.0.0, SVG Export Plug-In . SVG Version: 6.00 Build 0)  -->
<!DOCTYPE svg PUBLIC "-//W3C//DTD SVG 1.1//EN" "http://www.w3.org/Graphics/SVG/1.1/DTD/svg11.dtd">
<svg xmlns="http://www.w3.org/2000/svg" xmlns:xlink="http://www.w3.org/1999/xlink" version="1.1" id="Shape_5_2_" x="0px" y="0px" width="40px" height="40px" viewBox="0 0 40 40" enable-background="new 0 0 40 40" xml:space="preserve">
<g>
	<g>
		<path fill-rule="evenodd" clip-rule="evenodd" d="M21.706,13.691c-1.375-2.784-2.859-5.318-4.88-7.666    c-2.436-2.83-4.445-4.266-4.793-3.97c-0.27,0.229,1.159,5.721,2.799,10.963C16.544,13.077,19.084,13.284,21.706,13.691z     M28.569,17.915c2.546-2.161,4.714-4.747,6.198-9.197C35.78,5.683,36.301,2,35.771,2c-0.644,0-10.261,9.101-13.647,12.655    C19.214,14.101,15.988,14,13.906,14c-1.781,0-5.724,1.079-5.724,6.125c0,1.375,0.316,3.191,0.316,3.191    C5.006,29.947,2.816,35.816,3,36c0.17,0.171,3.66-6.282,7.458-11.292c0,0,3.542-1.444,4.875-1.708    c2.36,1.513,4.167,1.739,10.212,4.729c0.672,0.332,2.268,2.5,4.392,5.552C32.156,36.469,35,36.069,35,35.802    c0-0.421-1.823-5.041-3.204-10.71C30.798,20.997,29.882,19.401,28.569,17.915z"/>
	</g>
</g>
</svg>
