<?xml version="1.0" encoding="utf-8"?>
<!-- Generator: Adobe Illustrator 15.0.0, SVG Export Plug-In . SVG Version: 6.00 Build 0)  -->
<!DOCTYPE svg PUBLIC "-//W3C//DTD SVG 1.1//EN" "http://www.w3.org/Graphics/SVG/1.1/DTD/svg11.dtd">
<svg xmlns="http://www.w3.org/2000/svg" xmlns:xlink="http://www.w3.org/1999/xlink" version="1.1" id="Shape_5_2_" x="0px" y="0px" width="40px" height="40px" viewBox="0 0 40 40" enable-background="new 0 0 40 40" xml:space="preserve">
<g>
	<g>
		<path d="M36.56,25.833c-0.56-2.333-1.477-4.487-2.367-5.309c-0.007-0.006-0.012-0.01-0.018-0.016    c-0.894-1.252-2.376-2.006-3.778-2.55c-1.233-0.479-3.834-1.287-6.063-2.757c-0.755-0.499-2.818-2.5-2.818-2.5    s-2.8-0.823-4.267-1.669c-0.767-0.443-2.223-1.436-3.439-2.283c0.597-1.815-0.753-3.695-2.269-3.695    c-0.113,0-0.654,0.984-1.064,2.618C9.195,8.037,7.305,8.652,6.377,9.327c-0.804,0.584-1.401,1.66-1.627,1.91    c-0.376,0.418-1.378,1.172-2.313,1.565c-0.733,0.309-0.312,1.702,0.615,2.42c0.398,0.309,1.698,1.111,5.628,0.71    c1.198,0.495,3.42,2.418,4.644,3.803C13.14,20.89,13,22.065,13,23c0,1.625,2.023,3.413,2.023,3.413s1.01,3.657,0.838,5.754    c-0.32,3.903-1.924,3.302-1.924,4.833c0,0,1.781,0,2.5,0S18,32.688,18,32.188c0-2.891,0-3.834,0-5.906    c0-0.206,0.031-0.51,0.083-0.88c0.48,0.6,0.94,1.012,0.94,1.012s1.01,3.657,0.838,5.754c-0.32,3.903-1.924,3.302-1.924,4.833    c0,0,1.781,0,2.5,0S22,32.688,22,32.188c0-2.266,0-3.341,0-4.695C22.749,27.802,23.457,28,24.042,28    c0.829,0,1.584-0.098,2.267-0.251c0.12,0.612,0.279,1.138,0.49,1.497c0.699,1.19,2.891,2.347,3.068,4.222    c0.04,0.418-0.281,1.698-0.602,1.985c-0.356,0.32-1.232,0.567-1.232,1.547c0,0,1.686,0,2.467,0c0.305,0,0.609-0.157,0.823-0.77    C31.72,35.095,32,33.231,32,33.021c0-0.785-0.609-1.43-0.929-2.316c1.357,0.982,2.687,1.605,2.796,2.763    c0.04,0.418-0.281,1.698-0.602,1.985c-0.356,0.32-1.232,0.567-1.232,1.547c0,0,1.686,0,2.467,0c0.305,0,0.609-0.157,0.823-0.77    C35.72,35.095,36,33.231,36,33.021c0-1.063-2.12-1.865-2.12-3.365c0-1.024,0.503-3.053,0.835-4.643    c0.36,1.416,0.297,2.725,0.548,3.819c0.377,1.641,0.894,2.281,1.279,2.176C36.999,30.884,37.155,28.318,36.56,25.833z"/>
	</g>
</g>
</svg>
