<?xml version="1.0" encoding="utf-8"?>
<!-- Generator: Adobe Illustrator 15.0.0, SVG Export Plug-In . SVG Version: 6.00 Build 0)  -->
<!DOCTYPE svg PUBLIC "-//W3C//DTD SVG 1.1//EN" "http://www.w3.org/Graphics/SVG/1.1/DTD/svg11.dtd">
<svg xmlns="http://www.w3.org/2000/svg" xmlns:xlink="http://www.w3.org/1999/xlink" version="1.1" id="Shape_5_2_" x="0px" y="0px" width="40px" height="40px" viewBox="0 0 40 40" enable-background="new 0 0 40 40" xml:space="preserve">
<g>
	<g>
		<path d="M37.144,28C34.875,25.462,34,23.042,34,19.237c0-0.195-0.062-0.403-0.162-0.615c0.567-0.798,1.252-2.014,1.252-3.277    c0-3.282-3.083-5.039-2.978-3.989c0.216,2.162-0.066,4.304-0.229,5.279C30.555,15.713,28.915,15,27.938,15c-2.5,0-4.141,1-7.646,1    c-1.817,0-3.293-1.545-6.42-4.076c1.759-0.291,2.636-1.334,2.39-1.725c-0.162-0.257-2.099,0.017-4.485-0.142    c-0.351-0.312-0.696-0.585-1.039-0.792c0.837-2.23,2.528-4.226,5.565-4.226c1.861,0,3.974,0.483,4.938,2.555    c0.774,1.666,0.399,3.458,0.181,4.813c1.084-0.844,1.63-2.172,1.63-4.063c0-4-3.471-6.305-6.929-6.305    c-3.773,0-7.097,1.505-8.984,6.954C7.136,8.995,7.135,8.996,7.133,8.997c-1.533,1.289-3.472,3.69-5.035,5.628    c-0.304,0.376-0.447,2.088,0.652,2.333c0.885,0.198,5.103-0.833,5.103-0.833c1.483,1.378,2.379,3.668,4.734,7.641    c-0.617,0.071-1.203,0.153-1.586,0.242c-0.729,0.169-0.986,0.622-0.961,1.358c0.015,0.429,0.357,3.847,0.47,4.179    c0.208,0.613,1.075,1.433,3.346,2.163l-0.298-2.037c0,0-0.905-0.71-1.125-0.784c-0.234-0.08-0.194-1.442-0.25-2.426    c0.498,0.104,2.241-0.086,4.006-0.274c0.555,1.034,1.304,2.496,1.393,3.014c0.143,0.833,0.835,3.8,0.835,4.8    c0,0.375-0.516,2-0.516,2h1.913c0.246-0.735,0.357-1.362,0.394-1.832c0.08-1.05-0.299-7.947-0.311-8.168h4.59    c0.415,0,0.843-0.043,1.273-0.107c0.128,0.228,0.274,0.447,0.447,0.649c1.45,1.702,2.9,3.822,2.826,5.254    C28.917,34.042,27.688,36,27.688,36h2.094c0,0,1.111-1.754,1.95-4.864c0.26-0.966,0.363-1.214-0.105-2.094    c-0.229-0.431-0.396-0.824-0.52-1.196c2,1,4.726,2.399,4.894,3.821C36.406,35.104,36,36,36,36h1.781c0,0,0.219-0.9,0.219-1.938    c0-1.229,0-0.842,0-4.063C38,29,37.768,28.698,37.144,28z"/>
	</g>
</g>
</svg>
