<?xml version="1.0" encoding="utf-8"?>
<!-- Generator: Adobe Illustrator 15.0.0, SVG Export Plug-In . SVG Version: 6.00 Build 0)  -->
<!DOCTYPE svg PUBLIC "-//W3C//DTD SVG 1.1//EN" "http://www.w3.org/Graphics/SVG/1.1/DTD/svg11.dtd">
<svg xmlns="http://www.w3.org/2000/svg" xmlns:xlink="http://www.w3.org/1999/xlink" version="1.1" id="Shape_5_2_" x="0px" y="0px" width="40px" height="40px" viewBox="0 0 40 40" enable-background="new 0 0 40 40" xml:space="preserve">
<g>
	<g>
		<path d="M35.848,19.709C33.599,15.91,30.156,14,27.75,14h-6.125c-3.784,0-5.635,0.256-7.639,1.531    c-1.063,0.676-2.096,1.568-3.068,2.518c-0.13-0.298-0.268-0.48-0.389-0.507c-0.258-0.059-0.985,0.929-1.643,2.638    c-0.032,0.036-0.065,0.072-0.097,0.107c-0.588-1.767-1.372-2.791-1.714-2.769C6.69,17.543,5.96,19.97,6.254,23.435    c-0.196,0.508-0.429,1.335-0.535,2.656c-0.069,0.858-0.786,1.942-1.563,2.901c-0.626,0.77,0.898,1.172,1.668,0.98    c1.051-0.261,2.687-1.655,3.873-2.142c0.781-0.32,1.585-0.875,2.357-1.496c0.108,2.383,0.761,3.674,1.446,3.685    c0.75,0.012,0.688-1.551,0.563-2.113s-0.195-0.775-0.195-1.721c0-0.248,1.438-1.325,2.463-2.164    c0.757,1.604,1.531,3.464,1.531,4.784c0,2.278-1,3.194-0.028,3.194h0.875C19.552,32,20,29.688,20,28.709    c0-1.091-0.334-3.605-0.71-5.62c0.992,0.049,1.875,0.071,4.173-0.089c0.375-0.026,0.895-0.104,1.486-0.229    c0.146,0.497,0.284,0.9,0.403,1.126c0.924,1.758,3.118,3.016,2.597,4.78c-0.115,0.394-1.043,1.725-1.334,2.021    C26.131,31.192,25.502,32,26.25,32h1.031c0.305,0,0.755-0.012,1.077-0.516c0.598-0.935,1.899-3.014,1.979-3.211    c0.302-0.75-0.575-1.444-0.707-2.835c1.116,0.12,2.168,0.029,2.503,0.396c0.27,0.295-0.074,1.955-0.074,2.51    c0,0.692,0.559,1.963,1.223,1.617c0.249-0.13,0.461-1.231,0.514-1.828c0.097-1.104,0.289-3.551,0.268-3.762    c-0.002-0.016-0.014-0.025-0.017-0.04c1.54,1.682,3.463,2.793,3.742,2.66C38.158,26.815,37.93,23.225,35.848,19.709z     M28.412,19.144c-2,0-2.839-0.193-6.031,0.09C18.318,19.594,16,21,16,21c1.076-1.34,2.159-2.103,6.281-2.692    C27.667,17.539,31,18.483,31,18.483S30.412,19.144,28.412,19.144z M31.813,23.145c-0.201-0.558-0.104-1.521-0.01-2.631    c0.212,0.402,0.41,0.813,0.572,1.242c0.294,0.778,0.775,1.518,1.331,2.185C33.126,23.668,32.022,23.729,31.813,23.145z"/>
	</g>
</g>
</svg>
