<?xml version="1.0" encoding="utf-8"?>
<!-- Generator: Adobe Illustrator 15.0.0, SVG Export Plug-In . SVG Version: 6.00 Build 0)  -->
<!DOCTYPE svg PUBLIC "-//W3C//DTD SVG 1.1//EN" "http://www.w3.org/Graphics/SVG/1.1/DTD/svg11.dtd">
<svg xmlns="http://www.w3.org/2000/svg" xmlns:xlink="http://www.w3.org/1999/xlink" version="1.1" id="Shape_5_2_" x="0px" y="0px" width="40px" height="40px" viewBox="0 0 40 40" enable-background="new 0 0 40 40" xml:space="preserve">
<g>
	<g>
		<path d="M34.64,32.949C33.107,32.547,32,32.257,32,29.002v-1h-1c-1.841,0-2.766-0.045-3.668-1.063    c-0.695-0.783-1.005-1.47-1.363-2.265c-0.382-0.847-0.815-1.807-1.75-2.976c-1.344-1.679-2.613-2.363-4.083-3.156    c-0.539-0.291-1.109-0.602-1.729-0.985c1.474-1.496,2.657-2.807,3.603-3.948c0.138,0.299,0.271,0.598,0.402,0.896    c0.684,1.546,1.391,3.145,2.707,4.455c2.067,2.057,3.729,2.616,5.195,3.109c1.475,0.496,2.388,0.707,3.914,2.565    C34.425,24.875,34.712,25,35.001,25c0.223,0,0.447-0.074,0.634-0.228c0.427-0.35,0.488-0.98,0.138-1.407    c-1.89-2.302-3.256-2.665-4.821-3.191c-1.381-0.465-2.686-0.904-4.423-2.632c-1.05-1.044-1.651-2.405-2.288-3.845    c-0.261-0.591-0.536-1.211-0.855-1.837c0.721-0.982,1.225-1.792,1.582-2.454c0.537,0.932,0.821,1.668,1.094,2.383    c0.392,1.027,0.762,1.998,1.766,3.27c2.064,2.612,4.89,2.993,6.359,2.993c0.561,0,0.924-0.055,0.974-0.063    c0.546-0.088,0.916-0.602,0.828-1.147s-0.604-0.921-1.146-0.828c-0.037,0.004-3.316,0.5-5.445-2.195    c-0.813-1.03-1.102-1.786-1.466-2.742c-0.405-1.063-0.864-2.269-2.106-4.042c-0.001-0.001-0.003-0.002-0.004-0.004    C21.245,0.502,11.568,0.499,6.033,6.033c-5.534,5.535-5.531,15.212,0.997,19.786c0.001,0.001,0.002,0.003,0.004,0.004    c1.774,1.242,2.979,1.701,4.042,2.106c0.956,0.364,1.711,0.652,2.742,1.467c2.668,2.107,2.215,5.313,2.195,5.444    c-0.088,0.545,0.283,1.059,0.828,1.146C16.895,35.996,16.948,36,17.001,36c0.482,0,0.907-0.35,0.986-0.841    c0.029-0.182,0.678-4.482-2.93-7.332c-1.271-1.005-2.242-1.375-3.27-1.767c-0.715-0.272-1.451-0.557-2.383-1.094    c0.667-0.36,1.482-0.867,2.475-1.597c0.565,0.286,1.125,0.538,1.679,0.784c1.406,0.625,2.734,1.215,3.98,2.395    c1.537,1.456,2.238,3.154,2.917,4.797c1.163,2.815,2.365,5.726,7.478,6.715c0.064,0.013,0.129,0.019,0.191,0.019    c0.47,0,0.889-0.332,0.98-0.81c0.105-0.543-0.249-1.067-0.791-1.172c-4.056-0.785-4.918-2.873-6.011-5.516    c-0.724-1.751-1.543-3.735-3.39-5.484c-1.495-1.417-3.045-2.105-4.543-2.771c-0.25-0.111-0.497-0.222-0.742-0.334    c0.979-0.812,2.082-1.798,3.318-2.991c0.839,0.544,1.579,0.945,2.239,1.301c1.382,0.745,2.381,1.284,3.471,2.646    c0.777,0.972,1.123,1.737,1.488,2.548c0.39,0.865,0.793,1.76,1.69,2.771c1.272,1.434,2.695,1.682,4.203,1.726    c0.321,3.902,2.569,4.49,4.094,4.891C35.453,35.229,36,35.373,36,37c0,0.553,0.447,1,1,1s1-0.447,1-1    C38,33.829,36.058,33.32,34.64,32.949z"/>
	</g>
</g>
</svg>
