<?xml version="1.0" encoding="utf-8"?>
<!-- Generator: Adobe Illustrator 15.0.0, SVG Export Plug-In . SVG Version: 6.00 Build 0)  -->
<!DOCTYPE svg PUBLIC "-//W3C//DTD SVG 1.1//EN" "http://www.w3.org/Graphics/SVG/1.1/DTD/svg11.dtd">
<svg xmlns="http://www.w3.org/2000/svg" xmlns:xlink="http://www.w3.org/1999/xlink" version="1.1" id="Shape_5_2_" x="0px" y="0px" width="40px" height="40px" viewBox="0 0 40 40" enable-background="new 0 0 40 40" xml:space="preserve">
<g>
	<g>
		<path d="M33.832,32.291C26.688,31.329,26,31,26,26c0-7.068-1.272-11.803-6.583-12c-2.292-0.085-4.491,0.264-4.491,0.264    c-1.753-0.416-2.497-1.765-3.033-3.104c-0.464-1.161-1.167-2.309-1.765-2.844c-0.085-0.777-0.319-2.133-0.972-3.73    C8.811,3.742,8.275,3.873,7.958,5.446C7.73,6.577,8.066,7.531,8.432,8.188C7.601,8.415,6.656,8.827,5.77,9.315    C4.461,10.036,2.224,12.004,2,12.938C1.833,13.633,2.238,15,3.064,15c0.95,0,2.342-0.917,4.436-0.917    c1.063,1.449-0.156,4.106,1.084,5.876c0.424,0.604,0.804,1.082,1.236,1.507c-0.575,0.59-1.243,1.354-1.501,1.951    c-1.059,2.458,1.222,3.572,1.222,3.572c0.95-0.548,0.1-2.962,0.1-2.962c0.377-0.518,0.919-1.034,1.489-1.543    c0.552,0.349,1.209,0.699,2.075,1.105c0,0-0.209,0.397-0.209,0.973c0,2.05,2.629,3.646,3.625,7.585    c-2.813,0-5.092-0.465-5.827,0.353C10.287,33.063,9.979,34,9.979,34s2.801,0,9.347,0c0.791,0,1.197-0.628,0.674-1.434    c-0.796-1.226-2.001-3.398-2.332-4.463c1.708,0.034,4.416-0.248,4.416-0.248C23.42,33.667,24.375,34,31,34    c4.202,0,7,0.074,7-0.338C38,32.968,35.786,32.554,33.832,32.291z"/>
	</g>
</g>
</svg>
