<?xml version="1.0" encoding="utf-8"?>
<!-- Generator: Adobe Illustrator 15.0.0, SVG Export Plug-In . SVG Version: 6.00 Build 0)  -->
<!DOCTYPE svg PUBLIC "-//W3C//DTD SVG 1.1//EN" "http://www.w3.org/Graphics/SVG/1.1/DTD/svg11.dtd">
<svg xmlns="http://www.w3.org/2000/svg" xmlns:xlink="http://www.w3.org/1999/xlink" version="1.1" id="Shape_5_2_" x="0px" y="0px" width="40px" height="40px" viewBox="0 0 40 40" enable-background="new 0 0 40 40" xml:space="preserve">
<g>
	<g>
		<path d="M36.028,34.917c-0.741-0.528-1.519-1.212-2.128-1.778c1.097-2.01,2.1-4.809,2.1-7.764c0-1.516-1.22-8.062-4.644-11.859    c2.728-7.256,5.253-8.515,4.513-9.355c-0.729-0.827-5.938,1.589-10.412,5.873C22.702,9.09,19.811,8.55,18,8.063    C13.624,6.885,11.729,6,9,6C6.344,6,4.647,6.687,3.741,7.778C2.483,8.301,2.06,8.735,2,9.563    c-0.137,1.899,2.293,4.582,6.371,7.609c1.767,1.312,3.587,2.417,5.364,3.361C12.174,23.086,12,25.762,12,26.331    c0,1.573,0.969,2.359,3.15,1.052c2.694-1.613,2.992-3.315,2.797-4.858c4.733,1.97,8.365,2.663,8.365,2.663    s3.827,2.693,4.368,4.664c0.32,1.167,0.144,2.406-0.086,3.345c-0.703,0.325-1.629,0.694-3.028,1.137    c-2.983,0.942-6.049,2.678-5.525,3.584c0.27,0.465,1.037,0,1.979,0c1.939,0,5.186,0.207,6.56-1.02    c0.166,0.978,2.087,0.937,5.254,0.937c1,0,1.646,0.547,2.084-0.038C38.181,37.443,37.566,36.014,36.028,34.917z M13.577,9    C15.271,9,16,10.305,16,11.027C16,11.748,14.833,12,14,12c-2.667,0-4-0.973-4-1.694C10,9.584,11.883,9,13.577,9z M32.333,21.583    c-0.732,0.957-3.024-0.462-4.609,1.729c0.865,0.6,1.917,1.945,2.212,3.668c-1.269-1.337-2.787-2.427-3.048-2.61l-0.176-0.125    l-0.213-0.04c-0.094-0.018-9.482-1.859-17.532-7.836c-2.62-1.945-4.097-3.405-4.933-4.479c1.619,0.496,3.734,1.002,6.424,1.485    C13.973,14.006,15.639,14.759,16,16c0.375,1.292-0.958,2.708-0.958,2.708s2.789,1.676,5.604,2.564    C24.172,22.384,25.439,19,29.167,19C31.5,19,33.011,20.697,32.333,21.583z"/>
	</g>
</g>
</svg>
