<?xml version="1.0" encoding="utf-8"?>
<!-- Generator: Adobe Illustrator 15.0.0, SVG Export Plug-In . SVG Version: 6.00 Build 0)  -->
<!DOCTYPE svg PUBLIC "-//W3C//DTD SVG 1.1//EN" "http://www.w3.org/Graphics/SVG/1.1/DTD/svg11.dtd">
<svg xmlns="http://www.w3.org/2000/svg" xmlns:xlink="http://www.w3.org/1999/xlink" version="1.1" id="Shape_5_2_" x="0px" y="0px" width="40px" height="40px" viewBox="0 0 40 40" enable-background="new 0 0 40 40" xml:space="preserve">
<g>
	<g>
		<path fill-rule="evenodd" clip-rule="evenodd" d="M34,22.459c0-2.693-3.276-7.27-6.563-9.456c0.326-1.033,0.604-2.074,0.604-2.628    c0-1.231-3.225-5.521-6.229-5.375C18.563,5.158,15,6.818,13.834,8.086c-0.488,0.531-1.251,2.049-1.251,2.049    S5.667,12.625,3,14.583c2.891,1.53,5.833,1.147,11.923-0.038c0,0-0.923,1.701-0.923,4.201c0,5.496,3.507,7.382,6.924,9.404    C18.721,28.607,17.878,28.968,17,30h6.738c0.543,0.425,1.054,0.886,1.508,1.407c2.161,2.481,2.625,4.707,2.876,5.187    c0.199,0.381,1.886,1.056,2.984,1.336c0.546,0.139,0.946,0.153,0.946-0.325c0-0.808,0.012-2.438,0-4.317    C32.756,31.017,34,26.439,34,22.459z M14.688,10.438c0.656-1.094,2.593-2.599,5.843-2.599c3.304,0,5.063,3.005,5.063,3.005    s-1.031-0.938-3.523-0.938C16.219,9.906,17.024,11.569,14.688,10.438z M28.91,35.854C28.61,34.9,27.916,32.95,26,30.75    c-3.725-4.276-11-4.782-11-12.003c0-2.047,0.635-3.603,1.021-4.36c1.118-0.44,3.079-0.571,5.012-0.325    C20.431,15.008,20,16.24,20,17.75c0,6.208,5.137,7.046,9.584,12.25c0.56,0.654,0.91,1.563,1.22,2.494    C30.919,33.802,31,35.243,31,36.833C30.126,36.581,28.953,35.992,28.91,35.854z"/>
	</g>
</g>
</svg>
