<?xml version="1.0" encoding="utf-8"?>
<!-- Generator: Adobe Illustrator 15.0.0, SVG Export Plug-In . SVG Version: 6.00 Build 0)  -->
<!DOCTYPE svg PUBLIC "-//W3C//DTD SVG 1.1//EN" "http://www.w3.org/Graphics/SVG/1.1/DTD/svg11.dtd">
<svg xmlns="http://www.w3.org/2000/svg" xmlns:xlink="http://www.w3.org/1999/xlink" version="1.1" id="Shape_5_2_" x="0px" y="0px" width="40px" height="40px" viewBox="0 0 40 40" enable-background="new 0 0 40 40" xml:space="preserve">
<g>
	<g>
		<path fill-rule="evenodd" clip-rule="evenodd" d="M38,20.829c0-6.788-3.188-12.812-12.875-12.812    c-4.875,0-8.708,3.774-9.826,4.954c0,0-3.143-0.972-4.924-0.972c-2.5,0-5.318,1.633-5.318,5.204c0,1.247,0.463,3.052,0.463,3.052    c-2.719,5.563-3.467,9.786-3.459,11.119c0.003,0.592,0.698,0.734,0.854,0.164c1.017-3.714,2.966-7.289,5.189-10.312    c0.979-0.561,1.799-0.079,2.45,0.819c1.851,2.555,3.712,3.585,7.985,3.988c0.325,0.642,0.815,1.21,1.523,1.672l-1.236,3.956    c-2.267,0.5-4.108,1.212-4.439,2.337c0,0,3.839,0,5.505,0s1.665-0.762,1.867-1.457l1.076-3.807C23.731,28.906,24.776,29,26,29    c0.606,0,1.158-0.029,1.682-0.072l-0.854,2.735c-2.269,0.5-4.109,1.212-4.44,2.337c0,0,3.839,0,5.505,0s1.665-0.762,1.867-1.457    l1.228-4.343c1.516-0.64,2.345-1.619,2.729-2.79C36.156,24.644,38,23.26,38,20.829z"/>
	</g>
</g>
</svg>
