<?xml version="1.0" encoding="utf-8"?>
<!-- Generator: Adobe Illustrator 15.0.0, SVG Export Plug-In . SVG Version: 6.00 Build 0)  -->
<!DOCTYPE svg PUBLIC "-//W3C//DTD SVG 1.1//EN" "http://www.w3.org/Graphics/SVG/1.1/DTD/svg11.dtd">
<svg xmlns="http://www.w3.org/2000/svg" xmlns:xlink="http://www.w3.org/1999/xlink" version="1.1" id="Shape_5_2_" x="0px" y="0px" width="40px" height="40px" viewBox="0 0 40 40" enable-background="new 0 0 40 40" xml:space="preserve">
<path d="M9.5,16.535c0,0-1.441,0.61-1.441,3.174c0,2.564,4.555,6.354,9.161,6.354l-0.345-4.764C16.875,21.299,11.063,20,9.5,16.535z  "/>
<path d="M9.5,13.465c0,0-1.441-0.523-1.441-2.766c0-2.244,2.441-2.999,3.941-2.54C10.18,11.311,9.5,13.465,9.5,13.465z"/>
<g>
	<g>
		<path d="M28,17c-0.221-1.208-0.395-3.843-0.705-5.851c0.984-0.184,1.912-0.521,2.257-1.144c1.149-2.079-0.068-4.914-1.874-5.912    c-0.875-0.484-2.864,1.085-3.938,3.027l0.021,0.174c-1.083-0.364-2.294-0.67-3.327-0.817c-0.06-2.16-0.967-4.494-1.934-4.494    c-2.063,0-4.5,1.892-4.5,4.267c0,0.804,0.824,1.648,1.723,2.333C13.867,10.165,12,12.417,12,14.75c0,2.7,4,5.25,4,5.25    s0,7.789,0,8.035c-2.689,0.223-2,4.048-2,4.048l-1.361-0.87c0,0-1.313,2.071-0.147,3.634S17,37.938,19,37.938S32,35.271,32,27    C32,23.375,28.87,21.75,28,17z M18.939,17.241c-0.423,1.119-0.376,1.465-0.744,1.686c-0.426,0.255-1.474,0-1.764-0.302    c-0.46-0.478-0.29-3.602,0.465-4.382c0.545-0.564,2.785,0.122,2.785,1.039C19.681,15.861,19.325,16.22,18.939,17.241z"/>
	</g>
</g>
</svg>
