<?xml version="1.0" encoding="utf-8"?>
<!-- Generator: Adobe Illustrator 15.0.0, SVG Export Plug-In . SVG Version: 6.00 Build 0)  -->
<!DOCTYPE svg PUBLIC "-//W3C//DTD SVG 1.1//EN" "http://www.w3.org/Graphics/SVG/1.1/DTD/svg11.dtd">
<svg xmlns="http://www.w3.org/2000/svg" xmlns:xlink="http://www.w3.org/1999/xlink" version="1.1" id="Shape_5_2_" x="0px" y="0px" width="40px" height="40px" viewBox="0 0 40 40" enable-background="new 0 0 40 40" xml:space="preserve">
<g>
	<g>
		<path d="M8.647,22.653L22.655,8.647c-0.385-0.152-0.776-0.282-1.176-0.377c-0.47-1.051-1.031-2.309-1.441-3.219    c-0.284-0.632-0.491-1.049-1.272-1.049c-0.286,0-0.834,0.192-1.277,0.335C16.575,4.633,15.547,5,15,5    c-0.172,0-0.666-0.115-1.569-1.018l-1.474,1.352C12.834,6.21,13.982,7,15,7c0.479,0,1.353-0.273,3.298-0.893l0.865,1.901    c-1.219,0.004-2.438,0.215-3.586,0.599C15.038,8.243,14.31,8,13.065,8C10.533,8,8,10.533,8,13.065c0,1.244,0.243,1.971,0.607,2.51    c-0.384,1.149-0.595,2.368-0.599,3.587l-1.901-0.865C6.727,16.353,7,15.479,7,15c0-1.018-0.79-2.166-1.666-3.042l-1.352,1.474    C4.885,14.334,5,14.828,5,15c0,0.547-0.367,1.575-0.663,2.488c-0.144,0.443-0.335,0.991-0.335,1.277    c0,0.781,0.417,0.988,1.049,1.272c0.91,0.41,2.167,0.973,3.219,1.441C8.366,21.879,8.495,22.27,8.647,22.653z M22.5,25    c-1.38,0-2.5-1.12-2.5-2.5c0-0.503,0.152-0.97,0.408-1.362l-4.419-4.411L9.095,23.62c-0.888,0.888-2.013,2.013-2.56,2.56    c-0.611,0.611-0.783,1.55-0.226,2.258C8.08,30.687,8,30.375,8,34h2c0-4,0-4-1.96-6.423l2.093-2.093    c0.631,1.091,1.48,2.405,2.812,3.911l-0.874,2.451c-0.332,0.928,0.096,1.605,0.692,1.983C14.208,34.747,16.6,35.594,17,38h2    c-0.702-3.729-2.969-4.112-4.957-5.732l0.459-1.287c5.532,5.036,13.201,2.748,16.083,0.313l-6.718-6.704    C23.474,24.848,23.005,25,22.5,25z M15.5,27c-1.38,0-2.5-1.12-2.5-2.5s1.12-2.5,2.5-2.5s2.5,1.12,2.5,2.5S16.88,27,15.5,27z     M25,29.5c0,1.38-1.12,2.5-2.5,2.5S20,30.88,20,29.5s1.12-2.5,2.5-2.5S25,28.12,25,29.5z M33.828,12.765    c-0.378-0.596-1.056-1.024-1.983-0.692l-2.503,0.893c-1.208-0.981-2.673-1.989-3.91-2.779l2.146-2.146C30,10,30,10,34,10V8    c-3.625,0-3.313,0.08-5.563-1.69c-0.706-0.556-1.641-0.386-2.252,0.221l-9.49,9.489l4.413,4.404C21.507,20.156,21.985,20,22.5,20    c1.38,0,2.5,1.12,2.5,2.5c0,0.513-0.156,0.989-0.421,1.387l6.713,6.699c2.438-2.882,4.723-10.55-0.312-16.082l1.285-0.458    c1.62,1.987,2.004,4.254,5.732,4.957v-2C35.592,16.602,34.745,14.209,33.828,12.765z M24.5,18c-1.38,0-2.5-1.12-2.5-2.5    s1.12-2.5,2.5-2.5s2.5,1.12,2.5,2.5S25.88,18,24.5,18z M32,22.5c0,1.38-1.12,2.5-2.5,2.5S27,23.88,27,22.5s1.12-2.5,2.5-2.5    S32,21.12,32,22.5z"/>
	</g>
</g>
</svg>
