<?xml version="1.0" encoding="utf-8"?>
<!-- Generator: Adobe Illustrator 15.0.0, SVG Export Plug-In . SVG Version: 6.00 Build 0)  -->
<!DOCTYPE svg PUBLIC "-//W3C//DTD SVG 1.1//EN" "http://www.w3.org/Graphics/SVG/1.1/DTD/svg11.dtd">
<svg xmlns="http://www.w3.org/2000/svg" xmlns:xlink="http://www.w3.org/1999/xlink" version="1.1" id="Shape_5_2_" x="0px" y="0px" width="40px" height="40px" viewBox="0 0 40 40" enable-background="new 0 0 40 40" xml:space="preserve">
<g>
	<g>
		<path d="M21.832,10.322l2.475-4.154c-1.291-0.67-2.696-1.426-4.229-2.341l-2.512,4.217C19.086,9,20.512,9.722,21.832,10.322z     M30.4,15.377l3.397-1.269c-0.393-2.036-1.463-3.341-3.176-4.516l-2.195,3.685C29.301,13.833,29.968,14.487,30.4,15.377z     M27.558,12.783l2.224-3.733c-1.26-0.759-2.791-1.508-4.584-2.423l-2.445,4.104C24.635,11.542,26.26,12.12,27.558,12.783z     M15.251,6.464c0.499,0.375,0.988,0.719,1.471,1.043l2.504-4.204c-0.385-0.237-0.765-0.467-1.164-0.725    C14.937,0.56,12.378,4.307,15.251,6.464z M32,23c0-0.072-0.011-0.145-0.016-0.216c0.936-1.272,1.989-3.442,1.989-6.773    c0-0.313-0.021-0.6-0.042-0.885l-3.188,1.19c0.031,0.123,0.065,0.243,0.091,0.374c0.191,0.996,0.128,2.295-0.145,3.466    C29.446,18.899,27.406,18,24.936,18c-3.27,0-9.043,3.074-10.21,3.074s-2.537-2.776-4.505-2.999    c-1.528-0.173-3.917,0.866-4.268,2.511c-0.144,0.674-0.863,1.134-1.661,1.62c-0.673,0.41-0.054,1.089,0.483,1.418    C5.504,24.072,7.743,23.93,8.842,24c1.033,1.375,2.176,3.166,3.033,4.292c1.067,1.405,1.4,8.518,0.956,8.642    C10.955,37.456,11.598,38,12.247,38h1.94C15.031,38,16,32.395,16,31.416c0-0.408-0.08-1.332-0.192-2.441    C15.91,28.99,15.981,29,16,29c1.104,0,2.542-0.485,4.247-0.915c-0.115,0.474-0.189,0.917-0.189,1.292    c0,1.479,0.911,5.467,0.911,6.831c0,0.42-1.331,0.775-1.696,0.977C18.75,37.472,19.034,38,19.655,38H21.5    c1.219,0,1.422-0.053,1.823-0.563c0.614-0.781,0.648-6.794,0.783-7.177c0.077-0.219,0.483-0.571,1.059-1.005    c-0.063,0.284-0.107,0.554-0.107,0.786c0,1.479,1.911,4.802,1.911,6.166c0,0.42-1.33,0.775-1.696,0.977    C24.75,37.472,25.034,38,25.655,38H27.5c1.406,0,1.514,0.008,1.823-0.563c0.641-1.181-0.352-6.794-0.217-7.177    C29.472,29.225,32,25.281,32,23z"/>
	</g>
</g>
<path d="M9.688,19.063l1.904-1.875c0,0,3.158,1.563,0.283,3.813S9.688,19.063,9.688,19.063z"/>
</svg>
