<?xml version="1.0" encoding="utf-8"?>
<!-- Generator: Adobe Illustrator 15.0.0, SVG Export Plug-In . SVG Version: 6.00 Build 0)  -->
<!DOCTYPE svg PUBLIC "-//W3C//DTD SVG 1.1//EN" "http://www.w3.org/Graphics/SVG/1.1/DTD/svg11.dtd">
<svg xmlns="http://www.w3.org/2000/svg" xmlns:xlink="http://www.w3.org/1999/xlink" version="1.1" id="Shape_5_2_" x="0px" y="0px" width="40px" height="40px" viewBox="0 0 40 40" enable-background="new 0 0 40 40" xml:space="preserve">
<g>
	<g>
		<path d="M35.819,25.673c-2.124,1.781-2.382-6.652-2.382-9.298C33.438,13.844,30,12,28,12c-2.044,0-2.451,0.464-5.125,0.464    c-0.374,0-0.805-0.074-1.263-0.187c-0.441-0.481-1.797-1.832-3.627-2.388c-1.021-0.819-1.783-2.015-2.877-2.734    S9.906,6.125,9.906,6.125S7.899,5.722,7.58,6.034C6.91,6.69,6.152,7.609,6.152,7.609s0.011-0.001,0.021-0.003    C5.324,7.998,4.822,8.45,4.439,8.859c-0.456,0.489-1.694,0.776-2.368,1.463c-0.274,0.279,0.036,1.988,0.762,2.521    c0.185,1.026,0.483,2.188,1.248,2.188c0.703,0,1.585-0.659,1.585-0.659s0.526-0.014,1.154-0.066    c-0.106,0.744-0.041,1.927,0.742,3.662c0.163,0.361,1.003-0.873,1.003-0.873s0.653,4.259,1.894,6.019    c0.23-0.176,0.376-0.382,0.507-0.563c0.349,3.94,0.479,4.521-0.385,5.334c-0.336,0.315-1.116,0.244-1.423,0.695    C8.782,29.131,8.875,30,9.603,30h1.709c0.843,0,1.575-1.492,2.041-2.469c0.406-0.85,0.769-2.475,1.192-4.62    c0.542,0.096,1.061,0.154,1.548,0.173c0.885,2.026,1.616,3.788,2.099,4.563C18.675,28.419,20.313,30,21.313,30    c0.563,0,1.19-0.746,1.066-1.349c-0.096-0.468-0.711-0.738-1.75-1.221c-0.876-1.055-0.343-2.187-0.657-4.942    c0.484-0.18,0.86-0.364,1.132-0.515C20.453,20.888,20,19.549,20,18.333c0-2.168-0.833-4.375-1.875-5.942    C19.958,12.825,21,16.042,21,18.417c0,1.18,0.557,2.473,1.199,3.536c0.399,0.016,0.81,0.026,1.238,0.026    c0.947,0,1.85-0.277,2.725-0.585c0.003,0.585,0.069,1.091,0.244,1.443c0.887,1.793,1.838,3.306,1.502,4.068    c-0.169,0.385-0.683,1.343-1.102,1.441C25.275,28.708,25.908,30,26.656,30H27.5c0.305,0,0.607-0.08,0.852-0.311    c0.875-0.825,1.618-2.126,1.698-2.32c0.378-0.906,0.022-2.078,0.427-3.311c0.533,0.714,0.979,1.438,1.157,2.155    c0.151,0.611-0.625,2.136-0.866,2.209C29.642,28.764,29.875,30,30.907,30h0.937c0.75,0,1.112-1.16,1.36-1.732    c0.303-0.696,0.569-1.352,0.731-1.804C34.278,26.799,34.678,27,35.156,27c2.198,0,2.817-2.352,2.817-3.76    C37.974,22.96,35.625,23.379,35.819,25.673z M11.563,14.6c-0.921,0.619-1.797,0.93-2.621,1.588C9.192,14.41,12,13.817,12,12.719    c0-1.048-1.817-3.933-2.618-5.012c0.983-0.697,1.602-0.691,1.917-0.691s1.285,1.04,0.201,2.277c0.849,1.54,1.5,2.769,1.5,3.519    C13,13.313,12.708,13.831,11.563,14.6z"/>
	</g>
</g>
</svg>
