<?xml version="1.0" encoding="utf-8"?>
<!-- Generator: Adobe Illustrator 15.0.0, SVG Export Plug-In . SVG Version: 6.00 Build 0)  -->
<!DOCTYPE svg PUBLIC "-//W3C//DTD SVG 1.1//EN" "http://www.w3.org/Graphics/SVG/1.1/DTD/svg11.dtd">
<svg xmlns="http://www.w3.org/2000/svg" xmlns:xlink="http://www.w3.org/1999/xlink" version="1.1" id="Shape_5_2_" x="0px" y="0px" width="40px" height="40px" viewBox="0 0 40 40" enable-background="new 0 0 40 40" xml:space="preserve">
<g>
	<g>
		<path d="M35.819,25.673c-2.124,1.781-2.382-6.652-2.382-9.298C33.438,13.844,30,12,28,12c-2.044,0-4.784,0.656-7.458,0.656    c-0.443,0-3.172-0.091-3.603-0.25c-2.397-0.886-4.598-3.878-6.526-5.068c0.372-0.314,0.705-0.932-0.068-1.497    C9.731,5.394,8.859,6.294,8.339,6.954c-2.338,0.443-3.27,1.232-3.9,1.905c-0.456,0.489-1.694,0.776-2.368,1.463    c-0.274,0.279,0.036,1.536,0.762,2.069c0.185,1.026,0.483,1.641,1.248,1.641c0.703,0,1.88-0.524,1.88-0.524    s1.415,0.253,2.364,0.007c0.515,0.509,1.367,2.159,2.046,3.58c-0.456,1.287-0.622,2.798,0.443,3.654    c0.419,5.624,0.896,6.075-0.233,7.136c-0.336,0.315-1.116,0.244-1.423,0.695C8.782,29.131,8.875,30,9.603,30h1.709    c0.843,0,1.575-1.492,2.041-2.469c0.459-0.963,0.864-2.92,1.364-5.503c0.292,0.027,0.604,0.045,0.933,0.052    c1.086,2.435,1.98,4.666,2.542,5.566C18.675,28.419,20.313,30,21.313,30c0.563,0,1.19-0.746,1.066-1.349    c-0.096-0.468-0.711-0.738-1.75-1.221c-0.943-1.135-0.242-2.335-0.734-5.58c2.139-0.214,4.388-0.52,6.266-0.701    c-0.02,0.694,0.046,1.286,0.245,1.688c0.887,1.793,1.838,3.306,1.502,4.068c-0.169,0.385-0.683,1.343-1.102,1.441    C25.275,28.708,25.908,30,26.656,30H27.5c0.305,0,0.607-0.08,0.852-0.311c0.875-0.825,1.618-2.126,1.698-2.32    c0.378-0.906,0.022-2.078,0.427-3.311c0.533,0.714,0.979,1.438,1.157,2.155c0.151,0.611-0.625,2.136-0.866,2.209    C29.642,28.764,29.875,30,30.907,30h0.937c0.75,0,1.112-1.16,1.36-1.732c0.303-0.696,0.569-1.352,0.731-1.804    C34.278,26.799,34.678,27,35.156,27c2.198,0,2.817-2.352,2.817-3.76C37.974,22.96,35.625,23.379,35.819,25.673z"/>
	</g>
</g>
</svg>
