<?xml version="1.0" encoding="utf-8"?>
<!-- Generator: Adobe Illustrator 15.0.0, SVG Export Plug-In . SVG Version: 6.00 Build 0)  -->
<!DOCTYPE svg PUBLIC "-//W3C//DTD SVG 1.1//EN" "http://www.w3.org/Graphics/SVG/1.1/DTD/svg11.dtd">
<svg xmlns="http://www.w3.org/2000/svg" xmlns:xlink="http://www.w3.org/1999/xlink" version="1.1" id="Shape_5_2_" x="0px" y="0px" width="40px" height="40px" viewBox="0 0 40 40" enable-background="new 0 0 40 40" xml:space="preserve">
<g>
	<g>
		<path d="M29.875,13.938c-1.996,0-2.436,1.603-2.513,2.632c-0.583-0.208-1.164-0.352-1.695-0.445    c-0.482-0.084-0.761-0.152-0.919-0.133c-4.42-0.516-8.279,0.78-8.665,0.113c-0.373-0.646,1.636-7.031-2.089-9.441    c0.228-0.124,0.48-0.352,0.761-0.748C16.083,4.038,14.543,1.503,13.958,2c-0.257,0.218-0.375,2.875-1.292,4.042    C11.75,4.875,11.632,2.218,11.375,2C10.79,1.503,9.25,4.038,10.578,5.917c0,0-1.336-0.01-2.793,0.114    C5.333,6.238,4.007,6.792,4.007,8.188c0,0.781,0.375,1.055,0.835,1.255c0.483,0.21,1.904,0.026,1.904,0.026l2.109,1.102    c0,0-1.08,4.4-0.855,8.554c0.258,4.78,1.746,6.691,3.582,7.556c0.538,2.404,2.16,4.356,2.228,4.702    c0.284,1.461-0.048,3.736-0.271,4.131C13.251,36.022,11.879,37,13.652,37c0.712,0,0.503,0,0.997,0    c0.789,0,0.916-0.351,1.003-0.911c0.134-0.866,0.342-2.901,0.474-5.025c0.166-0.255,0.323-0.552,0.471-0.875    c0.667,0.621,1.185,1.05,1.213,1.194c0.284,1.461-0.048,3.736-0.271,4.131C17.251,36.022,15.879,37,17.652,37    c0.712,0,0.503,0,0.997,0c0.789,0,0.916-0.351,1.003-0.911c0.134-0.866,0.342-2.901,0.474-5.025    c0.382-0.588,0.714-1.395,0.991-2.284c0.707,1.348,1.825,2.583,3.598,3.462c0.046,0.4-0.214,2.009-0.712,3.259    C23.762,36.103,22.396,37,24,37h1.339c0.786,0,0.757-1.034,0.915-1.688c0.325-1.341,0.629-2.545,0.809-3.727    c0.017-0.11-0.004-0.271-0.037-0.451c0.488,0.406,1.037,0.784,1.688,1.106c0.046,0.4-0.214,2.009-0.712,3.259    C27.762,36.103,26.396,37,28,37h1.339c0.786,0,0.757-1.034,0.915-1.688c0.325-1.341,0.629-2.545,0.809-3.727    c0.095-0.625-0.778-2.502-0.726-4.043c0.1-2.913,1.778-5.083,0.851-7.461c-0.49-1.257-1.304-2.114-2.221-2.718    c1.061-0.887,2.287,0.827,3.033,1.574c0.875,0.875,1.401,0.418,1.75-0.5C34.444,16.607,32.813,13.938,29.875,13.938z"/>
	</g>
</g>
</svg>
