<?xml version="1.0" encoding="utf-8"?>
<!-- Generator: Adobe Illustrator 15.0.0, SVG Export Plug-In . SVG Version: 6.00 Build 0)  -->
<!DOCTYPE svg PUBLIC "-//W3C//DTD SVG 1.1//EN" "http://www.w3.org/Graphics/SVG/1.1/DTD/svg11.dtd">
<svg xmlns="http://www.w3.org/2000/svg" xmlns:xlink="http://www.w3.org/1999/xlink" version="1.1" id="Shape_5_2_" x="0px" y="0px" width="40px" height="40px" viewBox="0 0 40 40" enable-background="new 0 0 40 40" xml:space="preserve">
<g>
	<g>
		<path fill-rule="evenodd" clip-rule="evenodd" d="M24,31c3.305,2.48,5.917,2.536,7.725,0.725c1.788-1.794,1.8-4.41-0.699-7.725    c-0.73-0.97-2.569-2.779-3.422-3.604l2.4-0.4l5,1c-0.812-1.158-3-3-5.5-3c-0.619,0-1.962,0.392-3.268,0.828    c-0.337-0.417-0.658-0.81-0.971-1.185l2.738-1.643h6c-1-1-2.525-2-6-2c-0.945,0-2.616,1.166-3.956,2.238    c-0.69-0.752-1.322-1.348-1.914-1.743c-0.604-0.403-1.177-0.753-1.774-1.055C22.229,12.661,24.535,12,27,12    c5.696,0,9.611,2.788,10,7.042C37.087,19.996,38,20,38,19c0-5-4.4-9-11-9c-0.623,0-1.221,0.03-1.805,0.076    C25.674,9.582,26,8.897,26,8c0-2.833-6.086-6-9.429-6c-2.762,0-4.333,1.923-4.531,4.212C12.743,6.097,13.641,6,14.708,6    C17.708,6,20,8,20,8h-7.743c0.898,2.15,4.125,2.919,8.101,2.992c-1.325,0.405-2.472,0.882-3.398,1.344    C15.66,12.11,14.078,12,12,12c0,2.078,0.11,3.661,0.335,4.962c-0.462,0.926-0.938,2.072-1.343,3.396    C10.919,16.382,10.15,13.155,8,12.257V20c0,0-2-2.292-2-5.292c0-1.068,0.097-1.966,0.212-2.668C3.923,12.239,2,13.809,2,16.571    C2,19.914,5.167,26,8,26c0.897,0,1.582-0.326,2.076-0.805C10.03,25.779,10,26.377,10,27c0,6.6,4,11,9,11c1,0,0.996-0.913,0.042-1    C14.788,36.611,12,32.693,12,27c0-2.462,0.659-4.765,1.433-6.633c0.302,0.6,0.652,1.175,1.055,1.78    c0.419,0.631,1.004,1.265,1.721,1.934C15.145,25.415,14,27.063,14,28c0,3.475,1,5,2,6v-6l1.615-2.691    c0.378,0.315,0.774,0.639,1.195,0.978C18.381,27.574,18,28.889,18,29.5c0,2.5,1.842,4.688,3,5.5l-1-5l0.392-2.352    C21.223,28.484,23.031,30.272,24,31z M30.386,24.991C30.386,24.991,31,27,29,29s-4.009,1.386-4.009,1.386s1.259-0.136,3.259-2.136    S30.386,24.991,30.386,24.991z M25.114,25.11c2.396-2.396,2.385-3.666,2.385-3.666s0.86,1.886-1.652,4.398    c-2.511,2.513-4.401,1.657-4.401,1.657S22.719,27.507,25.114,25.11z M36,26c-0.884,0-1.714,0.151-2.479,0.379    c1.146,3.047-0.071,5.03-1.089,6.051l-0.005,0.006c-1.012,1.012-2.985,2.221-6.042,1.063C26.154,34.27,26,35.107,26,36    c0,1,0.847,2,2.002,2c1.168,0,2.385-0.38,3.529-0.972C31.271,36.375,31,35.449,31,34.406c0.393,0.785,0.938,1.502,1.457,2.09    c0.826-0.526,1.592-1.149,2.241-1.799c0.649-0.648,1.271-1.414,1.798-2.24c-0.588-0.52-1.305-1.064-2.09-1.457    c1.043,0,1.969,0.271,2.622,0.531C37.62,30.387,38,29.17,38,28.002C38,26.847,37,26,36,26z"/>
	</g>
</g>
</svg>
