<?xml version="1.0" encoding="utf-8"?>
<!-- Generator: Adobe Illustrator 15.0.0, SVG Export Plug-In . SVG Version: 6.00 Build 0)  -->
<!DOCTYPE svg PUBLIC "-//W3C//DTD SVG 1.1//EN" "http://www.w3.org/Graphics/SVG/1.1/DTD/svg11.dtd">
<svg xmlns="http://www.w3.org/2000/svg" xmlns:xlink="http://www.w3.org/1999/xlink" version="1.1" id="Shape_5_2_" x="0px" y="0px" width="40px" height="40px" viewBox="0 0 40 40" enable-background="new 0 0 40 40" xml:space="preserve">
<g>
	<g>
		<path d="M13.293,24.293c-0.526,0.525-0.282,1.368-0.001,1.815C14.665,28.291,16,31.071,16,34h2c0-3.021-1.626-6.754-2.893-8.692    l1.452-1.452C17.398,25.383,19.197,27.196,22,30c3,3,3.938,3.898,6.59,3.897c1.421-0.001,3.163-0.251,4.032-0.564L18.42,19.166    L13.293,24.293z M24.294,13.292l-2.736,2.736l-2.431,2.431l14.215,14.18c0.323-0.852,0.596-2.629,0.596-4.071    C33.938,25.898,33,25,30,22c-2.803-2.803-4.617-4.602-6.145-5.44l1.453-1.453C27.247,16.373,30.979,18,34.001,18v-2    c-2.929,0-5.709-1.335-7.892-2.708C25.662,13.011,24.819,12.766,24.294,13.292z M22,4c-2.357,0-4.557,0.298-6.489,0.705    C14.145,3.415,14,2.911,14,2h-2c0,1.278,0.291,2.143,1.261,3.254C12.63,5.43,12.034,5.611,11.502,5.79    C10.559,5.301,9.69,5,9.167,5C8,5,7,5.418,7,5.418L7.761,7L7,7.761L5.418,7C5.418,7,5,8,5,9.167c0,0.523,0.301,1.393,0.79,2.336    c-0.178,0.531-0.359,1.127-0.536,1.759C4.143,12.291,3.278,12,2,12v2c0.911,0,1.415,0.145,2.706,1.511    C4.299,17.443,4.001,19.643,4.001,22c0,8.412,3.999,16,13.383,16c4.187,0,8.254-1.01,8.34-1.053    c0.246-0.123,0.346-0.422,0.224-0.668s-0.421-0.344-0.67-0.227C25.26,36.063,21.965,37,18.042,37C10,37,5.501,31.063,5.501,22    c0-1.7,0.228-3.384,0.561-4.958c0.594,0.697,1.299,1.545,2.167,2.595C8.421,19.87,8.705,20,9,20c0.065,0,0.131-0.006,0.196-0.02    l2.129-0.426c0.125,0.149,0.257,0.298,0.404,0.445c0.146,0.146,0.296,0.28,0.449,0.407l-2.886,2.886    c-0.319,0.318-0.269,0.765-0.161,1.203C9.749,27,10,27.071,10,30h2c0-3.021-0.301-3.454-0.893-5.692l2.974-2.974    c0.234,0.036,0.474,0.052,0.725,0.033l6.561-6.562c0.019-0.25,0.003-0.49-0.033-0.724l2.975-2.975C26.546,11.698,26.979,12,30,12    v-2c-2.929,0-3-0.251-5.504-0.868c-0.438-0.108-0.885-0.158-1.203,0.161l-2.886,2.886C20.28,12.026,20.146,11.876,20,11.73    c-0.147-0.147-0.295-0.279-0.445-0.404l0.426-2.13C19.994,9.13,20,9.064,20,9c0-0.295-0.13-0.579-0.362-0.771    c-1.05-0.868-1.898-1.573-2.595-2.167C18.616,5.729,20.3,5.5,22,5.5c9.063,0,15,4.499,15.001,12.541    c0,3.922-0.938,7.217-0.947,7.236c-0.117,0.249-0.02,0.548,0.227,0.67s0.545,0.022,0.668-0.224    c0.043-0.086,1.053-4.153,1.053-8.34C38,8,30.412,4,22,4z M17.903,9.39l-0.219,1.094c-1.224-0.097-2.677,0.616-4.631,2.569    c-1.954,1.955-2.667,3.407-2.57,4.631L9.39,17.902c-1.119-1.354-1.993-2.401-2.732-3.223c0.123-0.419,0.248-0.829,0.376-1.216    c0.839,1.097,1.847,2.045,2.856,2.388c0.289-0.984,1.049-2.122,2.443-3.518c1.395-1.394,2.533-2.154,3.517-2.442    c-0.342-1.009-1.291-2.018-2.388-2.857c0.388-0.128,0.798-0.254,1.217-0.376C15.501,7.396,16.549,8.271,17.903,9.39z"/>
	</g>
</g>
</svg>
