<?xml version="1.0" encoding="utf-8"?>
<!-- Generator: Adobe Illustrator 15.0.0, SVG Export Plug-In . SVG Version: 6.00 Build 0)  -->
<!DOCTYPE svg PUBLIC "-//W3C//DTD SVG 1.1//EN" "http://www.w3.org/Graphics/SVG/1.1/DTD/svg11.dtd">
<svg xmlns="http://www.w3.org/2000/svg" xmlns:xlink="http://www.w3.org/1999/xlink" version="1.1" id="Shape_5_2_" x="0px" y="0px" width="40px" height="40px" viewBox="0 0 40 40" enable-background="new 0 0 40 40" xml:space="preserve">
<g id="554053990_Shape_5_2_">
	<g>
		<g>
			<g>
				<path fill-rule="evenodd" clip-rule="evenodd" d="M9.256,7.786C8.754,8.308,8.68,9.052,9.09,9.447      c0.411,0.395,1.151,0.291,1.653-0.232c0.502-0.522,0.577-1.266,0.167-1.661C10.499,7.16,9.759,7.263,9.256,7.786z       M32.084,30.112c1.431-0.245,2.014-0.214,1.942-0.735c-0.114-0.841-5.484-8.752-12.359-16.002      c-0.791-0.834-1.331-1.736-1.758-2.615c-0.664,1.564-2.05,2.679-3.342,3.531c-1.61,1.063-5.47,3.887-7.08,5.071      C9.87,22.226,10.325,25.321,14,28c-1.104,0-2,0.896-2,2c0,0.748,0.416,1.393,1.023,1.735C13.012,31.658,13,31.581,13,31.5      c0-0.828,0.672-1.5,1.5-1.5h3c0.828,0,1.5,0.672,1.5,1.5c0,0.081-0.012,0.158-0.023,0.235c0.576-0.325,0.967-0.925,1.008-1.623      c1.998,0.349,3.945,0.568,5.369,1.112c2.716,1.038,6.412,4.605,8.202,4.775c0.577,0.055,1.993,0.224,2.278-0.167      C36.183,35.354,34.252,32.981,32.084,30.112z M19.268,9.304c-0.334-0.814-0.628-1.553-1.007-2.121      C16.509,4.563,14.373,4,11.123,4c-2.75,0-4.484,1.498-4.598,2.375c0,0.002,0,0.004-0.001,0.007      c-1.111,0.3-2.445,1.435-2.445,3.366c0,1.85,1.359,3.061,1.359,3.061s0.195-1.278,1.231-1.939      c0.382,1.337,1.093,2.507,1.965,4.59c0.363,0.868,0.549,1.804,0.695,2.777c1.794-1.317,5.171-3.78,6.688-4.781      C18.064,12.105,19.083,10.811,19.268,9.304z M10.5,11C9.119,11,8,9.881,8,8.5S9.119,6,10.5,6S13,7.119,13,8.5S11.881,11,10.5,11      z"/>
			</g>
			<g>
				<path fill-rule="evenodd" clip-rule="evenodd" d="M9.256,7.786C8.754,8.308,8.68,9.052,9.09,9.447      c0.411,0.395,1.151,0.291,1.653-0.232c0.502-0.522,0.577-1.266,0.167-1.661C10.499,7.16,9.759,7.263,9.256,7.786z       M32.084,30.112c1.431-0.245,2.014-0.214,1.942-0.735c-0.114-0.841-5.484-8.752-12.359-16.002      c-0.791-0.834-1.331-1.736-1.758-2.615c-0.664,1.564-2.05,2.679-3.342,3.531c-1.61,1.063-5.47,3.887-7.08,5.071      C9.87,22.226,10.325,25.321,14,28c-1.104,0-2,0.896-2,2c0,0.748,0.416,1.393,1.023,1.735C13.012,31.658,13,31.581,13,31.5      c0-0.828,0.672-1.5,1.5-1.5h3c0.828,0,1.5,0.672,1.5,1.5c0,0.081-0.012,0.158-0.023,0.235c0.576-0.325,0.967-0.925,1.008-1.623      c1.998,0.349,3.945,0.568,5.369,1.112c2.716,1.038,6.412,4.605,8.202,4.775c0.577,0.055,1.993,0.224,2.278-0.167      C36.183,35.354,34.252,32.981,32.084,30.112z M19.268,9.304c-0.334-0.814-0.628-1.553-1.007-2.121      C16.509,4.563,14.373,4,11.123,4c-2.75,0-4.484,1.498-4.598,2.375c0,0.002,0,0.004-0.001,0.007      c-1.111,0.3-2.445,1.435-2.445,3.366c0,1.85,1.359,3.061,1.359,3.061s0.195-1.278,1.231-1.939      c0.382,1.337,1.093,2.507,1.965,4.59c0.363,0.868,0.549,1.804,0.695,2.777c1.794-1.317,5.171-3.78,6.688-4.781      C18.064,12.105,19.083,10.811,19.268,9.304z M10.5,11C9.119,11,8,9.881,8,8.5S9.119,6,10.5,6S13,7.119,13,8.5S11.881,11,10.5,11      z"/>
			</g>
			<g>
				<path fill-rule="evenodd" clip-rule="evenodd" d="M9.256,7.786C8.754,8.308,8.68,9.052,9.09,9.447      c0.411,0.395,1.151,0.291,1.653-0.232c0.502-0.522,0.577-1.266,0.167-1.661C10.499,7.16,9.759,7.263,9.256,7.786z       M32.084,30.112c1.431-0.245,2.014-0.214,1.942-0.735c-0.114-0.841-5.484-8.752-12.359-16.002      c-0.791-0.834-1.331-1.736-1.758-2.615c-0.664,1.564-2.05,2.679-3.342,3.531c-1.61,1.063-5.47,3.887-7.08,5.071      C9.87,22.226,10.325,25.321,14,28c-1.104,0-2,0.896-2,2c0,0.748,0.416,1.393,1.023,1.735C13.012,31.658,13,31.581,13,31.5      c0-0.828,0.672-1.5,1.5-1.5h3c0.828,0,1.5,0.672,1.5,1.5c0,0.081-0.012,0.158-0.023,0.235c0.576-0.325,0.967-0.925,1.008-1.623      c1.998,0.349,3.945,0.568,5.369,1.112c2.716,1.038,6.412,4.605,8.202,4.775c0.577,0.055,1.993,0.224,2.278-0.167      C36.183,35.354,34.252,32.981,32.084,30.112z M19.268,9.304c-0.334-0.814-0.628-1.553-1.007-2.121      C16.509,4.563,14.373,4,11.123,4c-2.75,0-4.484,1.498-4.598,2.375c0,0.002,0,0.004-0.001,0.007      c-1.111,0.3-2.445,1.435-2.445,3.366c0,1.85,1.359,3.061,1.359,3.061s0.195-1.278,1.231-1.939      c0.382,1.337,1.093,2.507,1.965,4.59c0.363,0.868,0.549,1.804,0.695,2.777c1.794-1.317,5.171-3.78,6.688-4.781      C18.064,12.105,19.083,10.811,19.268,9.304z M10.5,11C9.119,11,8,9.881,8,8.5S9.119,6,10.5,6S13,7.119,13,8.5S11.881,11,10.5,11      z"/>
			</g>
		</g>
	</g>
	<g>
		<g>
			<g>
				<path fill-rule="evenodd" clip-rule="evenodd" d="M9.256,7.786C8.754,8.308,8.68,9.052,9.09,9.447      c0.411,0.395,1.151,0.291,1.653-0.232c0.502-0.522,0.577-1.266,0.167-1.661C10.499,7.16,9.759,7.263,9.256,7.786z       M32.084,30.112c1.431-0.245,2.014-0.214,1.942-0.735c-0.114-0.841-5.484-8.752-12.359-16.002      c-0.791-0.834-1.331-1.736-1.758-2.615c-0.664,1.564-2.05,2.679-3.342,3.531c-1.61,1.063-5.47,3.887-7.08,5.071      C9.87,22.226,10.325,25.321,14,28c-1.104,0-2,0.896-2,2c0,0.748,0.416,1.393,1.023,1.735C13.012,31.658,13,31.581,13,31.5      c0-0.828,0.672-1.5,1.5-1.5h3c0.828,0,1.5,0.672,1.5,1.5c0,0.081-0.012,0.158-0.023,0.235c0.576-0.325,0.967-0.925,1.008-1.623      c1.998,0.349,3.945,0.568,5.369,1.112c2.716,1.038,6.412,4.605,8.202,4.775c0.577,0.055,1.993,0.224,2.278-0.167      C36.183,35.354,34.252,32.981,32.084,30.112z M19.268,9.304c-0.334-0.814-0.628-1.553-1.007-2.121      C16.509,4.563,14.373,4,11.123,4c-2.75,0-4.484,1.498-4.598,2.375c0,0.002,0,0.004-0.001,0.007      c-1.111,0.3-2.445,1.435-2.445,3.366c0,1.85,1.359,3.061,1.359,3.061s0.195-1.278,1.231-1.939      c0.382,1.337,1.093,2.507,1.965,4.59c0.363,0.868,0.549,1.804,0.695,2.777c1.794-1.317,5.171-3.78,6.688-4.781      C18.064,12.105,19.083,10.811,19.268,9.304z M10.5,11C9.119,11,8,9.881,8,8.5S9.119,6,10.5,6S13,7.119,13,8.5S11.881,11,10.5,11      z"/>
			</g>
		</g>
	</g>
</g>
</svg>
