<?xml version="1.0" encoding="utf-8"?>
<!-- Generator: Adobe Illustrator 15.0.0, SVG Export Plug-In . SVG Version: 6.00 Build 0)  -->
<!DOCTYPE svg PUBLIC "-//W3C//DTD SVG 1.1//EN" "http://www.w3.org/Graphics/SVG/1.1/DTD/svg11.dtd">
<svg xmlns="http://www.w3.org/2000/svg" xmlns:xlink="http://www.w3.org/1999/xlink" version="1.1" id="Shape_5_2_" x="0px" y="0px" width="40px" height="40px" viewBox="0 0 40 40" enable-background="new 0 0 40 40" xml:space="preserve">
<g>
	<g>
		<path d="M31,19c0,0,1.563-3.732,0.792-5.958c-0.279-0.807-1.603-1.3-4.558-1.078C24.943,8.902,21.567,6,17,6C9,6,7,12,7,12    s-4.039,3.125-4.43,7.147L5.422,22H2c0,3.917,3.808,6.996,6.178,7.5C8.091,30.719,8.086,32,9,32c1,0,2.615-0.506,2.615-0.506    S13,32,14,32s3-0.506,3-0.506S19,32,20,32s2.385-0.506,2.385-0.506S24,32,25,32s0.822-2.5,0.822-2.5    c0.188-0.092,0.383-0.227,0.581-0.379c3.543,0.411,5.084-0.284,5.389-1.163C32.563,25.732,31,23,31,23c6,4,7,4.568,7-2    C38,14.431,37,15,31,19z M7.5,19C6.671,19,6,18.328,6,17.5S6.671,16,7.5,16S9,16.672,9,17.5S8.329,19,7.5,19z M10,13    c0,0,0.366-1.366,1.232-1.866S13.464,11,13.464,11L10,13z M15,10c0,0,1-1,2-1s2,1,2,1H15z M20.536,11c0,0,1.366-0.366,2.232,0.134    S24,13,24,13L20.536,11z"/>
	</g>
</g>
</svg>
