<?xml version="1.0" encoding="utf-8"?>
<!-- Generator: Adobe Illustrator 15.0.0, SVG Export Plug-In . SVG Version: 6.00 Build 0)  -->
<!DOCTYPE svg PUBLIC "-//W3C//DTD SVG 1.1//EN" "http://www.w3.org/Graphics/SVG/1.1/DTD/svg11.dtd">
<svg xmlns="http://www.w3.org/2000/svg" xmlns:xlink="http://www.w3.org/1999/xlink" version="1.1" id="Shape_5_2_" x="0px" y="0px" width="40px" height="40px" viewBox="0 0 40 40" enable-background="new 0 0 40 40" xml:space="preserve">
<g id="554053992_Shape_5_2_">
	<g>
		<g>
			<g>
				<path fill-rule="evenodd" clip-rule="evenodd" d="M38,39.185c-0.126-0.481-2.463-3.642-5.156-10.386      c-0.544-1.359-1.17-3.099-1.748-4.764c-3.014-0.38-6.608-1.128-9.157-1.961c-4.002-1.309-6.756-3.091-8.065-5.17      C13.292,15.983,13.433,14.482,14,14c0,2.377,2.065,4.438,5.391,6c6.356-0.002,8.723-1.975,9.39-4.321      C27.825,14.706,26.851,13.744,26,13c-2.521-2.207-4.095-2.708-6.577-3C17.882,8.783,17.178,6.309,16,5      c-1.496-1.662-4.875-3-8.125-3C7.119,2,6.594,2.257,6.226,2.653C6.176,2.629,6.128,2.61,6.082,2.61      c-2.332,0-4.017,1.469-4.017,3.51c0,2.25,1.644,4.171,1.644,4.171L4,8l4.453-0.892c0,0-0.584-1.737-1.233-3.053      C7.86,3.444,8.623,3,9.486,3C11.486,3,14,4.438,14,7.438c0,2.525-2.109,4.027-3.945,4.441C10.016,11.522,9.819,10.286,8.833,8      L4.719,8.729c0,0,0.625,2.438,3.06,3.124c0.213,0.06,0.521,0.095,0.839,0.118c0.627,1.082,1.207,2.155,1.575,3.167      c1.264,3.466,3.065,5.6,5.076,6.907L15.091,24H13c-1.104,0-2,0.896-2,2c0,0.748,0.416,1.393,1.023,1.735      C12.012,27.658,12,27.581,12,27.5c0-0.828,0.672-1.5,1.5-1.5h3c0.828,0,1.5,0.672,1.5,1.5c0,0.081-0.012,0.158-0.023,0.235      C18.584,27.393,19,26.748,19,26c0-0.973-0.695-1.782-1.616-1.961l0.323-0.807C19.474,23.837,21.3,24,23,24      c0.657,0,1.323-0.004,1.99-0.011c0.001,0.004,0.003,0.007,0.004,0.011H23c-1.104,0-2,0.896-2,2c0,0.748,0.416,1.393,1.023,1.735      C22.012,27.658,22,27.581,22,27.5c0-0.828,0.672-1.5,1.5-1.5h2.23c0.746,2.035,1.451,3.914,2.37,5.823      c1.305,2.708,2.472,4.325,3.399,4.239c0.917-0.085,0.646-0.926,0.5-1.916c1.336,2.604,3.474,5.119,4.539,5.667      C37.369,40.24,38.186,39.893,38,39.185z M9.063,12c-0.03,0-0.06-0.007-0.09-0.01c0.054,0.002,0.108,0.005,0.161,0.006      C9.11,11.997,9.085,12,9.063,12z M21.647,20.916c0.199,0.07,0.396,0.141,0.602,0.208c5.85,1.912,13.813,2.596,13.813,1.965      c0-0.589-1.877-1.873-3.977-3.995c-0.663-0.67-1.54-1.595-2.477-2.564C28.659,19.24,25.977,20.589,21.647,20.916z"/>
			</g>
			<g>
				<path fill-rule="evenodd" clip-rule="evenodd" d="M38,39.185c-0.126-0.481-2.463-3.642-5.156-10.386      c-0.544-1.359-1.17-3.099-1.748-4.764c-3.014-0.38-6.608-1.128-9.157-1.961c-4.002-1.309-6.756-3.091-8.065-5.17      C13.292,15.983,13.433,14.482,14,14c0,2.377,2.065,4.438,5.391,6c6.356-0.002,8.723-1.975,9.39-4.321      C27.825,14.706,26.851,13.744,26,13c-2.521-2.207-4.095-2.708-6.577-3C17.882,8.783,17.178,6.309,16,5      c-1.496-1.662-4.875-3-8.125-3C7.119,2,6.594,2.257,6.226,2.653C6.176,2.629,6.128,2.61,6.082,2.61      c-2.332,0-4.017,1.469-4.017,3.51c0,2.25,1.644,4.171,1.644,4.171L4,8l4.453-0.892c0,0-0.584-1.737-1.233-3.053      C7.86,3.444,8.623,3,9.486,3C11.486,3,14,4.438,14,7.438c0,2.525-2.109,4.027-3.945,4.441C10.016,11.522,9.819,10.286,8.833,8      L4.719,8.729c0,0,0.625,2.438,3.06,3.124c0.213,0.06,0.521,0.095,0.839,0.118c0.627,1.082,1.207,2.155,1.575,3.167      c1.264,3.466,3.065,5.6,5.076,6.907L15.091,24H13c-1.104,0-2,0.896-2,2c0,0.748,0.416,1.393,1.023,1.735      C12.012,27.658,12,27.581,12,27.5c0-0.828,0.672-1.5,1.5-1.5h3c0.828,0,1.5,0.672,1.5,1.5c0,0.081-0.012,0.158-0.023,0.235      C18.584,27.393,19,26.748,19,26c0-0.973-0.695-1.782-1.616-1.961l0.323-0.807C19.474,23.837,21.3,24,23,24      c0.657,0,1.323-0.004,1.99-0.011c0.001,0.004,0.003,0.007,0.004,0.011H23c-1.104,0-2,0.896-2,2c0,0.748,0.416,1.393,1.023,1.735      C22.012,27.658,22,27.581,22,27.5c0-0.828,0.672-1.5,1.5-1.5h2.23c0.746,2.035,1.451,3.914,2.37,5.823      c1.305,2.708,2.472,4.325,3.399,4.239c0.917-0.085,0.646-0.926,0.5-1.916c1.336,2.604,3.474,5.119,4.539,5.667      C37.369,40.24,38.186,39.893,38,39.185z M9.063,12c-0.03,0-0.06-0.007-0.09-0.01c0.054,0.002,0.108,0.005,0.161,0.006      C9.11,11.997,9.085,12,9.063,12z M21.647,20.916c0.199,0.07,0.396,0.141,0.602,0.208c5.85,1.912,13.813,2.596,13.813,1.965      c0-0.589-1.877-1.873-3.977-3.995c-0.663-0.67-1.54-1.595-2.477-2.564C28.659,19.24,25.977,20.589,21.647,20.916z"/>
			</g>
			<g>
				<path fill-rule="evenodd" clip-rule="evenodd" d="M38,39.185c-0.126-0.481-2.463-3.642-5.156-10.386      c-0.544-1.359-1.17-3.099-1.748-4.764c-3.014-0.38-6.608-1.128-9.157-1.961c-4.002-1.309-6.756-3.091-8.065-5.17      C13.292,15.983,13.433,14.482,14,14c0,2.377,2.065,4.438,5.391,6c6.356-0.002,8.723-1.975,9.39-4.321      C27.825,14.706,26.851,13.744,26,13c-2.521-2.207-4.095-2.708-6.577-3C17.882,8.783,17.178,6.309,16,5      c-1.496-1.662-4.875-3-8.125-3C7.119,2,6.594,2.257,6.226,2.653C6.176,2.629,6.128,2.61,6.082,2.61      c-2.332,0-4.017,1.469-4.017,3.51c0,2.25,1.644,4.171,1.644,4.171L4,8l4.453-0.892c0,0-0.584-1.737-1.233-3.053      C7.86,3.444,8.623,3,9.486,3C11.486,3,14,4.438,14,7.438c0,2.525-2.109,4.027-3.945,4.441C10.016,11.522,9.819,10.286,8.833,8      L4.719,8.729c0,0,0.625,2.438,3.06,3.124c0.213,0.06,0.521,0.095,0.839,0.118c0.627,1.082,1.207,2.155,1.575,3.167      c1.264,3.466,3.065,5.6,5.076,6.907L15.091,24H13c-1.104,0-2,0.896-2,2c0,0.748,0.416,1.393,1.023,1.735      C12.012,27.658,12,27.581,12,27.5c0-0.828,0.672-1.5,1.5-1.5h3c0.828,0,1.5,0.672,1.5,1.5c0,0.081-0.012,0.158-0.023,0.235      C18.584,27.393,19,26.748,19,26c0-0.973-0.695-1.782-1.616-1.961l0.323-0.807C19.474,23.837,21.3,24,23,24      c0.657,0,1.323-0.004,1.99-0.011c0.001,0.004,0.003,0.007,0.004,0.011H23c-1.104,0-2,0.896-2,2c0,0.748,0.416,1.393,1.023,1.735      C22.012,27.658,22,27.581,22,27.5c0-0.828,0.672-1.5,1.5-1.5h2.23c0.746,2.035,1.451,3.914,2.37,5.823      c1.305,2.708,2.472,4.325,3.399,4.239c0.917-0.085,0.646-0.926,0.5-1.916c1.336,2.604,3.474,5.119,4.539,5.667      C37.369,40.24,38.186,39.893,38,39.185z M9.063,12c-0.03,0-0.06-0.007-0.09-0.01c0.054,0.002,0.108,0.005,0.161,0.006      C9.11,11.997,9.085,12,9.063,12z M21.647,20.916c0.199,0.07,0.396,0.141,0.602,0.208c5.85,1.912,13.813,2.596,13.813,1.965      c0-0.589-1.877-1.873-3.977-3.995c-0.663-0.67-1.54-1.595-2.477-2.564C28.659,19.24,25.977,20.589,21.647,20.916z"/>
			</g>
		</g>
	</g>
	<g>
		<g>
			<g>
				<path fill-rule="evenodd" clip-rule="evenodd" d="M38,39.185c-0.126-0.481-2.463-3.642-5.156-10.386      c-0.544-1.359-1.17-3.099-1.748-4.764c-3.014-0.38-6.608-1.128-9.157-1.961c-4.002-1.309-6.756-3.091-8.065-5.17      C13.292,15.983,13.433,14.482,14,14c0,2.377,2.065,4.438,5.391,6c6.356-0.002,8.723-1.975,9.39-4.321      C27.825,14.706,26.851,13.744,26,13c-2.521-2.207-4.095-2.708-6.577-3C17.882,8.783,17.178,6.309,16,5      c-1.496-1.662-4.875-3-8.125-3C7.119,2,6.594,2.257,6.226,2.653C6.176,2.629,6.128,2.61,6.082,2.61      c-2.332,0-4.017,1.469-4.017,3.51c0,2.25,1.644,4.171,1.644,4.171L4,8l4.453-0.892c0,0-0.584-1.737-1.233-3.053      C7.86,3.444,8.623,3,9.486,3C11.486,3,14,4.438,14,7.438c0,2.525-2.109,4.027-3.945,4.441C10.016,11.522,9.819,10.286,8.833,8      L4.719,8.729c0,0,0.625,2.438,3.06,3.124c0.213,0.06,0.521,0.095,0.839,0.118c0.627,1.082,1.207,2.155,1.575,3.167      c1.264,3.466,3.065,5.6,5.076,6.907L15.091,24H13c-1.104,0-2,0.896-2,2c0,0.748,0.416,1.393,1.023,1.735      C12.012,27.658,12,27.581,12,27.5c0-0.828,0.672-1.5,1.5-1.5h3c0.828,0,1.5,0.672,1.5,1.5c0,0.081-0.012,0.158-0.023,0.235      C18.584,27.393,19,26.748,19,26c0-0.973-0.695-1.782-1.616-1.961l0.323-0.807C19.474,23.837,21.3,24,23,24      c0.657,0,1.323-0.004,1.99-0.011c0.001,0.004,0.003,0.007,0.004,0.011H23c-1.104,0-2,0.896-2,2c0,0.748,0.416,1.393,1.023,1.735      C22.012,27.658,22,27.581,22,27.5c0-0.828,0.672-1.5,1.5-1.5h2.23c0.746,2.035,1.451,3.914,2.37,5.823      c1.305,2.708,2.472,4.325,3.399,4.239c0.917-0.085,0.646-0.926,0.5-1.916c1.336,2.604,3.474,5.119,4.539,5.667      C37.369,40.24,38.186,39.893,38,39.185z M9.063,12c-0.03,0-0.06-0.007-0.09-0.01c0.054,0.002,0.108,0.005,0.161,0.006      C9.11,11.997,9.085,12,9.063,12z M21.647,20.916c0.199,0.07,0.396,0.141,0.602,0.208c5.85,1.912,13.813,2.596,13.813,1.965      c0-0.589-1.877-1.873-3.977-3.995c-0.663-0.67-1.54-1.595-2.477-2.564C28.659,19.24,25.977,20.589,21.647,20.916z"/>
			</g>
		</g>
	</g>
</g>
</svg>
