<?xml version="1.0" encoding="utf-8"?>
<!-- Generator: Adobe Illustrator 15.0.0, SVG Export Plug-In . SVG Version: 6.00 Build 0)  -->
<!DOCTYPE svg PUBLIC "-//W3C//DTD SVG 1.1//EN" "http://www.w3.org/Graphics/SVG/1.1/DTD/svg11.dtd">
<svg xmlns="http://www.w3.org/2000/svg" xmlns:xlink="http://www.w3.org/1999/xlink" version="1.1" id="Shape_5_2_" x="0px" y="0px" width="40px" height="40px" viewBox="0 0 40 40" enable-background="new 0 0 40 40" xml:space="preserve">
<g>
	<g>
		<path d="M38,18.938c0-6.125-3.252-7.02-7.669-9.763C27.972,7.709,25.75,5,22.688,5C20.069,5,19.814,6,18,6c-1,0-1.71-2-3.672-2    c-1.623,0-3.92,0.465-4.841,1.793c-0.845,1.219-0.74,3.208-1.288,4.401c-1.771,3.858-3.145,7.718-3.19,13.456    c-2.634-1.346-1.646-6.177-2.509-5.56c-0.886,0.634-0.881,6.383,2.567,7.684c0.359,4.943,2.241,6.163,4.933,6.163c2,0,3-1.813,3-2    s-1.453-1-1.702-1s-0.298,1-1.298,1c-1,0-2-0.813-2-3c0-0.285,0.02-0.654,0.049-1.052c3.341-0.713,4.734-3.839,5.01-7.021    c0.29-0.057,0.568-0.112,0.807-0.173c1.282-0.325,1.294-0.643,1.294-0.643c0,2.369,0.261,3.842,0.651,4.753    c-0.612,2.491-1.436,5.689-1.436,6.761c0,1.219,0.328,1.184-0.047,2.121c-0.186,0.464-0.758,0.869-1.012,1.285    C13.062,33.384,12.951,34,13.609,34h3.498c1.656,0,0.549-1.041,0.719-2.531c0.203-1.784,1.129-3.891,2.141-5.754    c0.089,1.581,0.171,3.017,0.171,3.711c0,1.219,0.565,1.32,0.19,2.258c-0.186,0.464-0.758,0.869-1.012,1.285    C19.063,33.384,18.951,34,19.609,34h3.498c1.656,0,0.549-1.041,0.719-2.531c0.214-1.883,0.707-4.414,1.194-6.667    c0.853,0.202,1.711,0.278,2.553,0.146c0.334,0.833,0.809,1.899,1.427,2.989c0,1.43-0.334,2.877-0.482,3.402    c-0.116,0.411-0.805,1.387-1.006,1.805C27.33,33.521,27.471,34,27.906,34h3.031c0.73,0,0.963-0.257,1.088-0.89    c0.301-1.521,0.475-4.173,0.475-4.173l0.271-0.965c0.153,0.114,0.315,0.245,0.493,0.402c0.172,0.998,0.74,2.401,0.571,3.281    c-0.076,0.388-0.402,1.022-0.647,1.422C32.885,33.571,33.013,34,33.468,34h3.678c0.29,0,0.757-0.268,0.771-0.651    c0.08-2.266-0.821-5.668-0.875-6.63C36.979,25.594,38,21.938,38,18.938z M8.375,23.462c0.245-1.248,0.619-2.475,1.156-3.197    c0.21-0.283,0.525-0.501,0.894-0.678C10.168,21.036,9.598,22.647,8.375,23.462z M20.666,12.888    c-0.612,0.798-1.341,1.175-1.341,1.175s-1.869,1.986-2.757,1.986c-0.539,0-0.842-0.43-1.139-1.119    c-0.334-0.777-0.36-1.764-0.358-2.111c0.191,0.563,0.771,2.119,1.357,2.119c0.714,0,2.143-1.556,2.143-1.556S20,12.604,20,11.826    c0-0.777-2.143-3.889-3.571-3.889c-0.584,0-1.162,0.161-1.355,0.22V8.021c0,0,0.554-1.04,1.495-1.04    c1.056,0,1.922,0.835,2.86,1.924c1.182,1.37,1.565,2.276,1.565,2.896C20.994,12.36,20.848,12.649,20.666,12.888z"/>
	</g>
</g>
</svg>
