<?xml version="1.0" encoding="utf-8"?>
<!-- Generator: Adobe Illustrator 15.0.0, SVG Export Plug-In . SVG Version: 6.00 Build 0)  -->
<!DOCTYPE svg PUBLIC "-//W3C//DTD SVG 1.1//EN" "http://www.w3.org/Graphics/SVG/1.1/DTD/svg11.dtd">
<svg xmlns="http://www.w3.org/2000/svg" xmlns:xlink="http://www.w3.org/1999/xlink" version="1.1" id="Shape_5_2_" x="0px" y="0px" width="40px" height="40px" viewBox="0 0 40 40" enable-background="new 0 0 40 40" xml:space="preserve">
<g>
	<g>
		<path d="M20,5.938c-6.688,0-10.063,2.094-12.5,4.625c-2.909,0.894-4.583,3.121-4.889,5.43C2.325,18.157,2,20.751,2,21.667    c0,1.635,0.958,2.396,2.125,2.396c2.458,0,2.917-0.871,2.917-2.072s-0.896-1.782-0.896-1.782s1.528-0.097,1.807,1.795    c0.633-0.019,1.11-0.284,1.11-0.284s0.215,0.135,0.618,0.345c-0.619,3.849,1.66,6.085,3.316,6.085c1.248,0,1.146-0.98,0.254-2.305    c-0.59-0.876-1.044-1.831-1.311-2.779c2.444,0.93,6.38,1.998,11.563,1.998c1.998,0,6.008-0.33,6.008-0.33s1.152,0.643,1.229,1.889    c0.151,2.44-6.74,4.837-6.74,7.504c0,2.417,4.313,3.917,7.125,3.917c2.938,0,3.998-0.697,4.688-1.901    c1.277-2.229,2.215-8.198,2.215-12.703C38.027,14.583,33.063,5.938,20,5.938z"/>
	</g>
</g>
</svg>
