<?xml version="1.0" encoding="utf-8"?>
<!-- Generator: Adobe Illustrator 15.0.0, SVG Export Plug-In . SVG Version: 6.00 Build 0)  -->
<!DOCTYPE svg PUBLIC "-//W3C//DTD SVG 1.1//EN" "http://www.w3.org/Graphics/SVG/1.1/DTD/svg11.dtd">
<svg xmlns="http://www.w3.org/2000/svg" xmlns:xlink="http://www.w3.org/1999/xlink" version="1.1" id="Shape_5_2_" x="0px" y="0px" width="40px" height="40px" viewBox="0 0 40 40" enable-background="new 0 0 40 40" xml:space="preserve">
<g>
	<g>
		<path d="M29.558,26.597c-0.876-0.518-1.783-1.184-2.465-1.712C27.373,20.951,28.496,12.504,33,8c3-3,5-3,5-4s-2.416-2-5.291-2    C23.417,2,22.125,8,16,8c-1-2-2.792-4-4.5-4C10.622,4,10,4.366,10,5c0,1.208,2.31,1.352,3,4c0,0-0.578,1.422-1.578,2.422    S9,13,9,13c-2.648-0.69-2.792-3-4-3c-0.634,0-1,0.622-1,1.5C4,13.208,6,15,8,16c0,6.125-6,7.417-6,16.709C2,35.584,3,38,4,38    s1-2,4-5c4.903-4.903,14.477-5.799,17.814-5.963c0.747,0.415,1.63,0.892,2.495,1.322c4.054,2.014,6.69,3.234,8.938,9.187    c0.315,0.834,0.847,0.451,0.733-0.121C37.096,32.934,35.599,30.171,29.558,26.597z"/>
	</g>
</g>
</svg>
