<?xml version="1.0" encoding="utf-8"?>
<!-- Generator: Adobe Illustrator 15.0.0, SVG Export Plug-In . SVG Version: 6.00 Build 0)  -->
<!DOCTYPE svg PUBLIC "-//W3C//DTD SVG 1.1//EN" "http://www.w3.org/Graphics/SVG/1.1/DTD/svg11.dtd">
<svg xmlns="http://www.w3.org/2000/svg" xmlns:xlink="http://www.w3.org/1999/xlink" version="1.1" id="Shape_5_2_" x="0px" y="0px" width="40px" height="40px" viewBox="0 0 40 40" enable-background="new 0 0 40 40" xml:space="preserve">
<g>
	<g>
		<path d="M38,25.938c0,0-2.35-1.78-7.553-7.339C29.938,18.053,29.395,18,28.938,18c-0.331,0-3.787,0.6-6.384,1.059    c-0.48-0.246-0.939-0.458-1.373-0.634l1.501-3.954c2.523,0.618,6.818,2.475,9.424,1.201c0,0-3.105-1.089-8.938-2.984    c-0.772-0.251-1.24-0.152-1.582,0.19c-0.359,0.358-1.134,3.048-1.692,5.121c-0.015-0.003-0.026-0.003-0.041-0.006    c-1.221-2.221-3.953-5.314-5.376-6.839C16.376,11.598,18.403,12,19.517,12l0,0c0.126-0.003,0.232-0.04,0.312-0.113    c0.638-0.582-0.559-3.241-2.673-5.94c-0.683-0.872-1.374-1.625-2.023-2.248C17.565,4.271,18.944,5.201,20,5.969    c-0.343-1.181-1.255-2.216-2.125-2.74C16.143,2.185,14.5,2,12.5,2l0.002,0.004c-0.134,0-0.247,0.033-0.331,0.109    c-0.637,0.582,0.559,3.241,2.674,5.94c0.496,0.632,0.997,1.205,1.483,1.712c-1.375-0.183-2.91-0.443-4.194-0.676    c-0.479-0.323-1.008-0.628-1.532-0.842C11.425,7.224,12,6.207,12,5.515c0-2.583-6.408-1.221-7.056-0.572    C4.294,5.592,2.932,12,5.515,12c0.692,0,1.709-0.575,2.733-1.398c0.214,0.524,0.519,1.053,0.841,1.532    c0.233,1.284,0.494,2.819,0.677,4.195c-0.508-0.486-1.08-0.987-1.712-1.483c-2.699-2.115-5.358-3.312-5.94-2.674    c-0.076,0.083-0.108,0.197-0.109,0.331L2,12.5c0,2,0.185,3.643,1.229,5.375c0.524,0.87,1.559,1.782,2.74,2.125    c-0.768-1.056-1.698-2.435-2.269-4.868c0.623,0.65,1.376,1.34,2.248,2.023c2.699,2.114,5.358,3.312,5.94,2.673    c0.073-0.08,0.109-0.185,0.113-0.312l0,0c0-1.115-0.402-3.142-0.846-5.041c1.52,1.418,4.598,4.138,6.817,5.366    c0.004,0.02,0.005,0.037,0.009,0.058c-2.07,0.557-4.744,1.329-5.102,1.687c-0.343,0.342-0.441,0.81-0.19,1.582    c1.895,5.832,2.984,8.938,2.984,8.938c1.274-2.605-0.583-6.9-1.201-9.424l3.933-1.493c0.18,0.44,0.397,0.909,0.648,1.398    C18.595,25.18,18,28.607,18,28.938c0,0.457,0.053,1,0.598,1.51C24.157,35.65,25.938,38,25.938,38c0.464-2.438-2.188-5.416-5.938-9    l0.423-4.021c1.957,3.132,4.54,6.403,5.88,7.74C28.552,34.965,34.637,37.363,36,36s-1.037-7.433-3.285-9.678    c-1.376-1.373-4.644-3.949-7.766-5.896L29,20C32.584,23.75,35.563,26.401,38,25.938z"/>
	</g>
</g>
</svg>
