<?xml version="1.0" encoding="utf-8"?>
<!-- Generator: Adobe Illustrator 15.0.0, SVG Export Plug-In . SVG Version: 6.00 Build 0)  -->
<!DOCTYPE svg PUBLIC "-//W3C//DTD SVG 1.1//EN" "http://www.w3.org/Graphics/SVG/1.1/DTD/svg11.dtd">
<svg xmlns="http://www.w3.org/2000/svg" xmlns:xlink="http://www.w3.org/1999/xlink" version="1.1" id="Shape_5_2_" x="0px" y="0px" width="40px" height="40px" viewBox="0 0 40 40" enable-background="new 0 0 40 40" xml:space="preserve">
<g>
	<g>
		<path d="M33.622,37.426C31.15,36.467,22,34.438,22,17c0-5.841,0.607-7.14,0.875-9.844c2.167-1.032,1.448-2.536,0.036-3.074    C22.496,2.857,20.623,2,18.876,2c-0.816,0-2.025,0.102-2.791,0.469c-0.464,0.222-0.411,1.015-0.929,1.25    c-0.429,0.195-1.927,0.138-2.75,0.352c-0.645,0.168-0.574,1.61,0.29,2.023c0.943,0.451,2.87,1.135,4.429,1.594    c0.391,0.162-0.375,2.678-0.375,2.678S14,12.585,14,19.161c0,2.265,0.322,4.094,0.885,5.45C14.377,25.595,14,26.775,14,27.875    c0,3.316,4.333,5.373,4.333,6.878c0,0.42-0.548,1.461-0.966,1.722c-0.466,0.291-1.334,0.546-1.334,1.525c0,0,1.534,0,2.315,0    c0.305,0,0.709-0.185,1.019-0.77c0.932-1.762,1.322-2.729,1.322-3.086c0-0.816-0.689-1.278-0.689-2.395    c0-0.584,0.704-1.438,1.389-2.295c2.926,5.594,8.181,8.334,11.783,8.553C34.18,38.069,34.126,37.621,33.622,37.426z"/>
	</g>
</g>
<path d="M18.333,9.125c0,0-3.794,1.533-3.919,3.038s0.335,3.087,0.335,3.087c-0.735,3.092-2.773,3.5-2.773,4.656  s0.242,4.125,0.242,4.125S14,24.097,14,20.125s5.781-6,5.781-6L18.333,9.125z"/>
</svg>
