<?xml version="1.0" encoding="utf-8"?>
<!-- Generator: Adobe Illustrator 15.0.0, SVG Export Plug-In . SVG Version: 6.00 Build 0)  -->
<!DOCTYPE svg PUBLIC "-//W3C//DTD SVG 1.1//EN" "http://www.w3.org/Graphics/SVG/1.1/DTD/svg11.dtd">
<svg xmlns="http://www.w3.org/2000/svg" xmlns:xlink="http://www.w3.org/1999/xlink" version="1.1" id="Shape_5_2_" x="0px" y="0px" width="40px" height="40px" viewBox="0 0 40 40" enable-background="new 0 0 40 40" xml:space="preserve">
<g>
	<g>
		<path d="M16,6C10.533,6,6.479,7.23,4.708,7.885c-2.076,0.768-2.645,1.886-2.645,3.657c0,1.5,0.964,2.458,1.563,2.458    c0.21,0,1.085-0.249,2.373-0.569V14c0,1.177,1,2,1,2s1-0.823,1-2v-1.035c0.624-0.135,1.295-0.267,2-0.39V13c0,1.177,1,2,1,2    s1-0.823,1-2v-0.728c0.654-0.083,1.322-0.151,2-0.198v0.592c0,1.177,1,2,1,2s1-0.823,1-2V12c0.692,0,1.353,0.034,2,0.085V13    c0,1.177,1,2,1,2s1-0.823,1-2v-0.667c0.801,0.138,1.559,0.317,2.271,0.541l-0.265,0.718c-0.407,1.104,0.245,2.223,0.245,2.223    s1.224-0.426,1.631-1.53l0.255-0.691c0.651,0.309,1.246,0.667,1.795,1.061L25.586,15c-0.832,0.832-0.707,2.121-0.707,2.121    s1.289,0.125,2.121-0.707l0.438-0.438c0.481,0.52,0.898,1.085,1.247,1.697l-0.846,0.316c-1.102,0.413-1.522,1.637-1.522,1.637    s1.121,0.648,2.224,0.236l0.952-0.356c0.257,0.814,0.409,1.691,0.469,2.619l-0.708-0.104c-1.165-0.17-2.124,0.7-2.124,0.7    s0.671,1.108,1.834,1.278l0.954,0.14c-0.141,1.099-0.476,2.064-0.993,2.876l-0.664-0.528c-0.923-0.731-2.188-0.461-2.188-0.461    s0.023,1.296,0.943,2.026l0.558,0.442c-0.655,0.507-1.437,0.889-2.328,1.142l-0.162-0.71c-0.264-1.147-1.421-1.727-1.421-1.727    s-0.79,1.027-0.528,2.172l0.137,0.6C23.02,29.989,22.765,30,22.502,30c-0.472,0-0.909-0.042-1.327-0.106l0.32-0.657    c0.513-1.059-0.025-2.235-0.025-2.235s-1.26,0.305-1.773,1.36l-0.461,0.947c-0.919-0.438-1.634-1.045-2.154-1.725l0.633-0.341    C18.75,26.684,19,25.414,19,25.414s-1.201-0.488-2.233,0.068l-0.59,0.318C16.062,25.396,16,24.997,16,24.624    c0-0.531,0.084-1.102,0.326-1.578c0.715,0.872,1.936,0.937,1.936,0.937s0.25-1.062-0.253-1.964C18.071,22.015,18.123,22,18.189,22    c0.493,0,1.442,0.146,2.277,1.765c0.76,1.471,1.432,2.157,2.201,2.157c3.208,0,3.544-2.975,2.962-4.468    C24.271,17.978,21.587,16,18.189,16C13.444,16,10,19.627,10,24.624C10,30.216,14.676,36,22.502,36C30.449,36,36,30.629,36,22.938    C36,15.124,30.762,6,16,6z"/>
	</g>
</g>
</svg>
