<?xml version="1.0" encoding="utf-8"?>
<!-- Generator: Adobe Illustrator 15.0.0, SVG Export Plug-In . SVG Version: 6.00 Build 0)  -->
<!DOCTYPE svg PUBLIC "-//W3C//DTD SVG 1.1//EN" "http://www.w3.org/Graphics/SVG/1.1/DTD/svg11.dtd">
<svg xmlns="http://www.w3.org/2000/svg" xmlns:xlink="http://www.w3.org/1999/xlink" version="1.1" id="Shape_5_2_" x="0px" y="0px" width="40px" height="40px" viewBox="0 0 40 40" enable-background="new 0 0 40 40" xml:space="preserve">
<g>
	<g>
		<path d="M33.523,16.631c-1.097-0.408-3.183-0.562-4.086-0.611c-0.42-0.441-0.881-0.858-1.409-1.228    c-0.061-0.042-0.119-0.081-0.179-0.122C29.197,14.283,30.411,14,31,14c3.656,0,7,2,7,2c-1.438-2.983-5.25-4-7-4    c-0.841,0-2.603,0.351-5.348,1.361c-0.528-0.258-1.063-0.473-1.629-0.648c-0.025-3.314-0.793-5.637-1.359-6.534    C21.773,4.77,19.35,2.535,16,2c0,0,3.316,2.369,4.826,4.88c0.751,1.248,1.097,3.3,1.167,5.38c-0.583-0.086-1.21-0.15-1.903-0.192    c-0.554-1.972-1.603-4.053-2.399-4.958C16.463,5.715,13.393,4,10,4c0,0,3.898,1.672,5.785,3.913    c0.82,0.974,1.626,2.779,2.031,4.089c-0.114,0-0.221-0.002-0.338-0.002C15.708,12,12,10,12,10l1.345,3.345L10,12    c0,0,2,3.708,2,5.479c0,0.117,0.002,0.224,0.002,0.338c-1.31-0.405-3.116-1.211-4.089-2.031C5.672,13.898,4,10,4,10    c0,3.393,1.715,6.463,3.11,7.691c0.905,0.796,2.986,1.845,4.958,2.399c0.042,0.693,0.105,1.32,0.192,1.903    c-2.08-0.07-4.132-0.416-5.38-1.167C4.369,19.316,2,16,2,16c0.535,3.35,2.77,5.773,4.179,6.664    c0.897,0.566,3.219,1.334,6.534,1.359c0.176,0.565,0.391,1.101,0.648,1.629C12.351,28.397,12,30.159,12,31c0,1.75,1.017,5.563,4,7    c0,0-2-3.344-2-7c0-0.589,0.283-1.803,0.671-3.15c0.041,0.06,0.079,0.118,0.122,0.179c0.37,0.528,0.787,0.989,1.228,1.409    c0.049,0.903,0.203,2.989,0.611,4.086C17.369,35.511,20.151,38,24,38c0,0-4.643-2.313-5.42-5.008    c-0.221-0.767-0.364-1.498-0.453-2.046c3.653,1.881,8.306,1.179,11.151-1.668c2.847-2.846,3.549-7.498,1.668-11.151    c0.548,0.089,1.279,0.232,2.046,0.453C35.688,19.357,38,24,38,24C38,20.151,35.511,17.369,33.523,16.631z"/>
	</g>
</g>
</svg>
