<?xml version="1.0" encoding="utf-8"?>
<!-- Generator: Adobe Illustrator 15.0.0, SVG Export Plug-In . SVG Version: 6.00 Build 0)  -->
<!DOCTYPE svg PUBLIC "-//W3C//DTD SVG 1.1//EN" "http://www.w3.org/Graphics/SVG/1.1/DTD/svg11.dtd">
<svg xmlns="http://www.w3.org/2000/svg" xmlns:xlink="http://www.w3.org/1999/xlink" version="1.1" id="Shape_5_2_" x="0px" y="0px" width="40px" height="40px" viewBox="0 0 40 40" enable-background="new 0 0 40 40" xml:space="preserve">
<g>
	<g>
		<path d="M33.188,26.904C35.559,27.43,38,22.015,38,21.231c0-0.706-4.293,0.79-5.152,1.097c-0.626-3.473-3.324-7.021-6.809-9.345    c0.61-0.711,0.961-1.699,0.961-2.76C27,6.789,25.188,5.897,23.5,2c0,0-1,0.982-1,3.042c0,0-1.018-1.014-2-3.042    c0,0-1.281,1.014-1.281,3.042c0,0-1.031-1.141-1.719-3.042c0,0-1.718,2.141-1.103,5.723c0.167,0.974,0.506,1.866,0.973,2.657    C12.425,10.538,10.313,8,9.551,8C8.775,8,8,8.775,8,9.551c0,0.762,2.538,2.874,2.38,7.82c-0.791-0.467-1.683-0.806-2.657-0.973    C4.141,15.782,2,17.5,2,17.5c1.901,0.688,3.042,1.719,3.042,1.719C3.014,19.219,2,20.5,2,20.5c2.028,0.982,3.042,2,3.042,2    c-2.06,0-3.042,1-3.042,1c3.897,1.688,4.789,3.5,8.223,3.5c1.061,0,2.049-0.351,2.76-0.961c2.323,3.484,5.872,6.183,9.345,6.809    C22.021,33.707,20.525,38,21.231,38c0.783,0,6.198-2.441,5.673-4.812c-0.029-0.131-0.072-0.245-0.122-0.351    c1.554-0.183,2.367-0.452,2.916-0.452c0.938,0,4.367,3.258,5.156,2.469s-2.469-4.219-2.469-5.156c0-0.549,0.27-1.362,0.452-2.916    C32.943,26.832,33.058,26.875,33.188,26.904z"/>
	</g>
</g>
</svg>
