<?xml version="1.0" encoding="utf-8"?>
<!-- Generator: Adobe Illustrator 15.0.0, SVG Export Plug-In . SVG Version: 6.00 Build 0)  -->
<!DOCTYPE svg PUBLIC "-//W3C//DTD SVG 1.1//EN" "http://www.w3.org/Graphics/SVG/1.1/DTD/svg11.dtd">
<svg xmlns="http://www.w3.org/2000/svg" xmlns:xlink="http://www.w3.org/1999/xlink" version="1.1" id="Shape_5_2_" x="0px" y="0px" width="40px" height="40px" viewBox="0 0 40 40" enable-background="new 0 0 40 40" xml:space="preserve">
<g>
	<g>
		<path d="M37.922,32.179c-0.688-1.154-5.314-3.729-5.487-4.096C31.696,26.513,32,23.281,32,21c0-0.607-0.126-1.213-0.39-1.782    c1.91-1.371,4.39-4.106,4.39-8.207C36,7.129,32.851,4,29,4c-5.938,0-6.313,2-13,2c-2.599,0-2.916-0.666-3.784-1.51    c-1.357-1.319-3.008,0.294-1.791,1.657C11.065,6.865,13.188,8,16,8c7.313,0,7.188-2,13-2c2.494,0,5,2.923,5,5    c0,2.697-1.464,5.188-3.634,6.653c-1.197-0.972-3.104-1.625-5.907-1.625c-4.833,0-8.273,1.785-9.595,1.973    c-1.621,0.229-1.883-3-3.864-3c-2.006,0-4.755,1.361-5.875,2.563c0,1.223-0.069,1.828-0.354,2.377C4.386,20.681,4,21.518,4,22.064    c0,2,2.438,2.344,5.992,1.518c0.181,0,0.468,0.089,0.807,0.22c-0.317,1.73-0.703,3.713-1.354,6.073    c-0.143,0.517-2.17,4.935-2.615,5.059C4.955,35.456,5.598,36,6.247,36h1.94c0.843,0,3.246-4.543,3.688-5.416    c0.612-1.209,1.979-3.368,3.054-5.02c1.056,1.802,2.364,3.539,2.533,4.023c0.353,1.013,0.813,5.222,0.368,5.346    C15.955,35.456,16.598,36,17.247,36h1.94C20.031,36,20,29.813,20,28.834c0-0.646-0.458-2.396-0.968-4.145    c1.127-0.308,2.36-0.634,3.678-0.818c-0.934,1.012-1.678,2.104-1.678,3.02c0,1.479,0.937,5.953,0.937,7.317    c0,0.42-1.33,0.775-1.696,0.977C19.75,35.472,20.034,36,20.655,36H22.5c1.219,0,0.942-0.053,1.344-0.563    c0.614-0.781-0.138-6.438,0.656-7.708c0.256-0.409,1.733-1.317,3.311-2.399c0.305,1.808,0.642,3.438,0.91,3.774    c1.281,1.602,6.146,3.116,6.941,4.469c0.213,0.363-0.014,1.541-0.028,1.958c-0.02,0.596,0.579,0.622,0.897,0.088    c0.119-0.2,0.75-1.264,0.942-1.586C38.191,32.825,38.254,32.736,37.922,32.179z"/>
	</g>
</g>
</svg>
