<?xml version="1.0" encoding="utf-8"?>
<!-- Generator: Adobe Illustrator 15.0.0, SVG Export Plug-In . SVG Version: 6.00 Build 0)  -->
<!DOCTYPE svg PUBLIC "-//W3C//DTD SVG 1.1//EN" "http://www.w3.org/Graphics/SVG/1.1/DTD/svg11.dtd">
<svg xmlns="http://www.w3.org/2000/svg" xmlns:xlink="http://www.w3.org/1999/xlink" version="1.1" id="Shape_5_2_" x="0px" y="0px" width="40px" height="40px" viewBox="0 0 40 40" enable-background="new 0 0 40 40" xml:space="preserve">
<g>
	<g>
		<path d="M36.583,26.744C36.22,26,36,24.042,36,20.237C36,18.534,33.784,16,31.938,16h-5.985c-1.733-1.5-3.068-2.042-4.994-2.042    c-1.715,0-3.705,0.43-6.244-1.226c0.482-0.295,0.959-0.776,1.302-1.241c1.058-0.375,2.013-0.82,2.723-1.336    c2.166-1.572,2.767-3.126,3.148-4.551C22.166,4.566,21.977,4,21.399,4c-0.795,0-1.128,2-1.899,2c-0.765,0-0.083-2-1.167-2    c-1.167,0-0.733,2-1.816,2c-0.822,0,0-2-0.996-2c-1.304,0-0.917,3-2.083,3c-0.844,0,0.145-2-0.938-2    c-0.765,0-0.956,0.891-1.666,3.188C10.475,9.351,10,9.989,9.16,9.989c-0.519,0-0.855-0.232-0.965-0.751    C7.781,7.281,8.297,6.016,7.422,6.016C6.563,6.016,6,7.563,6,9.221c0,0.633,0.145,1.245,0.484,1.722    c-1.304-0.123-2.288-0.483-2.44-1.459C3.791,7.859,4.25,6,3.482,6C2.498,6,2,8.375,2,9.542c0,2.567,1.553,3.324,4.131,3.432    c-1.408,1.203-2.752,2.633-3.065,3.016C2,17.292,2,18.6,2,19.325c0,0.858,0.741,2.826,2.365,2.826    c1.875,0,1.661-1.863,2.167-2.183c0.852-0.538,1.153-0.781,1.153-0.781c0,2.459,0.768,4.854,1.912,4.854    c1.5,0,2.29-3.813,2.29-3.813L14,22c0,1.604,0.568,2.687,1.451,3.433c-0.596,0.626-1.451,1.573-1.701,2.1    c-0.362,0.764-1.438,4.592-1.542,5.586c-0.089,0.842-0.249,3.924-0.249,3.924l2.708-1.766c-0.196-1.018-0.359-2.184-0.333-2.526    c0.081-1.066,1.247-3.994,1.247-3.994c1.408-0.445,2.537-0.854,3.461-1.227c0.439,0.784,0.823,1.535,0.88,1.867    C20.064,30.229,20.375,33,20.375,34c0,0.688-1.156,4-1.156,4h2.596c0.246-0.735,0.357-3.362,0.394-3.832    c0.079-1.034-0.287-6.805-0.31-7.155C22.835,27.022,23.731,27,24.5,27c0.932,0,1.852-0.096,2.746-0.254    c0.164,0.255,0.344,0.474,0.546,0.629c2,1.54,2.58,1.987,2.625,2.209c0.042,0.208-1.932,2.283-2.521,3.254    C27.604,33.318,27,37,27,37l2.866-1.253c0,0,0.134-1.874,0.134-2.413c0-0.64,3.301-3.212,3.301-4.153    c0-0.628-0.529-1.001-0.892-1.587C34.282,29.032,35.84,30.215,36,31c0.157,0.772,0.177,2.029,0.177,3c0,0.563-1.177,4-1.177,4    h2.781c0,0,0.219-0.9,0.219-1.938v-6.479C38,28.584,37.342,28.298,36.583,26.744z"/>
	</g>
</g>
</svg>
