<?xml version="1.0" encoding="utf-8"?>
<!-- Generator: Adobe Illustrator 15.0.0, SVG Export Plug-In . SVG Version: 6.00 Build 0)  -->
<!DOCTYPE svg PUBLIC "-//W3C//DTD SVG 1.1//EN" "http://www.w3.org/Graphics/SVG/1.1/DTD/svg11.dtd">
<svg xmlns="http://www.w3.org/2000/svg" xmlns:xlink="http://www.w3.org/1999/xlink" version="1.1" id="Shape_5_2_" x="0px" y="0px" width="40px" height="40px" viewBox="0 0 40 40" enable-background="new 0 0 40 40" xml:space="preserve">
<g>
	<g>
		<path d="M27.66,21.38c0.299,0.391,0.827,0.572,1.087,0.592C35,22.438,38,20.712,38,20.063c-2.188,0.292-7.63,0.423-8.74,0    c-0.308-0.117-1.521-2.831-1.729-3.318C27.239,16.057,26.666,16,26.209,16H23.16c2.675-1.037,6.108-2.666,7.442-4    C32.516,10.087,34,6.128,34,4c0-1.446-0.845-1.959-1.568-1.959c-0.475,0-0.975,0.211-1.53,0.644    c-2.613,2.04-8.478,7.857-11.213,10.658c-0.102-0.037-0.193-0.093-0.298-0.123c0.81-1.124,2.609-3.692,2.609-4.342    c0-0.484-0.335-0.765-0.984-1.253C17.208,4.763,15.999,2,15.999,2c0,1.966,0.245,4,4.099,7.229l-1.911,3.79    C18.124,13.017,18.064,13,18,13c-0.048,0-0.094,0.01-0.142,0.012C17.553,11.854,16.731,11,15.299,11    c-0.417,0-0.86,0.135-1.299,0.347V3c0,0-2,0.731-2,3.603c0,2.417,0.66,4.147,1.222,5.201c0,0-0.001,0-0.001,0.001    C9.816,8.458,5.856,4.928,4,4c0.928,1.856,4.458,5.816,7.805,9.221c0,0,0,0.001,0,0.001C10.75,12.66,9.02,12,6.603,12    C3.731,12,3,14,3,14h8.347C11.135,14.439,11,14.883,11,15.299c0,1.432,0.854,2.253,2.012,2.559C13.01,17.906,13,17.952,13,18    c0,0.064,0.017,0.124,0.019,0.187l-3.79,1.911C6,16.244,3.966,15.999,2,15.999c0,0,2.763,1.209,5.625,5.016    c0.489,0.649,0.769,0.984,1.253,0.984c0.65,0,3.219-1.799,4.342-2.609c0.031,0.105,0.079,0.203,0.116,0.305    c-2.803,2.739-8.613,8.595-10.651,11.207c-0.433,0.556-0.644,1.056-0.644,1.53C2.041,33.155,2.554,34,4,34    c2.128,0,6.087-1.484,8-3.397c1.338-1.339,2.964-4.776,4-7.454v3.061c0,0.457,0.057,1.03,0.744,1.322    c0.488,0.207,3.201,1.421,3.318,1.729c0.423,1.11,0.292,6.553,0,8.74c0.649,0,2.375-3,1.909-9.253    c-0.02-0.26-0.201-0.788-0.592-1.087c-0.23-0.176-1.905-0.973-3.38-1.66l-0.273-3.027C17.819,22.979,17.906,23,18,23    c0.759,0,1.472-0.183,2.116-0.485c3.444,3.99,6.858,7.745,7.405,8.291c1.385,1.383,2.904,1.548,3.875,0.58    c0.969-0.97,0.767-2.523-0.58-3.867c-0.547-0.547-4.306-3.962-8.299-7.407C22.819,19.468,23,18.757,23,18    c0-0.129-0.028-0.25-0.038-0.377L26,18C26.688,19.475,27.484,21.149,27.66,21.38z M16,19.976c-0.417,1.979-2.963,8.176-4.707,9.92    C9.516,31.673,5.782,33,4,33c-0.748,0-1.432-0.322-0.526-1.483c2.256-2.892,9.41-10.031,11.589-12.1    c0.383-0.363,0.811-0.413,0.937-0.039V19.976z M19.976,16c-0.975,0.205-1.057-0.412-0.559-0.937    c2.068-2.179,9.208-9.333,12.1-11.589C32.678,2.568,33,3.252,33,4c0,1.782-1.327,5.516-3.104,7.293    C28.151,13.037,21.955,15.583,19.976,16z"/>
	</g>
</g>
</svg>
