<?xml version="1.0" encoding="utf-8"?>
<!-- Generator: Adobe Illustrator 15.0.0, SVG Export Plug-In . SVG Version: 6.00 Build 0)  -->
<!DOCTYPE svg PUBLIC "-//W3C//DTD SVG 1.1//EN" "http://www.w3.org/Graphics/SVG/1.1/DTD/svg11.dtd">
<svg xmlns="http://www.w3.org/2000/svg" xmlns:xlink="http://www.w3.org/1999/xlink" version="1.1" id="Shape_5_2_" x="0px" y="0px" width="40px" height="40px" viewBox="0 0 40 40" enable-background="new 0 0 40 40" xml:space="preserve">
<g>
	<g>
		<path d="M30.402,27.377c3.294-7.236,0.986-13.303-3.392-15.34c-2.56-1.191-5.949-0.831-9.024-1.899    c-1.596-0.555-2.978-1.152-4.274-1.503c0.689-1.614,0.055-3.525-1.368-4.179c-3.393-1.56-4.78,0.795-3.934,5.162    c-1.255,1.215-2.157,3.18-2.79,5.027c-0.74,2.159-1.662,4.038-1.662,4.421C3.959,19.631,4.682,20,6.126,20    c1.665,0,3.424-0.438,3.957-0.438c0.395,0,1.083,0.438,2.034,1.551c-0.496-0.003-1.096,0.009-1.743,0.053    C7.917,21.334,8.598,24,8.598,24s1.765-0.915,4.917-1.021c0.016,0.024,0.031,0.044,0.047,0.068C15.184,25.481,16,27,17.469,28.5    c-1.531,0-2.489,1.5-2.489,1.5H29c4.042,0,6.708,1.219,6.708,2c0,1-1.254,2.102-6.146,2.521    c-4.392,0.376-10.264,0.687-11.008,0.734c-0.745,0.046-0.736,0.754,0.008,0.745C19.309,35.989,24,36,29,36s9-1.063,9-4    C38,29.863,35.824,27.696,30.402,27.377z"/>
	</g>
</g>
</svg>
