<?xml version="1.0" encoding="utf-8"?>
<!-- Generator: Adobe Illustrator 15.0.0, SVG Export Plug-In . SVG Version: 6.00 Build 0)  -->
<!DOCTYPE svg PUBLIC "-//W3C//DTD SVG 1.1//EN" "http://www.w3.org/Graphics/SVG/1.1/DTD/svg11.dtd">
<svg xmlns="http://www.w3.org/2000/svg" xmlns:xlink="http://www.w3.org/1999/xlink" version="1.1" id="Shape_5_2_" x="0px" y="0px" width="40px" height="40px" viewBox="0 0 40 40" enable-background="new 0 0 40 40" xml:space="preserve">
<g>
	<g>
		<path d="M34.813,21c-2,0-3.813,1-5.813,1c-1.735,0-2.716-1.505-2.945-2.557C26.25,19.57,27.048,20,28.938,20    C31.152,20,38,18.624,38,12.624S32.708,4,28,4c-6,0-7.708,3.667-9.25,4.333C17.985,8.664,17.329,7.901,16,8c-1.247,0.093-2,1-2,3    v8c0,1-1,3-3,3s-3.813-1-5.813-1C2.061,21,0,23.393,0,26.542C0,29.036,1.938,31,4.333,31C5.904,31,7,29.935,7,29.146    c0-0.5-0.481-0.746-0.896-0.589c-0.715,0.271-0.787,0.756-1.771,0.756C2.77,29.313,2,28.004,2,27c0-1.705,0.934-3,3-3    c2,0,3.667,2,6.667,2c1.394,0,2.635-0.446,3.674-1.21c-0.238,0.482-0.541,0.935-0.908,1.302c-2.219,2.219-6.424,2.806-6.424,7.451    C8.009,35.761,9.685,38,12.5,38c1.758,0,3.5-1.067,3.5-3.334c0-0.53-0.246-1.322-0.875-1.208c-0.48,0.087-0.539,0.447-0.543,0.875    c-0.007,0.8-0.535,1.792-2.019,1.792c-1.469,0-2.132-1.146-2.055-2.582c0.157-2.916,4.416-2.827,7.729-5.499    C19.967,26.648,20,25,20,25s0.033,1.648,1.764,3.044c3.313,2.672,7.571,2.583,7.729,5.499c0.077,1.436-0.584,2.582-2.054,2.582    c-1.483,0-2.014-0.992-2.021-1.792c-0.004-0.428-0.063-0.788-0.543-0.875C24.246,33.344,24,34.136,24,34.666    C24,36.933,25.742,38,27.5,38c2.815,0,4.491-2.239,4.491-4.457c0-4.646-4.206-5.232-6.425-7.451    c-0.367-0.367-0.67-0.819-0.907-1.302c1.039,0.763,2.28,1.21,3.675,1.21c3,0,4.666-2,6.666-2c2.066,0,3,1.295,3,3    c0,1.004-0.77,2.313-2.333,2.313c-0.984,0-1.056-0.485-1.771-0.756C33.481,28.399,33,28.646,33,29.146    C33,29.935,34.097,31,35.667,31C38.062,31,40,29.036,40,26.542C40,23.393,37.939,21,34.813,21z"/>
	</g>
</g>
</svg>
