<?xml version="1.0" encoding="utf-8"?>
<!-- Generator: Adobe Illustrator 15.0.0, SVG Export Plug-In . SVG Version: 6.00 Build 0)  -->
<!DOCTYPE svg PUBLIC "-//W3C//DTD SVG 1.1//EN" "http://www.w3.org/Graphics/SVG/1.1/DTD/svg11.dtd">
<svg xmlns="http://www.w3.org/2000/svg" xmlns:xlink="http://www.w3.org/1999/xlink" version="1.1" id="Shape_5_2_" x="0px" y="0px" width="40px" height="40px" viewBox="0 0 40 40" enable-background="new 0 0 40 40" xml:space="preserve">
<g>
	<g>
		<path fill-rule="evenodd" clip-rule="evenodd" d="M30.378,14.654C26.726,13.437,24.269,12,21.333,12    c-3.347,0-7.628,3.463-9.408,5.042c-1.278-0.148-2.674-0.709-2.674-2.468C9.251,11.39,12,10.417,12,5.958    c0-1.856-0.237-2.763-0.75-3.221C10.569,2.13,9.271,1.853,8.653,2.077C7.46,2.51,7.135,3.193,6,3.594    C3.907,4.332,3.022,3.921,3.022,4.717c0,0.398,4.134,0.674,4.134,0.674S9,6.553,9,7.458c0,3.01-3,4.104-3,8.104    c0,4.968,4.722,6.099,6.907,6.357c1.109,1.874,2.273,2.763,3.644,3.102c1.941,2.28,3.49,1.47,4.972,5.166    c0.253,0.63-1.948,3.801-2.833,4.752c-0.408,0.437-1.397,0.939-2.538,1.279c-1.142,0.338-1.944,0.885-2.209,1.781    c0,0,2.415,0,3.744,0c1.518,0,1.935-0.191,2.709-1.611c1.541-2.826,3.691-5.35,3.691-6.232c0-0.387-0.799-1.859-1.259-2.904    c-0.128-0.291-0.183-0.699-0.213-1.161c1.932,0.878,3.334,0.665,4.959,3.417c0.348,0.586-0.771,4.241-1.169,5.203    c-0.347,0.843-0.913,1.286-1.655,1.508c-1.142,0.338-1.944,0.885-2.209,1.781c0,0,2.191,0,3.521,0    c1.518,0,1.895-0.334,2.144-1.504c0.689-3.237,1.999-6.811,1.916-7.406c-0.054-0.383-1.428-1.996-2.143-3.204    c-0.294-0.497-0.521-1.347-0.79-2.3c2.309-0.865,2.785-2.058,2.785-4.082C31.875,21.292,30.249,24,34.54,24    C36.5,24,38,23.292,38,21.848C38,20,36.378,16.654,30.378,14.654z"/>
	</g>
</g>
</svg>
