<?xml version="1.0" encoding="utf-8"?>
<!-- Generator: Adobe Illustrator 15.0.0, SVG Export Plug-In . SVG Version: 6.00 Build 0)  -->
<!DOCTYPE svg PUBLIC "-//W3C//DTD SVG 1.1//EN" "http://www.w3.org/Graphics/SVG/1.1/DTD/svg11.dtd">
<svg xmlns="http://www.w3.org/2000/svg" xmlns:xlink="http://www.w3.org/1999/xlink" version="1.1" id="Shape_5_2_" x="0px" y="0px" width="40px" height="40px" viewBox="0 0 40 40" enable-background="new 0 0 40 40" xml:space="preserve">
<g>
	<g>
		<path d="M27.998,14.054c-4.562,0-5.581,0.945-10.331,0.945c-4.038,0-2.028-1.56-3.412-3.868c-0.257-0.429-0.539-0.789-0.83-1.118    c0.264-0.333,0.34-0.681-0.207-0.888c-0.323-0.122-0.644-0.151-0.942-0.127c-1.05-0.699-2.232-0.984-3.483-0.984    c-1.7,0-3.623,0.57-4.462,1.317c-0.395,0.352-0.649,0.908-0.825,1.356c-0.693,0.35-1.529,0.878-1.529,1.736    c0,0.854,0.856,2.326,3.877,3.006C6.499,16.773,5.679,17.696,6,20.333c0.153,1.257,0.684,2.31,1.595,3.159    c-1.701,0.707-2.616,1.44-2.616,1.851c0,0.508,0.417,0.679,2.004,0.679c1.742,0,3.902-0.165,5.828-0.356    C14.143,25.885,15.67,26,17.413,26C22.415,26,28,25.372,28,25.372c-0.125-1.435,0.104-3.226,1.891-3.716    c-1.036,0.969-1.3,3.345-0.446,4.365C28.591,26.182,26,26.759,26,27.438C26,27.943,26.568,28,28.521,28c1.063,0,1.948,0,1.948,0    c-1.813,1.237-4.016,0.688-8.374,2.938C19.74,32.153,18,33.907,18,34.682c0,1.046,3.854-0.556,5.43-0.956    c7.007-1.781,15.562-0.819,15.562-9.79C38.991,19.219,36,14.054,27.998,14.054z"/>
	</g>
</g>
</svg>
