<?xml version="1.0" encoding="utf-8"?>
<!-- Generator: Adobe Illustrator 15.0.0, SVG Export Plug-In . SVG Version: 6.00 Build 0)  -->
<!DOCTYPE svg PUBLIC "-//W3C//DTD SVG 1.1//EN" "http://www.w3.org/Graphics/SVG/1.1/DTD/svg11.dtd">
<svg xmlns="http://www.w3.org/2000/svg" xmlns:xlink="http://www.w3.org/1999/xlink" version="1.1" id="Shape_5_2_" x="0px" y="0px" width="40px" height="40px" viewBox="0 0 40 40" enable-background="new 0 0 40 40" xml:space="preserve">
<g>
	<g>
		<path fill-rule="evenodd" clip-rule="evenodd" d="M31.835,30.974c-0.015,0-0.024,0.005-0.039,0.005c0,0,0,0-0.001,0    c-1.54,0-8.887-2.969-11.57-4.512c-3.001-1.727-4.223-3.455-4.874-5.408c-0.707-2.124-0.182-3.731,0.887-4.861    c-0.144,0.57-0.228,1.169-0.238,1.783c-0.035,2.083,0.402,5.135,4.723,7.62c3.22,1.852,11.527,5.152,11.277,4.203    c-0.105-0.4-4.021-9.256-6-12.51c-0.736-1.21-2.485-3.184-3.938-4.302c-0.575-2.289-0.705-5.113-1.437-7.01    c-0.729-1.887-2.541-3.885-3.335-3.931c-1.231-0.071-2.687-0.019-4.13,0.2C14.582,3.651,16,5.903,16,7.375    c0,3.492-4.093,4.734-7.911,8.356c-0.014,0.538-0.026,1.222-0.026,2.223c0,2.504,0.52,5.494,4.06,9.042l-1.035,7.358H10    c-1.469,0-3.031,1.297-0.923,2.969c0,0-0.474-1.307,1.006-1.338c0.085,0.399,0.381,0.852,0.994,1.338c0,0-0.494-1.344,1.054-1.344    h1.934c0.098,0.401,0.397,0.855,1.013,1.344c0,0-0.474-1.307,1.007-1.338c0.085,0.399,0.381,0.852,0.993,1.338    c0,0-0.493-1.344,1.054-1.344h0.16c0.849,0,1,0,1,0h3c0.528,0,1.043,0.557,0.709,1.344c1.662-1.077,1.163-2.905-0.913-2.959    l0.377-2.684c3.021,1.664,6.604,3.855,7.893,4.248c0.728,0.223,4.602,0.143,4.602-0.408    C34.958,35.309,33.643,33.556,31.835,30.974z M17.088,34.355h-1l0.701-4.981c0.335,0.083,0.664,0.165,0.966,0.243L17.088,34.355z     M8.132,14.242C11.505,11.253,15,10.131,15,7.375c0-1.309-1.596-3.711-3.112-4.883c-1.34,0.312-2.61,0.788-3.596,1.502    C6.888,5.012,6,6.438,6,8.98c0,2.864,0.939,4.395,0.939,4.395c0.314-0.428,0.837-1.026,0.837-1.026    c0.141,0.221,0.359,0.724,0.359,1.562C8.135,14.025,8.134,14.134,8.132,14.242z M9.265,6.404c0.386-0.041,0.804,0.634,0.934,1.511    c0.13,0.876-0.078,1.619-0.464,1.662c-0.386,0.042-0.804-0.634-0.934-1.51C8.671,7.189,8.879,6.446,9.265,6.404z"/>
	</g>
</g>
</svg>
