<?xml version="1.0" encoding="utf-8"?>
<!-- Generator: Adobe Illustrator 15.0.0, SVG Export Plug-In . SVG Version: 6.00 Build 0)  -->
<!DOCTYPE svg PUBLIC "-//W3C//DTD SVG 1.1//EN" "http://www.w3.org/Graphics/SVG/1.1/DTD/svg11.dtd">
<svg xmlns="http://www.w3.org/2000/svg" xmlns:xlink="http://www.w3.org/1999/xlink" version="1.1" id="Shape_5_2_" x="0px" y="0px" width="40px" height="40px" viewBox="0 0 40 40" enable-background="new 0 0 40 40" xml:space="preserve">
<g>
	<g>
		<path d="M38,19.5c0-3.454-2.149-6.532-5.897-8.445c-1.732-0.885-3.729-1.01-5.844-1.142c-1.436-0.09-2.92-0.183-4.418-0.517    c-0.348-0.078-0.741-0.26-1.196-0.472C19.757,8.513,18.653,8,17.25,8c-1.51,0-3.428,0.613-5.844,1.533    c-0.51,0.194-0.976,0.367-1.399,0.524c-0.636,0.236-1.161,0.434-1.609,0.617c-0.456-0.478-1.017-0.737-1.717-0.602    c-0.349,0.067-0.569,0.48-0.65,0.969c-0.057,0.343-0.021,0.749,0.073,1.179C4.425,13.887,2.7,16.596,3.12,19.251    c0.072,0.455-0.179,0.935-0.469,1.491C2.346,21.326,2,21.989,2,22.758C2,24.147,3.856,25,5.188,25    c0.701,0,1.881-0.436,2.297-0.599c0.336,0.057,1.188,0.188,1.858,0.188c0.387,0,0.661-0.042,0.862-0.133    c0.466-0.208,1.82-0.812,2.545-2.456c0.282,0,0.528,0.002,0.757,0.004c-0.037,0.145-0.075,0.285-0.119,0.418    c-0.47,1.416-1.999,1.436-2.95,2.797c-0.753,1.078-0.282,4.301,0.122,5s1.149,0.948,1.149,0.948s0.489-1.393,0.708-3.17    c2.048,0.103,3.491-0.42,4.536-1.218c0.207,0.966,0.29,2.017,0.127,3.122c-0.164,1.116-1.142,0.902-1.142,2.099c0,0,3.781,0,4.5,0    s1.335-0.089,1.896-1.813c0.249-0.763,0.555-2.717,0.641-4.181c0.708,0.255,1.427,0.488,2.155,0.655    c0.244,1.651,0.753,2.93,0.753,3.547c0,0.791-0.945,0.595-0.945,1.791c0,0,3.781,0,4.5,0S31,32,31,30.188    c0-0.883,0.044-1.674,0.101-2.416c0.814,1.11,1.782,1.967,1.782,2.438c0,0.791-0.945,0.595-0.945,1.791c0,0,3.781,0,4.5,0    S38,32,38,30.188c0-1.623-0.349-3.025-0.689-4.149C37.494,24.551,38,20.348,38,19.5z M14.501,18.398    c-0.339,0.927-0.219,1.836,0.025,2.645C13.985,21.003,13.322,21,12.417,21h-0.339l-0.125,0.315    c-0.643,1.615-1.871,2.1-2.158,2.229c-0.004,0.002-0.105,0.045-0.453,0.045c-0.745,0-1.811-0.194-1.821-0.196l-0.144-0.026    l-0.135,0.056C6.694,23.646,5.653,24,5.188,24C4.232,24,3,23.397,3,22.758c0-0.523,0.261-1.023,0.538-1.554    c0.341-0.653,0.693-1.329,0.57-2.109c-0.331-2.089,0.985-4.31,2.353-5.801c0.102,0.23,0.213,0.463,0.348,0.698    c0.432,0.755,2.604,1.09,2.877,0.984c0.287-0.111,0.368-0.51,0.281-0.832c-0.235-0.875-0.541-1.851-0.974-2.632    c0.394-0.156,0.839-0.324,1.362-0.518c0.425-0.158,0.894-0.332,1.406-0.527C14.074,9.586,15.893,9,17.25,9    c0.691,0,1.296,0.157,1.854,0.36C18.847,12.706,15.263,16.318,14.501,18.398z M36.663,23.018C36.52,22.445,35.813,22,33.719,22    C32.502,22,30,23,30,25c0,0.344,0.062,0.678,0.16,1H27.8c-1.567,0-3.241-0.436-4.822-1.037c-0.122-2.86-1.76-5.352-2.563-7.129    c0.687-1.583,1.766-2.778,1.766-7.337c-0.035-0.011-0.076-0.029-0.113-0.042c1.417,0.276,2.795,0.373,4.129,0.456    c2.008,0.125,3.903,0.244,5.451,1.034C35.049,13.682,37,16.436,37,19.5C37,19.929,36.845,21.425,36.663,23.018z M7.121,19.131    c-1.266-0.46-1.414-1.311-1.779-1.097c-0.301,0.178-0.43,1.5-0.277,1.855c0.648,1.51,3.456,3.228,3.892,1.15    C9.251,19.632,8.007,19.453,7.121,19.131z"/>
	</g>
</g>
</svg>
