<?xml version="1.0" encoding="utf-8"?>
<!-- Generator: Adobe Illustrator 15.0.0, SVG Export Plug-In . SVG Version: 6.00 Build 0)  -->
<!DOCTYPE svg PUBLIC "-//W3C//DTD SVG 1.1//EN" "http://www.w3.org/Graphics/SVG/1.1/DTD/svg11.dtd">
<svg xmlns="http://www.w3.org/2000/svg" xmlns:xlink="http://www.w3.org/1999/xlink" version="1.1" id="Shape_5_2_" x="0px" y="0px" width="40px" height="40px" viewBox="0 0 40 40" enable-background="new 0 0 40 40" xml:space="preserve">
<g>
	<g>
		<path d="M12.841,16.131c-0.551,0.882-0.864,1.95-0.864,3.119c0,1.285,0.805,2.75,3.557,2.75c-0.557-0.914-1.57-2.903,2.517-5.144    C19.266,17.4,20,18,20,18s-0.051,1.476,1.049,2.434l7.287-4.858l-7.35-4.899c-1.73,1.153-3.077,2.051-3.522,2.348    c-1.672,1.115-3.173,1.592-3.173,1.592s1.054-1.381,2.619-2.424c0.392-0.262,1.595-1.063,3.176-2.117l-8.067-5.378    c-2.117,1.452-3.783,3.38-5.029,5.511c0.879,0.586,2.088,1.393,2.977,1.985c1.564,1.043,2.619,2.424,2.619,2.424    s-1.501-0.477-3.173-1.592c-0.912-0.608-2.054-1.369-2.906-1.937C4.777,14.405,3.99,18.088,3.99,21.13    c0,0.436,0.751,0.87,1.502,0.87C6.181,22,8.131,16.971,12.841,16.131z M29.188,4.006c-2.367-1.3-5.184-1.98-8.188-1.98    c-3.17,0-5.837,0.792-8.057,2.086l8.043,5.362C23.529,7.779,26.738,5.639,29.188,4.006z M8.797,31.625    C7.609,34.459,8.184,38,8.184,38s1.63-2.423,4.291-4.394c0.035-0.025,0.077-0.049,0.112-0.074l-3.568-2.379    C8.944,31.31,8.866,31.463,8.797,31.625z M29.237,14.974l5.946-3.965c-0.966-2.769-2.75-4.924-5.047-6.434    c-2.386,1.59-5.621,3.748-8.249,5.499L29.237,14.974z M22,21l7.764,5.177c2.592-1.362,4.602-3.13,5.581-5.93l-6.108-4.071L22,21z     M35.484,12.011l-5.347,3.564l5.499,3.666C35.869,18.275,36,17.206,36,15.998C36,14.56,35.81,13.238,35.484,12.011z     M14.049,25.847l6.075,4.051c0.414-0.151,0.835-0.304,1.267-0.455c2.629-0.925,5.146-1.739,7.337-2.755l-7.642-5.095    C18.586,23.18,16.144,24.443,14.049,25.847z M9.496,30.27l3.997,2.665c1.5-0.935,3.339-1.78,5.479-2.604l-5.803-3.869    C11.682,27.55,10.417,28.756,9.496,30.27z"/>
	</g>
</g>
</svg>
