<?xml version="1.0" encoding="utf-8"?>
<!-- Generator: Adobe Illustrator 15.0.0, SVG Export Plug-In . SVG Version: 6.00 Build 0)  -->
<!DOCTYPE svg PUBLIC "-//W3C//DTD SVG 1.1//EN" "http://www.w3.org/Graphics/SVG/1.1/DTD/svg11.dtd">
<svg xmlns="http://www.w3.org/2000/svg" xmlns:xlink="http://www.w3.org/1999/xlink" version="1.1" id="Shape_5_2_" x="0px" y="0px" width="40px" height="40px" viewBox="0 0 40 40" enable-background="new 0 0 40 40" xml:space="preserve">
<g id="554054011_Shape_5_2_">
	<g>
		<g>
			<g>
				<path fill-rule="evenodd" clip-rule="evenodd" d="M5.115,6.401C4.337,7.295,4,8.174,4,9.53c0,1.386,0.806,2.535,1.211,3.024      c-0.117-0.994,0.046-2.138,0.813-3.495C5.542,8.146,5.257,7.18,5.115,6.401z M29.502,29.912c1.218,0.124,2.596,0.048,2.524-0.3      c-0.072-0.354-1.776-2.347-4.568-6.695c-1.681-2.617-4.038-6.646-6.572-9.319C18.858,11.459,18.645,7.463,17.667,6      c-1.752-2.621-4.333-4.083-7.417-4.083C7.5,1.917,6,3.875,6,5.333c0,0.749,0.324,2.39,1.187,3.739      c-2.156,3.286-0.312,4.886,0.395,7.082S7.583,24.583,12,27.458c0.407,0.265,0.824,0.491,1.246,0.691      C12.516,28.447,12,29.162,12,30c0,0.748,0.416,1.393,1.023,1.735C13.012,31.658,13,31.581,13,31.5c0-0.828,0.672-1.5,1.5-1.5h3      c0.828,0,1.5,0.672,1.5,1.5c0,0.081-0.012,0.158-0.023,0.235C19.584,31.393,20,30.748,20,30c0-0.107-0.015-0.212-0.032-0.314      c0.835,0.096,1.633,0.191,2.366,0.336c2.166,1.714,6.823,6.393,9.629,7.308c1.218,0.397,3.845,0.825,4.063,0.394      C36.225,37.331,34.877,36.453,29.502,29.912z M8.969,8.521C8.955,7.796,9.405,7.199,9.975,7.188      c0.569-0.011,1.042,0.567,1.057,1.292c0.014,0.724-0.436,1.321-1.005,1.333C9.457,9.824,8.983,9.245,8.969,8.521z M9.489,12.449      c0,0,2.23,1.395,4.118-0.208c2.437-2.069,1.018-4.407,1.018-4.407s2.948,2.265-0.043,5.114      C11.672,15.719,9.489,12.449,9.489,12.449z M15,16.527c-3,1.645-4.511-1.078-4.511-1.078s1.68,1.233,3.92,0.176      c1.935-0.913,2.239-3.019,2.239-3.019S17.884,14.945,15,16.527z"/>
			</g>
			<g>
				<path fill-rule="evenodd" clip-rule="evenodd" d="M5.115,6.401C4.337,7.295,4,8.174,4,9.53c0,1.386,0.806,2.535,1.211,3.024      c-0.117-0.994,0.046-2.138,0.813-3.495C5.542,8.146,5.257,7.18,5.115,6.401z M29.502,29.912c1.218,0.124,2.596,0.048,2.524-0.3      c-0.072-0.354-1.776-2.347-4.568-6.695c-1.681-2.617-4.038-6.646-6.572-9.319C18.858,11.459,18.645,7.463,17.667,6      c-1.752-2.621-4.333-4.083-7.417-4.083C7.5,1.917,6,3.875,6,5.333c0,0.749,0.324,2.39,1.187,3.739      c-2.156,3.286-0.312,4.886,0.395,7.082S7.583,24.583,12,27.458c0.407,0.265,0.824,0.491,1.246,0.691      C12.516,28.447,12,29.162,12,30c0,0.748,0.416,1.393,1.023,1.735C13.012,31.658,13,31.581,13,31.5c0-0.828,0.672-1.5,1.5-1.5h3      c0.828,0,1.5,0.672,1.5,1.5c0,0.081-0.012,0.158-0.023,0.235C19.584,31.393,20,30.748,20,30c0-0.107-0.015-0.212-0.032-0.314      c0.835,0.096,1.633,0.191,2.366,0.336c2.166,1.714,6.823,6.393,9.629,7.308c1.218,0.397,3.845,0.825,4.063,0.394      C36.225,37.331,34.877,36.453,29.502,29.912z M8.969,8.521C8.955,7.796,9.405,7.199,9.975,7.188      c0.569-0.011,1.042,0.567,1.057,1.292c0.014,0.724-0.436,1.321-1.005,1.333C9.457,9.824,8.983,9.245,8.969,8.521z M9.489,12.449      c0,0,2.23,1.395,4.118-0.208c2.437-2.069,1.018-4.407,1.018-4.407s2.948,2.265-0.043,5.114      C11.672,15.719,9.489,12.449,9.489,12.449z M15,16.527c-3,1.645-4.511-1.078-4.511-1.078s1.68,1.233,3.92,0.176      c1.935-0.913,2.239-3.019,2.239-3.019S17.884,14.945,15,16.527z"/>
			</g>
			<g>
				<path fill-rule="evenodd" clip-rule="evenodd" d="M5.115,6.401C4.337,7.295,4,8.174,4,9.53c0,1.386,0.806,2.535,1.211,3.024      c-0.117-0.994,0.046-2.138,0.813-3.495C5.542,8.146,5.257,7.18,5.115,6.401z M29.502,29.912c1.218,0.124,2.596,0.048,2.524-0.3      c-0.072-0.354-1.776-2.347-4.568-6.695c-1.681-2.617-4.038-6.646-6.572-9.319C18.858,11.459,18.645,7.463,17.667,6      c-1.752-2.621-4.333-4.083-7.417-4.083C7.5,1.917,6,3.875,6,5.333c0,0.749,0.324,2.39,1.187,3.739      c-2.156,3.286-0.312,4.886,0.395,7.082S7.583,24.583,12,27.458c0.407,0.265,0.824,0.491,1.246,0.691      C12.516,28.447,12,29.162,12,30c0,0.748,0.416,1.393,1.023,1.735C13.012,31.658,13,31.581,13,31.5c0-0.828,0.672-1.5,1.5-1.5h3      c0.828,0,1.5,0.672,1.5,1.5c0,0.081-0.012,0.158-0.023,0.235C19.584,31.393,20,30.748,20,30c0-0.107-0.015-0.212-0.032-0.314      c0.835,0.096,1.633,0.191,2.366,0.336c2.166,1.714,6.823,6.393,9.629,7.308c1.218,0.397,3.845,0.825,4.063,0.394      C36.225,37.331,34.877,36.453,29.502,29.912z M8.969,8.521C8.955,7.796,9.405,7.199,9.975,7.188      c0.569-0.011,1.042,0.567,1.057,1.292c0.014,0.724-0.436,1.321-1.005,1.333C9.457,9.824,8.983,9.245,8.969,8.521z M9.489,12.449      c0,0,2.23,1.395,4.118-0.208c2.437-2.069,1.018-4.407,1.018-4.407s2.948,2.265-0.043,5.114      C11.672,15.719,9.489,12.449,9.489,12.449z M15,16.527c-3,1.645-4.511-1.078-4.511-1.078s1.68,1.233,3.92,0.176      c1.935-0.913,2.239-3.019,2.239-3.019S17.884,14.945,15,16.527z"/>
			</g>
		</g>
	</g>
	<g>
		<g>
			<g>
				<path fill-rule="evenodd" clip-rule="evenodd" d="M5.115,6.401C4.337,7.295,4,8.174,4,9.53c0,1.386,0.806,2.535,1.211,3.024      c-0.117-0.994,0.046-2.138,0.813-3.495C5.542,8.146,5.257,7.18,5.115,6.401z M29.502,29.912c1.218,0.124,2.596,0.048,2.524-0.3      c-0.072-0.354-1.776-2.347-4.568-6.695c-1.681-2.617-4.038-6.646-6.572-9.319C18.858,11.459,18.645,7.463,17.667,6      c-1.752-2.621-4.333-4.083-7.417-4.083C7.5,1.917,6,3.875,6,5.333c0,0.749,0.324,2.39,1.187,3.739      c-2.156,3.286-0.312,4.886,0.395,7.082S7.583,24.583,12,27.458c0.407,0.265,0.824,0.491,1.246,0.691      C12.516,28.447,12,29.162,12,30c0,0.748,0.416,1.393,1.023,1.735C13.012,31.658,13,31.581,13,31.5c0-0.828,0.672-1.5,1.5-1.5h3      c0.828,0,1.5,0.672,1.5,1.5c0,0.081-0.012,0.158-0.023,0.235C19.584,31.393,20,30.748,20,30c0-0.107-0.015-0.212-0.032-0.314      c0.835,0.096,1.633,0.191,2.366,0.336c2.166,1.714,6.823,6.393,9.629,7.308c1.218,0.397,3.845,0.825,4.063,0.394      C36.225,37.331,34.877,36.453,29.502,29.912z M8.969,8.521C8.955,7.796,9.405,7.199,9.975,7.188      c0.569-0.011,1.042,0.567,1.057,1.292c0.014,0.724-0.436,1.321-1.005,1.333C9.457,9.824,8.983,9.245,8.969,8.521z M9.489,12.449      c0,0,2.23,1.395,4.118-0.208c2.437-2.069,1.018-4.407,1.018-4.407s2.948,2.265-0.043,5.114      C11.672,15.719,9.489,12.449,9.489,12.449z M15,16.527c-3,1.645-4.511-1.078-4.511-1.078s1.68,1.233,3.92,0.176      c1.935-0.913,2.239-3.019,2.239-3.019S17.884,14.945,15,16.527z"/>
			</g>
		</g>
	</g>
</g>
</svg>
