<?xml version="1.0" encoding="utf-8"?>
<!-- Generator: Adobe Illustrator 15.0.0, SVG Export Plug-In . SVG Version: 6.00 Build 0)  -->
<!DOCTYPE svg PUBLIC "-//W3C//DTD SVG 1.1//EN" "http://www.w3.org/Graphics/SVG/1.1/DTD/svg11.dtd">
<svg xmlns="http://www.w3.org/2000/svg" xmlns:xlink="http://www.w3.org/1999/xlink" version="1.1" id="Shape_5_2_" x="0px" y="0px" width="40px" height="40px" viewBox="0 0 40 40" enable-background="new 0 0 40 40" xml:space="preserve">
<g>
	<g>
		<path d="M24.25,11c-3.556,0-5.8,1.636-5.8,1.636c-1.072-3.529-2.118-5.529-3.703-6.52c0.121-0.157,0.245-0.302,0.379-0.421    c2.138-1.904,5.44-1.351,5.677-1.245c0.236,0.105,1.225,0.05,1.225-0.852C22.027,2.696,20.292,2,17.583,2    C11.375,2,8.111,5.607,6.225,8.833c-0.5,0.854-1.227,2.234-1.613,2.859C4.244,12.29,4,12.345,4,12.833    c0,1.083,1.322,1.269,2.765,1.045c2.046-0.317,2.28-0.853,4.88-0.969c0.899,0.757,2.031,1.983,2.694,3.746    c0,0-0.339,0.875-0.339,1.76c0,0.797,0.464,1.58,1.239,2.336c-0.12,2.196-3.208,2.658-3.208,9.247l2.016-0.72    c0.56-2.244,2.966-2.591,3.876-6.595c1.005,0.579,2.134,1.131,3.302,1.647c0.769-2.642,3.4-5.333,5.234-5.333    C24.99,19,22,23.419,22,25.75c0,1.792,2.041,4.804,2.041,4.804s-0.707,1.339-1.529,2.414C22.786,32.979,23.069,33,23.333,33    C28.814,33,30,29,30,28c0,2.833-1.186,6-6.667,6c-4.708,0-7.799-0.284-12.504-1.805c-0.951-0.308-1.112,0.466-0.294,1.04    C14.262,35.861,18.974,38,24.991,38C34.333,38,38,32.563,38,27C38,17.369,30.073,11,24.25,11z"/>
	</g>
</g>
</svg>
