<?xml version="1.0" encoding="utf-8"?>
<!-- Generator: Adobe Illustrator 15.0.0, SVG Export Plug-In . SVG Version: 6.00 Build 0)  -->
<!DOCTYPE svg PUBLIC "-//W3C//DTD SVG 1.1//EN" "http://www.w3.org/Graphics/SVG/1.1/DTD/svg11.dtd">
<svg xmlns="http://www.w3.org/2000/svg" xmlns:xlink="http://www.w3.org/1999/xlink" version="1.1" id="Shape_5_2_" x="0px" y="0px" width="40px" height="40px" viewBox="0 0 40 40" enable-background="new 0 0 40 40" xml:space="preserve">
<g id="554054013_Shape_5_2_">
	<g>
		<g>
			<g>
				<path fill-rule="evenodd" clip-rule="evenodd" d="M33.619,30.111c0.802,0.062,1.335,0.06,1.443-0.022      c0.469-0.355-3.622-10.338-5.106-12.469C27,13.375,23.951,12.345,22,11.219s-2.982-2.449-4-3.885      C16.708,5.509,15.373,4,12.123,4C9.855,4,8.204,5.022,7.687,6.221c-2.23,0.057-3.608,1.215-3.608,3.508      c0,2.071,1.63,3.08,1.63,3.08L6,11.298c0,0,0.586,1.675,3.035,1.871c0.105,0.223,0.232,0.466,0.348,0.698      c5.544,1.725,8.836-2.648,8.836-2.648c-0.449,2.181-3.609,5.039-8.146,3.969c0.154,0.283,0.297,0.554,0.469,0.854      c1.299,2.277,1.67,6.17,5.164,9.077L15.182,28H14c-1.104,0-2,0.896-2,2c0,0.748,0.416,1.393,1.023,1.735      C13.012,31.658,13,31.581,13,31.5c0-0.828,0.672-1.5,1.5-1.5h3c0.828,0,1.5,0.672,1.5,1.5c0,0.081-0.012,0.158-0.023,0.235      C19.584,31.393,20,30.748,20,30c0-1.104-0.896-2-2-2h-0.46l0.683-1.265c0.813,0.396,1.73,0.754,2.778,1.057      c0.615,0.178,1.272,0.349,1.949,0.513C22.381,28.658,22,29.282,22,30c0,0.748,0.416,1.393,1.023,1.735      C23.012,31.658,23,31.581,23,31.5c0-0.828,0.672-1.5,1.5-1.5h1.32c3.178,7.593,4.291,8,7.18,8c1.5,0,3-0.541,3-1.791      C36,35.127,34.905,32.649,33.619,30.111z M11.196,12c-0.667,0-1.179-0.101-1.583-0.259c-0.075-0.683-0.224-1.543-0.438-2.493      c-0.141-0.624-0.29-1.157-0.44-1.605C9.106,6.871,9.905,5.997,11.627,6c2.331,0.004,3.471,2.742,3.471,3.224      C15.098,9.867,14.458,12,11.196,12z"/>
			</g>
			<g>
				<path fill-rule="evenodd" clip-rule="evenodd" d="M33.619,30.111c0.802,0.062,1.335,0.06,1.443-0.022      c0.469-0.355-3.622-10.338-5.106-12.469C27,13.375,23.951,12.345,22,11.219s-2.982-2.449-4-3.885      C16.708,5.509,15.373,4,12.123,4C9.855,4,8.204,5.022,7.687,6.221c-2.23,0.057-3.608,1.215-3.608,3.508      c0,2.071,1.63,3.08,1.63,3.08L6,11.298c0,0,0.586,1.675,3.035,1.871c0.105,0.223,0.232,0.466,0.348,0.698      c5.544,1.725,8.836-2.648,8.836-2.648c-0.449,2.181-3.609,5.039-8.146,3.969c0.154,0.283,0.297,0.554,0.469,0.854      c1.299,2.277,1.67,6.17,5.164,9.077L15.182,28H14c-1.104,0-2,0.896-2,2c0,0.748,0.416,1.393,1.023,1.735      C13.012,31.658,13,31.581,13,31.5c0-0.828,0.672-1.5,1.5-1.5h3c0.828,0,1.5,0.672,1.5,1.5c0,0.081-0.012,0.158-0.023,0.235      C19.584,31.393,20,30.748,20,30c0-1.104-0.896-2-2-2h-0.46l0.683-1.265c0.813,0.396,1.73,0.754,2.778,1.057      c0.615,0.178,1.272,0.349,1.949,0.513C22.381,28.658,22,29.282,22,30c0,0.748,0.416,1.393,1.023,1.735      C23.012,31.658,23,31.581,23,31.5c0-0.828,0.672-1.5,1.5-1.5h1.32c3.178,7.593,4.291,8,7.18,8c1.5,0,3-0.541,3-1.791      C36,35.127,34.905,32.649,33.619,30.111z M11.196,12c-0.667,0-1.179-0.101-1.583-0.259c-0.075-0.683-0.224-1.543-0.438-2.493      c-0.141-0.624-0.29-1.157-0.44-1.605C9.106,6.871,9.905,5.997,11.627,6c2.331,0.004,3.471,2.742,3.471,3.224      C15.098,9.867,14.458,12,11.196,12z"/>
			</g>
			<g>
				<path fill-rule="evenodd" clip-rule="evenodd" d="M33.619,30.111c0.802,0.062,1.335,0.06,1.443-0.022      c0.469-0.355-3.622-10.338-5.106-12.469C27,13.375,23.951,12.345,22,11.219s-2.982-2.449-4-3.885      C16.708,5.509,15.373,4,12.123,4C9.855,4,8.204,5.022,7.687,6.221c-2.23,0.057-3.608,1.215-3.608,3.508      c0,2.071,1.63,3.08,1.63,3.08L6,11.298c0,0,0.586,1.675,3.035,1.871c0.105,0.223,0.232,0.466,0.348,0.698      c5.544,1.725,8.836-2.648,8.836-2.648c-0.449,2.181-3.609,5.039-8.146,3.969c0.154,0.283,0.297,0.554,0.469,0.854      c1.299,2.277,1.67,6.17,5.164,9.077L15.182,28H14c-1.104,0-2,0.896-2,2c0,0.748,0.416,1.393,1.023,1.735      C13.012,31.658,13,31.581,13,31.5c0-0.828,0.672-1.5,1.5-1.5h3c0.828,0,1.5,0.672,1.5,1.5c0,0.081-0.012,0.158-0.023,0.235      C19.584,31.393,20,30.748,20,30c0-1.104-0.896-2-2-2h-0.46l0.683-1.265c0.813,0.396,1.73,0.754,2.778,1.057      c0.615,0.178,1.272,0.349,1.949,0.513C22.381,28.658,22,29.282,22,30c0,0.748,0.416,1.393,1.023,1.735      C23.012,31.658,23,31.581,23,31.5c0-0.828,0.672-1.5,1.5-1.5h1.32c3.178,7.593,4.291,8,7.18,8c1.5,0,3-0.541,3-1.791      C36,35.127,34.905,32.649,33.619,30.111z M11.196,12c-0.667,0-1.179-0.101-1.583-0.259c-0.075-0.683-0.224-1.543-0.438-2.493      c-0.141-0.624-0.29-1.157-0.44-1.605C9.106,6.871,9.905,5.997,11.627,6c2.331,0.004,3.471,2.742,3.471,3.224      C15.098,9.867,14.458,12,11.196,12z"/>
			</g>
		</g>
	</g>
	<g>
		<g>
			<g>
				<path fill-rule="evenodd" clip-rule="evenodd" d="M33.619,30.111c0.802,0.062,1.335,0.06,1.443-0.022      c0.469-0.355-3.622-10.338-5.106-12.469C27,13.375,23.951,12.345,22,11.219s-2.982-2.449-4-3.885      C16.708,5.509,15.373,4,12.123,4C9.855,4,8.204,5.022,7.687,6.221c-2.23,0.057-3.608,1.215-3.608,3.508      c0,2.071,1.63,3.08,1.63,3.08L6,11.298c0,0,0.586,1.675,3.035,1.871c0.105,0.223,0.232,0.466,0.348,0.698      c5.544,1.725,8.836-2.648,8.836-2.648c-0.449,2.181-3.609,5.039-8.146,3.969c0.154,0.283,0.297,0.554,0.469,0.854      c1.299,2.277,1.67,6.17,5.164,9.077L15.182,28H14c-1.104,0-2,0.896-2,2c0,0.748,0.416,1.393,1.023,1.735      C13.012,31.658,13,31.581,13,31.5c0-0.828,0.672-1.5,1.5-1.5h3c0.828,0,1.5,0.672,1.5,1.5c0,0.081-0.012,0.158-0.023,0.235      C19.584,31.393,20,30.748,20,30c0-1.104-0.896-2-2-2h-0.46l0.683-1.265c0.813,0.396,1.73,0.754,2.778,1.057      c0.615,0.178,1.272,0.349,1.949,0.513C22.381,28.658,22,29.282,22,30c0,0.748,0.416,1.393,1.023,1.735      C23.012,31.658,23,31.581,23,31.5c0-0.828,0.672-1.5,1.5-1.5h1.32c3.178,7.593,4.291,8,7.18,8c1.5,0,3-0.541,3-1.791      C36,35.127,34.905,32.649,33.619,30.111z M11.196,12c-0.667,0-1.179-0.101-1.583-0.259c-0.075-0.683-0.224-1.543-0.438-2.493      c-0.141-0.624-0.29-1.157-0.44-1.605C9.106,6.871,9.905,5.997,11.627,6c2.331,0.004,3.471,2.742,3.471,3.224      C15.098,9.867,14.458,12,11.196,12z"/>
			</g>
		</g>
	</g>
</g>
</svg>
