<?xml version="1.0" encoding="utf-8"?>
<!-- Generator: Adobe Illustrator 15.0.0, SVG Export Plug-In . SVG Version: 6.00 Build 0)  -->
<!DOCTYPE svg PUBLIC "-//W3C//DTD SVG 1.1//EN" "http://www.w3.org/Graphics/SVG/1.1/DTD/svg11.dtd">
<svg xmlns="http://www.w3.org/2000/svg" xmlns:xlink="http://www.w3.org/1999/xlink" version="1.1" id="Shape_5_2_" x="0px" y="0px" width="40px" height="40px" viewBox="0 0 40 40" enable-background="new 0 0 40 40" xml:space="preserve">
<g>
	<g>
		<path fill-rule="evenodd" clip-rule="evenodd" d="M21.205,2.063c-0.345-0.026-0.7-0.045-1.08-0.045    c-4.875,0-7.02,2.351-8.708,7.476C9.686,6.304,9.632,5.025,7.066,4.33c0.977-0.133,2.053-0.297,2.317-0.407    c0.51-0.211,0.752-0.797,0.54-1.307c-0.211-0.51-0.797-0.752-1.307-0.54C8.252,2.228,6.743,3.419,5.905,4.091    c-1.308-0.164-2.208,0.473-2.73,1.638C2.711,6.761,3.072,7.485,3.072,7.485c-0.669,1.37-1.011,2.126-1.011,2.483    c0,0.233,1.533-1.219,2.939-2.152c0,5.487,2.74,8.173,5.595,8.173c1.656,0,3.697-0.489,3.697-0.489s0.583,0.461,4.264,0.497    l-1.661,4.667c-0.551,0.086-1.293,0.217-2.26,0.336c-1.416,0.175-2.296,0.599-2.635,1h8.413c-2.587,3.943-7,6.229-12.746,7.875    C2.629,31.317,2,31.542,2,32.542c0,1.5,3.875,2.083,6.875,2.083C7.239,36.258,7.916,38,10.916,38    c4.751,0,8.934-1.304,11.001-2.416C21.482,37.421,22.167,38,23.624,38c4.876,0,8.934-4.166,9.934-7.679c0,0,0.19,1.679,1.38,1.679    c1.618,0,3.094-3.813,3.094-10.5C38.031,8.871,30.359,2.525,21.205,2.063z M15.996,33.159c-1.563,0.899-3.275,1.111-3.825,0.471    c-0.55-0.639,0.27-1.887,1.833-2.787c1.563-0.901,3.275-1.112,3.825-0.473C18.379,31.009,17.559,32.258,15.996,33.159z     M29.065,9.774c0.51,0.143,0.944,0.907,0.972,1.705c0.023,0.798-0.368,1.328-0.879,1.184c-0.509-0.143-0.942-0.906-0.97-1.704    C28.161,10.161,28.554,9.631,29.065,9.774z M24.829,14.575c0.318-0.913,0.993-1.338,1.507-0.953s0.669,1.437,0.351,2.349    c-0.323,0.91-0.997,1.337-1.51,0.951C24.665,16.538,24.511,15.487,24.829,14.575z M20.453,21.94    c-0.276-0.426-1.228-0.888-1.936-1.152l1.76-4.944c0.517-0.119,1.019-0.295,1.499-0.522C21.912,14.389,22,13.296,22,12    c0-4.448-2.736-7.396-5-8c3,0,6,3.167,6,8C23,16.186,22.099,19.402,20.453,21.94z M24.812,26.159    c-0.928,0.899-2.042,1.111-2.489,0.471c-0.448-0.639-0.06-1.887,0.867-2.787c0.928-0.901,2.041-1.112,2.49-0.473    C26.127,24.009,25.739,25.258,24.812,26.159z M28.665,33.159c-1.043,0.898-2.185,1.109-2.551,0.472    c-0.367-0.64,0.18-1.887,1.223-2.789c1.042-0.899,2.184-1.113,2.549-0.473C30.253,31.01,29.706,32.257,28.665,33.159z     M30.146,20.438c-0.273,1.036-0.979,1.57-1.581,1.19c-0.602-0.377-0.87-1.525-0.602-2.563c0.269-1.039,0.976-1.572,1.58-1.193    C30.146,18.251,30.415,19.4,30.146,20.438z M33.872,13.294c0.587,0.211,1.032,1.146,0.996,2.085    c-0.04,0.939-0.545,1.528-1.132,1.316c-0.586-0.211-1.03-1.145-0.994-2.083C32.778,13.672,33.283,13.083,33.872,13.294z     M34.965,25.262c-0.709,0.944-1.714,1.147-2.245,0.449c-0.533-0.695-0.391-2.025,0.316-2.971c0.71-0.946,1.714-1.148,2.246-0.451    C35.814,22.984,35.672,24.315,34.965,25.262z"/>
	</g>
</g>
</svg>
