<?xml version="1.0" encoding="utf-8"?>
<!-- Generator: Adobe Illustrator 15.0.0, SVG Export Plug-In . SVG Version: 6.00 Build 0)  -->
<!DOCTYPE svg PUBLIC "-//W3C//DTD SVG 1.1//EN" "http://www.w3.org/Graphics/SVG/1.1/DTD/svg11.dtd">
<svg xmlns="http://www.w3.org/2000/svg" xmlns:xlink="http://www.w3.org/1999/xlink" version="1.1" id="Shape_5_2_" x="0px" y="0px" width="40px" height="40px" viewBox="0 0 40 40" enable-background="new 0 0 40 40" xml:space="preserve">
<g>
	<g>
		<path d="M37.334,20.796c-0.269-2.45-1.34-3.794-3.34-3.794c-0.677,0-1.717,0.266-2.568,0.523    c-0.589-0.328-1.212-0.523-1.807-0.523c-0.2,0-0.397,0.005-0.592,0.013c-0.097,0.677-0.403,1.418-1.002,2.235    c-1.592,2.171-3.97,2.844-5.627,3.037c0.831-0.418,1.59-0.816,2.188-1.162c5.957-3.44,2.358-6.821,2.358-6.821    s3.05-0.116,4.116-1.022c0.802-0.681,1.438-1.449,1.946-2.244c-4.832,1.684-7.104,1.233-7.104,1.233s4.254-1.052,7.842-2.591    c0.392-0.848,0.667-1.69,0.853-2.457c-5.571,2.53-8.257,2.141-8.257,2.141s4.883-1.488,8.508-3.426    C35.024,4.757,35,3.958,35,3.958C23.656,7.688,21.81,7.567,18.667,9.016c-1.69,0.779-2.708,2.366-2.708,3.693    c0,2.014,2,3.885,2,5.26c0,0.901-1.169,1.726-2.557,3.271c-0.917,1.02-1.178,2.283-1.221,3.263    c-0.44-2.408,0.231-3.713,1.375-4.91c0.722-0.756,1.305-1.254,1.407-1.676c-0.004-0.306-0.391-0.99-0.732-1.593    c-0.35-0.618-0.723-1.286-0.975-2.007c-1.246-1.148-2.924-2.282-5.371-2.954c0.122-0.558,0.216-1.307,0.131-2.177    c-0.11-1.127-1.948,2-1.948,2S7.923,9.968,7.656,9.081c-0.237-0.789-1.226,1.346-1.523,2.721    c-0.635,0.774-1.966,2.421-3.074,3.913c-0.59,0.794-0.975,1.406-1.046,2.149c-0.16,1.698,0.644,2.086,1.967,2.086    c0.936,0,1.42-0.992,1.42-0.992l3.547-1.752c1.736,1.002,2.755,4.852,2.755,4.852s-0.094,0.495-0.027,1.171    c-1.021,0.26-2.313,0.639-3.073,1.053c-0.527,0.288-0.65,0.656-0.647,1.12c0.007,1.058,0.137,2.688,0.51,4.497    c0.161,0.778,1.346,2.546,1.346,2.546l1.024-2.53c0,0-0.906-0.542-0.799-3.539c0.02-0.557,0.539-0.476,3.244-0.311    c-0.593,0.917-1.381,2.229-1.657,3.118c-0.165,0.534-0.032,0.835,0.206,1.08c0.844,0.863,3.059,2.598,3.736,2.982    c0.69,0.392,2.429,0.757,2.429,0.757l-0.625-2.188c0,0-1.277,0.123-3.248-2.139c-0.384-0.441,0.092-0.725,2.467-2.697    c0.139,0.006,0.259,0.023,0.406,0.023c2.781,0,4.769,0.222,8.543-0.984c0.89,1.518,3.743,1.743,3.743,2.322    c0,0.423-1.849,1.187-2.974,2.162c-0.952,0.826-1.313,2.5-1.313,2.5s1.25-0.125,2.594-0.406c0.781-1.969,4.303-3.16,5.012-3.866    c0.562-0.561-1.728-1.935-1.468-2.278c0.864-1.144,2.862-2.743,2.862-4.449c0-1.71-0.781-3.077-1.814-3.952    c1.052,0.114,1.694,0.492,2.289,1.731c1.323,2.757-0.813,7.625,3.823,9.332C37.625,27.917,37.503,22.335,37.334,20.796z"/>
	</g>
</g>
</svg>
