<?xml version="1.0" encoding="utf-8"?>
<!-- Generator: Adobe Illustrator 15.0.0, SVG Export Plug-In . SVG Version: 6.00 Build 0)  -->
<!DOCTYPE svg PUBLIC "-//W3C//DTD SVG 1.1//EN" "http://www.w3.org/Graphics/SVG/1.1/DTD/svg11.dtd">
<svg xmlns="http://www.w3.org/2000/svg" xmlns:xlink="http://www.w3.org/1999/xlink" version="1.1" id="Shape_5_2_" x="0px" y="0px" width="40px" height="40px" viewBox="0 0 40 40" enable-background="new 0 0 40 40" xml:space="preserve">
<g>
	<g>
		<path fill-rule="evenodd" clip-rule="evenodd" d="M21,21.292c0,4.5,14.568,9.991,14.688,9.783s-1.855-7.606-2.878-9.929    c-0.727-1.649-5.662-4.251-9.568-4.377C21.95,16.728,21,18.792,21,21.292z M16.397,13.55c1.721-2.055,3.247-3.962,4.474-5.533    c0.147-0.334,0.059-0.934-0.537-0.934c-0.553,0-1.6,0.415-3.334,1.038c-2.587,0.93-7.343,2.483-14.334,5.274    C5.755,13.806,11.087,15,13.56,15C14.94,15,15.618,14.48,16.397,13.55z M35.504,32.063c-1.038-0.178-4.852-1.74-7.874-3.336    C22.496,26.016,20,23.583,20,21.292c0-1.806,0.439-3.312,1.146-4.299c-0.052-0.073-0.113-0.142-0.146-0.224    c-1-2.477,4.199-6.126,4.199-10.312c0-2.052-1.366-4.461-2.255-4.343c-3.813,0.507-6.026,0.7-7.188,1.497    c-1.029,0.706-1.85,2.827-1.85,2.827s-7.71,3-10.656,4.313C2.206,11.215,2,12.583,2,12.583c7.308-2.84,11.292-4.295,13.875-5.224    c1.927-0.692,3.484-1.276,4.459-1.276c1.604,0,2.202,1.443,1.079,2.899C15.81,16.247,14,17,14,20    c0,3.699,3.188,9.259,5.835,11.152L19.143,36h-0.209C14.858,36.702,13,36.837,13,37.418C13,38,14,38,15,38h13c1,0,2,0,2-0.582    c0-0.509-0.673-0.676-2.891-1.18l0.592-4.146C28.476,32.092,29,32.084,29,32.084s0.662,0.262,2.083,1.749    c0.377,0.395,4.449,0.385,4.75,0.084C35.903,33.847,35.764,33.117,35.504,32.063z M25.143,36h-4l0.589-4.123    c1.01,0.125,2.558,0.18,3.972,0.202L25.143,36z"/>
	</g>
</g>
</svg>
