<?xml version="1.0" encoding="utf-8"?>
<!-- Generator: Adobe Illustrator 15.0.0, SVG Export Plug-In . SVG Version: 6.00 Build 0)  -->
<!DOCTYPE svg PUBLIC "-//W3C//DTD SVG 1.1//EN" "http://www.w3.org/Graphics/SVG/1.1/DTD/svg11.dtd">
<svg xmlns="http://www.w3.org/2000/svg" xmlns:xlink="http://www.w3.org/1999/xlink" version="1.1" id="Shape_5_2_" x="0px" y="0px" width="40px" height="40px" viewBox="0 0 40 40" enable-background="new 0 0 40 40" xml:space="preserve">
<g>
	<g>
		<path fill-rule="evenodd" clip-rule="evenodd" d="M35.938,24.938c-0.313-1.063-1.081-4.367-5.049-7.597    c-2.576-2.097-4.471-3.117-5.93-4.207c-0.264-0.648-0.502-1.204-0.694-1.634c-0.536-1.2,0.106-2.928-0.556-6.063    C23.284,3.429,19.819,2,17.646,2c-1.212,0-2.604,0.465-3.615,1.19c-1.301-0.129-2.037-0.209-3.203-0.162    c-2.003,0.083-2.551,0.72-2.551,0.72c0.74,0.599,2.124,1.096,4.99,2.306C15.042,10.906,10,10.719,10,18    c0,7.447,3.529,15.861,5.889,17.656C13.508,36.284,12,36.996,12,37.418C12,38,13,38,14,38h18.292c1.417,0,1.938-0.744,1.462-1.127    c-1.284-1.032-4.502-4.161-4.635-4.323c-0.267-0.323-0.744-3.175-1.182-8.237c-0.066-0.765-0.177-1.539-0.314-2.312    c2.407,1.372,4.998,2.43,6.564,3.374C35.766,26.326,36.25,26,35.938,24.938z M16.564,34.925C14.66,33.622,11,25.58,11,18    c0-3.313,1.119-4.896,2.107-6.294c0.98-1.386,1.968-2.83,1.296-5.322C17.434,7.183,20,7.329,20,10c0,3-4,3-4,7    c0,3.495,1.528,12.334,7.25,19.847C20.164,36.636,18.332,36.133,16.564,34.925z"/>
	</g>
</g>
</svg>
