<?xml version="1.0" encoding="utf-8"?>
<!-- Generator: Adobe Illustrator 15.0.0, SVG Export Plug-In . SVG Version: 6.00 Build 0)  -->
<!DOCTYPE svg PUBLIC "-//W3C//DTD SVG 1.1//EN" "http://www.w3.org/Graphics/SVG/1.1/DTD/svg11.dtd">
<svg xmlns="http://www.w3.org/2000/svg" xmlns:xlink="http://www.w3.org/1999/xlink" version="1.1" id="Shape_5_2_" x="0px" y="0px" width="40px" height="40px" viewBox="0 0 40 40" enable-background="new 0 0 40 40" xml:space="preserve">
<g>
	<g>
		<path fill-rule="evenodd" clip-rule="evenodd" d="M6.208,11.554C6.289,11.983,6.324,12.475,6.315,13h7.14    c-0.61-1.643-0.904-3.076-1.5-4.146C13.023,8.236,14,7.513,14,6.605c0-0.343-0.293-0.588-0.662-0.588    c-0.564,0-0.385,0.581-3.73,0.168C6.266,5.773,4.917,7.614,4.917,8.833c-0.929,0.537-3.135,1.627-2.852,1.75    c0.592,0.258,2.927,0.666,3.962,0.92C6.083,11.518,6.145,11.535,6.208,11.554z M32.292,10.417C35.777,8.36,36.695,8.468,38,6    c-10.02,1.527-15.73,8.618-18.668,11.972c-2.747-0.963-4.086-1.43-4.662-2.395c-0.323-0.542-0.578-1.065-0.805-1.578H6.244    c-0.126,0.99-0.416,2.051-0.921,3.067c-1.365,2.755-2.745,7.103,1.489,10.134c1.419,1.017,3.145,1.808,5.136,2.298L10.988,34    h-0.717C7.417,34,5.678,35.198,5,36h17c-0.472-0.943-1.986-1.562-3.052-1.835l0.924-4.338C23.443,29.362,26,28.27,26,27.771    c0-0.177-0.623-0.944-1.441-2.017c1.512-1.331,1.649-3.394,1.649-5.754c2.162-3.3,3.727-4.336,5.598-5.917    c1.345-1.135,1.843-1.97,2.183-3.625C29,12.771,25.881,16,25.881,16S26.1,14.071,32.292,10.417z M16.988,34h-4.005l0.881-4.136    c0.864,0.115,1.767,0.182,2.714,0.182c0.428,0,0.847-0.015,1.26-0.035L16.988,34z"/>
	</g>
</g>
</svg>
