<?xml version="1.0" encoding="utf-8"?>
<!-- Generator: Adobe Illustrator 15.0.0, SVG Export Plug-In . SVG Version: 6.00 Build 0)  -->
<!DOCTYPE svg PUBLIC "-//W3C//DTD SVG 1.1//EN" "http://www.w3.org/Graphics/SVG/1.1/DTD/svg11.dtd">
<svg xmlns="http://www.w3.org/2000/svg" xmlns:xlink="http://www.w3.org/1999/xlink" version="1.1" id="Shape_5_2_" x="0px" y="0px" width="40px" height="40px" viewBox="0 0 40 40" enable-background="new 0 0 40 40" xml:space="preserve">
<g>
	<g>
		<path d="M37.125,25.219c0-1.174,1.653-5.583,0.375-9.134C36.611,13.616,33.084,10,25.498,10c-5.608,0-12.083,1.791-14.509,3.029    c-1.691-1.412-3.869-3.071-4.69-2.996c-0.502,0.045-0.201,1.233,0.172,2.961c0.068,2.274,0.911,2.998,2.006,3.073    c-0.869,1.179-1.95,2.352-3.408,3.187C4.312,19.688,2,20,2,20l0.355,2.921c0,0,0.931,0.533,2.187,0.489    c1.13,0.258,3.167,1.55,5.792,1.55c1.347,0,3.292-0.96,3.292-0.96s0.513,0.238,1.46,0.548c-1.008,0.978-1.662,2.08-1.867,2.671    c-0.281,0.813,1.49,3.844,1.49,3.844l1.099-1.66c0,0-0.412-0.953-0.318-1.172c0.06-0.141,1.439-0.816,2.58-1.522    c1.159,1.898,2.174,2.528,2.174,3.063c0,0.331-0.202,2.229-0.202,2.229h1.839c0,0,0.286-1.938,0.286-2.625    c0-0.493-0.112-2.013-0.232-3.506C22.889,25.949,23.905,26,25,26c2.124,0,4.059-0.472,5.748-1.213    c1.818,2.833,4.98,2.746,5.127,4.116C35.942,29.533,35.459,32,35.459,32h2c0,0,0.575-3.542,0.575-4    C38.034,27,37.125,25.818,37.125,25.219z"/>
	</g>
</g>
<path d="M16.228,22.37"/>
<path d="M26.334,26c0.333,1.25,1.832,1.792,2.666,1.917c-0.76,1.034-1.061,1.657-1.311,2.762l2.19-0.493  c0.353-0.61,0.595-1.015,3.138-2.464c1.639-0.934-2.184-3.472-2.184-3.472L26.334,26z"/>
</svg>
