<?xml version="1.0" encoding="utf-8"?>
<!-- Generator: Adobe Illustrator 15.0.0, SVG Export Plug-In . SVG Version: 6.00 Build 0)  -->
<!DOCTYPE svg PUBLIC "-//W3C//DTD SVG 1.1//EN" "http://www.w3.org/Graphics/SVG/1.1/DTD/svg11.dtd">
<svg xmlns="http://www.w3.org/2000/svg" xmlns:xlink="http://www.w3.org/1999/xlink" version="1.1" id="Shape_5_2_" x="0px" y="0px" width="40px" height="40px" viewBox="0 0 40 40" enable-background="new 0 0 40 40" xml:space="preserve">
<g>
	<g>
		<path fill-rule="evenodd" clip-rule="evenodd" d="M29.186,25.988C26.305,26.492,22.529,27,19,27c-7,0-7.938-2.087-8.934-3.813    C11.57,24.875,14.262,26,19,26c3,0,6.729-0.528,8.792-0.713C31,25,32,24.479,32,24s-2.5-0.667-7.407-2.241    c-6-3.981-8.438-5.208-9.141-6.589C13.3,10.941,14.262,6,9.188,6c-1.04,0-2.343,0.728-2.926,1.313    c-1.361-0.862-2.48,0.782-1.699,1.572c-2.078,0.935-2.64,1.756-2.611,2.023c0.024,0.225,1.617,0.097,3.781,0.404    c0.28,1.478,0.067,3.196-0.488,4.791c-1.167,3.365-2.294,8.47,1.566,11.968c1.463,1.325,2.932,2.104,4.692,2.533l-0.581,3.501    C8.868,34.406,7.563,35.335,7,36h15c-0.477-0.954-2.023-1.576-3.089-1.846l0.562-3.392c2.216-0.344,3.813-0.878,5.64-0.878    C27.058,29.885,30.542,32,33,32c2.208,0,5-1.118,5-1.833C38,29.307,32.463,27.486,29.186,25.988z M16.941,34h-4.005l0.509-3.07    c0.751,0.075,1.549,0.116,2.43,0.116c0.556,0,1.075-0.019,1.564-0.051L16.941,34z"/>
	</g>
</g>
</svg>
