<?xml version="1.0" encoding="utf-8"?>
<!-- Generator: Adobe Illustrator 15.0.0, SVG Export Plug-In . SVG Version: 6.00 Build 0)  -->
<!DOCTYPE svg PUBLIC "-//W3C//DTD SVG 1.1//EN" "http://www.w3.org/Graphics/SVG/1.1/DTD/svg11.dtd">
<svg xmlns="http://www.w3.org/2000/svg" xmlns:xlink="http://www.w3.org/1999/xlink" version="1.1" id="Shape_5_2_" x="0px" y="0px" width="40px" height="40px" viewBox="0 0 40 40" enable-background="new 0 0 40 40" xml:space="preserve">
<g>
	<g>
		<path d="M25.265,10.685c-1.793-1.329-3.533-2.252-5.179-2.841c-0.558,1.928-1.81,5.083-4.485,7.757    c-2.674,2.675-5.83,3.927-7.757,4.485c0.589,1.646,1.511,3.385,2.84,5.178c1.745-0.597,6.17-2.33,9.21-5.369    C22.941,16.847,24.67,12.427,25.265,10.685z M19.128,7.53c-2.857-0.818-5.385-0.622-7.34,0.191l-0.199-0.438l0.893-1.607    l1.648-0.292c0.203-0.036,0.382-0.153,0.495-0.326l1.25-1.896C15.96,3.036,16,2.893,16,2.75c0-0.244-0.119-0.482-0.337-0.626    c-0.346-0.228-0.811-0.133-1.039,0.213l-1.073,1.626l-1.682,0.298c-0.222,0.039-0.415,0.177-0.525,0.374l-1.25,2.25    c-0.115,0.207-0.125,0.458-0.027,0.675l0.394,0.867C10.046,8.7,9.66,8.997,9.328,9.328S8.7,10.046,8.427,10.461l-0.867-0.394    c-0.217-0.098-0.468-0.088-0.675,0.027l-2.25,1.25c-0.197,0.11-0.335,0.303-0.374,0.525l-0.298,1.682l-1.626,1.073    c-0.346,0.228-0.441,0.693-0.213,1.039C2.268,15.881,2.507,16,2.75,16c0.142,0,0.285-0.04,0.412-0.124l1.896-1.25    c0.172-0.113,0.29-0.292,0.326-0.495l0.292-1.648l1.607-0.893l0.438,0.199c-0.812,1.955-1.009,4.482-0.191,7.339    c1.815-0.528,4.85-1.719,7.364-4.233C17.414,12.375,18.603,9.344,19.128,7.53z M34.679,23.771    c-0.959,2.061-2.395,4.546-4.378,6.529s-4.468,3.418-6.528,4.378c3.869,0.849,7.059-0.168,8.898-2.008    S35.527,27.642,34.679,23.771z M34.254,22.241c-0.569-1.7-1.484-3.504-2.849-5.368c-0.76,2.122-2.499,6.157-5.437,9.096    c-2.938,2.938-6.974,4.677-9.096,5.437c1.863,1.364,3.666,2.277,5.366,2.847c2.121-0.89,5.113-2.419,7.354-4.658    C31.838,27.349,33.364,24.36,34.254,22.241z M30.674,15.929c-0.646-0.804-1.353-1.614-2.171-2.432    c-0.808-0.808-1.61-1.521-2.404-2.161c-0.727,2.071-2.481,6.249-5.497,9.265c-3.017,3.016-7.193,4.771-9.265,5.497    c0.64,0.794,1.353,1.596,2.161,2.404c0.818,0.817,1.627,1.523,2.431,2.17c1.658-0.558,6.225-2.304,9.333-5.411    C28.377,22.146,30.118,17.585,30.674,15.929z"/>
	</g>
</g>
</svg>
