<?xml version="1.0" encoding="utf-8"?>
<!-- Generator: Adobe Illustrator 15.0.0, SVG Export Plug-In . SVG Version: 6.00 Build 0)  -->
<!DOCTYPE svg PUBLIC "-//W3C//DTD SVG 1.1//EN" "http://www.w3.org/Graphics/SVG/1.1/DTD/svg11.dtd">
<svg xmlns="http://www.w3.org/2000/svg" xmlns:xlink="http://www.w3.org/1999/xlink" version="1.1" id="Shape_5_2_" x="0px" y="0px" width="40px" height="40px" viewBox="0 0 40 40" enable-background="new 0 0 40 40" xml:space="preserve">
<g>
	<g>
		<path d="M28.256,14.478c0.455-0.472,0.797-0.941,0.797-1.291c0-0.597-2.054-6.496-4.053-6.146    c-1.955,0.342-4.115,1.562-5.719,2.633c2.034,0.685,4.367,1.888,6.985,3.615C27.136,13.863,27.76,14.23,28.256,14.478z M31,22.762    c-0.23,0.084-0.909,0.942-1.405,1.569c-1.479,1.868-3.703,4.679-7.685,5.973C23.97,31.564,26.439,33,27,33c1,0,0.622-2.24,2-4    c1.695-2.165,2.375-3.743,2.375-5.655c0-0.146-0.09-0.33-0.233-0.532C31.095,22.796,31.044,22.762,31,22.762z M37,19.001    c0-0.434,0.898-2.544,1-4.417c0.105-1.944-0.56-3.015-1.542-2.658c-3.012,1.095-3.708,4.036-5.458,4.036s-2.21,0.191-5.284-1.837    C22.616,12.079,18.767,10,15.711,10c-3.783,0-5.447,0.748-8.961,3.259C3.249,14.874,2,16,2,18c0,0.356,1.184,1.48,2.546,2.867    C5.191,22.986,6.297,24.922,8,25.458V26c-2.938-0.656-3.888-3.969-3.888-3.969L3.5,21l-1,1.703l-1-2.036    c0,0-1.083,1.229-1.083,2.749c0,1.146,0.637,1.839,2.365,2.89C6.533,28.587,12.969,30,17.281,30c9.583,0,11.672-8.24,13.719-8.24    v0.002c1.75,0,2.446,3.219,5.458,4.314c0.982,0.357,1.647-0.713,1.542-2.658C37.898,21.545,37,19.435,37,19.001z M6.5,20.138    c-0.906-0.001-1.639-0.733-1.638-1.638c0-0.904,0.733-1.637,1.637-1.637c0.905,0,1.639,0.732,1.638,1.638    C8.139,19.405,7.403,20.138,6.5,20.138z M10,26.168v-0.621c1.768,0,4-1.297,4-4.141C14,18.115,12,17,12,17l0.371-0.487    c0,0,2.629,1.244,2.629,4.893C15,25.031,12.114,26.169,10,26.168z"/>
	</g>
</g>
</svg>
