<?xml version="1.0" encoding="utf-8"?>
<!-- Generator: Adobe Illustrator 15.0.0, SVG Export Plug-In . SVG Version: 6.00 Build 0)  -->
<!DOCTYPE svg PUBLIC "-//W3C//DTD SVG 1.1//EN" "http://www.w3.org/Graphics/SVG/1.1/DTD/svg11.dtd">
<svg xmlns="http://www.w3.org/2000/svg" xmlns:xlink="http://www.w3.org/1999/xlink" version="1.1" id="Shape_5_2_" x="0px" y="0px" width="40px" height="40px" viewBox="0 0 40 40" enable-background="new 0 0 40 40" xml:space="preserve">
<g>
	<g>
		<path d="M25.026,7.938c-6.851,0-10.669,2.938-12.901,5.5c-4.73,1.495-5.911,3.991-6.109,6.582    c-0.668,0.263-1.036,0.722-0.843,1.763C4.006,23.173,2,23.266,2,24.413C2,25.486,3.977,26,5.281,26c2.36,0,3.73-0.783,5.255-2.362    c2.092,0.121,3.682-0.613,4.766-1.398c-0.129,0.205-0.258,0.405-0.385,0.629c-1.363,2.413-0.989,4.828-0.255,5.082    c0.733,0.253,1.027-0.513,1.598-0.553c0.84-0.059,1.131,0.698,1.934,0.573c0.802-0.125,0.893-0.733,1.423-1.063    c0.531-0.33,1.231,0.108,1.871-0.414c1.286-1.05-0.954-2.092-1.252-4.626c3.283,0.454,6.801-0.398,6.801-0.398    s0.636,0.752,2.122,1.717C27.352,26.052,23,27.625,23,33c6.591,0,15-5.416,15-12.813C38,12.563,31.877,7.938,25.026,7.938z"/>
	</g>
</g>
</svg>
