<?xml version="1.0" encoding="utf-8"?>
<!-- Generator: Adobe Illustrator 15.0.0, SVG Export Plug-In . SVG Version: 6.00 Build 0)  -->
<!DOCTYPE svg PUBLIC "-//W3C//DTD SVG 1.1//EN" "http://www.w3.org/Graphics/SVG/1.1/DTD/svg11.dtd">
<svg xmlns="http://www.w3.org/2000/svg" xmlns:xlink="http://www.w3.org/1999/xlink" version="1.1" id="Shape_5_2_" x="0px" y="0px" width="40px" height="40px" viewBox="0 0 40 40" enable-background="new 0 0 40 40" xml:space="preserve">
<g>
	<g>
		<path d="M32.525,28.166C34.775,26.57,38,24.014,38,22.449c0-1.261-4.728,0.439-5.684,1.35c-0.263,0.25-0.582,0.595-0.906,0.96    c-0.654-1.644-1.895-3.624-4.264-5.157c-0.886-0.573-1.863-0.948-2.869-1.191c1.152-1.159,2.447-2.69,3.598-4.616    c2.935-4.913,2.186-5.694,1.514-5.78c-0.672-0.087-4.549,1.946-7.574,4.96c-1.171,1.167-1.595,3.075-2.027,5.118    c-0.642,0.045-1.254,0.121-1.831,0.211c-5.809-1.886-8.896-5.579-8.896-9.133c0-3.188,2.065-4.733,3.315-4.733    c0.537,0.692,0.904,1.024,3.973,1.442C19.375,6.292,20,5.674,20,5.311c0-0.62-0.688-1.37-2.338-1.826C16.77,2.286,15.993,2,14,2    c-3.667,0-8,2.292-8,7.958c0,7.478,5.118,11.362,8.562,13.51c0.009,0.035,0.021,0.067,0.029,0.103    c-1.603,0.271-3.043,0.518-3.964,1.512c-2.902,3.132-4.793,7.626-4.682,8.294c0.111,0.669,0.909,1.538,5.142-1.805    c1.83-1.445,3.556-3.104,4.926-4.524c1.875,3.098,5.034,4.866,9.099,4.94c-0.163,0.153-0.315,0.301-0.44,0.433    c-0.911,0.956-2.611,5.684-1.351,5.684c1.826,0,5.004-4.389,6.425-6.496c0.199-0.071,0.251-0.123,0.251-0.123    s2.586,0.515,7.027,2.436c0.806,0.349,1.175-0.22,0.852-0.776C36.794,31.285,33.624,28.943,32.525,28.166z"/>
	</g>
</g>
</svg>
