<?xml version="1.0" encoding="utf-8"?>
<!-- Generator: Adobe Illustrator 15.0.0, SVG Export Plug-In . SVG Version: 6.00 Build 0)  -->
<!DOCTYPE svg PUBLIC "-//W3C//DTD SVG 1.1//EN" "http://www.w3.org/Graphics/SVG/1.1/DTD/svg11.dtd">
<svg xmlns="http://www.w3.org/2000/svg" xmlns:xlink="http://www.w3.org/1999/xlink" version="1.1" id="Shape_5_2_" x="0px" y="0px" width="40px" height="40px" viewBox="0 0 40 40" enable-background="new 0 0 40 40" xml:space="preserve">
<g>
	<g>
		<path d="M37.956,19.294C33.626,9.693,21.496,2,11,2C6.124,2,5,4.127,5,6c0,2.156,1.248,3.65,3.404,5.199    c0.541,2.941,1.664,5.452,3.54,7.706c-1.392,0.192-2.546,0.424-2.843,0.566c-0.678,0.323-3,3.894-2.811,6.52L10,21l3.103-0.83    c0.558,0.556,1.17,1.097,1.836,1.627c-1.304,0.204-2.481,0.503-2.838,0.674c-0.678,0.323-2,2.894-1.811,5.52L13,24l3.306-1.18    c0.039,0.027,0.074,0.055,0.113,0.082c0.585,0.404,1.11,0.754,1.591,1.059c-0.903,0.18-1.641,0.381-1.91,0.51    c-0.678,0.323-2,2.894-1.811,5.52L17,26l2.799-0.999c1.95,0.995,3.043,0.989,4.91,0.989c0,0,2.383,1,2.888,3.592    c0.347,1.781-0.624,3.621-2.097,3.621c0,0-4.401-3.203-6.273-3.203C18.414,30,18,30.479,18,31.583    c0,0.936,0.224,2.566,1.417,3.236C20.882,35.643,23.188,36,24.702,36c3.863,0,8.965-1.808,9.298-7.203    c0.305-4.948-2.822-8.879-6.549-11.797C20.15,11.284,13.688,11.438,8,6.375C8,7.344,8.042,8.27,8.125,9.159    C6.713,8.155,6,7.214,6,6c0-1,0.438-3,5-3c8.999,0,21.438,6.491,26.044,16.706C37.128,19.891,37.31,20,37.501,20    c0.068,0,0.138-0.015,0.205-0.044C37.957,19.843,38.069,19.546,37.956,19.294z"/>
	</g>
</g>
</svg>
