<?xml version="1.0" encoding="utf-8"?>
<!-- Generator: Adobe Illustrator 15.0.0, SVG Export Plug-In . SVG Version: 6.00 Build 0)  -->
<!DOCTYPE svg PUBLIC "-//W3C//DTD SVG 1.1//EN" "http://www.w3.org/Graphics/SVG/1.1/DTD/svg11.dtd">
<svg xmlns="http://www.w3.org/2000/svg" xmlns:xlink="http://www.w3.org/1999/xlink" version="1.1" id="Shape_5_2_" x="0px" y="0px" width="40px" height="40px" viewBox="0 0 40 40" enable-background="new 0 0 40 40" xml:space="preserve">
<g>
	<g>
		<path d="M38,2c0,0-3.675,0.111-8.508,1.88C26.225,5.076,23,10,23,10s-0.003,4.965-4.954,5.988c-1.129-0.726-1.956-1.799-1.984-4.3    c-0.032-2.847-1.071-3.946-2.091-4.34C14.047,4.626,13.979,2,13.438,2c-1.125,0-2.48,5.295-4.744,8.66S2,17.938,2,17.938    c5.496,0.539,10.161-3.282,11.345-4.348c0.645,1.312,0.874,2.995,2.479,5.078C14.529,22.989,10,23,10,23s-4.924,3.225-6.12,6.492    C2.111,34.325,2,38,2,38c4.593-7.101,11.128-8,16-8c2.884,0,7.449,1.448,9.042,2c-0.521-2-1.553-4.829-0.722-5.65    c0.83-0.82,3.68,0.213,5.68,0.692c-0.552-1.593-2-6.158-2-9.042C30,13.128,30.899,6.593,38,2z"/>
	</g>
</g>
</svg>
