<?xml version="1.0" encoding="utf-8"?>
<!-- Generator: Adobe Illustrator 15.0.0, SVG Export Plug-In . SVG Version: 6.00 Build 0)  -->
<!DOCTYPE svg PUBLIC "-//W3C//DTD SVG 1.1//EN" "http://www.w3.org/Graphics/SVG/1.1/DTD/svg11.dtd">
<svg xmlns="http://www.w3.org/2000/svg" xmlns:xlink="http://www.w3.org/1999/xlink" version="1.1" id="Shape_5_2_" x="0px" y="0px" width="40px" height="40px" viewBox="0 0 40 40" enable-background="new 0 0 40 40" xml:space="preserve">
<g>
	<g>
		<path fill-rule="evenodd" clip-rule="evenodd" d="M35.754,30.873c-1.284-1.032-3.502-3.161-3.635-3.323    c-0.267-0.323-2.429-3.669-3.535-5.3c-2.903-4.278-5.482-5.665-6.607-6.323C21.187,14.877,22,14.293,22,10.625    C22,8.573,20.917,4,16.651,4c-3.964,0-5.62,1.54-6.401,2.625C9.281,6.889,7.978,7.438,7.344,7.88C5.001,9.518,4,12.625,4,12.625    C5.226,13.299,7.292,14,12,14c-1.161-0.792-1.978-2.452-2-4.167c-0.013-1.015,0.618-2.694,1.578-3.248s1.886-0.626,2.641-0.626    c3.375,0,3.63,2.009,5.781,5.758C17.121,13.775,16.771,14,12,14c0,1.92-1.958,2.531-1.958,6c0,6.015,5.179,9.42,8.69,10.937    l-1.479,5.178C13.669,36.714,12,36.871,12,37.418C12,38,13,38,14,38h11.875c0.813,0,1.075-0.651,1.125-1l1.42-4.968    c2.438-0.004,4.786-0.037,5.872-0.032C35.709,32.007,36.229,31.256,35.754,30.873z M24.286,36h-4l1.19-4.167    c0.824,0.107,2.279,0.16,3.947,0.184L24.286,36z M21.259,30.784C18.973,30.173,11.042,27.044,11.042,20    c0-1.707,0.531-2.573,1.045-3.411c0.299-0.488,2.522-0.476,3.322,0.513c1.107,1.369-0.037,3.578,1.903,6.654    c2.144,3.399,6.708,5.278,10.375,7.244C24.292,31,21.662,30.892,21.259,30.784z"/>
	</g>
</g>
</svg>
