<?xml version="1.0" encoding="utf-8"?>
<!-- Generator: Adobe Illustrator 15.0.0, SVG Export Plug-In . SVG Version: 6.00 Build 0)  -->
<!DOCTYPE svg PUBLIC "-//W3C//DTD SVG 1.1//EN" "http://www.w3.org/Graphics/SVG/1.1/DTD/svg11.dtd">
<svg xmlns="http://www.w3.org/2000/svg" xmlns:xlink="http://www.w3.org/1999/xlink" version="1.1" id="Shape_5_2_" x="0px" y="0px" width="40px" height="40px" viewBox="0 0 40 40" enable-background="new 0 0 40 40" xml:space="preserve">
<g>
	<g>
		<path d="M36.684,14c-1.659,0-3.952,1.542-5.684,0.542c-0.688-0.397-1.614-1.826-2.981-3.404c0.553-0.783,1.064-1.643,1.401-2.513    c-0.906,0.255-1.82,0.688-2.658,1.17c-1.258-1.227-2.814-2.396-4.764-3.104c0.007-1.153-0.087-2.413-0.401-3.524    c-0.674,0.885-1.206,1.973-1.616,3.013C19.352,6.075,18.7,6,18,6c-1.553,0-2.942,0.1-4.179,0.259    c-0.475-0.955-1.062-1.931-1.762-2.717c-0.098,0.482-0.063,1.697,0.024,2.997C8.135,7.304,6.232,8.612,6.232,8.612    S5.167,11.708,2,13v3.042c0.365,1.946,0.784,4.47,1.678,6.934C2.968,23.581,2.28,24.265,1.75,25    c0.854-0.016,1.75-0.174,2.605-0.392c0.896,1.909,2.159,3.687,3.989,5.022c-0.213,0.926-0.359,1.903-0.343,2.827    c0.681-0.529,1.31-1.2,1.868-1.895c1.67,0.849,3.734,1.364,6.272,1.416c0.196,0.896,0.47,1.805,0.859,2.604    c0.414-0.807,0.71-1.729,0.926-2.637c2.537-0.134,4.567-0.635,6.212-1.375c0.557,0.691,1.183,1.359,1.861,1.887    c0.016-0.888-0.119-1.826-0.319-2.72c2.128-1.368,3.406-3.217,4.205-5.122c0.846,0.214,1.729,0.368,2.573,0.384    c-0.544-0.755-1.254-1.455-1.984-2.072c0.291-1.016,0.478-2.014,0.609-2.928c1.292,0.723,3.47,2.15,5.07,2.15    c0.93,0,1.847-2.458,1.847-4.65C38,15.558,37.345,14,36.684,14z M10,14c-1.105,0-2-0.896-2-2s0.895-2,2-2s2,0.896,2,2    S11.105,14,10,14z"/>
	</g>
</g>
</svg>
