<?xml version="1.0" encoding="utf-8"?>
<!-- Generator: Adobe Illustrator 15.0.0, SVG Export Plug-In . SVG Version: 6.00 Build 0)  -->
<!DOCTYPE svg PUBLIC "-//W3C//DTD SVG 1.1//EN" "http://www.w3.org/Graphics/SVG/1.1/DTD/svg11.dtd">
<svg xmlns="http://www.w3.org/2000/svg" xmlns:xlink="http://www.w3.org/1999/xlink" version="1.1" id="Shape_5_2_" x="0px" y="0px" width="40px" height="40px" viewBox="0 0 40 40" enable-background="new 0 0 40 40" xml:space="preserve">
<g>
	<g>
		<path d="M5.69,19.642C6.288,19.217,7.045,19,7.941,19c0.213,0,0.435,0.024,0.656,0.048c0.571-1.143,1.413-2.6,2.467-3.802    C10.385,13.835,10,12.624,10,12.049c0-0.478,0.358-0.796,0.836-0.796c0.44,0,1.632,0.862,2.888,1.998    C14.136,13.097,14.561,13,15,13c1.763,0,3.032,0.805,3.716,1.228c0.253,0.157,0.569,0.352,0.7,0.352    c0.174-0.055,1.005-1.724,2.079-3.763C17.345,6.214,14.042,4,10.263,4C5.688,4,2,6.223,2,11.688c0,3.279,1.239,6.15,3,8.613    C5.197,20.06,5.421,19.833,5.69,19.642z M38,11c0-3.695-2.157-7-6.836-7c-1.518,0-2.852,0.191-4.622,1.417    c-2.79,1.931-5.708,10.14-7,10.14C18.376,15.556,17.431,14,15,14c-2.587,0-4.861,4.164-5.801,6.151    C8.096,19.908,7,19.928,6.242,20.463c-0.975,0.689-1.384,1.909-1.882,3.809C3.593,25.218,2,26.286,2,27.382    c0,1.323,1.557,2.285,2.469,2.508c1.657,0.403,3.212-0.125,6.427-1.848c4.299-2.305,3.151-4.568,2.226-5.804    c-0.082-0.109-0.196-0.225-0.324-0.342C13.51,20.666,14.602,19,15.292,19c1.344,0,2.083,2,4.56,2c2.658,0,5.124-3.144,7.233-6.176    c1.537-2.209,2.948-4.571,3.791-4.571c0.478,0,0.836,0.318,0.836,0.796c0,1.924-6.236,11.941-11.852,11.951h-0.008    c-0.366,0-0.699-0.041-1.015-0.101c-0.018-0.003-0.036-0.01-0.054-0.013c-0.294-0.059-0.567-0.141-0.824-0.239    c-0.14-0.05-0.277-0.111-0.415-0.171c-0.028-0.014-0.057-0.026-0.085-0.041c-0.955-0.432-1.847-1.084-2.659-1.869    c-0.265,0.285-0.554,0.678-0.836,1.132c0.915,1.248,1.221,2.409,0.931,3.546c-0.246,0.966-0.901,1.898-1.986,2.711    C15.589,29.861,17.864,30,20,30c1.922,0,3.791-0.521,5.557-1.393c-0.36,1.882-1.755,5.447-6.225,5.447    c-2.057,0-4.341-0.495-6.395-1.902c-0.75-0.515-1.301,0.188-0.659,0.843c2.225,2.266,4.4,3.411,8.088,3.411    c5.113,0,9.635-3.78,9.635-10.75c0-0.042-0.006-0.084-0.006-0.126C34.76,21.214,38,14.79,38,11z M8,27.142    c-0.631,0-1.142-0.512-1.142-1.143S7.369,24.858,8,24.858s1.142,0.51,1.142,1.141S8.631,27.142,8,27.142z"/>
	</g>
</g>
</svg>
