<?xml version="1.0" encoding="utf-8"?>
<!-- Generator: Adobe Illustrator 15.0.0, SVG Export Plug-In . SVG Version: 6.00 Build 0)  -->
<!DOCTYPE svg PUBLIC "-//W3C//DTD SVG 1.1//EN" "http://www.w3.org/Graphics/SVG/1.1/DTD/svg11.dtd">
<svg xmlns="http://www.w3.org/2000/svg" xmlns:xlink="http://www.w3.org/1999/xlink" version="1.1" id="Shape_5_2_" x="0px" y="0px" width="40px" height="40px" viewBox="0 0 40 40" enable-background="new 0 0 40 40" xml:space="preserve">
<g>
	<g>
		<path d="M36.313,24.063c-0.315,0.029-0.879,0.454-1.449,0.961C34.007,19.49,28.777,16,23.063,16c-4.344,0-6.703,1.11-6.703,1.11    s-0.215-0.64-0.573-1.463c3.668-1.36,5.164-3.248,6.013-5.458c0.554-1.44-0.213-2.427-1.838-2.134    c-0.012,0.002-0.022,0.005-0.035,0.007c0.001-0.006,0.003-0.011,0.004-0.017c0.33-1.508-0.578-2.367-2.139-1.832    c-3.419,1.171-5.31,3.375-6.743,5.846c-1.988,0.133-3.97,0.537-5.118,1.518C4.586,14.725,2,16.764,2,18.708    c0,1.258,0.673,2.214,1.542,2.708c0.863,0.49,3.055,1.073,3.055,1.073s0.665,3.369,1.905,5.14c0.3,0.428,0.614,0.79,0.942,1.094    C8.853,29.517,8,30.732,8,31.165C8,31.826,8.642,32,9.284,32h1.508c0.976,0,1.292-0.566,2.01-2h0.75    C13.24,30.488,13,30.937,13,31.165C13,31.826,13.642,32,14.284,32h1.508c0.976,0,1.292-0.566,2.01-2c2.147,0,4.157,0,4.157,0    s0.467-0.437,1.249-0.583C22.623,28.693,22,27.708,22,26c0-1.541,1.188-3.583,3.035-3.798C23.574,23.136,23,24.776,23,26    c0,1.479,0.737,2.996,1.875,3.917c-1.375,0.083-2.099,0.535-2.5,1.064C22.103,31.341,22.219,32,22.656,32H32    c0.5,0,1.315-0.638,1.973-1.703C35.426,30.649,38,30.874,38,28C38,26,37,24,36.313,24.063z"/>
	</g>
</g>
</svg>
