<?xml version="1.0" encoding="utf-8"?>
<!-- Generator: Adobe Illustrator 15.0.0, SVG Export Plug-In . SVG Version: 6.00 Build 0)  -->
<!DOCTYPE svg PUBLIC "-//W3C//DTD SVG 1.1//EN" "http://www.w3.org/Graphics/SVG/1.1/DTD/svg11.dtd">
<svg xmlns="http://www.w3.org/2000/svg" xmlns:xlink="http://www.w3.org/1999/xlink" version="1.1" id="Shape_5_2_" x="0px" y="0px" width="40px" height="40px" viewBox="0 0 40 40" enable-background="new 0 0 40 40" xml:space="preserve">
<g>
	<g>
		<path d="M31.567,26.72c-0.637,1.363-2.21,3.11-4.316,4.493c0.772,0.516,1.579,0.943,2.391,1.308    c2.158-1.747,3.206-3.254,3.701-4.198C32.751,27.851,32.152,27.325,31.567,26.72z M30.514,25.519    c-0.328-0.411-0.65-0.842-0.956-1.313c1.854-7.388-3.058-12.151-7.808-12.151c-2.666,0-3.82,1.229-5.011,1.029    c-0.705-0.119-2.438-1.655-5.263-2.46c-1.385-1.978-3.077-2.809-3.352-2.678C7.896,8.054,8.16,9.568,8.451,10.942    c-1.13,0.664-2.279,1.53-2.995,2.508c-0.571,0.781-1.908,1.263-3.111,1.591c-0.968,0.265-0.252,1.565,1.154,2.34    c1.182,0.651,3.124,0.147,4.539,0.848c2.614,1.294,3.873,3.729,4.406,5.132c-0.537,0.537-1.453,1.399-2.481,2.148    C8.934,26.26,8,28.792,8,30c0.698,0,1.435-0.318,1.734-0.617c0.579-0.579,0.68-2.197,1.016-2.502    c0.347-0.313,1.995-0.528,3.227-0.946c0.282-0.096,0.875-0.466,1.465-0.945c1.467,0.515,2.621,1.509,2.621,3.785    c0,1.269,0.688,2.494,1.242,3.56C19.637,32.975,16.213,31.896,16,34h7.063c0.57,0,0.244-2.587,0.876-3.519    c0.159-0.235,0.5-0.62,1.035-1.138c0.312,0.318,0.638,0.616,0.974,0.898C28.854,28.215,30.055,26.43,30.514,25.519z M8.914,17.832    c0,0,0.605-0.875-0.269-1.859c-1.029-1.16-2.708-1.744-2.708-1.744s0.465-0.737,0.917-1.104c0.505-0.41,3.545,0.965,3.545,3.198    C10.399,17.354,8.914,17.832,8.914,17.832z M34.571,29.233c-0.529,1.185-1.682,2.643-3.255,3.942    c0.851,0.279,1.684,0.479,2.474,0.611c1.47-1.543,2.093-2.782,2.354-3.538C35.651,29.946,35.124,29.615,34.571,29.233z     M37.425,31.038c-0.226,0.837-0.838,1.925-1.749,2.94c1.986,0.055,3.366-0.423,3.366-1.274    C39.042,32.146,38.4,31.652,37.425,31.038z"/>
	</g>
</g>
</svg>
