<?xml version="1.0" encoding="utf-8"?>
<!-- Generator: Adobe Illustrator 15.0.0, SVG Export Plug-In . SVG Version: 6.00 Build 0)  -->
<!DOCTYPE svg PUBLIC "-//W3C//DTD SVG 1.1//EN" "http://www.w3.org/Graphics/SVG/1.1/DTD/svg11.dtd">
<svg xmlns="http://www.w3.org/2000/svg" xmlns:xlink="http://www.w3.org/1999/xlink" version="1.1" id="Shape_5_2_" x="0px" y="0px" width="40px" height="40px" viewBox="0 0 40 40" enable-background="new 0 0 40 40" xml:space="preserve">
<g>
	<g>
		<path d="M10.055,12.042C10.191,9.684,12.236,9,13.125,9c1,0,2.875,0.359,2.875,2.359c0,0.917-0.75,1.672-1.75,1.672    c-0.688,0-1.373-0.313-1.373-0.937c0-0.454,0.269-0.849,0.815-0.849c0.435,0,0.77,0.206,0.98,0.466    C14.851,11.931,15,11.895,15,11.5c0-1-0.823-1.5-1.875-1.5C12.104,10,11,10.766,11,12.156C11,13.7,12.178,15,14.125,15    C17.031,15,18,13.307,18,10.708c0-2.801-2-4.667-5.25-4.667c-3.042,0-4.712,2.416-4.712,3.958    C8.038,11,8.878,11.768,10.055,12.042z M8.047,12.126C7.434,11.586,7.038,10.844,7.038,10c0-0.4,0.082-0.835,0.238-1.276    c-1.516,0.654-2.997,1.766-2.771,3.398c-1.177,1.034-1.896,1.688-2.406,2.503c-0.257,0.41-0.447,2.088,0.652,2.333    c0.51,0.114,1.504,0.1,2.262,0.068c0.046-1.145,0.256-2.548,0.707-3.371C6.054,13.045,6.963,12.39,8.047,12.126z M36.313,27.614    c-0.25-1.228,0.176-3.604-0.313-7.377C35.554,16.793,31.451,14,27.938,14c-4.881,0-1.849,0-5.354,0    c-0.841,0-2.299-0.629-3.693-1.492C18.465,15.038,16.734,16,14.125,16c-2.199,0-3.69-1-4.031-3    c-0.562-0.05-1.087-0.235-1.545-0.509C6.374,13.619,5.942,14.293,6,16.971C6.021,17.951,8.25,20,8.25,20s0.678,2.104,1.546,3.867    C9.488,23.911,9.212,23.959,9,24.008c-0.729,0.169-0.986,0.622-0.961,1.358c0.015,0.429,0.357,3.847,0.47,4.179    c0.208,0.613,1.075,1.433,3.346,2.163l-0.298-2.037c0,0-0.905-0.71-1.125-0.784c-0.234-0.08-0.194-1.442-0.25-2.426    c0.242,0.051,0.783,0.031,1.474-0.023c1.066,0.993,2.732,2.264,3.928,2.563c0.537,0.135,1.247,0.261,2.032,0.377    c0.188,0.996,0.802,3.678,0.802,4.623c0,0.375-0.516,2-0.516,2h1.913c0.246-0.735,0.357-1.362,0.394-1.832    c0.04-0.532-0.037-2.574-0.125-4.485C21.946,29.879,23.742,30,24.487,30c1.019,0,1.964-0.097,2.838-0.271    c0.745,0.636,1.358,1.004,1.316,1.386C28.396,33.351,27.688,36,27.688,36h2.094c0,0,0.477-1.702,1.315-4.813    c0.104-0.389,0.15-0.902,0.141-1.434c1.939,0.606,4.313,0.711,4.441,1.913C36.049,35.104,35.633,36,35.633,36h2.119    c0,0,0.229-0.9,0.239-1.938C38.004,32.833,38,33.221,38.034,30C38.045,29,36.928,28.307,36.313,27.614z"/>
	</g>
</g>
</svg>
