<?xml version="1.0" encoding="utf-8"?>
<!-- Generator: Adobe Illustrator 15.0.0, SVG Export Plug-In . SVG Version: 6.00 Build 0)  -->
<!DOCTYPE svg PUBLIC "-//W3C//DTD SVG 1.1//EN" "http://www.w3.org/Graphics/SVG/1.1/DTD/svg11.dtd">
<svg xmlns="http://www.w3.org/2000/svg" xmlns:xlink="http://www.w3.org/1999/xlink" version="1.1" id="Shape_5_2_" x="0px" y="0px" width="40px" height="40px" viewBox="0 0 40 40" enable-background="new 0 0 40 40" xml:space="preserve">
<g>
	<g>
		<path d="M32.875,25.343C32.243,19.206,29.064,12,22.063,12c-2.625,0-4.063,1.266-5.406,0.625c-0.351-0.167-0.871-0.836-1.46-1.557    c1.04-1.527,1.062-3.485,0.1-3.959c-1.025-0.505-2.302,0.862-2.939,1.668C11.061,8.314,9.407,8,8,8    C6.06,8,3.959,8.237,2.829,8.541C2.184,8.714,2,9.286,2,9.669c0,1.25,0.406,2.622,2.203,3.349c0.84,0.34,4.613,3.479,4.613,3.479    s1.112,3.392,2.059,5.335c0.738,1.517,1.168,2.343,1.586,2.864c-0.009,0.195-0.022,0.395-0.042,0.596    C12.156,27.875,11.077,30,11.077,30h2.094c0,0,0.666-1.693,1.173-4.043c0.628,0.306,1.231,0.558,1.833,0.79    c-0.41,1.875-1.1,3.253-1.1,3.253h2.094c0,0,0.399-1.02,0.815-2.567c0.769,0.295,1.576,0.622,2.483,1.067    c-1.056,0.212-1.489,1.5-1.489,1.5s7.308,0,13.854,0c0.667,0,1.138-0.149,1.249-0.499C35.196,30.186,35.5,30.562,35.5,31    c0,1-2.501,1.103-5.492,1.33S20,32.95,19,33c-0.999,0.05-1,1,0,1h11c5,0,8-0.063,8-3C38,28.98,37.06,27.854,32.875,25.343z"/>
	</g>
</g>
</svg>
