<?xml version="1.0" encoding="utf-8"?>
<!-- Generator: Adobe Illustrator 15.0.0, SVG Export Plug-In . SVG Version: 6.00 Build 0)  -->
<!DOCTYPE svg PUBLIC "-//W3C//DTD SVG 1.1//EN" "http://www.w3.org/Graphics/SVG/1.1/DTD/svg11.dtd">
<svg xmlns="http://www.w3.org/2000/svg" xmlns:xlink="http://www.w3.org/1999/xlink" version="1.1" id="Shape_5_2_" x="0px" y="0px" width="40px" height="40px" viewBox="0 0 40 40" enable-background="new 0 0 40 40" xml:space="preserve">
<g>
	<g>
		<path d="M26,33.834C26,35.126,27.199,36,28.682,36c0.438,0,0.859-0.055,1.273-0.133l-2.363-4.506    C26.235,32.127,26,32.879,26,33.834z M28.125,30C30.188,28.656,31,26.625,31,24v-1h0.005c0.012-1.063,0.048-2.409,0.163-3.097    c0.442,0.634,0.71,1.74,0.798,3.097h5.988c-0.381-8.699-6-11.946-11.956-11.946c-5.542,0-4.402,1.029-11.331,1.029    c-1.097,0-2.439-0.264-3.815-0.457c-0.262-2.002-0.89-4.542-2.394-4.542c-1.412,0-3.158,3.128-3.468,5.446    c-0.022,0.019-0.046,0.034-0.068,0.054c-2.453,2.266-3.47,4.708-2.567,8.278c-0.317,0.834-0.486,1.836-0.169,2.204    c0.588,0.684,1.519,1.12,3.275,0.804c0.822-0.148,1.847-0.563,2.81-1.066c-0.936-1.826-2.532-2.178-3.77-2.178    c-0.57,0-0.99,0.117-1.25-0.445c-0.368-0.795,0.144-1.971,2.167-1.971c2.264,0,3.589,2.014,4.205,3.798    c0.308-0.204,0.597-0.409,0.837-0.607c0.301,0.09,0.584,0.163,0.877,0.244c0.59,2.178,1.241,4.669,0.665,6.378    c-1.454,0.832-1.137,1.974-0.188,1.974h1.372c-0.042-0.089-0.097-0.168-0.123-0.266c-0.176-0.663,0.032-1.595,1.076-2.342    c0.292-1.375-0.214-3.431-0.693-5.208c0.376,0.086,0.737,0.159,1.096,0.23c0.519,1.978,0.969,4.1,0.459,5.611    c-1.454,0.832-1.137,1.974-0.188,1.974h2.833c1.354,0,2.352-1.551,2.354-4.662c0.001-0.869-0.066-1.602-0.207-2.257    c3.454,0.154,5.248-0.387,5.248-0.387C25.041,25.344,26,25.75,26,28c-1,1-1,2,0.231,2H28.125z M8.625,16.042    C8,15.85,7.789,14.582,7.789,13.915c-1.047,0.268-1.851-0.063-1.851-0.708c0-2.332,1.939-5.123,2.521-5.123    c0.833,0,1.58,3.422,1.58,5.916c1.272,0.399,2.207,1.17,2.207,1.417C12.245,15.75,9.617,16.345,8.625,16.042z M28.446,30.838    l2.499,4.764c1.313-0.459,2.478-1.301,3.465-2.375l-4.299-3.721C29.647,29.98,29.098,30.418,28.446,30.838z M30.752,28.736    l4.305,3.728c0.821-1.064,1.479-2.299,1.969-3.587l-5.566-1.524C31.271,27.851,31.048,28.319,30.752,28.736z M32,24    c0,0.911-0.092,1.689-0.25,2.395l5.601,1.535c0.404-1.316,0.63-2.662,0.638-3.93H32z"/>
	</g>
</g>
</svg>
