<?xml version="1.0" encoding="utf-8"?>
<!-- Generator: Adobe Illustrator 15.0.0, SVG Export Plug-In . SVG Version: 6.00 Build 0)  -->
<!DOCTYPE svg PUBLIC "-//W3C//DTD SVG 1.1//EN" "http://www.w3.org/Graphics/SVG/1.1/DTD/svg11.dtd">
<svg xmlns="http://www.w3.org/2000/svg" xmlns:xlink="http://www.w3.org/1999/xlink" version="1.1" id="Shape_5_2_" x="0px" y="0px" width="40px" height="40px" viewBox="0 0 40 40" enable-background="new 0 0 40 40" xml:space="preserve">
<g>
	<g>
		<path d="M36.434,24.835c-0.128-0.893,1.345-3.199,0.066-6.75C35.611,15.616,31.917,14,29.542,14c-1.229,0-1.453,0.625-4.958,0.625    c-1.584,0-4.365-1.318-4.365-1.318s-1.094-2.807-3.343-3.14c-2.69-0.398-4.737-0.338-6.003-0.08    C10.113,8.844,8.958,7.083,8.5,7.083c-0.547,0-0.973,2.702,0.848,3.781c-0.449,0.617-0.95,1.183-1.627,1.825    c-0.554-0.39-1.2-0.774-1.506-0.688c-0.284,0.08-0.208,0.947-0.053,1.824c-0.175,0.06-0.354,0.11-0.54,0.145    c-2.754-1.536-2.322-4.924-2.667-4.924c-0.354,0-0.971,1.238-0.971,3.337c0,1.368,0.394,2.36,0.67,2.892    c-0.393,1.038-0.917,2.882-0.418,3.355c0.725,0.688,3.015,1.331,6.67,1.331c1.347,0,2.788-1.043,2.788-1.043    s1.692,1.576,2.432,2.375c-0.55,1.278,0.276,2.925,1.458,3.911c1.002,2.563,1.962,3.491,1.962,4.195    c0,0.331-0.838,1.407-1.086,1.692C16.045,31.567,15.973,32,16.52,32h2.23c1.531,0,1.042-1.327,1.22-2.313    c0.084-0.469,0.028-1.962-0.06-3.475c0.033-0.003,0.065-0.006,0.099-0.009c0.831,1.815,1.536,2.592,1.536,3.194    c0,0.331-0.838,1.407-1.086,1.692C20.045,31.567,19.973,32,20.52,32h2.23c1.5,0,1.042-1.327,1.22-2.313    c0.088-0.491,0.022-2.103-0.072-3.685C23.989,26.002,24.072,26,24.167,26c1.371,0,2.957-0.346,4.529-0.901    c1.362,2.082,2.327,2.828,2.027,3.897c-0.158,0.564-0.871,1.272-1.425,1.938C28.836,31.49,28.563,32,29.583,32h1.667    c0.502,0,0.684-0.336,0.833-0.754c0.203-0.566,1.116-2.518,1.266-2.866c0.214-0.499-0.052-1.168-0.355-1.776    c1.364,1.213,2.597,2.089,2.686,2.917c0.067,0.63-0.246,0.915-0.454,1.22C34.815,31.338,34.284,32,35.25,32h2    c0.502,0,0.54-0.313,0.585-0.754c0.066-0.646,0.199-2.788,0.199-3.246C38.034,27,36.601,26,36.434,24.835z"/>
	</g>
</g>
</svg>
