<?xml version="1.0" encoding="utf-8"?>
<!-- Generator: Adobe Illustrator 15.0.0, SVG Export Plug-In . SVG Version: 6.00 Build 0)  -->
<!DOCTYPE svg PUBLIC "-//W3C//DTD SVG 1.1//EN" "http://www.w3.org/Graphics/SVG/1.1/DTD/svg11.dtd">
<svg xmlns="http://www.w3.org/2000/svg" xmlns:xlink="http://www.w3.org/1999/xlink" version="1.1" id="Shape_5_2_" x="0px" y="0px" width="40px" height="40px" viewBox="0 0 40 40" enable-background="new 0 0 40 40" xml:space="preserve">
<g>
	<g>
		<path d="M15.569,28.017c0.146,0.183,0.299,0.366,0.45,0.55l-1.186,1.186c-0.757,0.756-0.625,1.659-0.111,2.229    c1.438,1.592,2.258,2.319,2.718,3.037C17.9,35.736,18,38,18,38h2c-0.423-3-0.631-3.566-1.295-4.416    c-0.338-0.432-1.262-1.469-2.269-2.605l0.892-0.892c0.336,0.373,0.669,0.732,0.986,1.049c4.832,4.832,11.031,2.418,13.023,0.915    l-9.913-9.889L15.569,28.017z M14.945,27.227l12.281-12.281c-0.321-0.249-0.629-0.481-0.921-0.698l1.271-2.208    C29.825,12.828,31,13,32,13s4-1,4-1v-2c0,0-3,1-4,1c-0.889,0-1.937-0.182-3.802-0.843c-0.731-0.259-1.359-0.358-1.914,0.198    l-1.596,2.814c-0.592-0.337-1.183-0.594-1.771-0.785l1.063-3.188C23.994,9.131,24,9.065,24,9c0-0.295-0.131-0.579-0.363-0.771    c-1.328-1.098-2.173-1.864-2.709-2.547C20.655,5.334,20,3.135,20,2h-2c0,0.801,0.565,3.624,1.123,4.475    c0.584,0.893,1.464,1.828,2.779,2.916l-0.915,2.63c-0.815-0.042-1.622,0.061-2.411,0.305C17.651,12.011,16.618,12,15,12    c-1,0-2.436-0.939-7.936-6.439C5.752,4.248,5.199,1.488,4.668,1.488c-0.53,0-0.356,2.825-0.356,2.825S1.488,4.138,1.488,4.668    c0,0.53,2.76,1.084,4.072,2.396C11.061,12.564,12,14,12,15c0,1.618,0.011,2.65,0.325,3.576c-0.245,0.79-0.347,1.595-0.305,2.412    l-2.63,0.915c-1.087-1.315-2.023-2.195-2.916-2.779C5.624,18.565,2.801,18,2,18v2c1.135,0,3.334,0.655,3.682,0.928    c0.684,0.536,1.45,1.381,2.547,2.709C8.421,23.869,8.705,24,9,24c0.065,0,0.131-0.006,0.196-0.02l3.188-1.063    c0.19,0.587,0.448,1.178,0.785,1.77l-2.815,1.597c-0.556,0.555-0.457,1.183-0.198,1.914C10.818,30.063,11,31.111,11,32    c0,1-1,4-1,4h2c0,0,1-3,1-4s-0.172-2.175-0.96-4.423l2.209-1.272C14.465,26.598,14.696,26.904,14.945,27.227z M33.584,18.705    C34.434,19.369,35,19.577,38,20v-2c0,0-2.264-0.1-2.982-0.56c-0.718-0.46-1.445-1.279-3.037-2.718    c-0.569-0.515-1.473-0.646-2.229,0.111l-1.186,1.186c-0.184-0.151-0.367-0.304-0.55-0.45l-5.886,5.886l9.914,9.891    c1.503-1.984,3.93-8.193-0.909-13.034c-0.316-0.316-0.676-0.648-1.049-0.984l0.892-0.892    C32.115,17.442,33.152,18.367,33.584,18.705z"/>
	</g>
</g>
</svg>
