<?xml version="1.0" encoding="utf-8"?>
<!-- Generator: Adobe Illustrator 15.0.0, SVG Export Plug-In . SVG Version: 6.00 Build 0)  -->
<!DOCTYPE svg PUBLIC "-//W3C//DTD SVG 1.1//EN" "http://www.w3.org/Graphics/SVG/1.1/DTD/svg11.dtd">
<svg xmlns="http://www.w3.org/2000/svg" xmlns:xlink="http://www.w3.org/1999/xlink" version="1.1" id="Shape_5_2_" x="0px" y="0px" width="40px" height="40px" viewBox="0 0 40 40" enable-background="new 0 0 40 40" xml:space="preserve">
<g>
	<g>
		<path fill-rule="evenodd" clip-rule="evenodd" d="M36.409,30.143c-2.743-2.029-9.856-6.4-9.856-6.4    c-2.775-4.2-6.313-7.326-9.313-10.326C15.732,7.399,14.094,6,10.708,6C8.89,6,7.484,6.881,6.738,7.581    C4.079,7.908,1.979,8.361,2.001,8.6c0.027,0.273,2.495,1.352,5.08,2.194C7.541,11.763,8,12.844,8,13.965c0,1.827,0,1.702,0,4.16    c0,4.866,3.424,8.323,7.262,9.465l-1.905,4.91h-1.128C9.374,32.5,7.678,33.199,7,34h18c-0.644-1.288-3.28-1.493-4.004-1.499    l1.979-5.101c0.585-0.106,1.207-0.184,2.025-0.184c0.663,0,7.485,5.516,8.868,6.192c1.872,0.916,3.632,0.732,3.993-0.313    C38.299,31.831,37.674,31.078,36.409,30.143z M9,18.125V14h6.167c0,0-2.167,1.333-2.167,4.417c0,2.074,0.799,4.61,6.862,8.504    C19.34,26.97,18.735,27,18,27C13.666,27,9,23.536,9,18.125z M19.357,32.5h-4.36l1.781-4.593C17.187,27.962,17.595,28,18,28    c1.425,0,2.399-0.111,3.2-0.25L19.357,32.5z"/>
	</g>
</g>
</svg>
