<?xml version="1.0" encoding="utf-8"?>
<!-- Generator: Adobe Illustrator 15.0.0, SVG Export Plug-In . SVG Version: 6.00 Build 0)  -->
<!DOCTYPE svg PUBLIC "-//W3C//DTD SVG 1.1//EN" "http://www.w3.org/Graphics/SVG/1.1/DTD/svg11.dtd">
<svg xmlns="http://www.w3.org/2000/svg" xmlns:xlink="http://www.w3.org/1999/xlink" version="1.1" id="Shape_5_2_" x="0px" y="0px" width="40px" height="40px" viewBox="0 0 40 40" enable-background="new 0 0 40 40" xml:space="preserve">
<g>
	<g>
		<path fill-rule="evenodd" clip-rule="evenodd" d="M29.594,10c-3.959,0-7.549,3.031-8.957,8.164    c-1.787-0.657-3.29-1.452-3.967-2.586c-2.557-4.284-1.273-6.583-6.971-8.396c1.758-1.191,2.257-2.375,2.257-3.414    c0-1.25-1.709-1.755-2.619-1.755c-4.224,0-3.858,1.461-3.087,3.154C4.219,5.396,3.299,6.324,4.917,8.833    c-0.929,0.537-3.135,1.627-2.852,1.75c0.459,0.2,2.584,0.774,3.517,1.022c-0.781,1.129-1.363,1.722-1.363,2.344    c0,1.176,0.806,2.05,1.789,2.05S8,15.317,8,13.95C8,12.583,8,12,8,12s2-0.405,2-2.417c0-0.563-0.246-1.127-0.529-1.599    c0.667,0.359,1.357,0.984,1.357,2.016c0,1.483-1.066,2.427-1.828,2.764v1.187c0,1.595-1.002,2.586-2.148,2.917    C6.843,16.91,6.838,16.959,6.829,17c-0.453,2-2.524,7.689,2.445,11.462c2.33,1.768,3.979,2.512,5.681,3L13.988,36h-0.717    C10.417,36,8.678,37.198,8,38h17c-0.472-0.943-1.986-1.562-3.052-1.835l0.982-4.61c0.213-0.057,0.427-0.11,0.633-0.177    c1.889-0.607,4.089-2.019,5.604-3.8L30.375,32c0,0,3.06-3.979,3.875-7.084L35.406,29c0,0,2.594-3.938,2.594-9    C38,14,34.594,10,29.594,10z M19.988,36h-4.005l0.875-4.107C17.687,31.998,18.588,32,19.561,32c0.441,0,0.871-0.028,1.294-0.07    L19.988,36z"/>
	</g>
</g>
</svg>
