<?xml version="1.0" encoding="utf-8"?>
<!-- Generator: Adobe Illustrator 15.0.0, SVG Export Plug-In . SVG Version: 6.00 Build 0)  -->
<!DOCTYPE svg PUBLIC "-//W3C//DTD SVG 1.1//EN" "http://www.w3.org/Graphics/SVG/1.1/DTD/svg11.dtd">
<svg xmlns="http://www.w3.org/2000/svg" xmlns:xlink="http://www.w3.org/1999/xlink" version="1.1" id="Shape_5_2_" x="0px" y="0px" width="40px" height="40px" viewBox="0 0 40 40" enable-background="new 0 0 40 40" xml:space="preserve">
<g>
	<g>
		<path d="M30.738,27.04c0.759-0.295,1.431-0.691,1.554-1.04c0.253-0.715-1.083-1.792-1.792-2.133    c1.726,0.126,3.48-0.251,3.48-0.804c0-4.397,1.895-3.688,1.895-7.063c0-5.667-6.125-4.417-7.791-9.833    c-3.891,0-7.651,1.924-9.731,3.208c0.953,0.602,1.706,1.27,2.354,1.918C24.692,15.278,28.354,23.176,30.738,27.04z M31.365,29.59    C29.182,27.406,24.826,16.826,20,12c-1.287-1.287-2.979-2.652-5.841-3.423C12.57,8.149,9.845,8.281,8.644,7.458    C6.675,6.111,2.246,2.123,0,1c0.732,1.465,3.991,4.647,7.302,7.893c1.388,1.361,1.445,2.85,1.445,3.545    c0,0-0.934-1.782-2.747-3.126c0.782,2.251,1.556,4.927,3.185,7.399c1.011,0.275,2.084,0.348,3.021,0.11    c2.584-0.657,3.268-3.066,2.42-6.406c1.815,2.768,1.139,6.583-2.326,7.463c-0.483,0.123-1.292,0.167-2.213,0.054    c0.188,0.23,0.368,0.464,0.576,0.688C10.313,20.388,10,22.471,10,24.25C10,30,14,32,14,32s-1.365-3.083-1.839-7.843    c-0.104-1.044-0.214-2.714-0.311-4.362c2.131,1.88,5.112,3.779,8.048,5.523C20.196,28.302,20.969,31,20.969,31    c0.795-3.32,1.39-3.785,2.153-3.8c2.946,1.704,5.467,3.164,6.468,4.165c-0.949,2.466-1.003,6.647-1.003,6.647    s2.981-4.709,3.85-5.576C33.304,31.568,38,28.622,38,28.622S33.803,28.649,31.365,29.59z M11,12c-0.552,0-1-0.448-1-1    c0-0.553,0.448-1,1-1c0.551,0,1,0.448,1,1C12,11.552,11.552,12,11,12z"/>
	</g>
</g>
</svg>
