<?xml version="1.0" encoding="utf-8"?>
<!-- Generator: Adobe Illustrator 15.0.0, SVG Export Plug-In . SVG Version: 6.00 Build 0)  -->
<!DOCTYPE svg PUBLIC "-//W3C//DTD SVG 1.1//EN" "http://www.w3.org/Graphics/SVG/1.1/DTD/svg11.dtd">
<svg xmlns="http://www.w3.org/2000/svg" xmlns:xlink="http://www.w3.org/1999/xlink" version="1.1" id="Shape_5_2_" x="0px" y="0px" width="40px" height="40px" viewBox="0 0 40 40" enable-background="new 0 0 40 40" xml:space="preserve">
<g>
	<g>
		<path d="M37.007,17.554c-0.361-0.26,0.503-1.073-0.019-1.374c-0.543-0.311-0.945,0.702-1.322,0.661    c-0.682-0.078-0.553-0.969-1.179-0.728c-0.543,0.208-0.091,0.995-0.401,1.563c-0.409,0.755-2.501,0.148-3.176,3.544    c-1.071-1.092-2.44-2.123-4.16-3.221c-2.395-1.529-4.34-2.948-5.873-4.253c2.872-0.968,1.912-2.972,2.139-3.762    c0.18-0.623,1.053-0.867,0.813-1.396c-0.278-0.611-0.813,0.115-1.353-0.308c-0.298-0.234,0.127-1.239-0.479-1.398    c-0.583-0.153-0.536,1.034-0.978,0.966c-0.441-0.069-0.87-0.661-1.143-0.039c-0.175,0.398,0.268,0.706,0.268,1.877    c0,1.006,0.09,1.517-1.543,1.878c-0.931-1.035-1.546-1.977-1.851-2.816c-0.408-1.123-0.67-3.479-1.388-4.258    C13.997,3.01,11.017,2,8.385,2c-1.9,0-2.906,0.383-3.454,0.932C4.383,3.479,4,4.522,4,6.385c0,2.631,1.01,5.611,2.492,6.977    c0.778,0.718,2.824,0.943,3.668,1.788c0.193,0.193,0.474,0.623,0.838,1.192c-0.486,0.373-1.259,0.864-1.832,0.742    c-1.458-0.313-1.854-1.848-2.521-1.973s-0.442,0.545-0.65,0.941s-1.133-0.35-1.358,0.209c-0.233,0.58,0.827,0.838,0.837,1.217    c0.019,0.685-0.883,0.682-0.559,1.269c0.281,0.509,0.998-0.047,1.604,0.18c0.899,0.338,2.264,2.824,5.705-0.723    C13.536,20.093,15.424,22.422,18,24c2.462,1.508,4.784,2.016,6.575,2.583c-2.991,0.94-2.31,2.874-3.013,3.318    c-0.547,0.348-1.362-0.051-1.533,0.505c-0.198,0.641,0.683,0.453,0.806,1.128c0.066,0.373-0.917,0.843-0.57,1.363    c0.335,0.5,1.088-0.417,1.372-0.073c0.285,0.345-0.122,0.944,0.557,0.944c0.73,0,2.056-1.937,2.307-2.612    c0.244-0.658,0.377-1.085,0.696-1.496c0.457-0.588,1.746-1.19,2.22-1.399C27.786,28.793,28,29.479,28,30.434    c0,2.875-1.912,4.441-4.732,4.441C20,34.875,19.438,34,15.188,34C11.041,34,8,36.401,8,37c0,0.402,2-1,6.188-1    C17.563,36,20,38,24,38c7,0,10-4.125,10-8.313c0-2.424-0.379-4.301-1.21-5.915c0.084-0.247,0.665-1.891,1.299-2.454    c0.389-0.347,0.806-0.508,1.446-0.796c0.657-0.296,2.501-1.748,2.451-2.476C37.941,17.369,37.37,17.815,37.007,17.554z"/>
	</g>
</g>
</svg>
