<?xml version="1.0" encoding="utf-8"?>
<!-- Generator: Adobe Illustrator 15.0.0, SVG Export Plug-In . SVG Version: 6.00 Build 0)  -->
<!DOCTYPE svg PUBLIC "-//W3C//DTD SVG 1.1//EN" "http://www.w3.org/Graphics/SVG/1.1/DTD/svg11.dtd">
<svg xmlns="http://www.w3.org/2000/svg" xmlns:xlink="http://www.w3.org/1999/xlink" version="1.1" id="Shape_5_2_" x="0px" y="0px" width="40px" height="40px" viewBox="0 0 40 40" enable-background="new 0 0 40 40" xml:space="preserve">
<g>
	<g>
		<path d="M31.083,29.125c-0.25-0.263-1.002-0.852-1.808-2.261c0.427-0.775,0.808-1.555,0.808-1.864c0-0.26-0.958-0.592-2.072-0.89    c-0.29-0.626-0.655-1.366-1.067-2.165c0.369-0.116,0.685-0.24,0.793-0.361c0.342-0.381,0.542-4.145,0.206-4.962    c-0.246-0.596-3.253-1.115-4.865-1.353c-2.056-2.766-5.23-5.652-7.236-6.631C14.534,8,13.063,8,12,8.099    C7.25,6.417,9.057,1.991,6.441,2.032c-0.439,0.007-1.487,0.554-1.66,1.061c-0.076,0.222,0.898,0.748,1,0.931    C6.208,5.18,5.58,9.646,7.068,12.135c-2.81-2.607-3.279-6.11-3.547-7.233c-0.569,0.259-1.052,0.75-1.052,1.935    c0,2.309,0.692,4.788,1.819,7.242c1.128,1.592,3.854,2.696,5.999,2.151c2.584-0.657,3.771-3.154,2.923-6.494    c-0.17-0.67,0.415-0.673,0.585-0.002c0.839,3.304,0.202,6.585-3.262,7.465c-0.958,0.243-3.187,0.184-5.057-0.821    c0.07,0.122,0.133,0.245,0.205,0.366C4.254,21.391,4.108,23.731,4.208,24c0.133,0.354,3.582-2.419,3.685-3.283    c0.013-0.106,0.016-0.327,0.011-0.628c3.364,4.522,7.649,8.297,10.927,9.796c0.874,1.941,1.859,4.039,2.064,4.091    c2.229,0.566,5.146-0.316,5.929-1.684c0.105-0.184-0.055-0.724-0.287-1.313c0.981,0.146,1.852,0.452,2.546,1.146    c1,1-0.246,3.201,1.917,6.446c2.098-2.099,2.371-5.2,2.371-5.2s3.144-0.314,5.2-2.371C35.326,28.837,32.083,30.178,31.083,29.125z     M9,10c-0.552,0-1-0.448-1-1s0.448-1,1-1s1,0.448,1,1S9.552,10,9,10z"/>
	</g>
</g>
</svg>
