<?xml version="1.0" encoding="utf-8"?>
<!-- Generator: Adobe Illustrator 15.0.0, SVG Export Plug-In . SVG Version: 6.00 Build 0)  -->
<!DOCTYPE svg PUBLIC "-//W3C//DTD SVG 1.1//EN" "http://www.w3.org/Graphics/SVG/1.1/DTD/svg11.dtd">
<svg xmlns="http://www.w3.org/2000/svg" xmlns:xlink="http://www.w3.org/1999/xlink" version="1.1" id="Shape_5_2_" x="0px" y="0px" width="40px" height="40px" viewBox="0 0 40 40" enable-background="new 0 0 40 40" xml:space="preserve">
<g>
	<g>
		<path d="M37.562,30.232c-0.178-0.178-0.392-0.283-0.616-0.354C36.978,29.757,37,29.632,37,29.5c-0.001-0.828-1.673-2.5-2.5-2.5    c-0.324,0-0.623,0.105-0.868,0.28c0.07-0.325,0.04-0.675-0.122-0.994c-0.377-0.738-2.624-1.47-3.361-1.095    c-0.197,0.1-0.359,0.238-0.489,0.4c0.039-0.343-0.011-0.699-0.173-1.032c-0.37-0.762-2.294-1.534-3.497-1.546    c0.038-0.633-0.018-1.331-0.162-2.059C27.423,21.416,29.617,22,30.5,22c1,0,3.5-1.893,3.5-3.5c0-2-1-5.5-2-6.5v6l-2,2    l-4.625-0.661c-0.193-0.542-0.429-1.078-0.7-1.596C25.463,17.896,26.13,18,26.5,18c1,0,3.5-1.893,3.5-3.5c0-2-1-5.5-2-6.5v6l-2,2    l-2.742-0.343c-0.306-0.348-0.628-0.67-0.973-0.946c-0.326-0.261-0.676-0.526-1.038-0.79C21.728,13.968,22.169,14,22.5,14    c1,0,3.5-1.893,3.5-3.5c0-2-1-5.5-2-6.5v6l-2,2h-3.68c-0.861-0.509-1.706-0.959-2.462-1.302C20.237,9.757,22,7.896,22,5.979    C22,3.5,19.455,2,16.274,2C10.691,2,9,6,9,6c2.625-1,4.276-0.804,4.276-0.804S11.549,6.505,11,8c4.009-1.89,4.134-0.5,5.975-0.5    C14.737,8.313,13,9,13,10c0,0.019,0.021,0.04,0.028,0.06c-0.688,0.127-1.333,0.48-1.911,1.058s-0.931,1.223-1.058,1.911    C10.04,13.021,10.019,13,10,13c-1,0-1.688,1.737-2.5,3.975C7.5,15.134,6.11,15.009,8,11c-1.495,0.549-2.804,2.276-2.804,2.276    S5,11.625,6,9c0,0-4,1.691-4,7.274C2,19.455,3.5,22,5.979,22c1.917,0,3.778-1.763,4.719-6.142    c0.343,0.756,0.793,1.601,1.302,2.462V22l-2,2H4c1,1,4.5,2,6.5,2c1.607,0,3.5-2.5,3.5-3.5c0-0.331-0.032-0.772-0.079-1.253    c0.264,0.362,0.529,0.712,0.79,1.038c0.276,0.345,0.599,0.667,0.946,0.973L16,26l-2,2H8c1,1,4.5,2,6.5,2c1.607,0,3.5-2.5,3.5-3.5    c0-0.37-0.104-1.037-0.257-1.825c0.518,0.271,1.054,0.507,1.596,0.7L20,30l-2,2h-6c1,1,4.5,2,6.5,2c1.607,0,3.5-2.5,3.5-3.5    c0-0.883-0.584-3.077-1.045-4.673c1.361,0.271,2.623,0.233,3.519-0.168c0.51,0.918,3.229,1.851,4.146,1.405    c0.301-0.146,0.538-0.366,0.715-0.623c-0.015,0.257,0.029,0.521,0.154,0.766c0.377,0.74,2.623,1.472,3.361,1.096    c0.065-0.033,0.124-0.075,0.183-0.117c-0.021,0.102-0.034,0.206-0.034,0.313c0,0.718,1.251,2.062,2.124,2.411    c-0.16,0.645-0.16,1.535,0.001,2.18c-0.798,0.319-1.894,1.459-2.081,2.203c-0.689-0.367-2.229-0.388-2.995-0.053    c0.137-0.667-0.004-1.47-0.548-2.404c-0.662-1.14-2.167-2.45-2.72-2.479c0.603,0.988,0.833,2.671,0.646,2.727    c-0.323,0.097-0.625,0.275-0.874,0.536c-0.762,0.799-0.732,2.065,0.067,2.827c0.749,0.715,1.904,0.725,2.674,0.063    c0.003,0.38,0.147,0.76,0.437,1.049c0.587,0.586,2.95,0.586,3.536,0c0.23-0.229,0.343-0.52,0.393-0.817    C33.899,36.905,34.188,37,34.5,37c0.827,0,2.499-1.672,2.5-2.5c0-0.132-0.022-0.258-0.055-0.38    c0.224-0.07,0.438-0.175,0.616-0.353C38.146,33.182,38.146,30.817,37.562,30.232z"/>
	</g>
</g>
</svg>
