<?xml version="1.0" encoding="utf-8"?>
<!-- Generator: Adobe Illustrator 15.0.0, SVG Export Plug-In . SVG Version: 6.00 Build 0)  -->
<!DOCTYPE svg PUBLIC "-//W3C//DTD SVG 1.1//EN" "http://www.w3.org/Graphics/SVG/1.1/DTD/svg11.dtd">
<svg xmlns="http://www.w3.org/2000/svg" xmlns:xlink="http://www.w3.org/1999/xlink" version="1.1" id="Shape_5_2_" x="0px" y="0px" width="40px" height="40px" viewBox="0 0 40 40" enable-background="new 0 0 40 40" xml:space="preserve">
<g>
	<g>
		<path d="M37.974,19.059c-0.019-0.37-3.347-0.568-6.097-0.683c-0.135-0.994-0.383-1.975-0.767-2.916    c2.322-1.473,5.094-3.303,4.926-3.631c-0.167-0.33-3.285,0.841-5.844,1.855c-0.478-0.77-1.039-1.501-1.707-2.169    c-0.062-0.061-0.128-0.112-0.19-0.172c1.525-2.292,3.318-5.099,3.031-5.332c-0.286-0.234-2.657,2.103-4.582,4.069    c-0.846-0.576-1.749-1.026-2.686-1.362c0.461-2.715,0.958-6.011,0.601-6.106c-0.357-0.096-1.572,3.003-2.53,5.583    c-0.994-0.178-2.005-0.228-3.01-0.154c-0.683-2.667-1.569-5.879-1.935-5.821c-0.366,0.058-0.215,3.388-0.041,6.136    c-0.971,0.237-1.918,0.588-2.817,1.071c-1.708-2.157-3.82-4.727-4.13-4.525c-0.311,0.202,1.181,3.181,2.458,5.621    c-0.394,0.306-0.777,0.629-1.139,0.991c-0.361,0.361-0.685,0.745-0.991,1.138c-2.439-1.277-5.419-2.768-5.621-2.458    c-0.202,0.31,2.368,2.422,4.525,4.13c-0.483,0.898-0.833,1.846-1.071,2.816c-2.748-0.174-6.079-0.325-6.137,0.041    c-0.058,0.366,3.154,1.251,5.821,1.935c-0.074,1.004-0.024,2.015,0.154,3.009c-2.58,0.958-5.679,2.174-5.583,2.531    c0.096,0.358,3.392-0.14,6.106-0.601c0.336,0.937,0.786,1.841,1.363,2.687c-1.967,1.925-4.304,4.296-4.071,4.583    c0.233,0.288,3.041-1.507,5.333-3.031c0.059,0.062,0.11,0.128,0.171,0.189c0.667,0.668,1.399,1.229,2.168,1.706    c-1.015,2.56-2.186,5.679-1.856,5.847c0.33,0.168,2.16-2.605,3.632-4.929c0.941,0.385,1.922,0.632,2.916,0.768    c0.114,2.751,0.313,6.079,0.682,6.099c0.37,0.02,0.916-3.27,1.316-5.993c1.004-0.031,2.006-0.179,2.979-0.461    c1.222,2.465,2.753,5.416,3.098,5.283c0.346-0.132-0.493-3.356-1.234-6.008c0.893-0.431,1.742-0.975,2.527-1.64    c2.119,1.756,4.723,3.833,4.984,3.571s-1.815-2.865-3.57-4.985c0.665-0.785,1.209-1.635,1.64-2.526    c2.651,0.741,5.875,1.579,6.007,1.234c0.134-0.345-2.817-1.875-5.281-3.098c0.282-0.973,0.43-1.975,0.461-2.979    C34.705,19.973,37.993,19.428,37.974,19.059z M24.71,10.757c0,0-0.593,2.299-2.914,6.855c-0.283-0.213-0.593-0.368-0.919-0.468    C23.197,12.587,24.71,10.757,24.71,10.757z M18.28,17.551c-0.14,0.098-0.276,0.203-0.401,0.328s-0.229,0.262-0.328,0.401    c-3.614-3.613-4.886-5.614-4.886-5.614S14.667,13.936,18.28,17.551z M10.758,24.71c0,0,1.829-1.513,6.387-3.833    c0.1,0.326,0.254,0.635,0.467,0.918C13.057,24.117,10.758,24.71,10.758,24.71z M21.622,30.245c0,0-0.87-2.204-1.669-7.25    c0.345,0.006,0.688-0.055,1.018-0.168C21.771,27.877,21.622,30.245,21.622,30.245z M22.827,20.97    c0.113-0.33,0.174-0.672,0.168-1.017c5.046,0.798,7.251,1.669,7.251,1.669S27.878,21.771,22.827,20.97z"/>
	</g>
</g>
</svg>
