<?xml version="1.0" encoding="utf-8"?>
<!-- Generator: Adobe Illustrator 15.0.0, SVG Export Plug-In . SVG Version: 6.00 Build 0)  -->
<!DOCTYPE svg PUBLIC "-//W3C//DTD SVG 1.1//EN" "http://www.w3.org/Graphics/SVG/1.1/DTD/svg11.dtd">
<svg xmlns="http://www.w3.org/2000/svg" xmlns:xlink="http://www.w3.org/1999/xlink" version="1.1" id="Shape_5_2_" x="0px" y="0px" width="40px" height="40px" viewBox="0 0 40 40" enable-background="new 0 0 40 40" xml:space="preserve">
<g>
	<g>
		<path fill-rule="evenodd" clip-rule="evenodd" d="M17.268,6.018c-0.818,0.128-1.378,0.896-1.25,1.714    c0.308,1.97,0.561,5.291,0.748,7.427c-0.582-3.126-2.12-5.34-4.136-7.646c-0.546-0.624-1.494-0.687-2.117-0.142    c-0.624,0.545-0.687,1.493-0.142,2.117c1.569,1.794,2.742,4.869,3,6.296c-0.941-1.867-3.618-4.516-6.277-5.661    c-0.759-0.329-1.644,0.023-1.971,0.784c-0.328,0.761,0.023,1.643,0.784,1.971c2.387,1.028,3.781,3.021,4.33,4.085    C7.537,14.805,4.79,15,3.5,15C2.671,15,2,15.671,2,16.5S2.671,18,3.5,18c0.889,0,2.566,0.154,4.106,1.124    C8.872,17.165,13.037,15,20,15c0-2.362-0.604-5.082-1.018-7.732C18.854,6.45,18.09,5.893,17.268,6.018z M36.5,15    c-1.29,0-4.037-0.195-6.736,1.962c0.532-1.474,2.264-3.195,4.33-4.085c0.761-0.328,1.111-1.21,0.784-1.971    c-0.328-0.76-1.209-1.114-1.972-0.784c-2.658,1.145-5.337,3.793-6.277,5.661c0.258-1.427,1.432-4.501,3-6.296    c0.546-0.624,0.482-1.571-0.142-2.117s-1.573-0.481-2.116,0.142c-2.017,2.306-3.556,4.519-4.138,7.646    c0.188-2.136,0.44-5.457,0.749-7.427c0.128-0.818-0.432-1.586-1.251-1.714c-0.811-0.125-1.585,0.432-1.714,1.25    C20.604,9.918,20,12.638,20,15c6.964,0,11.128,2.165,12.394,4.124C33.935,18.154,35.611,18,36.5,18c0.828,0,1.5-0.671,1.5-1.5    S37.328,15,36.5,15z M20,16c-8.134,0-12,3-12,5s2,3,2,5c0,3-2,6-2,8c0,1.5,1.467,2,4.339,2h15.322C30.533,36,32,35.5,32,34    c0-2-2-4-2-8c0-2,2-3,2-5S28.134,16,20,16z"/>
	</g>
</g>
</svg>
