<?xml version="1.0" encoding="utf-8"?>
<!-- Generator: Adobe Illustrator 15.0.0, SVG Export Plug-In . SVG Version: 6.00 Build 0)  -->
<!DOCTYPE svg PUBLIC "-//W3C//DTD SVG 1.1//EN" "http://www.w3.org/Graphics/SVG/1.1/DTD/svg11.dtd">
<svg xmlns="http://www.w3.org/2000/svg" xmlns:xlink="http://www.w3.org/1999/xlink" version="1.1" id="Shape_5_2_" x="0px" y="0px" width="40px" height="40px" viewBox="0 0 40 40" enable-background="new 0 0 40 40" xml:space="preserve">
<g>
	<g>
		<path d="M28.959,20.292c-0.111-0.212-0.219-0.43-0.322-0.649c1.063,0.299,2.229,0.516,2.75,0.226    c1.318-0.731,1.173-7.305-0.762-7.744c-0.54-0.123-2.447,1.242-3.894,2.357c-0.703-2.171-1.382-4.198-2.397-5.524    C19.77,3,14,3,13,3s-1.605,1.406-2.351,2.608C9.448,7.542,8.458,7.375,8.133,8.191C7.685,9.317,8.69,9.927,7.7,10.917    c-0.757,0.757-3.099,2.585-3.992,2.892C2.787,14.125,2,13.792,2,14.625C2,15.321,2.875,16,3.875,16s2-0.868,4.841-2.566    c1.324-0.792,2.768-0.991,5.534-1.434c1.8-0.288,1.773-1.715,1.754-3.479c2.884,1.101,1.479,4.148,0.788,6.438    c-0.784,2.601,0.313,8.297,2.911,10c2.376,1.558,7.256,0.959,7.256,0.959c2.111,1.194,5.055,2.29,5.518,5.521    c0.409,2.854-1.192,4.334-2.455,4.563c-0.917,0.166-1.853-0.175-1.938-0.687c0.959,0.291,2.292-0.198,2.292-1.479    c0-0.839-0.6-1.834-1.898-1.834C27.062,32,26,33.009,26,34.646C26,36.751,27.585,38,30.021,38C33.085,38,36,36.125,36,31.333    C36,24.833,30.335,22.904,28.959,20.292z"/>
	</g>
</g>
</svg>
