<?xml version="1.0" encoding="utf-8"?>
<!-- Generator: Adobe Illustrator 15.0.0, SVG Export Plug-In . SVG Version: 6.00 Build 0)  -->
<!DOCTYPE svg PUBLIC "-//W3C//DTD SVG 1.1//EN" "http://www.w3.org/Graphics/SVG/1.1/DTD/svg11.dtd">
<svg xmlns="http://www.w3.org/2000/svg" xmlns:xlink="http://www.w3.org/1999/xlink" version="1.1" id="Shape_5_2_" x="0px" y="0px" width="40px" height="40px" viewBox="0 0 40 40" enable-background="new 0 0 40 40" xml:space="preserve">
<g>
	<g>
		<path d="M34.75,25c-3.185-1.947-10.345-3.836-11.736-4.5c-0.8-0.382-0.986-0.846-1.003-1.878C21.939,14.165,20.584,6,16.042,6    c-2.443,0-2.805,0.558-4.39,0.845C9.378,7.256,8.525,6.544,8.167,7.354c-0.558,1.261,0.104,2.771,2.708,4.333    C8.99,16.055,6,19.375,6,24c0,2.235,1.368,4.487,4,6.059V34c0,0-3.591,0.664-5.388,1.023C3.811,35.184,3.786,36,4.599,36H12    c1,0,2-0.344,2-1.609v-2.76c0.31,0.075,0.643,0.15,1,0.224v2.536C15,35.656,16,36,17,36h8.401c0.813,0,0.788-0.816-0.014-0.977    C23.591,34.664,20,34,20,34v-1.381c2.874,0.321,6.289,0.537,10,0.537c-0.141-1.672,0.458-2.823,0.458-2.823    s0.127,2.439,0.804,3.393C29.064,34.565,27,34.813,27,35.39c0,0.46,0.391,0.61,1,0.61h6c1.974,0,4.027-1.687,4.027-4.338    C38.027,28.614,36.633,26.151,34.75,25z"/>
	</g>
</g>
</svg>
