<?xml version="1.0" encoding="utf-8"?>
<!-- Generator: Adobe Illustrator 15.0.0, SVG Export Plug-In . SVG Version: 6.00 Build 0)  -->
<!DOCTYPE svg PUBLIC "-//W3C//DTD SVG 1.1//EN" "http://www.w3.org/Graphics/SVG/1.1/DTD/svg11.dtd">
<svg xmlns="http://www.w3.org/2000/svg" xmlns:xlink="http://www.w3.org/1999/xlink" version="1.1" id="Shape_5_2_" x="0px" y="0px" width="40px" height="40px" viewBox="0 0 40 40" enable-background="new 0 0 40 40" xml:space="preserve">
<g>
	<g>
		<path d="M33.458,17.788c-6.859-4.594-14.808,0.033-17.75-3.288c-1.882-2.125-2.518-4.5-5.042-4.5c-2.443,0-6.623,1.614-6.783,3.67    C3.806,14.667,2,14.47,2,15.917c0,1.379,0.952,1.968,3.145,2.079C5.708,18.917,5,20.334,5,22c0,2.508,0.961,4.591,2.615,6.005    c-1.873,0.536-3.573,1.388-3.573,2.725c0,0.646,0.521,1.25,2.021,1.25c2.699,0,2.589-0.883,5.629-2.131    c0.587,0.1,1.205,0.151,1.849,0.151H30c1.125,0,2.25,0.034,2.25,0.809c0,1.274-4.208,2.483-4.208,3.949    c0,0.909,1.125,1.472,3.162-0.021c-0.312,0.721,0.111,1.305,0.963,1.305c0.619,0,1.281-0.413,2.021-1.201    c1.764-1.882,3.84-4.29,3.84-7.633C38.027,22.333,36.157,19.596,33.458,17.788z"/>
	</g>
</g>
</svg>
