<?xml version="1.0" encoding="utf-8"?>
<!-- Generator: Adobe Illustrator 15.0.0, SVG Export Plug-In . SVG Version: 6.00 Build 0)  -->
<!DOCTYPE svg PUBLIC "-//W3C//DTD SVG 1.1//EN" "http://www.w3.org/Graphics/SVG/1.1/DTD/svg11.dtd">
<svg xmlns="http://www.w3.org/2000/svg" xmlns:xlink="http://www.w3.org/1999/xlink" version="1.1" id="Shape_5_2_" x="0px" y="0px" width="40px" height="40px" viewBox="0 0 40 40" enable-background="new 0 0 40 40" xml:space="preserve">
<g>
	<g>
		<path d="M39.748,33.2c-2.625-2.292-8.902-2.833-9.537-3.486c-0.445-0.458-0.869-1.041-1.283-1.688    c0.668-0.559,1.318-0.817,0.903-1.194c-0.429-0.389-1.207-0.652-2.075-0.832c-0.559-1.044-1.115-2.153-1.697-3.228    c-0.959-1.771-1.594-3.16-2.335-4.488c1.98-2.101,3.338-2.668,4.085-3.087c0.35-0.196,0.354-0.704-0.137-0.839    c-1.303-0.359-4.202-0.513-7.062-0.345c-0.302-0.328-0.62-0.665-0.976-1.021c-2.26-2.26-9.208-5.641-12.771-7.892    C4.241,3.103,3.698,2,2.91,2C2.183,2,2.029,2.984,2.029,4.348c0,0.882,0.104,2.425,0.671,3.369    c0.601,1.001,3.368,3.658,3.368,5.596c-0.662-0.609-2.235-3.186-3.203-3.794c-0.102,0.282-0.1,0.747-0.024,1.146    c0.37,1.929,1.654,4.401,3.612,6.901c-1.658,2.537-2.412,6.344-2.412,7.94c0,0.582,0.347,0.973,0.958,0.304    c3.095-3.389,4.93-2.877,5.031-3.791c0.02-0.18-0.061-0.457-0.2-0.786c2.146,2.004,4.677,3.855,7.475,5.251    c0.016,0.008,0.032,0.015,0.048,0.022c0.457,1.383,1.121,2.958,1.909,3.512c0.638,0.448,0.602-1.06,1.604-2.028    c1.017,0.399,2.036,0.821,3.045,1.341c0.18,0.847,0.439,1.604,0.82,2.024c0.365,0.402,0.62-0.195,1.143-0.84    c0.65,0.459,1.292,0.981,1.92,1.609c0.384,0.384,0.271,3.163,1.339,5.747c0.202,0.487,0.59,0.497,0.885-0.026    c0.505-0.894,0.964-2.03,1.75-3.192c2.039-0.616,5.626-0.662,7.509-0.662C39.965,33.989,40.206,33.601,39.748,33.2z M7.029,10    c-0.552,0-1-0.448-1-1s0.448-1,1-1s1,0.448,1,1S7.581,10,7.029,10z"/>
	</g>
</g>
</svg>
