<?xml version="1.0" encoding="utf-8"?>
<!-- Generator: Adobe Illustrator 15.0.0, SVG Export Plug-In . SVG Version: 6.00 Build 0)  -->
<!DOCTYPE svg PUBLIC "-//W3C//DTD SVG 1.1//EN" "http://www.w3.org/Graphics/SVG/1.1/DTD/svg11.dtd">
<svg xmlns="http://www.w3.org/2000/svg" xmlns:xlink="http://www.w3.org/1999/xlink" version="1.1" id="Shape_5_2_" x="0px" y="0px" width="40px" height="40px" viewBox="0 0 40 40" enable-background="new 0 0 40 40" xml:space="preserve">
<g>
	<g>
		<path d="M36.313,27.614c-0.25-1.228,0.176-3.604-0.313-7.377C35.554,16.793,31.451,14,27.938,14c-4.881,0-4.849,0-8.354,0    c-1.583,0-2.548-0.364-3.781-2.072c1.391-0.501,2.062-1.39,1.824-1.772c-0.14-0.225-1.41-0.12-3.19-0.126    c-0.936-1.148-2.2-2.154-4.398-2.154c-1.106,0-5.928,1.394-5.534,4.247c-1.177,1.034-1.896,1.688-2.406,2.503    c-0.257,0.41-0.447,2.088,0.652,2.333c0.51,0.114,1.504,0.1,2.262,0.068c0.046-1.145,0.256-2.548,0.707-3.371    c0.475-0.867,2.099-1.841,3.75-1.625C6.487,13.48,5.935,13.951,6,16.971C6.021,17.951,8.25,20,8.25,20s0.889,2.757,1.934,4.604    c-0.102,0.209-0.155,0.455-0.145,0.763c0.015,0.429,0.357,3.847,0.47,4.179c0.208,0.613,1.075,1.433,3.346,2.163l-0.298-2.037    c0,0-0.905-0.71-1.125-0.784c-0.199-0.068-0.2-1.062-0.23-1.962c1.035,0.884,2.375,1.823,3.382,2.075    c0.537,0.135,1.247,0.261,2.032,0.377c0.188,0.996,0.802,3.678,0.802,4.623c0,0.375-0.516,2-0.516,2h1.913    c0.246-0.735,0.357-1.362,0.394-1.832c0.04-0.532-0.037-2.574-0.125-4.485C21.946,29.879,23.742,30,24.487,30    c1.019,0,1.964-0.097,2.838-0.271c0.745,0.636,1.358,1.004,1.316,1.386C28.396,33.351,27.688,36,27.688,36h2.094    c0,0,0.477-1.702,1.315-4.813c0.104-0.389,0.15-0.902,0.141-1.434c1.939,0.606,4.313,0.711,4.441,1.913    C36.049,35.104,35.633,36,35.633,36h2.119c0,0,0.229-0.9,0.239-1.938C38.004,32.833,38,33.221,38.034,30    C38.045,29,36.928,28.307,36.313,27.614z"/>
	</g>
</g>
</svg>
