<?xml version="1.0" encoding="utf-8"?>
<!-- Generator: Adobe Illustrator 15.0.0, SVG Export Plug-In . SVG Version: 6.00 Build 0)  -->
<!DOCTYPE svg PUBLIC "-//W3C//DTD SVG 1.1//EN" "http://www.w3.org/Graphics/SVG/1.1/DTD/svg11.dtd">
<svg xmlns="http://www.w3.org/2000/svg" xmlns:xlink="http://www.w3.org/1999/xlink" version="1.1" id="Shape_5_2_" x="0px" y="0px" width="40px" height="40px" viewBox="0 0 40 40" enable-background="new 0 0 40 40" xml:space="preserve">
<g>
	<g>
		<path d="M35.285,14.445C37.286,6.866,34.292,2,32.277,2c-1.542,0-2.11,0.984-2.11,0.984s0.931,0.14,1.45,0.991    c0.992,1.624,0.328,5.81-0.81,7.888c-0.769,1.404-1.821,2.588-2.99,3.586c-1.023-1.005-1.896-2.231-2.578-3.586    c-1.064-2.117-1.802-6.265-0.81-7.888c0.52-0.851,1.45-0.991,1.45-0.991S25.312,2,23.77,2c-1.629,0-3.91,3.177-3.664,8.401    c0.736,0.323,1.439,0.844,2.157,1.602c1.295,1.366,3.528,4.238,4.442,6.347c0.384,0.886,0.326,1.98,0.093,3.021    c-0.396,1.769-1.512,3.365-2.554,3.551c1.259-2.09,2.146-4.782,1.543-6.175c-0.85-1.961-3.01-4.748-4.25-6.057    C20.224,11.305,19.189,11,18.184,11c-1.703,0-2.143,2.625-2.143,2.625s1.301-0.74,1.919-0.121    c1.251,1.253,2.107,3.434,2.681,5.715c-1.418,0.395-2.497,0.498-2.817,0.328C14.582,17.835,9,9.75,9,4.274    c0-0.875,1.804-0.909,1.804-0.909S9.895,2,8.25,2C6.875,2,6.125,4.333,6.125,6.458c0,8.934,3.418,14.661,6.586,17.719    c-2.717,2.62-6.627,6.514-6.627,10.239c0,1.75,1.083,3.75,4.651,3.75c3.642,0,6.317-5.981,8.529-7.318    c3.583-2.166,5.404-1.666,10.203-4.242C34.081,24.129,36,19.584,36,14C36,14,35.73,14.168,35.285,14.445z"/>
	</g>
</g>
</svg>
