<?xml version="1.0" encoding="utf-8"?>
<!-- Generator: Adobe Illustrator 15.0.0, SVG Export Plug-In . SVG Version: 6.00 Build 0)  -->
<!DOCTYPE svg PUBLIC "-//W3C//DTD SVG 1.1//EN" "http://www.w3.org/Graphics/SVG/1.1/DTD/svg11.dtd">
<svg xmlns="http://www.w3.org/2000/svg" xmlns:xlink="http://www.w3.org/1999/xlink" version="1.1" id="Shape_5_2_" x="0px" y="0px" width="40px" height="40px" viewBox="0 0 40 40" enable-background="new 0 0 40 40" xml:space="preserve">
<path d="M4,20c-1.332-0.075-2-0.875-2-2c0-2,3-6,8-6c3.545,0,6.332,0.761,9,2c2,0,3.821,0.128,6,1c5,2,5,6,5,6  c2,3,5.173,5.695,8.895,8.215C39.588,29.684,40,30.149,40,30.744C40,31.559,39.559,32,38.744,32C16,32,19,20.844,4,20z"/>
<path d="M1.707,10.293c-0.391-0.391-1.024-0.391-1.414,0c-0.391,0.391-0.391,1.024,0,1.414c0.279,0.28,3.257,3.257,3.535,3.536  c0.391,0.391,1.024,0.391,1.415,0s0.391-1.023,0-1.414C4.964,13.55,1.987,10.573,1.707,10.293z"/>
<path d="M5.707,8.293c-0.391-0.391-1.024-0.391-1.414,0c-0.391,0.391-0.391,1.024,0,1.414c0.279,0.28,4.111,4.111,4.389,4.389  c0.391,0.391,1.024,0.391,1.415,0s0.391-1.023,0-1.414C9.818,12.404,5.987,8.573,5.707,8.293z"/>
</svg>
