<?xml version="1.0" encoding="utf-8"?>
<!-- Generator: Adobe Illustrator 15.0.0, SVG Export Plug-In . SVG Version: 6.00 Build 0)  -->
<!DOCTYPE svg PUBLIC "-//W3C//DTD SVG 1.1//EN" "http://www.w3.org/Graphics/SVG/1.1/DTD/svg11.dtd">
<svg xmlns="http://www.w3.org/2000/svg" xmlns:xlink="http://www.w3.org/1999/xlink" version="1.1" id="Shape_5_2_" x="0px" y="0px" width="40px" height="40px" viewBox="0 0 40 40" enable-background="new 0 0 40 40" xml:space="preserve">
<g>
	<g>
		<path d="M38.895,31.215c-2.574-1.742-4.874-3.572-6.716-5.525C31.441,25.884,30.639,26,29.751,26    c-4.436,0-6.177-2.808-6.649-5.014c-0.045,0.007-0.09,0.01-0.135,0.01H22.95c-3.53-0.06-5.792-2.062-6.828-3.25    c-0.403-0.463-1.331-1.621-1.24-2.367c0.031-0.255,0.089-0.52,0.161-0.787C13.508,14.214,11.86,14,10,14    c-0.192,0-0.377,0.011-0.563,0.023l-3.73-3.73c-0.391-0.391-1.024-0.391-1.414,0c-0.391,0.391-0.391,1.024,0,1.414    c0.167,0.167,1.602,1.602,2.789,2.79c-0.78,0.275-1.482,0.645-2.096,1.075l-3.279-3.279c-0.391-0.391-1.024-0.391-1.414,0    c-0.391,0.391-0.391,1.024,0,1.414c0.233,0.233,2.342,2.342,3.196,3.196C2.525,17.994,2,19.169,2,20c0,1.125,0.668,1.926,2,2    c15,0.844,12,12,34.744,12C39.559,34,40,33.559,40,32.744C40,32.149,39.588,31.684,38.895,31.215z M22.967,19.996    c-0.007-0.12-0.009-0.22-0.009-0.295c0-2.724,1.78-4.701,4.234-4.701c2.776,0,3.766,1.809,3.766,3.5c0,1.727-1.235,2.5-2.459,2.5    c-1.277,0-2.041-1.018-2.041-2c0-0.276,0.224-0.5,0.5-0.5s0.5,0.224,0.5,0.5c0,0.387,0.282,1,1.041,1    c0.438,0,1.459-0.146,1.459-1.5c0-0.934-0.359-2.5-2.766-2.5c-1.904,0-3.234,1.521-3.234,3.701c0,2.008,1.327,5.299,5.793,5.299    c4.98,0,7.207-3.777,7.207-7.25c0-4.126-2.069-9.75-10.155-9.75c-6.646,0-10.563,4.469-10.928,7.5    C15.832,15.854,18.222,19.916,22.967,19.996z"/>
	</g>
</g>
</svg>
