<?xml version="1.0" encoding="utf-8"?>
<!-- Generator: Adobe Illustrator 15.0.0, SVG Export Plug-In . SVG Version: 6.00 Build 0)  -->
<!DOCTYPE svg PUBLIC "-//W3C//DTD SVG 1.1//EN" "http://www.w3.org/Graphics/SVG/1.1/DTD/svg11.dtd">
<svg xmlns="http://www.w3.org/2000/svg" xmlns:xlink="http://www.w3.org/1999/xlink" version="1.1" id="Shape_5_2_" x="0px" y="0px" width="40px" height="40px" viewBox="0 0 40 40" enable-background="new 0 0 40 40" xml:space="preserve">
<g>
	<g>
		<path fill-rule="evenodd" clip-rule="evenodd" d="M36.814,29.125c-2.044-1.512-7.506-3.946-8.262-4.383    c1.322-0.7,1.69-0.906,1.322-1.247C25.656,19.594,22.01,15.042,18,13.416c-0.197-0.57-0.428-1.085-0.677-1.574    c-0.856-0.182-2.448-0.455-4.333-0.453c-3.045,0.002-5.277,0.49-5.277,0.49c0.458-2,2.736-1.974,4.364-1.879    c2.319,0.136,4.038,0.873,5.011,1.413c-1.349-2.358-3.392-3.614-6.378-3.338c-2.625,0.243-4.494,1.396-5.285,3.063    c-1.957,0.646-3.439,1.28-3.422,1.461c0.017,0.168,1.327,0.624,3.004,1.139c0.053,5.64,0.771,8.775,3.245,11.18    c1.392,1.353,3.262,2.284,5.499,2.745L12.455,31h-1.225C8.374,31,7.678,31.199,7,32h18c-0.495-0.992-1.917-1-4.042-1h-1.155    l1.328-3.423c0.867-0.185,1.636-0.36,2.869-0.36c0.663,0,9.891,3.839,10.921,4.343c1.395,0.683,2.706,0.546,2.976-0.233    C38.223,30.384,37.757,29.822,36.814,29.125z M18.455,31h-4.652l1.215-3.132C15.682,27.947,16.365,28,17.083,28    c1.099,0,1.917-0.066,2.598-0.16L18.455,31z"/>
	</g>
</g>
</svg>
