<?xml version="1.0" encoding="utf-8"?>
<!-- Generator: Adobe Illustrator 15.0.0, SVG Export Plug-In . SVG Version: 6.00 Build 0)  -->
<!DOCTYPE svg PUBLIC "-//W3C//DTD SVG 1.1//EN" "http://www.w3.org/Graphics/SVG/1.1/DTD/svg11.dtd">
<svg xmlns="http://www.w3.org/2000/svg" xmlns:xlink="http://www.w3.org/1999/xlink" version="1.1" id="Shape_5_2_" x="0px" y="0px" width="40px" height="40px" viewBox="0 0 40 40" enable-background="new 0 0 40 40" xml:space="preserve">
<g>
	<g>
		<path d="M36.028,35.592c-0.713-0.366-1.397-0.876-1.958-1.345c1.846-1.729,3.93-4.506,3.93-7.872c0-1.763-1.176-4.012-1.573-6.03    c-0.384-1.951-5.149-4.572-11.739-8.72C12.375,3.875,9.938,2.21,7.208,2.21c-3.896,0-5.187,6.195-5.187,7.659    c0,0.104,0.008,0.233,0.021,0.374c0.003,0.13,0.02,0.265,0.057,0.405c0.001,0.005,0.002,0.01,0.002,0.015    c0.302,1.117,1.67,2.522,4.278,3.832C13.444,18.042,15.75,20,15.75,22c-2.251-2.418-2.236-2.591-9.704-6.563    c-0.974-0.518-1.944-1.042-2.857-1.539c0.112,3.165,5.449,3.893,10.949,8.688c1.762,1.536,3.629,2.64,5.413,3.448    c-2.004,3.59-1.491,6.851-1.491,6.851s0.636,1.991,2.068,0.652c2.413-2.255,1.906-4.68,1.632-6.625    c3.68,1.252,6.553,1.275,6.553,1.275S32,29.065,32,31.036c0,1.431-0.641,2.099-1.225,2.744c-0.954,0.355-1.656,0.616-4.057,1.291    c-3.012,0.847-5.201,1.939-4.678,2.846c0.27,0.465,1.037,0,1.979,0c1.939,0,4.323,0.125,5.948-0.667    c0.166,0.5,2.698,0.584,5.865,0.584c1,0,1.646,0.547,2.084-0.038C38.181,37.443,37.703,36.451,36.028,35.592z"/>
	</g>
</g>
</svg>
