<?xml version="1.0" encoding="utf-8"?>
<!-- Generator: Adobe Illustrator 15.0.0, SVG Export Plug-In . SVG Version: 6.00 Build 0)  -->
<!DOCTYPE svg PUBLIC "-//W3C//DTD SVG 1.1//EN" "http://www.w3.org/Graphics/SVG/1.1/DTD/svg11.dtd">
<svg xmlns="http://www.w3.org/2000/svg" xmlns:xlink="http://www.w3.org/1999/xlink" version="1.1" id="Shape_5_2_" x="0px" y="0px" width="40px" height="40px" viewBox="0 0 40 40" enable-background="new 0 0 40 40" xml:space="preserve">
<g>
	<g>
		<path d="M32.791,19.083c-0.554-0.137-3.232-0.796-4.329-1.016c-0.259-0.051-0.457-0.116-0.832,0.012    c-0.947,0.322-2.828,1.088-3.736,1.462c-0.073-0.248-0.155-0.496-0.245-0.742L28.351,16h3.707L38,20    c-0.688-2.527-4.638-5.573-4.922-5.737S32.559,14,32.36,14H28c-0.228,0-0.397,0.043-0.625,0.219    c-0.17,0.131-2.913,2.249-4.282,3.307c-0.143-0.282-0.291-0.557-0.449-0.811c1.287-1.268,3.011-2.964,3.138-3.09    C25.986,13.422,26,13.227,26,13V9.482c0-0.198-0.099-0.434-0.263-0.718s-3.112-5.931-5.64-6.618c0,0,2.947,5.563,3.902,7.639    v2.864l-2.294,2.853c-0.096-0.094-0.191-0.187-0.288-0.264c-0.159-0.127-0.313-0.241-0.466-0.345    c0.362-0.577,0.708-1.142,0.93-1.536c0.194-0.345,0.103-0.56,0.052-0.819c-0.22-1.097-0.906-3.544-1.043-4.098    C20.858,8.312,20.521,8.07,20,7.766c-2.146-1.255-5.688-3.224-8.95-3.496c0,0,3.997,2.746,8.105,5.475l0.942,3.13l-0.488,1.362    C19.028,14.061,18.406,14,17.645,14c-0.854,0-2.164,0.384-2.164,0.384s2.402,1.468,1.386,2.483    c-1.015,1.016-2.483-1.386-2.483-1.386S14,16.791,14,17.645c0,0.761,0.061,1.383,0.237,1.964l-1.362,0.488l-3.13-0.942    C7.016,15.047,4.27,11.05,4.27,11.05c0.271,3.262,2.241,6.803,3.496,8.95c0.305,0.521,0.546,0.858,0.675,0.891    c0.554,0.137,3,0.823,4.098,1.043c0.259,0.051,0.474,0.143,0.819-0.052c0.394-0.222,0.959-0.567,1.536-0.93    c0.104,0.152,0.218,0.307,0.345,0.466c0.077,0.097,0.17,0.192,0.264,0.288L12.649,24H9.785c-2.077-0.955-7.639-3.902-7.639-3.902    c0.688,2.527,6.334,5.476,6.618,5.64S9.284,26,9.482,26H13c0.227,0,0.422-0.014,0.625-0.219c0.125-0.127,1.822-1.851,3.09-3.137    c0.254,0.158,0.529,0.306,0.811,0.448c-1.058,1.37-3.175,4.112-3.307,4.282C14.043,27.603,14,27.772,14,28v4.36    c0,0.198,0.099,0.434,0.263,0.718S17.473,37.313,20,38l-4-5.942v-3.707l2.799-4.702c0.246,0.091,0.494,0.173,0.742,0.246    c-0.374,0.907-1.141,2.788-1.462,3.735c-0.128,0.375-0.063,0.573-0.012,0.832c0.22,1.097,0.879,3.775,1.016,4.329    c0.146,0.584,0.471,0.879,1.001,1.225c2.082,1.359,5.653,3.608,8.916,3.88L20.959,32l-1.057-3.875l0.215-1.406    c0.235,1.201,0.846,2.382,1.889,3.364c2.95,2.776,7.771,1.868,9.433,1.355c0.513-1.661,1.421-6.482-1.355-9.434    c-0.982-1.042-2.163-1.652-3.364-1.888l1.406-0.215L32,20.959L37.896,29c-0.271-3.263-2.521-6.834-3.88-8.916    C33.67,19.553,33.375,19.229,32.791,19.083z M30.52,26.35l-4.17,4.17l-0.892-3.978l-3.979-0.892l4.171-4.171l0.892,3.979    L30.52,26.35z"/>
	</g>
</g>
</svg>
