<?xml version="1.0" encoding="utf-8"?>
<!-- Generator: Adobe Illustrator 15.0.0, SVG Export Plug-In . SVG Version: 6.00 Build 0)  -->
<!DOCTYPE svg PUBLIC "-//W3C//DTD SVG 1.1//EN" "http://www.w3.org/Graphics/SVG/1.1/DTD/svg11.dtd">
<svg xmlns="http://www.w3.org/2000/svg" xmlns:xlink="http://www.w3.org/1999/xlink" version="1.1" id="Shape_5_2_" x="0px" y="0px" width="40px" height="40px" viewBox="0 0 40 40" enable-background="new 0 0 40 40" xml:space="preserve">
<g>
	<g>
		<path d="M23.011,15.037c-2.56-1.191-4.51-0.549-6.493-1.238c-1.371-0.477-3.604-2.56-5.684-3.641C10.944,9.813,11,9.429,11,9    c0-1.345-0.662-2.08-1.25-2.96C9.347,5.437,9.536,4.131,8.375,4.131c0,0-0.188,0.98-0.409,1.633    C6.197,7.423,5.716,8.652,6.219,10.5c-1.352,0.904-2.471,2.184-3.042,3.375c-0.829,1.729-1.218,4.807-1.218,5.19    C1.959,19.631,2.682,20,4.126,20c1.665,0,3.524-0.497,4.057-0.496c0.271,0,0.834,0.65,1.706,1.606    c-0.569,0.011-1.103,0.027-1.514,0.056C5.917,21.334,6.598,24,6.598,24s2.049-0.978,2.854-0.978c0.408,0,2.422,1.061,3.297,1.061    c0.042,0,0.076-0.01,0.115-0.014C13.223,24.38,13.6,24.692,14,25c0,1.188-0.232,3.438,1,5.5c-4.135,0-4.021,1.5-4.021,1.5H23    C28.708,26.083,27.909,17.316,23.011,15.037z"/>
	</g>
</g>
<path d="M23,32c3.417,0,13,0,13-12c0-5.188-0.75-8.375,2-11.625C37.25,6.938,35.375,6,33.125,6C28.625,6,27,9.561,27,12.561  c0,3.458,1,5.565,1,9.565C28,26.693,26.375,29,24,29C20,29,23,32,23,32z"/>
</svg>
