<?xml version="1.0" encoding="utf-8"?>
<!-- Generator: Adobe Illustrator 15.0.0, SVG Export Plug-In . SVG Version: 6.00 Build 0)  -->
<!DOCTYPE svg PUBLIC "-//W3C//DTD SVG 1.1//EN" "http://www.w3.org/Graphics/SVG/1.1/DTD/svg11.dtd">
<svg xmlns="http://www.w3.org/2000/svg" xmlns:xlink="http://www.w3.org/1999/xlink" version="1.1" id="Shape_5_2_" x="0px" y="0px" width="40px" height="40px" viewBox="0 0 40 40" enable-background="new 0 0 40 40" xml:space="preserve">
<g>
	<g>
		<path d="M37.979,37.271C38,37,38,34,35.698,30.903c-2.166-2.914-3.995-4.238-3.995-4.238s2.484,0.856,4.694,3.608    c1.256,1.563,1.575,3.148,1.575,3.148C38,29,37.201,27.738,35.766,26.234c-0.994-1.04-5.35-3.75-5.35-3.75S30,21,28.72,20.234    c-0.315-0.188-0.663-0.373-1.031-0.547c-0.632,1.394-2.115,3.258-3.429,4.572c-1.314,1.313-3.179,2.797-4.572,3.429    c0.174,0.368,0.358,0.716,0.547,1.031c0.766,1.28,2.25,1.696,2.25,1.696s2.71,4.355,3.75,5.35C27.738,37.201,29,38,33.422,37.973    c0,0-1.585-0.319-3.148-1.575c-2.752-2.209-3.608-4.694-3.608-4.694s1.324,1.829,4.238,3.995C34,38,37,38,37.271,37.979    c0,0-1.726-1.726-3.125-3.125c-1.852-1.852-4.35-5.057-4.35-5.057s3.205,2.498,5.057,4.35    C36.253,35.546,37.979,37.271,37.979,37.271z M26.925,17.925C22.9,9.875,14.414,5.913,8.958,4.174    c2.32,0.229,4.773,0.736,7.213,1.815c0.428-0.901,0.684-1.821,0.804-2.708C17.082,2.496,16.762,2,16.211,2    C12.133,2,8.065,2.788,5.806,3.313C4.83,3.095,4.177,3,4,3C3.435,3,3,3.395,3,4c0,0.177,0.095,0.83,0.313,1.806    C2.788,8.065,2,12.133,2,16.211c0,0.551,0.496,0.871,1.281,0.764c0.887-0.121,1.807-0.376,2.708-0.804    c-1.079-2.44-1.587-4.893-1.815-7.213C5.913,14.414,9.875,22.9,17.925,26.925c1,0.5,3.854-1.604,5.625-3.375    S27.425,18.926,26.925,17.925z"/>
	</g>
</g>
</svg>
