<?xml version="1.0" encoding="utf-8"?>
<!-- Generator: Adobe Illustrator 15.0.0, SVG Export Plug-In . SVG Version: 6.00 Build 0)  -->
<!DOCTYPE svg PUBLIC "-//W3C//DTD SVG 1.1//EN" "http://www.w3.org/Graphics/SVG/1.1/DTD/svg11.dtd">
<svg xmlns="http://www.w3.org/2000/svg" xmlns:xlink="http://www.w3.org/1999/xlink" version="1.1" id="Shape_5_2_" x="0px" y="0px" width="40px" height="40px" viewBox="0 0 40 40" enable-background="new 0 0 40 40" xml:space="preserve">
<g>
	<g>
		<path d="M17.523,26.648L17.523,26.648l9.126-9.125l-0.001,0l3.125-3.125C31.816,16.015,33.796,16,36,16v-2    c-1.592,0-3.429,0.071-5.131-1.255c-0.612-0.478-1.724-0.548-2.278,0.008l-3.297,3.297c-0.263-0.266-0.496-0.454-0.728-0.61    l1.414-4.243C25.994,11.131,26,11.065,26,11c0-0.295-0.131-0.579-0.363-0.771C22.176,7.369,22,6.759,22,4h-2    c0,2.725,0.449,4.535,3.902,7.39l-1.275,3.667c-2.146,0.568-7,5.423-7.566,7.568l-3.67,1.276C8.535,20.449,6.725,20,4,20v2    c2.759,0,3.369,0.176,6.229,3.637C10.421,25.869,10.705,26,11,26c0.065,0,0.131-0.006,0.196-0.02l4.243-1.414    c0.157,0.231,0.345,0.465,0.611,0.728l-3.298,3.297c-0.556,0.555-0.485,1.666-0.008,2.278C14.071,32.571,14,34.408,14,36h2    c0-2.204,0.015-4.184-1.602-6.227L17.523,26.648z M12.824,22c1.844,0,1.737-1.522,4.695-4.48S22,14.668,22,12.824    c0-1.398-1.25-2.116-3-3.824c-2.063-3-2.485-7-7-7c-2,0-4,1.5-4,1.5c2,0,3.169,0.074,4.076,0.91    c0.352,0.325,0.66,0.763,0.946,1.258C12.624,5.769,11.679,6.081,11,6.904c1.1,0,2.125,0.229,2.843,0.441    C14.225,8.225,14.592,9.154,15,10c0,0-1.9,0.983-2.958,2.042S10,15,10,15c-0.846-0.408-1.775-0.775-2.655-1.157    C7.133,13.125,6.904,12.1,6.904,11c-0.823,0.679-1.135,1.624-1.236,2.022c-0.496-0.286-0.933-0.594-1.258-0.946    C3.574,11.169,3.5,10,3.5,8c0,0-1.5,2-1.5,4c0,4.515,4,4.938,7,7C10.708,20.75,11.426,22,12.824,22z M18.261,27.325    c0.161,0.149,0.34,0.32,0.515,0.485l-1.271,1.271c-0.757,0.756-0.625,1.659-0.111,2.229C20.271,34.493,20,34.892,20,38h2    c0-3.316,0.095-4.317-2.893-7.692l1.096-1.097C23.033,32.089,24.004,34,26.59,34c3.662,0,4.826-0.576,5.521-1.176l-9.688-9.662    L18.261,27.325z M31.31,17.394c-0.569-0.515-1.473-0.646-2.229,0.111l-1.271,1.271c-0.165-0.174-0.336-0.354-0.485-0.515    l-4.194,4.194l9.689,9.664c0.602-0.681,1.18-1.794,1.18-5.552c0-2.604-1.911-3.536-4.789-6.364l1.097-1.096    C33.683,22.095,34.684,22,38,22v-2C34.892,20,34.493,20.271,31.31,17.394z"/>
	</g>
</g>
</svg>
