<?xml version="1.0" encoding="utf-8"?>
<!-- Generator: Adobe Illustrator 15.0.0, SVG Export Plug-In . SVG Version: 6.00 Build 0)  -->
<!DOCTYPE svg PUBLIC "-//W3C//DTD SVG 1.1//EN" "http://www.w3.org/Graphics/SVG/1.1/DTD/svg11.dtd">
<svg xmlns="http://www.w3.org/2000/svg" xmlns:xlink="http://www.w3.org/1999/xlink" version="1.1" id="Shape_5_2_" x="0px" y="0px" width="40px" height="40px" viewBox="0 0 40 40" enable-background="new 0 0 40 40" xml:space="preserve">
<g>
	<g>
		<path d="M36.623,20.242c-2.448-1.383-6.441-3.072-9.432-4.104c-0.995-0.343-1.207-0.756-0.898-1.764    c0.925-3.024,1.908-7.248,2.228-10.042c0.094-0.814,0.015-1.835-0.716-2.208c-0.732-0.372-1.606,0.163-2.208,0.717    c-2.074,1.9-4.914,5.177-6.82,7.701c-0.631,0.838-1.101,0.914-1.961,0.311c-2.592-1.812-6.305-4.05-8.865-5.216    c-0.744-0.341-1.741-0.58-2.321,0c-0.581,0.581-0.339,1.576,0,2.322c1.169,2.558,3.408,6.271,5.223,8.862    c0.604,0.863,0.531,1.321-0.31,1.955c-2.525,1.905-5.801,4.747-7.703,6.818c-0.554,0.606-1.089,1.477-0.716,2.208    c0.373,0.731,1.393,0.812,2.207,0.717c2.793-0.318,7.019-1.3,10.042-2.227c1.008-0.309,1.42-0.099,1.764,0.898    c1.03,2.99,2.718,6.985,4.103,9.435c0.403,0.712,1.067,1.49,1.878,1.362c0.811-0.129,1.202-1.074,1.364-1.876    c0.559-2.758,0.933-7.079,0.987-10.24c0.019-1.056,0.346-1.382,1.4-1.4c3.162-0.052,7.481-0.425,10.236-0.985    c0.804-0.162,1.751-0.553,1.879-1.364C38.116,21.31,37.336,20.647,36.623,20.242z M11.919,23.627    c-2.112,1.078-6.189,2.337-6.189,2.337s3.414-2.56,5.527-3.638c2.112-1.075,6.19-2.333,6.19-2.333S14.032,22.551,11.919,23.627z     M12.625,13.664C10.947,11.988,8.49,8.499,8.49,8.499s3.489,2.457,5.167,4.133c1.676,1.676,4.133,5.166,4.133,5.166    S14.301,15.34,12.625,13.664z M22.33,11.258c1.078-2.112,3.637-5.527,3.637-5.527s-1.259,4.078-2.336,6.19    c-1.076,2.112-3.634,5.527-3.634,5.527S21.255,13.371,22.33,11.258z M21.484,33.989c0,0-1.378-4.039-1.748-6.381    c-0.372-2.343-0.309-6.609-0.309-6.609s1.379,4.039,1.75,6.381C21.548,29.723,21.484,33.989,21.484,33.989z M27.381,21.178    C25.04,20.807,21,19.429,21,19.429s4.269-0.063,6.61,0.308c2.341,0.372,6.38,1.75,6.38,1.75S29.724,21.549,27.381,21.178z"/>
	</g>
</g>
</svg>
