<?xml version="1.0" encoding="utf-8"?>
<!-- Generator: Adobe Illustrator 15.0.0, SVG Export Plug-In . SVG Version: 6.00 Build 0)  -->
<!DOCTYPE svg PUBLIC "-//W3C//DTD SVG 1.1//EN" "http://www.w3.org/Graphics/SVG/1.1/DTD/svg11.dtd">
<svg xmlns="http://www.w3.org/2000/svg" xmlns:xlink="http://www.w3.org/1999/xlink" version="1.1" id="Shape_5_2_" x="0px" y="0px" width="40px" height="40px" viewBox="0 0 40 40" enable-background="new 0 0 40 40" xml:space="preserve">
<g>
	<g>
		<path d="M33.879,22.312C33.95,21.573,34,20.813,34,20.005c0.622-0.17,1.312-0.414,1.672-0.729    c0.752-0.659,1.731-3.429,1.154-4.087c-0.348-0.397-2.124,0.19-3.483,0.719c-0.218-0.708-0.47-1.414-0.798-2.095    c0.98-0.117,2.125-0.343,2.466-0.778c0.631-0.805,1.291-4.384,0.841-4.916c-0.451-0.532-4.937-0.145-5.567,0.66    c-0.182,0.231-0.354,0.676-0.51,1.188c-0.445-0.422-0.918-0.817-1.433-1.164c0.806-0.542,1.487-1.091,1.598-1.453    c0.29-0.957-0.52-5.142-1.177-5.342c-0.658-0.2-5.138,1.429-5.773,3.341c-0.133,0.4-0.131,1.057-0.086,1.685    C22.705,7.025,22.516,7,22.313,7c-0.29,0-0.562,0.03-0.838,0.052c0.205-0.469,0.351-0.897,0.351-1.177    c0-1-2.427-3.813-3.388-3.813s-3.375,3.5-3.375,5.313c0,0.601,0.656,1.254,1.181,1.683c-0.513,0.404-0.941,0.824-1.264,1.221    c-0.103,0.126-0.199,0.254-0.296,0.382c-0.031-0.215-0.083-0.407-0.167-0.549c-0.51-0.86-3.407-2.412-3.999-2.061    c-0.591,0.351-0.703,5.431-0.192,6.291c0.271,0.458,1.004,0.686,1.635,0.804c-0.665,1.249-1.158,2.122-1.616,2.122    c-0.091,0-0.307-0.027-0.601-0.062c-0.24-0.915-0.616-2.058-0.993-2.024c-0.437,0.039-0.93,1.177-1.189,1.865    c-1.033-0.007-2.108,0.115-2.769,0.579c-0.833,0.586-1.693,2.968-2.411,4.593C1.817,23.491,1.904,24,2.542,24    c2.042,0,3.246-1.294,3.96-2.375c1.917,0.704,3.027,1.071,4.552,1.448c-0.381,1.69-0.873,3.832-1.022,6.927H12    c0.675-2.516,1.58-3.739,2.563-6.151c0.102,0.021,0.197,0.041,0.303,0.063c0.697,0.145,2.148,0.085,3.887-0.125    C18.397,22.291,18,20.396,18,17.75c0-2.192,0.965-3.974,2.187-5.157C19.501,14.111,19,16.056,19,17.75    c0,3.708,1.44,7.91,1.44,9.535S20,30,20,30h4c0,0,0.784-1.332,1.296-3.222c0.721-2.66,0.397-4.742,1.075-6.9    C26.731,21.088,27,22.494,27,24c0,4.387-1.78,7.334-4.365,9.294c-1.527-0.549-4.315-1.503-4.585-1.264    c-0.261,0.231,1.662,1.587,2.845,2.384c-0.486,0.264-0.991,0.502-1.508,0.716c-1.214-0.563-3.206-1.415-3.378-1.036    c-0.13,0.287,0.917,1.085,1.706,1.634c-0.422,0.131-0.848,0.253-1.277,0.358c-0.97,0.239-0.761,1.102,0.237,1.055    c0.455-0.021,0.917-0.056,1.382-0.102C18.117,37.51,18.24,38,18.5,38c0.236,0,0.526-0.542,0.769-1.115    c0.921-0.135,1.851-0.326,2.772-0.578C22.094,37.091,22.216,38,22.5,38c0.32,0,0.893-1.312,1.262-2.253    c4.102-1.518,7.79-4.444,9.393-9.654c0.579-0.138,1.187-0.324,1.518-0.563c0.752-0.542,1.731-2.821,1.154-3.363    C35.604,21.957,34.791,22.081,33.879,22.312z"/>
	</g>
</g>
</svg>
