<?xml version="1.0" encoding="utf-8"?>
<!-- Generator: Adobe Illustrator 15.0.0, SVG Export Plug-In . SVG Version: 6.00 Build 0)  -->
<!DOCTYPE svg PUBLIC "-//W3C//DTD SVG 1.1//EN" "http://www.w3.org/Graphics/SVG/1.1/DTD/svg11.dtd">
<svg xmlns="http://www.w3.org/2000/svg" xmlns:xlink="http://www.w3.org/1999/xlink" version="1.1" id="Shape_5_2_" x="0px" y="0px" width="40px" height="40px" viewBox="0 0 40 40" enable-background="new 0 0 40 40" xml:space="preserve">
<g>
	<g>
		<path fill-rule="evenodd" clip-rule="evenodd" d="M28.553,36.278C29.466,30.267,30,28.192,30,27.604    c0-0.215-0.14-1.318-0.338-2.782c-0.753-0.552-1.444-1.14-2.07-1.738c0.241,1.529,0.406,2.685,0.408,2.823    c0.004,0.374,0,2.813,0,3.116c0,0.279-0.333,3.346-1.066,7.113c-0.895,0.163-1.776,0.316-2.592,0.487    c-0.275-0.138-0.547-0.255-0.789-0.345C24.466,30.267,25,28.192,25,27.604c0-0.321-0.312-2.626-0.67-5.178    c0.877,0.178,1.904,0.344,3.098,0.497C24.479,20.04,23,17,23,17s4.403,1,7,1c1.607,0,2.609-0.715,3.209-1.424    c-0.293-0.481-0.592-0.95-0.896-1.388c-2.059-2.953-5.22-5.034-8.82-6.555c-2.654-1.121-6.358-1.995-8.509,2.519    c-0.094,0.197-0.152,0.443-0.191,0.711c-0.46,0.179-0.885,0.221-1.167-0.029C13.089,11.358,14,8.52,14,5.956    C14,3.291,11.498,2,10.041,2C8.139,2,7.216,2.762,6.458,3.939C5.727,5.075,5.523,6.552,5.75,7.732c0,0-3.757,8.344-3.864,10.458    c2.13-2.715,6.651-9.473,6.651-9.473c0.824,0,1.883-1.211,1.883-1.211c0.67,0.468-1.845,5.52,0.746,7.87    c1.207,1.094,3.018,0.899,4.437,0.488c0.99,2.159,2.859,4.434,5.751,5.709c0.295,0.13,0.652,0.257,1.058,0.381    c0.335,2.066,0.586,3.782,0.588,3.953c0.004,0.374,0,2.813,0,3.116c0,0.279-0.333,3.346-1.066,7.113    C19.389,36.6,16.887,36.958,16,38h15C30.488,37.132,29.355,36.578,28.553,36.278z M33.736,17.468C32.924,18.3,31.712,19,30,19    c-1.934,0-3.97-0.449-5.155-0.698c1.786,2.874,6.985,8.136,13.131,8.654c0.052-0.011,0.087-0.019,0.087-0.019    S36.197,21.779,33.736,17.468z"/>
	</g>
</g>
</svg>
