<?xml version="1.0" encoding="utf-8"?>
<!-- Generator: Adobe Illustrator 15.0.0, SVG Export Plug-In . SVG Version: 6.00 Build 0)  -->
<!DOCTYPE svg PUBLIC "-//W3C//DTD SVG 1.1//EN" "http://www.w3.org/Graphics/SVG/1.1/DTD/svg11.dtd">
<svg xmlns="http://www.w3.org/2000/svg" xmlns:xlink="http://www.w3.org/1999/xlink" version="1.1" id="Shape_5_2_" x="0px" y="0px" width="40px" height="40px" viewBox="0 0 40 40" enable-background="new 0 0 40 40" xml:space="preserve">
<g>
	<g>
		<path d="M5.716,15.382C7.109,16.334,9.012,17,10.529,17c1.502,0,3.154-5.49,2.734-9.037C11.485,7.205,9.512,6.549,7.5,6    c-3-1.792-2.687-4-3.863-4C2.83,2,2.029,3.125,2.029,5.671c0,0.655,0.094,1.416,0.277,2.233c-0.86,0.947-1.988,2.917-0.777,6.099    c0-2.026,0.474-3.598,1.235-4.519c0.483,1.345,1.224,2.789,2.305,4.217C5.274,14.287,5.491,14.847,5.716,15.382z M7.029,10    c0.552,0,1,0.448,1,1s-0.448,1-1,1s-1-0.448-1-1S6.477,10,7.029,10z M29.111,29.125c-0.129-0.136-0.356-0.523-0.661-1.094    c0.116-0.357,0.245-0.871,0.14-1.135c-0.086-0.216-0.584-0.467-1.059-0.662c-0.253-0.506-0.53-1.066-0.821-1.654    c0.814-1.189,2.332-1.088,1.851-1.922c-0.349-0.603-2.418-1.493-3.915-2.075c-0.128-0.235-0.253-0.469-0.385-0.709    c0.104-0.346,0.199-0.782,0.104-1.019c-0.086-0.213-0.573-0.46-1.043-0.655c-0.399-0.697-0.812-1.393-1.227-2.069    c0.067-0.305,0.218-1.099,0.031-1.42c-0.128-0.222-0.754-0.413-1.29-0.541c-0.477-0.705-0.947-1.354-1.398-1.916    c0.056-0.361,0.092-0.818-0.039-1.043c-0.15-0.261-0.988-0.48-1.559-0.603c-1.048-0.874-2.385-1.662-3.917-2.359    C14.494,11.706,12.879,18,10.761,18c-0.936,0-2.718-0.318-4.383-1.165c0.006,0.013,0.012,0.028,0.019,0.041    c-1.618,2.536-2.354,6.275-2.354,7.853c0,0.582,0.575,0.606,1.429,0.304c1.432-0.507,3.842-0.8,4.282-2.409    c0.06-0.22,0.1-0.435,0.131-0.647c2.863,3.044,6.158,4.474,9.145,5.482c0.631,0.213,1.208,0.393,1.762,0.563    c0.774,1.399,1.902,3.267,2.534,3.527c0.87,0.357,0.604-1.056,1.591-2.021c0.77,0.401,1.491,0.895,2.195,1.599    c1,1,1.097,4.875,2.306,4.875c1.207,0,2.612-2,2.612-2s6,0.375,6-1S30.111,30.178,29.111,29.125z M15.993,17.629    c-0.258,1.186-2.505-1.605-1.929-1.627C15.36,15.954,16.218,16.593,15.993,17.629z M19.993,21.629    c-0.259,1.186-2.505-1.604-1.929-1.627C19.36,19.953,20.219,20.593,19.993,21.629z M23.992,25.629    c-0.258,1.186-2.504-1.604-1.928-1.627C23.359,23.953,24.219,24.593,23.992,25.629z"/>
	</g>
</g>
</svg>
