<?xml version="1.0" encoding="utf-8"?>
<!-- Generator: Adobe Illustrator 15.0.0, SVG Export Plug-In . SVG Version: 6.00 Build 0)  -->
<!DOCTYPE svg PUBLIC "-//W3C//DTD SVG 1.1//EN" "http://www.w3.org/Graphics/SVG/1.1/DTD/svg11.dtd">
<svg xmlns="http://www.w3.org/2000/svg" xmlns:xlink="http://www.w3.org/1999/xlink" version="1.1" id="Shape_5_2_" x="0px" y="0px" width="40px" height="40px" viewBox="0 0 40 40" enable-background="new 0 0 40 40" xml:space="preserve">
<g>
	<g>
		<path fill-rule="evenodd" clip-rule="evenodd" d="M23.488,19.516c-0.3-0.747-0.572-1.495-0.856-2.266    c2.777-2.11,3.431-4.969,3.431-4.969C31.781,11.688,38,12.344,38,11.469c0-0.406-1.581-1.779-5.439-4.037    C29.803,5.817,25.642,4,22.579,4c-1.854,0-3.294,1.776-4.327,4.063C16.585,5.131,15.684,4,12.563,4    C10.255,4,8.76,4.839,8.229,5.977C6.603,6.108,4.951,6.112,4.972,6.333C4.988,6.496,6.312,7.402,8,8.347v2.303    c0,6.819,2.838,10.027,10.083,12.152c1.382,4.097,5.159,15.18,5.678,15.18c0.284,0,0.249-0.411,0.222-1.747    c-0.183-8.844-0.286-11.464-0.286-11.464s2.904,0.734,12.96,2.999c0.963,0.217,1.344,0.3,1.344,0.032    C38,27.078,24.244,19.952,23.488,19.516z M7,10.65v-0.277c-0.991-0.37-1.908-0.496-2.792,0.068C2.798,11.34,2,15.031,2,20    c0,5.07,1.25,10,1.5,10c1,0,1.798-4.605,3.285-9.188c0,0,2.104,0.153,4.628,0.02C8.315,18.543,7,15.349,7,10.65z"/>
	</g>
</g>
</svg>
