<?xml version="1.0" encoding="utf-8"?>
<!-- Generator: Adobe Illustrator 15.0.0, SVG Export Plug-In . SVG Version: 6.00 Build 0)  -->
<!DOCTYPE svg PUBLIC "-//W3C//DTD SVG 1.1//EN" "http://www.w3.org/Graphics/SVG/1.1/DTD/svg11.dtd">
<svg xmlns="http://www.w3.org/2000/svg" xmlns:xlink="http://www.w3.org/1999/xlink" version="1.1" id="Shape_5_2_" x="0px" y="0px" width="40px" height="40px" viewBox="0 0 40 40" enable-background="new 0 0 40 40" xml:space="preserve">
<g>
	<g>
		<path fill-rule="evenodd" clip-rule="evenodd" d="M33,21.667c1.542-0.646,2.945-1.813,1.5-2.084C29.375,18.625,27.063,16,21.23,16    c-4.792,0-7.896,4.397-11.342,7.46c-2.418,0-0.004-4.027,1.842-7.404C13.427,12.953,15,10.542,15,7.563    c0-3.989-3.042-5.337-5.765-5.337c-1.196,0-3.568,1.003-4.444,2.506C4.65,4.974,4.468,5.254,4.348,5.623    C4.285,5.666,4.224,5.695,4.16,5.744C2.915,6.691,3.875,7.151,3.633,9.373c-0.253,2.323-1.792,3.546-1.287,4.458    c0.245,0.442,0.551,0.345,2.228-0.93c0.881-0.67,1.919-1.897,2.78-3.017c1.105-0.117,2.415-0.73,3.301-2.538    c0.516-0.088,1.173,1.074-0.693,3.964c-3.694,5.718-5.934,9.401-5.934,13.527c0,2.583,1.973,4.991,5.523,4.991    c1.542,0.719,5.071,1.751,8.913,2.097l-0.553,4.078C13.853,36.702,12,36.838,12,37.418C12,38,13,38,14,38h12c1,0,2,0,2-0.582    c0-0.432,0.065-0.617-1.154-0.973l0.733-5.409c2.403-0.893,3.558-2.154,4.446-2.83c4.517-2.206,5.962-4.856,5.962-5.289    C37.987,22.417,34.997,22.578,33,21.667z M24.911,36h-5.005l0.537-3.964c0.185,0.004,0.369,0.01,0.554,0.01    c1.788,0,3.266-0.162,4.507-0.419L24.911,36z"/>
	</g>
</g>
</svg>
