<?xml version="1.0" encoding="utf-8"?>
<!-- Generator: Adobe Illustrator 15.0.0, SVG Export Plug-In . SVG Version: 6.00 Build 0)  -->
<!DOCTYPE svg PUBLIC "-//W3C//DTD SVG 1.1//EN" "http://www.w3.org/Graphics/SVG/1.1/DTD/svg11.dtd">
<svg xmlns="http://www.w3.org/2000/svg" xmlns:xlink="http://www.w3.org/1999/xlink" version="1.1" id="Shape_5_2_" x="0px" y="0px" width="40px" height="40px" viewBox="0 0 40 40" enable-background="new 0 0 40 40" xml:space="preserve">
<g>
	<g>
		<path d="M25.839,18.952C25.941,18.34,26,17.692,26,17c0-7-8.667-13-16-13C6,4,2,5,2,7s3,7,3,7c0,5,2,12,12,12    c0.357,0,0.708-0.02,1.054-0.05C21.577,32.242,26.33,38,34,38c3,0,4-1.333,4-2.523C38,32.282,32.473,33.849,25.839,18.952z M10,12    c-1.104,0-2-0.896-2-2s0.896-2,2-2s2,0.896,2,2S11.104,12,10,12z M22.489,24.441c0.591-0.403,1.122-0.882,1.583-1.441    c2.01,3.561,5.283,8.57,8.928,11C28.601,33.594,25.603,29.43,22.489,24.441z"/>
	</g>
</g>
</svg>
