<?xml version="1.0" encoding="utf-8"?>
<!-- Generator: Adobe Illustrator 15.0.0, SVG Export Plug-In . SVG Version: 6.00 Build 0)  -->
<!DOCTYPE svg PUBLIC "-//W3C//DTD SVG 1.1//EN" "http://www.w3.org/Graphics/SVG/1.1/DTD/svg11.dtd">
<svg xmlns="http://www.w3.org/2000/svg" xmlns:xlink="http://www.w3.org/1999/xlink" version="1.1" id="Shape_5_2_" x="0px" y="0px" width="40px" height="40px" viewBox="0 0 40 40" enable-background="new 0 0 40 40" xml:space="preserve">
<g>
	<g>
		<path d="M37.5,18.085C36.611,15.616,32.531,12,29,12c-4,0-5.495,1-9,1c-1.422,0-5.211-0.859-7.967-0.775    c0.083-1.194-0.511-2.289-0.982-2.259c-1.057,0.068-1.723,1.88-2.09,3.338c-0.431,0.446-0.998,1.103-2.04,2.113    c-1.125,1.091-3.052,2.007-4.25,3.923c-1.167,1.867-0.61,4.23-0.435,4.467c0.141,0.19,1.245,0.315,1.483,0.005    c0.253-0.33-0.031-1.579,0.872-2.233c1.13,0.258,1.954,0.382,3.832,0.382c1.347,0,4.203-1.351,4.203-1.351    s2.432,0.645,3.559,1.721c0.027,0.391,0.123,0.89,0.4,1.42c-1.032,1.16-2.083,1.656-2.365,2.469s-0.313,3.844,0.156,3.844    s2.167-1.188,2.208-1.531s-0.094-1.301,0-1.52c0.081-0.188,2.44-1.221,3.472-2.083c0.861,1.444,1.489,3.832,1.489,4.47    c0,0.331-0.604,1.265-0.886,1.633C20.19,31.645,20.177,32,20.724,32h2.089c0.792,0,1.157-1.875,1.157-2.563    c0-0.715-0.146-3.607-0.244-5.448C24.445,23.997,25.191,24,26,24c0.324,0,0.657-0.013,0.996-0.034    c0.006,0.011,0.012,0.024,0.018,0.034c1.773,3.181,2.178,3.327,2.33,4.75c0.067,0.63-0.676,1.686-0.884,1.99    C28.051,31.338,27.52,32,28.485,32h2c0.502,0,0.64-0.324,0.75-0.754c0.245-0.955,0.799-2.788,0.799-3.246    c0-0.958-0.538-1.565-0.585-2.648c1.084,1.619,1.781,2.335,1.895,3.398c0.067,0.63-0.676,1.686-0.884,1.99    C32.051,31.338,31.52,32,32.485,32h2c0.502,0,0.64-0.324,0.75-0.754c0.245-0.955,0.799-2.788,0.799-3.246    c0-1-0.601-1.604-0.601-2.781C35.434,22.915,38.778,21.636,37.5,18.085z M29.778,22.384c0,0-1.622,0.616-3.778,0.616    c-2,0-2.327,0-2.327,0c-0.329-4.594-0.896-7.188-1.673-9c1,0,5-1,7-1s4.634,1.669,6.298,3.483    C32.298,18.483,29.778,21.384,29.778,22.384z"/>
	</g>
</g>
</svg>
