<?xml version="1.0" encoding="utf-8"?>
<!-- Generator: Adobe Illustrator 15.0.0, SVG Export Plug-In . SVG Version: 6.00 Build 0)  -->
<!DOCTYPE svg PUBLIC "-//W3C//DTD SVG 1.1//EN" "http://www.w3.org/Graphics/SVG/1.1/DTD/svg11.dtd">
<svg xmlns="http://www.w3.org/2000/svg" xmlns:xlink="http://www.w3.org/1999/xlink" version="1.1" id="Shape_5_2_" x="0px" y="0px" width="40px" height="40px" viewBox="0 0 40 40" enable-background="new 0 0 40 40" xml:space="preserve">
<g>
	<g>
		<path d="M37.447,22.105c-2.564-1.282-3.765-2.34-4.924-3.362c-1.051-0.926-2.042-1.8-3.834-2.669    c-0.204-0.099-0.438-0.125-0.657-0.075c-1.187,0.269-3.335,1.451-4.191,1.939c-0.04-0.219-0.092-0.438-0.159-0.653    c0.59-0.426,1.947-1.51,2.752-2.997c0.598-0.233,1.204-0.341,1.891-0.463c1.358-0.241,3.05-0.541,5.229-1.993    c0.46-0.306,0.585-0.927,0.278-1.387c-0.306-0.46-0.928-0.584-1.386-0.278c-1.833,1.22-3.174,1.458-4.471,1.688    c-0.865,0.153-1.761,0.312-2.698,0.753c-0.214,0.101-0.385,0.274-0.483,0.489c-0.495,1.082-1.5,1.963-2.068,2.403    c-0.169-0.206-0.358-0.4-0.565-0.584l0.734-1.47C22.964,13.309,23,13.155,23,13c0-0.157-0.027-1.485-0.904-3.104    c0.43-1.126,1.039-1.933,1.681-2.782c0.784-1.037,1.595-2.109,2.17-3.792c0.179-0.522-0.101-1.091-0.623-1.27    c-0.524-0.18-1.092,0.1-1.27,0.623c-0.472,1.379-1.151,2.279-1.872,3.232c-0.786,1.04-1.6,2.115-2.134,3.787    c-0.089,0.279-0.052,0.583,0.102,0.831c0.616,0.995,0.786,1.887,0.833,2.272l-0.466,0.932c-0.173-0.107-0.345-0.212-0.517-0.309    V12c0-0.262-0.103-0.514-0.287-0.701c-0.082-0.083-1.913-1.937-3.877-2.996c-0.926-2.936-2.934-5.761-3.023-5.886    c-0.322-0.449-0.946-0.554-1.395-0.231c-0.449,0.321-0.553,0.946-0.231,1.395c0.021,0.029,2.09,2.94,2.849,5.685    c0.078,0.28,0.272,0.512,0.535,0.637c1.377,0.654,2.828,1.95,3.429,2.519v0.079C17.084,12.17,16.279,12,15.721,12    C15.08,12,14,12.428,14,14c-1.572,0-2,1.08-2,1.721c0,0.558,0.17,1.363,0.501,2.279h-0.079c-0.569-0.601-1.865-2.051-2.519-3.429    c-0.125-0.263-0.357-0.458-0.637-0.535c-2.736-0.756-5.656-2.829-5.685-2.85c-0.45-0.322-1.075-0.217-1.395,0.232    c-0.321,0.449-0.217,1.073,0.231,1.395c0.125,0.089,2.95,2.098,5.886,3.023c1.059,1.964,2.912,3.795,2.996,3.877    C11.486,19.897,11.738,20,12,20h1.422c0.097,0.172,0.202,0.344,0.309,0.517l-0.931,0.466c-0.39-0.047-1.28-0.218-2.273-0.833    c-0.249-0.154-0.553-0.192-0.831-0.102c-1.672,0.534-2.747,1.348-3.787,2.134c-0.953,0.721-1.853,1.4-3.232,1.872    c-0.523,0.179-0.802,0.747-0.623,1.27C2.196,25.739,2.584,26,3,26c0.107,0,0.216-0.018,0.323-0.054    c1.683-0.575,2.755-1.386,3.792-2.17c0.849-0.642,1.655-1.251,2.782-1.681C11.515,22.973,12.843,23,13,23    c0.155,0,0.309-0.036,0.447-0.105l1.47-0.734c0.186,0.209,0.382,0.4,0.59,0.57c-0.435,0.558-1.323,1.566-2.409,2.063    c-0.215,0.099-0.388,0.27-0.489,0.483c-0.441,0.938-0.6,1.833-0.753,2.698c-0.23,1.297-0.468,2.638-1.688,4.471    c-0.306,0.459-0.181,1.08,0.278,1.386C10.616,33.946,10.809,34,10.999,34c0.323,0,0.641-0.156,0.833-0.446    c1.452-2.18,1.751-3.871,1.993-5.229c0.122-0.687,0.229-1.293,0.462-1.891c1.509-0.814,2.598-2.184,3.006-2.749    c0.213,0.065,0.428,0.116,0.644,0.156c-0.488,0.856-1.67,3.005-1.939,4.191c-0.05,0.221-0.024,0.453,0.075,0.657    c0.869,1.792,1.744,2.783,2.669,3.834c1.022,1.159,2.08,2.359,3.362,4.924C22.281,37.798,22.634,38,23.001,38    c0.15,0,0.303-0.034,0.446-0.105c0.494-0.247,0.694-0.848,0.447-1.342c-1.398-2.798-2.596-4.154-3.651-5.353    c-0.804-0.911-1.506-1.708-2.2-3.046c0.312-0.905,1.146-2.481,1.717-3.471c0.1,2.017,0.978,4.229,2.407,5.657    c1.545,1.547,3.531,1.916,5.292,1.499l0.612,1.531C28.228,33.763,28.604,34,29,34c0.124,0,0.25-0.022,0.371-0.071    c0.513-0.205,0.763-0.787,0.558-1.3l-0.628-1.571c0.355-0.226,0.688-0.483,0.98-0.776s0.551-0.625,0.776-0.98l1.571,0.628    C32.75,29.978,32.876,30,33,30c0.396,0,0.772-0.237,0.929-0.629c0.205-0.513-0.045-1.095-0.558-1.3l-1.531-0.612    c0.417-1.761,0.048-3.747-1.499-5.292c-1.429-1.43-3.641-2.307-5.657-2.407c0.989-0.571,2.565-1.405,3.471-1.717    c1.338,0.694,2.135,1.396,3.046,2.2c1.198,1.056,2.555,2.253,5.353,3.651C36.696,23.966,36.849,24,36.999,24    c0.367,0,0.72-0.202,0.896-0.553C38.142,22.953,37.941,22.353,37.447,22.105z"/>
	</g>
</g>
</svg>
