<?xml version="1.0" encoding="utf-8"?>
<!-- Generator: Adobe Illustrator 15.0.0, SVG Export Plug-In . SVG Version: 6.00 Build 0)  -->
<!DOCTYPE svg PUBLIC "-//W3C//DTD SVG 1.1//EN" "http://www.w3.org/Graphics/SVG/1.1/DTD/svg11.dtd">
<svg xmlns="http://www.w3.org/2000/svg" xmlns:xlink="http://www.w3.org/1999/xlink" version="1.1" id="Shape_5_2_" x="0px" y="0px" width="40px" height="40px" viewBox="0 0 40 40" enable-background="new 0 0 40 40" xml:space="preserve">
<g>
	<g>
		<path d="M31.351,23.367c1.435,0.666,3.423,0.971,4.629,0.368c-0.957-0.316-2.11-0.879-3.813-1.901    c-1.452-0.872-2.261-1.83-2.938-1.83c-0.438,0-1.938,0.461-3.275,0.902c-0.266-0.177-0.538-0.356-0.814-0.536L27.604,18    c0,0,0.563,0,2.063,0c1.768,0,3.347-0.956,4.333-2c-1.277,0.15-2.122,0.208-3.606,0.208c-1.588,0-2.32-0.208-3.088-0.208    c-0.694,0-2.761,2.657-3.437,3.552c-0.177-0.113-0.35-0.224-0.529-0.337c-0.062-0.039-0.117-0.083-0.176-0.125    C24.005,18.096,26,15.663,26,15c0-0.677-0.13-0.501-1.168-2.873C23.993,10.215,23.849,9.549,23.646,8    c-0.864,1.156-0.884,3.303-0.357,4.896c0.342,1.037,0.66,2.208,0.66,2.208l-1.792,2.887c-0.228-0.361-0.409-0.749-0.565-1.139    C21.851,16.155,22,15.431,22,14.705c0-4.56-7.346-6.359-7.346-6.359S12.933,6,11.2,6C9.466,6,8.875,6.919,8.875,6.919    s1.239,0.063,2.021,0.846c0.783,0.783,1.054,1.481,1.054,1.481l-2.704,2.704c0,0-0.698-0.271-1.481-1.054    C6.982,10.114,6.79,8.648,6.79,8.648S6,9.466,6,11.2c0,1.733,2.346,3.455,2.346,3.455S10.146,22,14.705,22    c0.725,0,1.448-0.149,2.145-0.408c0.391,0.156,0.779,0.337,1.141,0.564l-2.886,1.792c0,0-1.171-0.318-2.208-0.66    c-1.593-0.526-3.74-0.507-4.896,0.357c1.549,0.203,2.215,0.348,4.127,1.187C14.499,25.87,14.323,26,15,26    c0.663,0,3.095-1.995,4.091-2.835c0.042,0.058,0.086,0.114,0.125,0.177c0.113,0.18,0.224,0.352,0.335,0.527    C18.657,24.546,16,26.611,16,27.306c0,0.768,0.208,1.5,0.208,3.088c0,1.484-0.058,2.329-0.208,3.606c1.044-0.986,2-2.565,2-4.333    c0-1.5,0-2.063,0-2.063l2.37-2.464c0.18,0.276,0.359,0.549,0.536,0.814c-0.441,1.338-0.902,2.838-0.902,3.275    c0,0.677,0.958,1.485,1.83,2.938c1.022,1.702,1.585,2.855,1.901,3.813c0.603-1.206,0.298-3.194-0.368-4.629    c-0.434-0.935-1.312-2.226-1.312-2.226l0.246-1.155c0.876,1.209,1.712,2.247,2.505,3.04c3.423,3.423,7.007,3.544,8.377,2.174    c1.368-1.369,1.249-4.954-2.174-8.377c-0.793-0.793-1.831-1.629-3.04-2.505l1.155-0.246    C29.125,22.056,30.416,22.934,31.351,23.367z"/>
	</g>
</g>
</svg>
