<?xml version="1.0" encoding="utf-8"?>
<!-- Generator: Adobe Illustrator 15.0.0, SVG Export Plug-In . SVG Version: 6.00 Build 0)  -->
<!DOCTYPE svg PUBLIC "-//W3C//DTD SVG 1.1//EN" "http://www.w3.org/Graphics/SVG/1.1/DTD/svg11.dtd">
<svg xmlns="http://www.w3.org/2000/svg" xmlns:xlink="http://www.w3.org/1999/xlink" version="1.1" id="Shape_5_2_" x="0px" y="0px" width="40px" height="40px" viewBox="0 0 40 40" enable-background="new 0 0 40 40" xml:space="preserve">
<g>
	<g>
		<path d="M35.776,25.127c-0.267-0.61-0.452-1.318-0.584-2.091C33.49,23.172,31.926,23,31.926,23s1.02-0.656,3.127-0.916    c-0.077-0.651-0.135-1.325-0.184-2.008c-0.145,0.088-0.273,0.162-0.377,0.213c-0.748,0.363-3.329,1.199-4.694,1.09    c1.323-0.604,3.146-1.254,4.578-2.187c0.13-0.084,0.269-0.179,0.411-0.277c-0.061-0.846-0.128-1.679-0.237-2.454    c-0.031-0.232-0.068-0.465-0.112-0.699c-0.08-0.423-0.234-0.807-0.438-1.158c-0.472,0.827-1.024,1.752-1.339,2.131    C32.129,17.375,30.289,19.537,29,20c0.957-1.096,2.183-2.774,3.103-4.216c0.379-0.594,0.839-1.409,1.201-2.069    c-1.155-1.134-2.921-1.704-4.267-1.713c-0.033,0.892-0.09,1.843-0.184,2.289c-0.172,0.814-1.094,4.365-2.019,5.375    c0.336-1.416,0.94-4.252,1.082-5.957c0.04-0.486,0.065-1.082,0.082-1.653c-1.034,0.096-2.332,0.303-3.656,0.498    c0.326,0.922,0.52,1.761,0.61,2.362c0.125,0.822-0.27,5.454-0.85,5.981c-0.182-1.443,0.134-4.16-0.135-5.85    c-0.128-0.802-0.37-1.641-0.645-2.35c-0.996,0.137-1.976,0.25-2.829,0.283c0.237,0.752,0.381,1.427,0.458,1.935    c0.125,0.822-0.27,5.245-0.85,5.772c-0.182-1.443,0.134-3.951-0.135-5.641c-0.113-0.709-0.315-1.449-0.55-2.101    C18.255,12.741,17.422,12,16.438,12c-0.101,0-0.191,0.003-0.291,0.004c0.466,1.145,0.698,2.19,0.807,2.911    c0.125,0.822-2.27,6.011-2.85,6.538c-0.182-1.443,2.134-4.717,1.865-6.406c-0.172-1.08-0.549-2.226-0.935-3.028    c-1.002,0.017-1.966,0.045-2.848,0.095c0.436,1.1,0.662,2.105,0.768,2.802c0.125,0.822-0.27,4.454-0.849,4.981    c-0.182-1.443,0.133-3.16-0.135-4.85c-0.16-1.006-0.499-2.071-0.856-2.861c-0.679,0.052-1.327,0.111-1.906,0.184    c0.297,0.573,0.536,1.288,0.637,1.662c0.219,0.802-0.16,3.338-0.74,3.865c-0.042-2.057-0.101-3.199-0.203-3.549    c-0.088-0.302-0.32-1.135-0.733-1.825c-0.417,0.071-0.81,0.146-1.146,0.231C6.985,12.37,6.747,12,6.05,12    c-0.669,0-0.883,0.965-0.945,1.77c-1.701,1.93-2.033,3.164-2.121,4.12c-0.061,0.666-0.861,1.652-0.973,2.608    c-0.045,0.389,1.458,1.58,2.359,1.556c0.765-0.021,1.062-0.764,1.614-1.212c0.443,0.355,1.421,0.908,1.421,0.908    s0.913-0.617,1.35-1.771c0.553-0.208,0.946-0.29,1.225-0.316c-0.135,0.953-0.237,1.772-0.322,2.499    C11.423,22.454,12.293,23,12.293,23s-1.252,0.14-2.735,0.072c-0.098,0.927-0.16,1.646-0.212,2.223    c1.299,0.3,1.947,0.705,1.947,0.705s-0.875,0.098-2.025,0.091c-0.11,0.988-0.239,1.375-0.686,1.795    c-0.336,0.315-1.116,0.244-1.423,0.695C6.782,29.131,6.875,30,7.603,30h1.709c0.843,0,1.575-1.492,2.041-2.469    c0.484-1.016,1.359-3.013,2.527-5.614c0.521,0.139,1.153,0.26,1.861,0.366c0,0.001,0.001,0.003,0.002,0.004    c1.403,0.172,2.477,0.29,2.477,0.29s-0.509,0.417-2.135,0.489c0.323,0.739,0.631,1.453,0.909,2.087    c1.223,0.07,1.986,0.118,1.986,0.118s-0.555,0.364-1.674,0.585c0.348,0.776,0.649,1.408,0.888,1.79    C18.675,28.419,20.313,30,21.313,30c0.563,0,1.19-0.746,1.066-1.349c-0.096-0.468-0.711-0.738-1.75-1.221    c-0.855-1.029-0.354-2.104-0.619-4.713c2.224,0.152,4.562,0.229,6.468,0.263c0.502,1.003,1.005,1.907,1.281,2.64    c0.554-0.206,1.389-0.436,2.521-0.557c0.033-0.426,0.108-0.866,0.304-1.313c0.05-0.114,0.118-0.235,0.196-0.361    c1.022,0.79,2.049,1.602,2.63,2.369C33.864,25.561,34.65,25.293,35.776,25.127z M6.942,18c-0.121,0.69-0.342,1.203-2.48,1.582    c1.106-0.808,1.449-1.34,1.507-1.781c0.218-1.67,0.049-1.747-0.609-2.754C6.575,15.441,7.299,15.958,6.942,18z M27.902,26.069    c0.084,0.331,0.103,0.618,0.006,0.837c-0.169,0.385-0.683,1.343-1.102,1.441C25.275,28.708,25.908,30,26.656,30H27.5    c0.305,0,0.607-0.08,0.852-0.311c0.875-0.825,1.618-2.126,1.698-2.32c0.167-0.399,0.188-0.852,0.195-1.337    C29.362,26.105,28.521,26.098,27.902,26.069z M37.531,26.979c-0.512-0.196-0.915-0.525-1.24-0.95    c-1.054,0.091-2.05,0.063-2.684,0.024c0.111,0.185,0.204,0.367,0.248,0.545c0.151,0.611,0.051,1.751-0.19,1.824    C32.539,28.764,32.772,30,33.805,30h0.937c0.75,0,0.982-0.67,1.101-1.282c0.069-0.362,0.108-0.74,0.133-1.097    c0.284,0.22,0.6,0.404,0.974,0.525C38.008,28.489,38.5,27.351,37.531,26.979z"/>
	</g>
</g>
</svg>
