<?xml version="1.0" encoding="utf-8"?>
<!-- Generator: Adobe Illustrator 15.0.0, SVG Export Plug-In . SVG Version: 6.00 Build 0)  -->
<!DOCTYPE svg PUBLIC "-//W3C//DTD SVG 1.1//EN" "http://www.w3.org/Graphics/SVG/1.1/DTD/svg11.dtd">
<svg xmlns="http://www.w3.org/2000/svg" xmlns:xlink="http://www.w3.org/1999/xlink" version="1.1" id="Shape_5_2_" x="0px" y="0px" width="40px" height="40px" viewBox="0 0 40 40" enable-background="new 0 0 40 40" xml:space="preserve">
<g>
	<g>
		<path d="M35.259,25.159c-0.795-1.802-2.875-5.103-4.581-6.784c-2.681-2.643-6.553-4.25-6.553-4.25    c-1.479-3.081-5.563-3.924-9.776-5.418C13.343,6.779,12.095,6,9.813,6C8.226,6,7.134,7.043,6.837,8.089    C5.696,8.366,4.354,8.444,3.606,9.065C2.654,9.855,2,11.78,2,13c0,0,6.309,0.706,9.561,2.484c2.137,1.168,2.767,2.833,2.143,3.193    s-1.538-1.396-2.781-2.13c-3.193-1.884-8.258-2.477-8.852-2.541c0.181,1.209,0.752,1.611,1.867,2.66    C4.58,17.858,6.458,19.481,8,20c1.039,3.715,0.625,6.176,1.583,7.834c0.406,0.702,0.897,1.188,1.333,1.526    c0.573-2.873,2.346-6.079,4.239-6.079C12.531,26.063,12,30,12,30s-0.482,0.149-1.297,0.719C9.89,31.286,10,32,11,32h6c2,0,3-4,3-7    s-2-3-3-3c0.549-0.549,2.073-0.711,3-0.055c0.762,0.539,1,1.701,1,3.055c0,3.308-0.736,5.732-1.906,7h5.696    c0.07-0.094,0.153-0.182,0.239-0.266C22.488,31.255,21,30.146,21,28.606c0-3.192,2.213-5.394,8.001-5.59    c1.281-0.043,2.959,0.442,3.901,1.304C32.029,24.121,31.063,24,30,24c-7.313,0-8,2.774-8,4.606c0,1.53,2.807,2.474,6.625,2.389    c0.613-0.014,2.253,0.024,3.992-0.108c-0.51,0.404-1.003,0.678-1.367,0.738C30.242,31.792,29.11,32,28.155,32h-1.124    c-2,0-2.031,2-1.031,2h3.155c1.887,0,2.896-0.167,4.342-0.786c2.481-1.064,4.503-3.05,4.503-4.82    C38,27.349,37.023,26.068,35.259,25.159z M10,10c-1.104,0-2-0.154-2-1s0.895-1,2-1c1.104,0,2,0.155,2,1C12,9.846,11.105,10,10,10z    "/>
	</g>
</g>
</svg>
