<?xml version="1.0" encoding="utf-8"?>
<!-- Generator: Adobe Illustrator 15.0.0, SVG Export Plug-In . SVG Version: 6.00 Build 0)  -->
<!DOCTYPE svg PUBLIC "-//W3C//DTD SVG 1.1//EN" "http://www.w3.org/Graphics/SVG/1.1/DTD/svg11.dtd">
<svg xmlns="http://www.w3.org/2000/svg" xmlns:xlink="http://www.w3.org/1999/xlink" version="1.1" id="Shape_5_2_" x="0px" y="0px" width="40px" height="40px" viewBox="0 0 40 40" enable-background="new 0 0 40 40" xml:space="preserve">
<g>
	<g>
		<path d="M20,12.333c1.391,0.479,3.308,1.476,4.891,2.979l2.822-2.822C25.3,10.172,22.263,8.688,20,8.19V12.333z M19,12.053V8.027    c-0.507-0.047-0.951-0.03-1.304,0.058c-1.636,0.409-3.652,1.78-5.427,3.477l2.826,2.826c1.501-1.419,2.819-2.183,3.451-2.388    C18.671,12.001,18.828,12.021,19,12.053z M9.044,13.679c0.607-0.828,1.329-1.667,2.148-2.487c0.819-0.819,1.659-1.541,2.486-2.147    c-0.234-0.298-0.467-0.592-0.694-0.875C12.989,8.113,13,8.055,13,8c0-2-3-6-6-6C5,2,3.663,2.337,3,3S2,5,2,7c0,3,4,6,6,6    c0.055,0,0.113-0.011,0.17-0.015C8.453,13.212,8.746,13.444,9.044,13.679z M17.445,7.106c0.838-0.209,2.066-0.097,3.459,0.295    C22.718,6.497,25,7.198,25,4.582c0-0.133-0.026-0.276-0.072-0.425c-0.001-0.003,0.001-0.003,0-0.007    C24.662,2.982,25.215,2.292,25,2.097c-0.249-0.225-0.707,0.129-1.042,0.781C23.297,2.378,22.319,2,21,2c-3,0-6,2-6,4    c0,0.655,0.223,1.303,0.511,1.888C16.189,7.529,16.842,7.257,17.445,7.106z M27.117,18.4c0.239,0.559,0.412,1.086,0.554,1.6h4.119    c-0.187-0.986-0.502-2.043-0.988-3.177c-0.579-1.35-1.419-2.554-2.392-3.616l-2.826,2.826    C26.204,16.736,26.741,17.522,27.117,18.4z M16.015,24.188l8.164-8.164c-1.94-1.826-4.461-2.896-5.482-3.014    c-0.626,0.263-1.885,1.06-3.261,2.435c-1.374,1.374-2.171,2.634-2.435,3.261C13.12,19.728,14.189,22.248,16.015,24.188z     M25.512,25.521c1.729-1.729,1.939-3.804,0.688-6.727c-0.321-0.75-0.787-1.432-1.327-2.049l-8.136,8.135    c0.617,0.54,1.298,1.006,2.048,1.327C21.709,27.461,23.783,27.249,25.512,25.521z M7.888,15.511C7.303,15.223,6.655,15,6,15    c-2,0-4,3-4,6c0,1.319,0.378,2.297,0.878,2.958C2.226,24.293,1.872,24.751,2.097,25c0.194,0.215,0.885-0.338,2.052-0.072    c0.004,0.001,0.004-0.001,0.007,0C4.305,24.974,4.449,25,4.582,25c2.617,0,1.916-2.282,2.82-4.096    c-0.392-1.394-0.505-2.622-0.295-3.459C7.257,16.842,7.529,16.188,7.888,15.511z M27.888,21c0.293,1.888-0.142,3.472-1.336,4.845    l2.848,2.848c1.514-1.653,2.897-4.17,2.535-7.692H27.888z M21,27.898v4.037c3.523,0.362,6.04-1.022,7.692-2.536l-2.847-2.847    C24.473,27.752,22.889,28.189,21,27.898z M36.625,21c-1.372-4.221-2.615-4.876-5.111-4.979c0.063,0.134,0.138,0.261,0.196,0.398    c1.381,3.221,1.522,5.894,1.024,8.073C33.517,25.711,34.276,26,35,26c2.625,0,3-2.372,3-3.372S37.625,21,36.625,21z M12.32,20    H8.19c0.498,2.262,1.982,5.301,4.3,7.713l2.813-2.813C13.797,23.313,12.798,21.392,12.32,20z M11.99,18.556    c0.206-0.633,0.973-1.956,2.398-3.461l-2.826-2.825c-1.697,1.774-3.068,3.791-3.478,5.427C7.997,18.05,7.98,18.494,8.027,19h4.015    C12.012,18.832,11.992,18.679,11.99,18.556z M24.492,32.734c-2.18,0.498-4.852,0.355-8.073-1.025    c-0.137-0.059-0.264-0.133-0.398-0.196c0.103,2.497,0.757,3.74,4.979,5.112c0,1,0.628,1.375,1.628,1.375S26,37.625,26,35    C26,34.276,25.711,33.517,24.492,32.734z M20,31.79v-4.108c-0.517-0.141-1.047-0.314-1.61-0.556    c-0.878-0.376-1.664-0.913-2.367-1.532l-2.817,2.816c1.063,0.974,2.266,1.813,3.616,2.392C17.957,31.288,19.014,31.604,20,31.79z"/>
	</g>
</g>
</svg>
