<?xml version="1.0" encoding="utf-8"?>
<!-- Generator: Adobe Illustrator 15.0.0, SVG Export Plug-In . SVG Version: 6.00 Build 0)  -->
<!DOCTYPE svg PUBLIC "-//W3C//DTD SVG 1.1//EN" "http://www.w3.org/Graphics/SVG/1.1/DTD/svg11.dtd">
<svg xmlns="http://www.w3.org/2000/svg" xmlns:xlink="http://www.w3.org/1999/xlink" version="1.1" id="Shape_5_2_" x="0px" y="0px" width="40px" height="40px" viewBox="0 0 40 40" enable-background="new 0 0 40 40" xml:space="preserve">
<g id="554054074_Shape_5_2_">
	<g>
		<g>
			<g>
				<path fill-rule="evenodd" clip-rule="evenodd" d="M34,17.708c0-1.958-0.229-5.204-0.75-7.917C32.811,7.505,31.375,5,26.875,5      c-0.588,0-1.088,0.071-1.529,0.189c-0.021-0.024-0.031-0.06-0.053-0.083c-0.616-0.667-5.115-3.089-11.075-3.089      C5.969,2.017,2,6.077,2,14c0,0.105,2.417-1,3.628-1C9.25,13,14,14,18,14c1.202,0,2.233-0.006,3.116-0.029      C21.099,14.476,21.069,14.988,21,15.5c-2.045,0.476-5.508,2.111-7,3.5c-3.221,3-6,7.498-6,8.375      c0,0.223,0.665,0.616,1.781,1.031C8.008,30.981,6,34.222,6,35.688C6,36.938,8.375,38,9.875,38c3.029,0,4.006,0,5.94-8.218      c0.302,0.036,0.621,0.058,0.932,0.086l0.869,2.171C16.695,32.218,16,33.027,16,34c0,0.748,0.416,1.393,1.024,1.735      C17.012,35.658,17,35.581,17,35.5c0-0.828,0.671-1.5,1.5-1.5h1c0.828,0,1.5,0.672,1.5,1.5c0,0.081-0.012,0.158-0.023,0.235      C21.584,35.393,22,34.748,22,34c0-1.104-0.896-2-2-2h-0.4l-0.808-2.019C18.983,29.985,19.168,30,19.361,30      c1.956,0,3.682-0.212,5.203-0.589l1.051,2.628C24.695,32.218,24,33.027,24,34c0,0.748,0.416,1.393,1.023,1.735      C25.012,35.658,25,35.581,25,35.5c0-0.828,0.672-1.5,1.5-1.5h1c0.828,0,1.5,0.672,1.5,1.5c0,0.081-0.012,0.158-0.023,0.235      C29.584,35.393,30,34.748,30,34c0-1.104-0.896-2-2-2h-0.4l-1.257-3.143C31.826,26.789,34,22.211,34,17.708z M26.25,23.93      c-3.496-0.245-4.574-2.552-4.135-7.768c0.063-0.74,0.079-1.514,0.085-2.233c1.118-0.064,1.861-0.184,2.199-0.409      c0.33-0.221,0.929-1.317,1.293-2.884C23.572,10.35,20.142,10,16,10c-7,0-10.708,2-10.708,2S8,9,16,9      c4.567,0,7.826,0.651,9.785,1.211C25.914,9.541,26,8.804,26,8.012c0-0.301-0.012-0.602-0.036-0.896      C26.254,7.044,26.557,7,26.875,7C29.792,7,32,8.208,32,17.042C32,20,30,24.192,26.25,23.93z"/>
			</g>
			<g>
				<path fill-rule="evenodd" clip-rule="evenodd" d="M34,17.708c0-1.958-0.229-5.204-0.75-7.917C32.811,7.505,31.375,5,26.875,5      c-0.588,0-1.088,0.071-1.529,0.189c-0.021-0.024-0.031-0.06-0.053-0.083c-0.616-0.667-5.115-3.089-11.075-3.089      C5.969,2.017,2,6.077,2,14c0,0.105,2.417-1,3.628-1C9.25,13,14,14,18,14c1.202,0,2.233-0.006,3.116-0.029      C21.099,14.476,21.069,14.988,21,15.5c-2.045,0.476-5.508,2.111-7,3.5c-3.221,3-6,7.498-6,8.375      c0,0.223,0.665,0.616,1.781,1.031C8.008,30.981,6,34.222,6,35.688C6,36.938,8.375,38,9.875,38c3.029,0,4.006,0,5.94-8.218      c0.302,0.036,0.621,0.058,0.932,0.086l0.869,2.171C16.695,32.218,16,33.027,16,34c0,0.748,0.416,1.393,1.024,1.735      C17.012,35.658,17,35.581,17,35.5c0-0.828,0.671-1.5,1.5-1.5h1c0.828,0,1.5,0.672,1.5,1.5c0,0.081-0.012,0.158-0.023,0.235      C21.584,35.393,22,34.748,22,34c0-1.104-0.896-2-2-2h-0.4l-0.808-2.019C18.983,29.985,19.168,30,19.361,30      c1.956,0,3.682-0.212,5.203-0.589l1.051,2.628C24.695,32.218,24,33.027,24,34c0,0.748,0.416,1.393,1.023,1.735      C25.012,35.658,25,35.581,25,35.5c0-0.828,0.672-1.5,1.5-1.5h1c0.828,0,1.5,0.672,1.5,1.5c0,0.081-0.012,0.158-0.023,0.235      C29.584,35.393,30,34.748,30,34c0-1.104-0.896-2-2-2h-0.4l-1.257-3.143C31.826,26.789,34,22.211,34,17.708z M26.25,23.93      c-3.496-0.245-4.574-2.552-4.135-7.768c0.063-0.74,0.079-1.514,0.085-2.233c1.118-0.064,1.861-0.184,2.199-0.409      c0.33-0.221,0.929-1.317,1.293-2.884C23.572,10.35,20.142,10,16,10c-7,0-10.708,2-10.708,2S8,9,16,9      c4.567,0,7.826,0.651,9.785,1.211C25.914,9.541,26,8.804,26,8.012c0-0.301-0.012-0.602-0.036-0.896      C26.254,7.044,26.557,7,26.875,7C29.792,7,32,8.208,32,17.042C32,20,30,24.192,26.25,23.93z"/>
			</g>
			<g>
				<path fill-rule="evenodd" clip-rule="evenodd" d="M34,17.708c0-1.958-0.229-5.204-0.75-7.917C32.811,7.505,31.375,5,26.875,5      c-0.588,0-1.088,0.071-1.529,0.189c-0.021-0.024-0.031-0.06-0.053-0.083c-0.616-0.667-5.115-3.089-11.075-3.089      C5.969,2.017,2,6.077,2,14c0,0.105,2.417-1,3.628-1C9.25,13,14,14,18,14c1.202,0,2.233-0.006,3.116-0.029      C21.099,14.476,21.069,14.988,21,15.5c-2.045,0.476-5.508,2.111-7,3.5c-3.221,3-6,7.498-6,8.375      c0,0.223,0.665,0.616,1.781,1.031C8.008,30.981,6,34.222,6,35.688C6,36.938,8.375,38,9.875,38c3.029,0,4.006,0,5.94-8.218      c0.302,0.036,0.621,0.058,0.932,0.086l0.869,2.171C16.695,32.218,16,33.027,16,34c0,0.748,0.416,1.393,1.024,1.735      C17.012,35.658,17,35.581,17,35.5c0-0.828,0.671-1.5,1.5-1.5h1c0.828,0,1.5,0.672,1.5,1.5c0,0.081-0.012,0.158-0.023,0.235      C21.584,35.393,22,34.748,22,34c0-1.104-0.896-2-2-2h-0.4l-0.808-2.019C18.983,29.985,19.168,30,19.361,30      c1.956,0,3.682-0.212,5.203-0.589l1.051,2.628C24.695,32.218,24,33.027,24,34c0,0.748,0.416,1.393,1.023,1.735      C25.012,35.658,25,35.581,25,35.5c0-0.828,0.672-1.5,1.5-1.5h1c0.828,0,1.5,0.672,1.5,1.5c0,0.081-0.012,0.158-0.023,0.235      C29.584,35.393,30,34.748,30,34c0-1.104-0.896-2-2-2h-0.4l-1.257-3.143C31.826,26.789,34,22.211,34,17.708z M26.25,23.93      c-3.496-0.245-4.574-2.552-4.135-7.768c0.063-0.74,0.079-1.514,0.085-2.233c1.118-0.064,1.861-0.184,2.199-0.409      c0.33-0.221,0.929-1.317,1.293-2.884C23.572,10.35,20.142,10,16,10c-7,0-10.708,2-10.708,2S8,9,16,9      c4.567,0,7.826,0.651,9.785,1.211C25.914,9.541,26,8.804,26,8.012c0-0.301-0.012-0.602-0.036-0.896      C26.254,7.044,26.557,7,26.875,7C29.792,7,32,8.208,32,17.042C32,20,30,24.192,26.25,23.93z"/>
			</g>
		</g>
	</g>
	<g>
		<g>
			<g>
				<path fill-rule="evenodd" clip-rule="evenodd" d="M34,17.708c0-1.958-0.229-5.204-0.75-7.917C32.811,7.505,31.375,5,26.875,5      c-0.588,0-1.088,0.071-1.529,0.189c-0.021-0.024-0.031-0.06-0.053-0.083c-0.616-0.667-5.115-3.089-11.075-3.089      C5.969,2.017,2,6.077,2,14c0,0.105,2.417-1,3.628-1C9.25,13,14,14,18,14c1.202,0,2.233-0.006,3.116-0.029      C21.099,14.476,21.069,14.988,21,15.5c-2.045,0.476-5.508,2.111-7,3.5c-3.221,3-6,7.498-6,8.375      c0,0.223,0.665,0.616,1.781,1.031C8.008,30.981,6,34.222,6,35.688C6,36.938,8.375,38,9.875,38c3.029,0,4.006,0,5.94-8.218      c0.302,0.036,0.621,0.058,0.932,0.086l0.869,2.171C16.695,32.218,16,33.027,16,34c0,0.748,0.416,1.393,1.024,1.735      C17.012,35.658,17,35.581,17,35.5c0-0.828,0.671-1.5,1.5-1.5h1c0.828,0,1.5,0.672,1.5,1.5c0,0.081-0.012,0.158-0.023,0.235      C21.584,35.393,22,34.748,22,34c0-1.104-0.896-2-2-2h-0.4l-0.808-2.019C18.983,29.985,19.168,30,19.361,30      c1.956,0,3.682-0.212,5.203-0.589l1.051,2.628C24.695,32.218,24,33.027,24,34c0,0.748,0.416,1.393,1.023,1.735      C25.012,35.658,25,35.581,25,35.5c0-0.828,0.672-1.5,1.5-1.5h1c0.828,0,1.5,0.672,1.5,1.5c0,0.081-0.012,0.158-0.023,0.235      C29.584,35.393,30,34.748,30,34c0-1.104-0.896-2-2-2h-0.4l-1.257-3.143C31.826,26.789,34,22.211,34,17.708z M26.25,23.93      c-3.496-0.245-4.574-2.552-4.135-7.768c0.063-0.74,0.079-1.514,0.085-2.233c1.118-0.064,1.861-0.184,2.199-0.409      c0.33-0.221,0.929-1.317,1.293-2.884C23.572,10.35,20.142,10,16,10c-7,0-10.708,2-10.708,2S8,9,16,9      c4.567,0,7.826,0.651,9.785,1.211C25.914,9.541,26,8.804,26,8.012c0-0.301-0.012-0.602-0.036-0.896      C26.254,7.044,26.557,7,26.875,7C29.792,7,32,8.208,32,17.042C32,20,30,24.192,26.25,23.93z"/>
			</g>
		</g>
	</g>
</g>
</svg>
