<?xml version="1.0" encoding="utf-8"?>
<!-- Generator: Adobe Illustrator 15.0.0, SVG Export Plug-In . SVG Version: 6.00 Build 0)  -->
<!DOCTYPE svg PUBLIC "-//W3C//DTD SVG 1.1//EN" "http://www.w3.org/Graphics/SVG/1.1/DTD/svg11.dtd">
<svg xmlns="http://www.w3.org/2000/svg" xmlns:xlink="http://www.w3.org/1999/xlink" version="1.1" id="Shape_5_2_" x="0px" y="0px" width="40px" height="40px" viewBox="0 0 40 40" enable-background="new 0 0 40 40" xml:space="preserve">
<g>
	<g>
		<path d="M28.25,10c-1.96,0-4.184,0.721-6.283,1.711c0.001,0.041,0.002,0.081,0.002,0.122c0,10.417-6.177,10.417-6.969,9.375    c0,0,5.969,0.125,5.969-9.375C20.969,8.556,20.334,6,19,6c-1.333,0-1.405,2.358-4.542,5.97c-1.083,1.248-2.677,1.785-3.914,2.019    c-1.268-1.072-2.772-1.984-4.023-2.444c-1.346-0.496-2.67-1.111-4.435-2.503c0.171,2.017,2.12,3.409,3.502,4.341    c0.829,0.559,1.658,1.349,2.395,2.271c-0.353,0.589-0.814,1.197-1.363,1.504C5.216,17.94,3.375,17.241,2,16    c0,2.875,0.583,3.542,0.583,3.542S2,20.041,2,21.125c0,1.344,1.25,2.583,1.25,2.583l1.128-0.88c0,0,1.206,1.172,3.998,1.172    c1.743,0,3.512-0.223,4.83-0.44c0.263,0.2,0.535,0.388,0.815,0.562c-0.909,1.235-1.989,2.984-1.989,6.879H15    c0-2.278,1.959-3.032,3.209-5.328c1.263,0.24,2.628,0.364,4.097,0.411C22.137,25.184,22,24.288,22,23.75    c0-1.628,0.977-3.479,2.215-4.831C23.516,20.582,23,22.564,23,23.75c0,1.792,2.041,4.804,2.041,4.804l-1.067,1.561    c3.56-1.325,5.21-4.007,6.026-7.114c0,7.542-7.745,9.313-13.171,9.034c-0.998-0.052-0.967,0.773-0.016,1.08    C18.955,33.806,21.5,34,24.991,34C34.333,34,38,27.563,38,22C38,16.333,34.073,10,28.25,10z"/>
	</g>
</g>
</svg>
