<?xml version="1.0" encoding="utf-8"?>
<!-- Generator: Adobe Illustrator 15.0.0, SVG Export Plug-In . SVG Version: 6.00 Build 0)  -->
<!DOCTYPE svg PUBLIC "-//W3C//DTD SVG 1.1//EN" "http://www.w3.org/Graphics/SVG/1.1/DTD/svg11.dtd">
<svg xmlns="http://www.w3.org/2000/svg" xmlns:xlink="http://www.w3.org/1999/xlink" version="1.1" id="Shape_5_2_" x="0px" y="0px" width="40px" height="40px" viewBox="0 0 40 40" enable-background="new 0 0 40 40" xml:space="preserve">
<g>
	<g>
		<path d="M31.675,29.28c-0.642-0.642-1.129-1.546-1.567-2.638l0.705-0.705l-1.125-0.425c-0.175-0.511-0.347-1.049-0.522-1.615    l0.96-0.96L28.7,22.399c-0.098-0.315-0.195-0.63-0.3-0.956c0.375-1.736,0.919-1.988,3.6-2.443c0,0-2.416-1.252-5.265-2.011    c-0.308-0.698-0.66-1.407-1.038-2.119c-0.015-0.042-0.026-0.081-0.051-0.132c-1.24-2.578-2.271-5.676-1.334-7.739    c-1.686-0.166-3.626-0.05-5.268,0.13C14.897,4.402,9.214,2.745,4,2v3.438l-2-2c0,8.688,4.153,15.832,8.313,19.249    c2.237,1.838,4.499,3.079,6.665,4.012C17.736,29.563,19,32,19,32c0.468-2.761,0.727-3.255,2.606-3.633    c3.301,1.021,6.062,1.695,7.674,3.308C28,35,28.587,38.013,28.587,38.013s2.981-4.709,3.85-5.576    C33.304,31.568,38,28.622,38,28.622S34.961,28.013,31.675,29.28z M7,8C6.448,8,6,7.552,6,7c0-0.553,0.448-1,1-1    c0.551,0,1,0.448,1,1C8,7.552,7.552,8,7,8z M18.559,19.441C13.26,14.143,10,10,10,10s4.143,3.26,9.441,8.559    C24.742,23.855,28,28,28,28S23.855,24.742,18.559,19.441z"/>
	</g>
</g>
</svg>
