<?xml version="1.0" encoding="utf-8"?>
<!-- Generator: Adobe Illustrator 15.0.0, SVG Export Plug-In . SVG Version: 6.00 Build 0)  -->
<!DOCTYPE svg PUBLIC "-//W3C//DTD SVG 1.1//EN" "http://www.w3.org/Graphics/SVG/1.1/DTD/svg11.dtd">
<svg xmlns="http://www.w3.org/2000/svg" xmlns:xlink="http://www.w3.org/1999/xlink" version="1.1" id="Shape_5_2_" x="0px" y="0px" width="40px" height="40px" viewBox="0 0 40 40" enable-background="new 0 0 40 40" xml:space="preserve">
<g>
	<g>
		<path fill-rule="evenodd" clip-rule="evenodd" d="M30.921,20.365c2.857-0.716,5.299-1.168,7.121-1.45    c0.024-0.527,0.042-1.074,0.042-1.665c0-3.056-0.521-5.651-1.28-7.799c-1.658,0.903-4.729,2.604-8.018,4.561    c3.293-3.003,6.045-5.033,7.447-6.01C34.438,3.961,31.861,1.917,31,1.917c-1.144,0-2.89,1.52-6.386,8.208    C23.373,10.023,22.137,9.998,21,10c-4.093,0.008-6.958,1.292-9.976,4.323c0.97-2.118,3.018-3.492,3.018-5.533    c0-1.634-0.45-3.824-3.375-3.824c-2.325,0-3.921,1.153-4.198,3.19c-0.175,1.292,0.035,1.073-0.906,2.5    c-1.195,1.812-1.997,2.333-1.375,2.844c0.583,0.479,2.315-1.695,3.134-2.495c0.125-0.122,0.491-0.349,2.27-0.634    c0,1.125-1.354,0.815-1.779,1.378C4.699,15.883,2,16.969,2,21.708c0,3.14,2.833,5.338,7.087,5.338    c1.376,2.302,3.559,3.664,5.731,4.361L13.962,36h-0.691C10.417,36,8.678,37.198,8,38h17c-0.475-0.949-2.007-1.569-3.072-1.841    l0.822-4.412c4.499-0.543,7.138-1.809,7.445-2.146c0.165-0.182-0.57-0.88-1.68-1.692c2.758,0.166,5.808,0.264,6.263-0.074    c0.965-0.715,2.702-2.392,3.179-7.663C36.045,20.197,33.56,20.252,30.921,20.365z M19.962,36h-4.005l0.774-4.156    C17.348,31.938,17.95,32,18.501,32c0.777,0,1.513-0.027,2.22-0.07L19.962,36z"/>
	</g>
</g>
</svg>
