<?xml version="1.0" encoding="utf-8"?>
<!-- Generator: Adobe Illustrator 15.0.0, SVG Export Plug-In . SVG Version: 6.00 Build 0)  -->
<!DOCTYPE svg PUBLIC "-//W3C//DTD SVG 1.1//EN" "http://www.w3.org/Graphics/SVG/1.1/DTD/svg11.dtd">
<svg xmlns="http://www.w3.org/2000/svg" xmlns:xlink="http://www.w3.org/1999/xlink" version="1.1" id="Shape_5_2_" x="0px" y="0px" width="40px" height="40px" viewBox="0 0 40 40" enable-background="new 0 0 40 40" xml:space="preserve">
<g>
	<g>
		<path d="M9.087,18.24C8.376,18.102,7.637,18,7,18c-2,0-5,5.375-5,10c0,2.708,0.582,6,1.582,6c1.317,0,2.223-1.5,2.889-5.185    c1.56-1.779,2.821-4.514,3.309-5.65c-0.513-1.412-0.779-2.828-0.779-4.129C9.001,18.783,9.035,18.516,9.087,18.24z M10.825,14.651    c0.501-0.687,1.086-1.38,1.766-2.06c0.68-0.68,1.373-1.265,2.061-1.767C14.287,8.841,11.857,5,9.414,5    C7.648,5,6.468,5.298,5.883,5.883S5,7.648,5,9.414C5,11.857,8.841,14.287,10.825,14.651z M19.039,9c1.3,0,2.716,0.266,4.129,0.779    c1.139-0.489,3.869-1.75,5.646-3.308c3.685-0.667,5.185-1.572,5.185-2.889c0-1-3.292-1.582-6-1.582c-4.625,0-10,3-10,5    c0,0.637,0.102,1.375,0.24,2.086C18.516,9.034,18.785,9,19.039,9z M22.125,32.772C22.048,33.223,22,33.644,22,34c0,2,2.781,4,6,4    c1,0,2,0,2-1c0-0.702-0.276-2.608-1.407-4.304C26.83,33.03,24.524,33.123,22.125,32.772z M33.999,22.001    c-0.355,0-0.776,0.048-1.226,0.125c0.35,2.398,0.256,4.705-0.078,6.469c1.696,1.13,3.602,1.406,4.304,1.406c1,0,1-1,1-2    C37.999,24.782,35.999,22.001,33.999,22.001z M19.039,10c-3.255,0-9.038,5.78-9.038,9.036c0,3.615,2.446,9.2,7.973,11.569    c5.528,2.368,11.877,1.214,12.859,0.229c0.985-0.983,2.143-7.333-0.227-12.861C28.236,12.445,22.652,10,19.039,10z M14,19    c1,2,3.535,6.269,12,10C19,27,14.711,23.875,14,19z M18.999,14.001c4.875,0.711,8,5,10,12    C25.268,17.536,20.999,15.001,18.999,14.001z"/>
	</g>
</g>
</svg>
