<?xml version="1.0" encoding="utf-8"?>
<!-- Generator: Adobe Illustrator 15.0.0, SVG Export Plug-In . SVG Version: 6.00 Build 0)  -->
<!DOCTYPE svg PUBLIC "-//W3C//DTD SVG 1.1//EN" "http://www.w3.org/Graphics/SVG/1.1/DTD/svg11.dtd">
<svg xmlns="http://www.w3.org/2000/svg" xmlns:xlink="http://www.w3.org/1999/xlink" version="1.1" id="Shape_5_2_" x="0px" y="0px" width="40px" height="40px" viewBox="0 0 40 40" enable-background="new 0 0 40 40" xml:space="preserve">
<g>
	<g>
		<path d="M32.042,16.125C29.502,14.44,22,12,22,12c-1.164-6.057-2.776-8.969-8.961-7.537C11.986,4.197,10.955,4,10.531,4    C9.858,4,8.974,4.73,8.329,4.987C7.252,5.415,4.894,4.85,3.878,5.157C2.871,5.462,2,6.579,2,7.844    c0,0.195,0.068,0.519,0.175,0.915c0.375,1.024,1.241,2.28,1.241,2.28L4.813,9l1.641,2l1.391-2l1.578,2l1.203-1.375l2.219,0.4    l-1.271,2.797L10.354,12l-1.484,2.281L7.385,13L5.9,15.281L4.416,14c0,0-0.157,0.122-0.157,1.375C4.259,16.071,4.688,17,6.25,17    C8.089,17,13,17,14,16c0.295-0.295,0.636-0.66,0.987-1.048c0.847,1.079,1.02,2.08,1.02,2.723c0,1.072,0.392,2.053,1.049,2.948    c-0.878,0.61-2.837,2.219-3.055,4.564l1-0.156l0.558,0.967c0,0,0.785-1.779,2.451-4.297c1.008,0.969,2.312,1.824,3.718,2.573    C22.817,22.396,24.92,21,26.459,21C24.99,21,22,24.419,22,26.75c0,1.792,2.041,3.804,2.041,3.804s-0.707,1.339-1.529,2.414    C22.786,32.979,23.069,33,23.333,33C28.814,33,30,29,30,28c0,2.833-1.186,6-6.667,6c-6.246,0-10.771-2.188-14.335-5.615    c-0.72-0.692-1.26-0.034-0.72,0.807C12.199,35.303,18.761,38,24.991,38C34.333,38,38,32.563,38,27    C38,22.417,36.5,19.083,32.042,16.125z M11,8.142c-0.631,0-1.142-0.512-1.142-1.143S10.369,5.858,11,5.858s1.142,0.51,1.142,1.141    S11.631,8.142,11,8.142z"/>
	</g>
</g>
</svg>
