<?xml version="1.0" encoding="utf-8"?>
<!-- Generator: Adobe Illustrator 15.0.0, SVG Export Plug-In . SVG Version: 6.00 Build 0)  -->
<!DOCTYPE svg PUBLIC "-//W3C//DTD SVG 1.1//EN" "http://www.w3.org/Graphics/SVG/1.1/DTD/svg11.dtd">
<svg xmlns="http://www.w3.org/2000/svg" xmlns:xlink="http://www.w3.org/1999/xlink" version="1.1" id="Shape_5_2_" x="0px" y="0px" width="40px" height="40px" viewBox="0 0 40 40" enable-background="new 0 0 40 40" xml:space="preserve">
<g>
	<g>
		<path d="M38.336,30.25c0,0-0.853-1.972-0.898-3.438c-0.056-1.788,0.301-2.095,0.586-5.25C38.464,16.688,35.586,16,33.586,16    c-0.139,0-0.255,0.002-0.38,0.003C32.475,15.371,31.608,15,30.768,15c-3,0-5.455,0.875-10.455,0.875    c-2.929,0-2.839-5.532-10.784-7.713C8.94,7.049,7.961,5.3,7.961,6v2h-0.82C5.592,6.632,2.356,3.827,2.063,4.021    c-0.29,0.191,2.46,3.867,3.72,5.521c-0.898,1.189-2.11,2.83-2.909,4.048c-0.468,0.714-0.679,1.237-0.83,1.879    c-0.384,1.635,0.81,2.485,1.81,2.485s1.515-1.372,1.515-1.372l4.184-1.625L11.961,21c0,0,0.003,0.43,0.178,1.004    c-0.076,0.021-2.158,0.584-3.464,1.193c-0.371,0.173-0.713,0.448-0.713,0.928c0,0.733,0.545,3.354,1.227,5.001    C9.41,29.664,9.833,30,10.646,30c1,0,2.315,0,2.315,0l-1-2c0,0-0.859,0.132-1.188-0.228c-0.229-0.251-0.687-1.529-0.687-2.486    c0-0.353,0.733-0.301,5.335-0.288c0.917,1.059,3.026,4.051,2.684,8.908c-0.031,0.435-0.357,1.171-0.917,2.094h2.375    c0,0,0.438-1.313,0.438-1.813c0-2.089-0.167-5.636-0.531-8.806c1.983,0.494,4.091,1.122,8.316-0.399    c0.959,1.907,2.22,3.539,2.772,5.143c0.213,0.617-1.303,2.428-2.1,3.799C28.2,34.367,27.414,36,27.414,36h2.461    c0,0,0.577-1.481,1.495-2.998c0.671-1.108,1.91-2.697,1.91-3.002c0-0.72-0.265-1.139-0.456-1.881    c0.671,0.434,1.307,0.961,1.824,1.693c0.191,0.271-0.064,2.868-0.367,3.999C34.166,34.24,33.625,36,33.625,36H36    c0,0,0.191-1.17,0.392-2.627c0.183-1.329,0.416-2.828,0.509-3.888C37.655,30.038,38.336,30.25,38.336,30.25z M34.344,24.469    c0-1.938,0.617-2.691,0.617-4.469c0-1.408-0.493-2.584-1.213-3.448c3.69,1.454,1.15,6.276,1.15,9.01    c0,0.119,0.014,0.229,0.021,0.343C34.59,25.425,34.344,24.929,34.344,24.469z"/>
	</g>
</g>
</svg>
