<?xml version="1.0" encoding="utf-8"?>
<!-- Generator: Adobe Illustrator 15.0.0, SVG Export Plug-In . SVG Version: 6.00 Build 0)  -->
<!DOCTYPE svg PUBLIC "-//W3C//DTD SVG 1.1//EN" "http://www.w3.org/Graphics/SVG/1.1/DTD/svg11.dtd">
<svg xmlns="http://www.w3.org/2000/svg" xmlns:xlink="http://www.w3.org/1999/xlink" version="1.1" id="Shape_5_2_" x="0px" y="0px" width="40px" height="40px" viewBox="0 0 40 40" enable-background="new 0 0 40 40" xml:space="preserve">
<g>
	<g>
		<path fill-rule="evenodd" clip-rule="evenodd" d="M31.313,19.188c-2.059-2.375-5.885-3.36-9.586-3.77    c-0.249-1.163-1.393-3.043-3.477-3.043c-1.338,0-2.366,0.869-3.198,1.937c-0.775-0.094-1.581-0.322-1.964-0.843    C12.434,12.583,14,8.52,14,5.956C14,3.291,11.498,2,10.041,2C8.833,2,7.705,2.731,6.208,3.298c-2.292,0.869-3.375,0.008-4,1.744    C1.542,6.896,2.748,8.28,2.748,8.28c0.155-0.43,0.668-1.083,1.116-1.278c1.81,0.31,4.555,0.437,4.555,0.437    c1.419,1.326-1.173,5.039-0.044,8.436c0.598,1.799,2.391,2.454,4.097,2.889c1.541-1.364,4.022-1.898,6.146-1.94    C15.706,17.596,12,19.287,12,22c0,5,13.838,10,15,10c1.119,0,5-1.083,5-1.625c0-0.488-0.96-3.534-2.813-6.679    c2.98,3.274,4.007,6.905,3.896,7.158c-0.092,0.209-0.343,0.422-1.172,0.803c-0.444,0.204-1.001,0.428-1.592,0.634    c0.923,0.894,1.528,1.494,2.086,1.646c0.688,0.188,5.259,0.438,5.656-0.25S34.898,23.325,31.313,19.188z M26.928,36.159    l0.594-3.187C27.365,32.987,27.212,33,27.07,33c-0.31,0-0.833-0.098-1.498-0.276L24.962,36h-6.005l0.561-3.01    c0.837-0.038,1.88-0.25,2.714-1.418c-2.434-0.983-5.278-2.414-7.498-4.1c0.53,2.392,1.429,4.382,2.855,5.166L16.962,36h-0.691    c-2.854,0-4.593,1.198-5.271,2h19C29.525,37.051,27.993,36.431,26.928,36.159z"/>
	</g>
</g>
</svg>
