<?xml version="1.0" encoding="utf-8"?>
<!-- Generator: Adobe Illustrator 15.0.0, SVG Export Plug-In . SVG Version: 6.00 Build 0)  -->
<!DOCTYPE svg PUBLIC "-//W3C//DTD SVG 1.1//EN" "http://www.w3.org/Graphics/SVG/1.1/DTD/svg11.dtd">
<svg xmlns="http://www.w3.org/2000/svg" xmlns:xlink="http://www.w3.org/1999/xlink" version="1.1" id="Shape_5_2_" x="0px" y="0px" width="40px" height="40px" viewBox="0 0 40 40" enable-background="new 0 0 40 40" xml:space="preserve">
<g>
	<g>
		<path d="M34.208,20.604c-2.837-2.565-9.711-3.707-10.396-4.479c-1.938-2.188-2.555-6.507-6.555-10.367    C15.317,3.886,14.104,4,12.563,4H9.362C7.707,4,6,5.125,6,7c0,0.064,0.006,0.113,0.007,0.173C4.524,9.181,3.993,11.095,4,13.083    c0.006,1.638,0.417,2.875,0.708,2.875c0.546,0,0.323-1.365,0.801-3.166c0.339-1.278,0.644-2.324,1.452-3.622    c0.459,0.353,1.124,0.745,2.087,1.323c-0.935,2.165-1.589,3.979-2.449,5.867C5.723,18.28,5,21.668,5,24    c0,1.888,0.757,4.457,3,6.17v1.143c0,0-3.591,1.049-5.388,1.489C1.811,32.998,1.786,34,2.599,34H10c1,0,2-0.344,2-1.609v-0.576    c0.616,0.103,1.281,0.163,2,0.175v0.401C14,33.656,15,34,16,34h7.401c0.813,0,0.788-1.002-0.014-1.198    C22.59,32.606,21.635,32.291,20.82,32H28c1.813,0,2.471,0.469,2.807,1c-5.161,0-5.619-0.056-5.807,0.521s0.697,1.229,1.879,2.036    c0,0-1.188,1.682-0.77,2.204c0.435,0.541,1.592,0.149,2.766-0.115c5.625-1.271,9.152-2.709,9.152-7.646    C38.027,26.952,37.042,23.167,34.208,20.604z"/>
	</g>
</g>
</svg>
