<?xml version="1.0" encoding="utf-8"?>
<!-- Generator: Adobe Illustrator 15.0.0, SVG Export Plug-In . SVG Version: 6.00 Build 0)  -->
<!DOCTYPE svg PUBLIC "-//W3C//DTD SVG 1.1//EN" "http://www.w3.org/Graphics/SVG/1.1/DTD/svg11.dtd">
<svg xmlns="http://www.w3.org/2000/svg" xmlns:xlink="http://www.w3.org/1999/xlink" version="1.1" id="Shape_5_2_" x="0px" y="0px" width="40px" height="40px" viewBox="0 0 40 40" enable-background="new 0 0 40 40" xml:space="preserve">
<g>
	<g>
		<path d="M28.447,18.598C27.87,18.125,27.395,18,26.938,18h-4.949c-0.054-0.408-0.149-0.821-0.271-1.229    C25.391,16.371,31.552,15.448,33,14c2-2,3-5,3-7c0-1.313-0.719-2-2-2c-2.321,0-9.513,4.099-13.763,7.015    c0.826-1.205,1.762-2.668,1.762-3.137c0-0.484-0.335-0.765-0.984-1.253C17.208,4.763,13.999,2,13.999,2    c0,1.966,2.245,4,6.099,7.229l-1.956,3.879c-0.519-0.048-1.059-0.012-1.579,0.102C17.419,12.089,18,11,18,10.24    c0-1.774-2.855-2.267-5.421-2.236c-1.363-2.616-2.922-5.593-3.017-5.712C9.265,1.918,8.722,1.857,8.35,2.154    C7.977,2.451,7.916,2.994,8.213,3.367c0.103,0.13,1.79,2.604,3.208,4.688c-1.408,0.104-2.554,0.345-2.788,0.579    c-0.234,0.233-0.475,1.379-0.579,2.788c-2.084-1.418-4.558-3.105-4.688-3.208C2.994,7.916,2.451,7.977,2.154,8.35    C1.857,8.722,1.918,9.265,2.292,9.563c0.119,0.095,3.096,1.653,5.712,3.017C7.973,15.145,8.466,18,10.24,18    c0.761,0,1.85-0.581,2.972-1.438c-0.114,0.521-0.151,1.061-0.102,1.58l-3.88,1.956C6,16.244,3.966,13.999,2,13.999    c0,0,2.763,3.209,5.625,7.016c0.489,0.649,0.769,0.984,1.253,0.984c0.47,0,1.933-0.935,3.137-1.762C9.099,24.487,5,31.679,5,34    c0,1.281,0.688,2,2,2c2,0,5-1,7-3c1.448-1.448,2.371-7.611,2.771-11.284c0.408,0.122,0.821,0.218,1.229,0.271v4.95    c0,0.457,0.125,0.933,0.598,1.51C23.281,34.156,25.938,38,25.938,38c0.464-2.438-2.188-5.688-5.938-11l-0.521-4.984    c0.354-0.039,0.683-0.115,0.979-0.228l2.146,2.146c-0.822,1.321-0.786,2.999,0.111,4.681l5.894-5.894    c-1.694-0.916-3.353-0.936-4.671-0.115l-2.148-2.148c0.112-0.296,0.188-0.625,0.228-0.979L27,20c5.313,3.75,8.563,6.401,11,5.938    C38,25.938,34.156,23.281,28.447,18.598z M13.293,32.293C11.516,34.07,8.782,35,7,35c-0.748,0-1-0.252-1-1    c0-2.071,4.688-10.462,7.985-14.792c0.68-0.892,1.06-1.208,1.453-1.208C15.675,18,16,18,16,19    C16,24.733,14.314,31.271,13.293,32.293z M19,16c-1,0-1-0.325-1-0.563c0-0.393,0.316-0.773,1.208-1.453    C23.538,10.688,31.929,6,34,6c0.748,0,1,0.252,1,1c0,1.782-0.93,4.516-2.707,6.293C31.271,14.314,24.733,16,19,16z M29.331,33.376    C30.869,33.795,32.49,34.008,34,34c0.008-1.51-0.206-3.129-0.627-4.666L29.331,33.376z M30.715,24.322    c-0.052-0.052-0.104-0.088-0.157-0.138l-6.386,6.386c0.047,0.05,0.082,0.101,0.131,0.149c0.696,0.694,1.573,1.262,2.539,1.731    l5.603-5.604C31.975,25.888,31.408,25.015,30.715,24.322z"/>
	</g>
</g>
</svg>
