<?xml version="1.0" encoding="utf-8"?>
<!-- Generator: Adobe Illustrator 15.0.0, SVG Export Plug-In . SVG Version: 6.00 Build 0)  -->
<!DOCTYPE svg PUBLIC "-//W3C//DTD SVG 1.1//EN" "http://www.w3.org/Graphics/SVG/1.1/DTD/svg11.dtd">
<svg xmlns="http://www.w3.org/2000/svg" xmlns:xlink="http://www.w3.org/1999/xlink" version="1.1" id="Shape_5_2_" x="0px" y="0px" width="40px" height="40px" viewBox="0 0 40 40" enable-background="new 0 0 40 40" xml:space="preserve">
<g>
	<g>
		<path d="M35.491,26.117c-0.737-2.66-2.382-5.984-4.155-7.376c-0.01-0.009-0.02-0.017-0.029-0.025    c-0.045-0.035-0.09-0.083-0.135-0.116c-0.018-0.013-0.028-0.018-0.046-0.029c-1.142-0.93-2.824-1.517-5.128-1.517    c-6.081,0-7.846-0.333-8.462-0.795c-1.898-1.425-2.315-5.362-2.536-5.704c-0.561-0.867-1.317-1.596-2.046-2.16    c1.909-1.905,0.599-5.341-0.476-5.341c-1.106,0-1.989,1.62-2.327,4.163C10.074,7.227,10,7.235,9.919,7.249    C9.728,4.687,9.185,3.053,8.201,3.053c-0.951,0-3.213,3.15-1.4,5.132c-0.118,0.06-0.215,0.116-0.28,0.168    c-0.345,0.272-0.679,0.789-0.968,0.98c-0.481,0.317-1.271,0.64-2.996,0.823C1.57,10.261,1.94,12.403,3,13.06    c0.806,0.5,1.98,0.704,3.318,1.075c-0.203,0.706-0.203,1.49-0.203,1.49c1.525,1.608,1.859,4.284,3.272,6.479    c0.767,2.566,2.636,6.309,2.636,6.309s0.838,3.289,0.838,5.393c0,1.791-1.924,1.663-1.924,3.194c0,0,1.781,0,2.5,0    S15,34.688,15,34.188v-7.906c0-0.016-0.003-0.035-0.004-0.052c0.562,1.25,1.027,2.184,1.027,2.184s0.838,3.289,0.838,5.393    c0,1.791-1.924,1.663-1.924,3.194c0,0,1.781,0,2.5,0S19,34.688,19,34.188v-7.266c2.381-0.188,3.885-0.703,5.146-1.206    c0.119,1.064,0.33,1.981,0.652,2.53c0.699,1.19,2.891,3.347,3.068,5.222c0.04,0.418-0.281,1.698-0.602,1.985    c-0.356,0.32-1.232,0.567-1.232,1.547c0,0,1.686,0,2.467,0c0.305,0,0.609-0.157,0.823-0.77C29.72,35.095,30,33.231,30,33.021    c0-0.737-0.533-1.828-0.863-2.929c1.334,1.246,2.622,2.236,2.73,3.375c0.04,0.418-0.281,1.698-0.602,1.985    c-0.356,0.32-1.232,0.567-1.232,1.547c0,0,1.686,0,2.467,0c0.305,0,0.609-0.157,0.823-0.77C33.72,35.095,34,33.231,34,33.021    c0-1.063-2.12-2.865-2.12-4.365c0-1.188,0.673-3.419,0.974-4.921c0.76,1.832,0.688,4.031,0.999,5.387    c0.377,1.641,1.304,2.992,1.689,2.887C35.999,31.884,36.324,29.122,35.491,26.117z M14.839,18.097    c-0.746,0.605-2.985,2.422-3.67,1.76c-0.683-0.66,0.873-3.138,1.619-3.743C13.535,15.508,15.586,17.492,14.839,18.097z     M21.831,23.856c-0.685,0.662-2.924-1.154-3.67-1.76c-0.747-0.604,1.304-2.589,2.051-1.983    C20.958,20.719,22.514,23.196,21.831,23.856z M29.831,23.856c-0.685,0.662-2.924-1.154-3.67-1.76    c-0.747-0.604,1.304-2.589,2.051-1.983C28.958,20.719,30.514,23.196,29.831,23.856z"/>
	</g>
</g>
</svg>
