<?xml version="1.0" encoding="utf-8"?>
<!-- Generator: Adobe Illustrator 15.0.0, SVG Export Plug-In . SVG Version: 6.00 Build 0)  -->
<!DOCTYPE svg PUBLIC "-//W3C//DTD SVG 1.1//EN" "http://www.w3.org/Graphics/SVG/1.1/DTD/svg11.dtd">
<svg xmlns="http://www.w3.org/2000/svg" xmlns:xlink="http://www.w3.org/1999/xlink" version="1.1" id="Shape_5_2_" x="0px" y="0px" width="40px" height="40px" viewBox="0 0 40 40" enable-background="new 0 0 40 40" xml:space="preserve">
<g>
	<g>
		<path d="M35.26,25.716c-0.591-1.94-1.762-4.2-3.009-5.856c-0.272-0.452-0.621-0.867-1.052-1.23    c-0.01-0.009-0.019-0.021-0.027-0.029c-0.023-0.023-0.046-0.028-0.068-0.048c-1.142-0.919-2.817-1.498-5.105-1.498    c-6.081,0-7.176-0.839-7.751-1.637c-0.218-0.302-0.462-1.359-1.148-2.378c0.512-0.096,0.923-0.251,0.839-0.507    c-0.105-0.317-0.749-1.129-3.116-2.454c-0.996-1.625-1.775-2.792-2.196-3.101c-0.354-0.26-1.024-0.402-1.285-0.629    c-0.435-0.379-0.954-1.326-1.59-2.939c-0.365-0.924-2.231,0.364-2.581,1.56c-0.177,0.604,0.239,1.685,0.541,2.75    C7.115,7.244,6.48,6.746,6.34,6.667C6.223,6.601,5.992,7.397,5.96,7.954c-0.037,0.645,0.884,3.253,1.16,5.519    c-0.412,1.337-0.81,2.571-0.776,3.464c0.116,3.131,2.219,5.916,3.808,7.588c0.233,1.562,0.944,2.864,1.872,3.888    c0.296,0.327,0.838,3.289,0.838,5.393c0,1.791-1.924,1.663-1.924,3.194c0,0,1.781,0,2.5,0S15,34.688,15,34.188v-6.893    c0.076,0.027,0.151,0.055,0.226,0.082c0.24,0.371,0.508,0.717,0.797,1.036c0.297,0.327,0.838,3.289,0.838,5.393    c0,1.791-1.924,1.663-1.924,3.194c0,0,1.781,0,2.5,0S19,34.688,19,34.188v-6.234c1.674-0.078,2.922-0.25,3.947-0.451    c1.573,2.709,4.748,4.148,4.92,5.966c0.04,0.418-0.281,1.698-0.602,1.985c-0.356,0.32-1.232,0.567-1.232,1.547    c0,0,1.686,0,2.467,0c0.305,0,0.609-0.157,0.823-0.77C29.72,35.095,30,33.231,30,33.021c0-1.011-1-1.792-1.101-3.154    c1.415,1.354,2.854,2.395,2.968,3.601c0.04,0.418-0.281,1.698-0.602,1.985c-0.356,0.32-1.232,0.567-1.232,1.547    c0,0,1.686,0,2.467,0c0.305,0,0.609-0.157,0.823-0.77C33.72,35.095,34,33.231,34,33.021c0-0.967-0.916-1.723-1.085-2.978    c1.196,1.257,2.229,1.953,2.627,1.804C35.999,31.677,36.168,28.699,35.26,25.716z"/>
	</g>
</g>
</svg>
