<?xml version="1.0" encoding="utf-8"?>
<!-- Generator: Adobe Illustrator 15.0.0, SVG Export Plug-In . SVG Version: 6.00 Build 0)  -->
<!DOCTYPE svg PUBLIC "-//W3C//DTD SVG 1.1//EN" "http://www.w3.org/Graphics/SVG/1.1/DTD/svg11.dtd">
<svg xmlns="http://www.w3.org/2000/svg" xmlns:xlink="http://www.w3.org/1999/xlink" version="1.1" id="Shape_5_2_" x="0px" y="0px" width="40px" height="40px" viewBox="0 0 40 40" enable-background="new 0 0 40 40" xml:space="preserve">
<g>
	<g>
		<path fill-rule="evenodd" clip-rule="evenodd" d="M26,2c-3.583,0-5.041,0.292-6,2c-0.067,0.121-0.118,0.238-0.161,0.354    C15.607,4.749,9.978,5.36,10.001,5.6c0.028,0.283,3.933,1.157,9.249,2.3C20.073,6.52,20.781,6,24.042,6h6.492    C32.984,3.26,33,2,33,2S27,2,26,2z M19.519,9.332l-0.011-0.02c-0.061,0.199-0.11,0.388-0.195,0.605    c-3.438,1.133-5.401,3.104-6.313,7.792c-0.078,0.401-0.143,0.861-0.199,1.353L11.5,17.999v-0.77c0-2.855-0.699-4.552-1.5-5.229v12    c1.039-0.519,1.37-2.326,1.464-3.391l1.144,0.933c-0.134,2.588-0.102,5.125-0.102,5.125s-1.755,3.208-2.13,3.958S10,32.123,10,33    v4.188c0,0.486,0.297,1.262,0.75,0.521c1.167-1.911,4.465-7.324,4.465-7.324C19.414,27.609,26,22.438,26,11.938    c0.746-1.798,1.99-3.2,3.613-4.938h-5.053C20.978,7,20.478,7.624,19.519,9.332z"/>
	</g>
</g>
</svg>
