<?xml version="1.0" encoding="utf-8"?>
<!-- Generator: Adobe Illustrator 15.0.0, SVG Export Plug-In . SVG Version: 6.00 Build 0)  -->
<!DOCTYPE svg PUBLIC "-//W3C//DTD SVG 1.1//EN" "http://www.w3.org/Graphics/SVG/1.1/DTD/svg11.dtd">
<svg xmlns="http://www.w3.org/2000/svg" xmlns:xlink="http://www.w3.org/1999/xlink" version="1.1" id="Shape_5_2_" x="0px" y="0px" width="40px" height="40px" viewBox="0 0 40 40" enable-background="new 0 0 40 40" xml:space="preserve">
<g>
	<g>
		<path d="M14.152,30h2.152c0.055-0.659,0.122-1.334,0.199-2h-2.438C14.129,28.553,14.155,29.263,14.152,30z M18.773,28    c0.322,0.608,0.625,1.26,0.851,2h2.077c-0.073-0.651-0.157-1.323-0.25-2H18.773z M13.976,33h2.091    c0.052-0.589,0.101-1.274,0.157-2H14.13C14.102,31.737,14.049,32.447,13.976,33z M12.469,36h2.638c0,0,0.713-1.108,0.801-1.621    c0.02-0.114,0.038-0.242,0.056-0.379h-2.245C13.477,34.55,13.02,35.338,12.469,36z M21.962,33c-0.031-0.611-0.086-1.289-0.155-2    h-1.931c0.129,0.631,0.222,1.291,0.232,2H21.962z M29.292,15c-0.382,0-0.735,0.018-1.075,0.046    c-0.047,1.738-0.088,3.004-0.179,4.122c0.502-1.023,1.565-2.506,2.993-3.914C30.475,15.095,29.892,15,29.292,15z M37,21.5    c0-3.883-2.778-5.381-4.746-5.832c-3.782,3.712-5.321,6.853-5.321,6.853s0.059-3.905,0.104-7.327    c-0.613,0.099-1.217,0.222-1.889,0.344C24.777,21.937,24.154,24,24.154,24s-0.315-2.428-0.164-8.276    c-0.558,0.08-1.16,0.152-1.865,0.201C21.753,22.024,21.154,24,21.154,24s-0.309-2.369-0.17-8.068    c-0.179-0.072-0.375-0.159-0.616-0.396c-3.906,4.286-5.972,5.756-5.972,5.756s0.986-1.888,5.247-6.73    c-0.382-0.57-0.748-1.113-1.096-1.622c-3.59,3.919-5.708,5.491-5.708,5.491s1.582-2.604,5.008-6.499    c-0.408-0.579-0.801-1.125-1.173-1.61c-3.694,4.032-5.341,5.095-5.341,5.095s1.335-2.09,4.613-6.005    c-0.633-0.758-1.234-1.383-1.837-1.874c-2.397,4.142-3.751,5.502-3.751,5.502s0.761-2.053,2.822-6.147    c-1.026-0.608-2.112-0.889-3.429-0.889c-0.065,0-0.116,0.009-0.179,0.01C9.355,5.466,9.174,5.003,9.074,4.75    C8.619,3.59,7.923,3.74,8.193,6.144C8.012,6.175,7.822,6.202,7.66,6.242C7.39,5.553,7.137,4.91,7.001,4.563    C6.557,3.43,5.541,4.021,6.127,6.848C5.485,7.224,5.208,7.583,5.208,7.583l1.03,1.43c-0.917,1.027-2.308,2.962-3.365,4.576    c-0.468,0.714-0.679,1.237-0.83,1.879c-0.384,1.635,0.81,2.485,1.81,2.485s1.738-0.985,1.738-0.985L9.768,15.5l2.193,5.125    c0,0-0.214,1.419-0.09,2.512c0.076,0.666,0.952,1.477,1.629,2.014c0.138,0.637,0.271,1.268,0.375,1.787l2.723,0.325    c0.091-0.665,0.195-1.313,0.328-1.898c0.424,0.453,0.898,1.051,1.351,1.756l2.981-0.443c-0.038-0.256-0.073-0.513-0.113-0.767    c1.709,0.108,3.757-0.069,6.366-0.927c0.557,0.83,1.206,1.561,1.761,2.352l3.36-0.493c0.007-0.326,0.063-0.684,0.21-1.092    c0.083-0.231,0.255-0.531,0.465-0.892c-2.215,0.689-4.118,0.845-4.118,0.845s1.335-0.965,4.934-2.355    c0.448-0.938,0.84-2.063,0.84-3.348c0-0.37-0.042-0.725-0.12-1.063c-4.293,3.629-6.592,4.712-6.592,4.712s1.295-1.859,6.107-5.892    C35.345,18.609,36,19.841,36,21.329c0,0.886-0.52,2.731-0.52,3.513c0,2,1.52,3.273,1.52,3.273C37.002,28.091,37,24.648,37,21.5z     M8.38,12.897C7.933,13.672,4,15,4,15s1.344-1.062,3.431-2.641c0.879-2.088,1.861-4.363,1.861-4.363S8.827,12.123,8.38,12.897z     M16.877,25.313l-0.97-0.708c1.873-2.948,3.301-4.479,3.301-4.479S18.763,22.182,16.877,25.313z M34.674,24.217    c-0.368,0.656-0.704,1.176-0.833,1.533c-0.614,1.708,0.293,2.555,0.256,3.684c-0.007,0.206-0.114,0.52-0.357,1.032    c-0.067,0.829-0.412,1.984-0.835,3.225C32.73,34.199,32.043,36,32.043,36h2.222c0,0,0.274-1.186,0.511-2.208    c0.257-1.107,1.176-3.749,1.186-4.054C35.995,28.707,34.471,27.167,34.674,24.217z M30.385,30h2.56    c0.097-0.247,0.148-0.432,0.152-0.566c0.017-0.499-0.15-0.946-0.29-1.434h-3.111c0.294,0.505,0.54,1.045,0.682,1.664    C30.397,29.752,30.396,29.87,30.385,30z M32.474,31h-2.321c-0.19,0.573-0.485,1.262-0.857,2h2.146    c0.279-0.552,0.573-1.122,0.857-1.658C32.367,31.211,32.414,31.114,32.474,31z M20.086,34c-0.063,0.442-0.373,1.134-0.898,2h2.375    c0,0,0.438-1.313,0.438-1.813c0-0.059-0.003-0.127-0.004-0.188H20.086z M27.504,36h2.457c0,0,0.416-0.869,0.978-2h-2.178    C28.44,34.554,27.504,36,27.504,36z"/>
	</g>
</g>
</svg>
